<svg width="75" height="41" viewBox="0 0 75 41" fill="none" xmlns="http://www.w3.org/2000/svg">
<g filter="url(#filter0_d_82_292)">
<rect x="4.5" y="0.5" width="62.3431" height="32" rx="7.5" fill="#D5682F" stroke="#3E1614"/>
<rect x="6.25" y="4.25" width="56.5" height="24.5" rx="5.75" fill="#A04423" stroke="#3E1614" stroke-width="0.5"/>
<mask id="path-3-outside-1_82_292" maskUnits="userSpaceOnUse" x="27" y="11" width="23" height="11" fill="black">
<rect fill="white" x="27" y="11" width="23" height="11"/>
<path d="M29.872 12.18L31.696 12.192H32.824C33.016 12.192 33.156 12.2 33.244 12.216C33.332 12.224 33.436 12.26 33.556 12.324C33.772 12.436 33.88 12.756 33.88 13.284C33.88 13.764 33.78 14.056 33.58 14.16C33.468 14.224 33.368 14.264 33.28 14.28C33.2 14.288 33.072 14.292 32.896 14.292H30.796C30.78 14.388 30.74 14.692 30.676 15.204C30.764 15.188 30.904 15.18 31.096 15.18C31.856 15.18 32.54 15.468 33.148 16.044C33.756 16.612 34.06 17.312 34.06 18.144C34.06 18.968 33.772 19.68 33.196 20.28C32.62 20.872 31.904 21.168 31.048 21.168C30.304 21.168 29.632 20.98 29.032 20.604C28.896 20.516 28.796 20.44 28.732 20.376L28.636 20.292C28.332 20.028 28.18 19.788 28.18 19.572C28.18 19.356 28.328 19.096 28.624 18.792C28.864 18.528 29.096 18.396 29.32 18.396C29.544 18.396 29.812 18.524 30.124 18.78C30.268 18.948 30.516 19.032 30.868 19.032C31.228 19.032 31.492 18.956 31.66 18.804C31.836 18.652 31.924 18.444 31.924 18.18C31.924 17.908 31.828 17.696 31.636 17.544C31.452 17.384 31.24 17.304 31 17.304C30.76 17.304 30.568 17.376 30.424 17.52C30.208 17.704 29.988 17.796 29.764 17.796C29.548 17.796 29.296 17.72 29.008 17.568C28.728 17.416 28.544 17.296 28.456 17.208C28.368 17.112 28.324 17.012 28.324 16.908C28.324 16.804 28.404 16.16 28.564 14.976C28.724 13.792 28.808 13.176 28.816 13.128C28.824 13.08 28.852 12.996 28.9 12.876C28.948 12.756 29.004 12.648 29.068 12.552C29.14 12.456 29.244 12.372 29.38 12.3C29.524 12.22 29.688 12.18 29.872 12.18ZM35.5753 13.224C35.8073 12.896 36.1313 12.624 36.5473 12.408C36.9713 12.184 37.4593 12.072 38.0113 12.072C38.5633 12.072 39.0433 12.18 39.4513 12.396C39.8673 12.612 40.1913 12.88 40.4233 13.2C40.6633 13.52 40.8553 13.896 40.9993 14.328C41.2393 15.048 41.3593 15.812 41.3593 16.62C41.3593 18.068 41.0473 19.216 40.4233 20.064C40.1913 20.384 39.8673 20.648 39.4513 20.856C39.0433 21.064 38.5673 21.168 38.0233 21.168C37.4793 21.168 36.9953 21.064 36.5713 20.856C36.1553 20.64 35.8273 20.376 35.5873 20.064C35.3553 19.752 35.1633 19.38 35.0113 18.948C34.7793 18.26 34.6633 17.48 34.6633 16.608C34.6633 15.808 34.7553 15.124 34.9393 14.556C35.1313 13.988 35.3433 13.544 35.5753 13.224ZM37.9993 19.032C38.8233 19.032 39.2353 18.248 39.2353 16.68V16.608C39.2353 15 38.8273 14.196 38.0113 14.196C37.1953 14.196 36.7873 15.004 36.7873 16.62C36.7873 18.228 37.1913 19.032 37.9993 19.032ZM42.8761 13.224C43.1081 12.896 43.4321 12.624 43.8481 12.408C44.2721 12.184 44.7601 12.072 45.3121 12.072C45.8641 12.072 46.3441 12.18 46.7521 12.396C47.1681 12.612 47.4921 12.88 47.7241 13.2C47.9641 13.52 48.1561 13.896 48.3001 14.328C48.5401 15.048 48.6601 15.812 48.6601 16.62C48.6601 18.068 48.3481 19.216 47.7241 20.064C47.4921 20.384 47.1681 20.648 46.7521 20.856C46.3441 21.064 45.8681 21.168 45.3241 21.168C44.7801 21.168 44.2961 21.064 43.8721 20.856C43.4561 20.64 43.1281 20.376 42.8881 20.064C42.6561 19.752 42.4641 19.38 42.3121 18.948C42.0801 18.26 41.9641 17.48 41.9641 16.608C41.9641 15.808 42.0561 15.124 42.2401 14.556C42.4321 13.988 42.6441 13.544 42.8761 13.224ZM45.3001 19.032C46.1241 19.032 46.5361 18.248 46.5361 16.68V16.608C46.5361 15 46.1281 14.196 45.3121 14.196C44.4961 14.196 44.0881 15.004 44.0881 16.62C44.0881 18.228 44.4921 19.032 45.3001 19.032Z"/>
</mask>
<path d="M29.872 12.18L31.696 12.192H32.824C33.016 12.192 33.156 12.2 33.244 12.216C33.332 12.224 33.436 12.26 33.556 12.324C33.772 12.436 33.88 12.756 33.88 13.284C33.88 13.764 33.78 14.056 33.58 14.16C33.468 14.224 33.368 14.264 33.28 14.28C33.2 14.288 33.072 14.292 32.896 14.292H30.796C30.78 14.388 30.74 14.692 30.676 15.204C30.764 15.188 30.904 15.18 31.096 15.18C31.856 15.18 32.54 15.468 33.148 16.044C33.756 16.612 34.06 17.312 34.06 18.144C34.06 18.968 33.772 19.68 33.196 20.28C32.62 20.872 31.904 21.168 31.048 21.168C30.304 21.168 29.632 20.98 29.032 20.604C28.896 20.516 28.796 20.44 28.732 20.376L28.636 20.292C28.332 20.028 28.18 19.788 28.18 19.572C28.18 19.356 28.328 19.096 28.624 18.792C28.864 18.528 29.096 18.396 29.32 18.396C29.544 18.396 29.812 18.524 30.124 18.78C30.268 18.948 30.516 19.032 30.868 19.032C31.228 19.032 31.492 18.956 31.66 18.804C31.836 18.652 31.924 18.444 31.924 18.18C31.924 17.908 31.828 17.696 31.636 17.544C31.452 17.384 31.24 17.304 31 17.304C30.76 17.304 30.568 17.376 30.424 17.52C30.208 17.704 29.988 17.796 29.764 17.796C29.548 17.796 29.296 17.72 29.008 17.568C28.728 17.416 28.544 17.296 28.456 17.208C28.368 17.112 28.324 17.012 28.324 16.908C28.324 16.804 28.404 16.16 28.564 14.976C28.724 13.792 28.808 13.176 28.816 13.128C28.824 13.08 28.852 12.996 28.9 12.876C28.948 12.756 29.004 12.648 29.068 12.552C29.14 12.456 29.244 12.372 29.38 12.3C29.524 12.22 29.688 12.18 29.872 12.18ZM35.5753 13.224C35.8073 12.896 36.1313 12.624 36.5473 12.408C36.9713 12.184 37.4593 12.072 38.0113 12.072C38.5633 12.072 39.0433 12.18 39.4513 12.396C39.8673 12.612 40.1913 12.88 40.4233 13.2C40.6633 13.52 40.8553 13.896 40.9993 14.328C41.2393 15.048 41.3593 15.812 41.3593 16.62C41.3593 18.068 41.0473 19.216 40.4233 20.064C40.1913 20.384 39.8673 20.648 39.4513 20.856C39.0433 21.064 38.5673 21.168 38.0233 21.168C37.4793 21.168 36.9953 21.064 36.5713 20.856C36.1553 20.64 35.8273 20.376 35.5873 20.064C35.3553 19.752 35.1633 19.38 35.0113 18.948C34.7793 18.26 34.6633 17.48 34.6633 16.608C34.6633 15.808 34.7553 15.124 34.9393 14.556C35.1313 13.988 35.3433 13.544 35.5753 13.224ZM37.9993 19.032C38.8233 19.032 39.2353 18.248 39.2353 16.68V16.608C39.2353 15 38.8273 14.196 38.0113 14.196C37.1953 14.196 36.7873 15.004 36.7873 16.62C36.7873 18.228 37.1913 19.032 37.9993 19.032ZM42.8761 13.224C43.1081 12.896 43.4321 12.624 43.8481 12.408C44.2721 12.184 44.7601 12.072 45.3121 12.072C45.8641 12.072 46.3441 12.18 46.7521 12.396C47.1681 12.612 47.4921 12.88 47.7241 13.2C47.9641 13.52 48.1561 13.896 48.3001 14.328C48.5401 15.048 48.6601 15.812 48.6601 16.62C48.6601 18.068 48.3481 19.216 47.7241 20.064C47.4921 20.384 47.1681 20.648 46.7521 20.856C46.3441 21.064 45.8681 21.168 45.3241 21.168C44.7801 21.168 44.2961 21.064 43.8721 20.856C43.4561 20.64 43.1281 20.376 42.8881 20.064C42.6561 19.752 42.4641 19.38 42.3121 18.948C42.0801 18.26 41.9641 17.48 41.9641 16.608C41.9641 15.808 42.0561 15.124 42.2401 14.556C42.4321 13.988 42.6441 13.544 42.8761 13.224ZM45.3001 19.032C46.1241 19.032 46.5361 18.248 46.5361 16.68V16.608C46.5361 15 46.1281 14.196 45.3121 14.196C44.4961 14.196 44.0881 15.004 44.0881 16.62C44.0881 18.228 44.4921 19.032 45.3001 19.032Z" fill="white"/>
<path d="M29.872 12.18L29.8753 11.68H29.872V12.18ZM31.696 12.192L31.6927 12.692H31.696V12.192ZM33.244 12.216L33.1546 12.7079L33.1765 12.7119L33.1987 12.7139L33.244 12.216ZM33.556 12.324L33.3207 12.7652L33.3258 12.7679L33.556 12.324ZM33.58 14.16L33.3493 13.7164L33.3405 13.721L33.3319 13.7259L33.58 14.16ZM33.28 14.28L33.3298 14.7775L33.3497 14.7755L33.3694 14.7719L33.28 14.28ZM30.796 14.292V13.792H30.3724L30.3028 14.2098L30.796 14.292ZM30.676 15.204L30.1799 15.142L30.0954 15.8178L30.7654 15.6959L30.676 15.204ZM33.148 16.044L32.8041 16.407L32.8067 16.4094L33.148 16.044ZM33.196 20.28L33.5544 20.6287L33.5567 20.6263L33.196 20.28ZM29.032 20.604L28.7603 21.0238L28.7665 21.0277L29.032 20.604ZM28.732 20.376L29.0856 20.0224L29.0738 20.0107L29.0613 19.9997L28.732 20.376ZM28.636 20.292L28.9653 19.9157L28.9638 19.9145L28.636 20.292ZM28.624 18.792L28.9822 19.1408L28.9882 19.1347L28.994 19.1283L28.624 18.792ZM30.124 18.78L30.5036 18.4546L30.4751 18.4213L30.4412 18.3935L30.124 18.78ZM31.66 18.804L31.3331 18.4255L31.3245 18.4332L31.66 18.804ZM31.636 17.544L31.3079 17.9213L31.3166 17.9289L31.3256 17.936L31.636 17.544ZM30.424 17.52L30.7482 17.9006L30.7634 17.8877L30.7776 17.8736L30.424 17.52ZM29.008 17.568L28.7694 18.0075L28.7746 18.0102L29.008 17.568ZM28.456 17.208L28.0874 17.5459L28.0948 17.5539L28.1024 17.5616L28.456 17.208ZM28.564 14.976L28.0685 14.909L28.564 14.976ZM28.816 13.128L29.3092 13.2102H29.3092L28.816 13.128ZM29.068 12.552L28.668 12.252L28.6597 12.2631L28.652 12.2746L29.068 12.552ZM29.38 12.3L29.614 12.742L29.6228 12.7371L29.38 12.3ZM29.872 12.18L29.8687 12.68L31.6927 12.692L31.696 12.192L31.6993 11.692L29.8753 11.68L29.872 12.18ZM31.696 12.192V12.692H32.824V12.192V11.692H31.696V12.192ZM32.824 12.192V12.692C33.012 12.692 33.1138 12.7005 33.1546 12.7079L33.244 12.216L33.3334 11.7241C33.1982 11.6995 33.02 11.692 32.824 11.692V12.192ZM33.244 12.216L33.1987 12.7139C33.194 12.7135 33.2018 12.7136 33.2244 12.7215C33.2468 12.7292 33.2786 12.7427 33.3207 12.7652L33.556 12.324L33.7913 11.8828C33.6409 11.8026 33.4698 11.7345 33.2893 11.7181L33.244 12.216ZM33.556 12.324L33.3258 12.7679C33.2806 12.7444 33.2964 12.7223 33.3253 12.8079C33.3549 12.8958 33.38 13.0473 33.38 13.284H33.88H34.38C34.38 12.9927 34.3511 12.7202 34.2727 12.4881C34.1936 12.2537 34.0474 12.0156 33.7862 11.8801L33.556 12.324ZM33.88 13.284H33.38C33.38 13.496 33.3571 13.6278 33.332 13.701C33.308 13.7711 33.2988 13.7427 33.3493 13.7164L33.58 14.16L33.8107 14.6036C34.0612 14.4733 34.202 14.2469 34.278 14.025C34.3529 13.8062 34.38 13.552 34.38 13.284H33.88ZM33.58 14.16L33.3319 13.7259C33.2493 13.7731 33.204 13.7856 33.1906 13.7881L33.28 14.28L33.3694 14.7719C33.532 14.7424 33.6867 14.6749 33.8281 14.5941L33.58 14.16ZM33.28 14.28L33.2302 13.7825C33.1768 13.7878 33.0701 13.792 32.896 13.792V14.292V14.792C33.0739 14.792 33.2232 14.7882 33.3298 14.7775L33.28 14.28ZM32.896 14.292V13.792H30.796V14.292V14.792H32.896V14.292ZM30.796 14.292L30.3028 14.2098C30.2847 14.3185 30.2432 14.6356 30.1799 15.142L30.676 15.204L31.1721 15.266C31.2368 14.7484 31.2753 14.4575 31.2892 14.3742L30.796 14.292ZM30.676 15.204L30.7654 15.6959C30.8062 15.6885 30.908 15.68 31.096 15.68V15.18V14.68C30.9 14.68 30.7218 14.6875 30.5866 14.7121L30.676 15.204ZM31.096 15.18V15.68C31.7145 15.68 32.2787 15.9092 32.8041 16.407L33.148 16.044L33.4919 15.681C32.8013 15.0268 31.9975 14.68 31.096 14.68V15.18ZM33.148 16.044L32.8067 16.4094C33.3135 16.8828 33.56 17.4505 33.56 18.144H34.06H34.56C34.56 17.1735 34.1985 16.3412 33.4893 15.6786L33.148 16.044ZM34.06 18.144H33.56C33.56 18.8376 33.3229 19.4259 32.8353 19.9337L33.196 20.28L33.5567 20.6263C34.2211 19.9341 34.56 19.0984 34.56 18.144H34.06ZM33.196 20.28L32.8376 19.9313C32.3595 20.4227 31.7745 20.668 31.048 20.668V21.168V21.668C32.0335 21.668 32.8805 21.3213 33.5544 20.6287L33.196 20.28ZM31.048 21.168V20.668C30.3929 20.668 29.8138 20.5039 29.2975 20.1803L29.032 20.604L28.7665 21.0277C29.4502 21.4561 30.2151 21.668 31.048 21.668V21.168ZM29.032 20.604L29.3036 20.1842C29.1779 20.1029 29.1125 20.0493 29.0856 20.0224L28.732 20.376L28.3784 20.7296C28.4795 20.8307 28.6141 20.9291 28.7604 21.0238L29.032 20.604ZM28.732 20.376L29.0613 19.9997L28.9653 19.9157L28.636 20.292L28.3067 20.6683L28.4027 20.7523L28.732 20.376ZM28.636 20.292L28.9638 19.9145C28.8346 19.8022 28.7581 19.7122 28.7164 19.6465C28.6754 19.5818 28.68 19.5598 28.68 19.572H28.18H27.68C27.68 20.0177 27.9815 20.3859 28.3082 20.6695L28.636 20.292ZM28.18 19.572H28.68C28.68 19.5778 28.6787 19.5446 28.7255 19.4623C28.7718 19.3811 28.8526 19.2739 28.9822 19.1408L28.624 18.792L28.2658 18.4432C27.9553 18.762 27.68 19.1467 27.68 19.572H28.18ZM28.624 18.792L28.994 19.1283C29.1942 18.9081 29.3019 18.896 29.32 18.896V18.396V17.896C28.8901 17.896 28.5338 18.1479 28.254 18.4557L28.624 18.792ZM29.32 18.396V18.896C29.3665 18.896 29.5206 18.9316 29.8068 19.1665L30.124 18.78L30.4412 18.3935C30.1034 18.1164 29.7215 17.896 29.32 17.896V18.396ZM30.124 18.78L29.7444 19.1054C30.0275 19.4357 30.4553 19.532 30.868 19.532V19.032V18.532C30.5767 18.532 30.5085 18.4603 30.5036 18.4546L30.124 18.78ZM30.868 19.032V19.532C31.2825 19.532 31.6945 19.447 31.9955 19.1748L31.66 18.804L31.3245 18.4332C31.2895 18.465 31.1735 18.532 30.868 18.532V19.032ZM31.66 18.804L31.9868 19.1824C32.2884 18.922 32.424 18.5674 32.424 18.18H31.924H31.424C31.424 18.3206 31.3836 18.382 31.3332 18.4256L31.66 18.804ZM31.924 18.18H32.424C32.424 17.7745 32.2725 17.4102 31.9464 17.152L31.636 17.544L31.3256 17.936C31.3835 17.9818 31.424 18.0415 31.424 18.18H31.924ZM31.636 17.544L31.9641 17.1667C31.6907 16.929 31.3627 16.804 31 16.804V17.304V17.804C31.1173 17.804 31.2133 17.839 31.3079 17.9213L31.636 17.544ZM31 17.304V16.804C30.6529 16.804 30.3248 16.9121 30.0704 17.1664L30.424 17.52L30.7776 17.8736C30.8112 17.8399 30.8671 17.804 31 17.804V17.304ZM30.424 17.52L30.0998 17.1394C29.9494 17.2674 29.8402 17.296 29.764 17.296V17.796V18.296C30.1358 18.296 30.4666 18.1406 30.7482 17.9006L30.424 17.52ZM29.764 17.796V17.296C29.6603 17.296 29.4909 17.2575 29.2414 17.1258L29.008 17.568L28.7746 18.0102C29.1011 18.1825 29.4357 18.296 29.764 18.296V17.796ZM29.008 17.568L29.2465 17.1286C28.963 16.9747 28.8399 16.8848 28.8096 16.8544L28.456 17.208L28.1024 17.5616C28.2481 17.7072 28.493 17.8573 28.7695 18.0074L29.008 17.568ZM28.456 17.208L28.8246 16.8701C28.8106 16.8549 28.8109 16.851 28.8147 16.8596C28.8166 16.864 28.8191 16.8709 28.821 16.8798C28.823 16.8889 28.824 16.8984 28.824 16.908H28.324H27.824C27.824 17.1665 27.9371 17.3819 28.0874 17.5459L28.456 17.208ZM28.324 16.908H28.824C28.824 16.9142 28.8253 16.8835 28.8362 16.7819C28.8457 16.6926 28.8603 16.5685 28.8802 16.4086C28.9199 16.0893 28.9796 15.6344 29.0595 15.043L28.564 14.976L28.0685 14.909C27.9884 15.5016 27.9281 15.9607 27.8878 16.2854C27.8503 16.5874 27.824 16.8163 27.824 16.908H28.324ZM28.564 14.976L29.0595 15.043C29.1395 14.451 29.2005 14.0013 29.2424 13.6936C29.2634 13.5397 29.2796 13.4216 29.291 13.3391C29.2967 13.2978 29.3012 13.2659 29.3045 13.243C29.3081 13.2171 29.3094 13.209 29.3092 13.2102L28.816 13.128L28.3228 13.0458C28.3131 13.1039 28.2273 13.7337 28.0685 14.909L28.564 14.976ZM28.816 13.128L29.3092 13.2102C29.3076 13.22 29.3064 13.223 29.3081 13.2168C29.3096 13.2114 29.3125 13.2017 29.3173 13.1871C29.3272 13.1576 29.3424 13.1163 29.3642 13.0617L28.9 12.876L28.4358 12.6903C28.3894 12.8063 28.3409 12.9373 28.3228 13.0458L28.816 13.128ZM28.9 12.876L29.3642 13.0617C29.4009 12.9701 29.4414 12.8934 29.484 12.8293L29.068 12.552L28.652 12.2746C28.5666 12.4026 28.4951 12.5419 28.4358 12.6903L28.9 12.876ZM29.068 12.552L29.468 12.852C29.4851 12.8292 29.5253 12.7888 29.6139 12.7419L29.38 12.3L29.1461 11.8581C28.9627 11.9552 28.7949 12.0828 28.668 12.252L29.068 12.552ZM29.38 12.3L29.6228 12.7371C29.6842 12.703 29.7628 12.68 29.872 12.68V12.18V11.68C29.6132 11.68 29.3638 11.737 29.1372 11.8629L29.38 12.3ZM35.5753 13.224L35.9801 13.5175L35.9835 13.5127L35.5753 13.224ZM36.5473 12.408L36.7777 12.8518L36.7808 12.8501L36.5473 12.408ZM39.4513 12.396L39.2173 12.8379L39.2209 12.8397L39.4513 12.396ZM40.4233 13.2L40.0184 13.4935L40.0233 13.5L40.4233 13.2ZM40.9993 14.328L41.4736 14.1699V14.1699L40.9993 14.328ZM40.4233 20.064L40.0206 19.7677L40.0185 19.7705L40.4233 20.064ZM39.4513 20.856L39.2277 20.4088L39.2242 20.4105L39.4513 20.856ZM36.5713 20.856L36.3408 21.2999L36.3511 21.3049L36.5713 20.856ZM35.5873 20.064L35.186 20.3624L35.191 20.3689L35.5873 20.064ZM35.0113 18.948L34.5375 19.1078L34.5396 19.114L35.0113 18.948ZM34.9393 14.556L34.4656 14.3959L34.4636 14.4019L34.9393 14.556ZM35.5753 13.224L35.9835 13.5127C36.1623 13.2599 36.4207 13.0371 36.7777 12.8517L36.5473 12.408L36.3169 11.9643C35.8419 12.2109 35.4522 12.5321 35.1671 12.9353L35.5753 13.224ZM36.5473 12.408L36.7808 12.8501C37.1227 12.6695 37.5283 12.572 38.0113 12.572V12.072V11.572C37.3903 11.572 36.8199 11.6985 36.3137 11.9659L36.5473 12.408ZM38.0113 12.072V12.572C38.4976 12.572 38.8943 12.6668 39.2173 12.8379L39.4513 12.396L39.6852 11.9541C39.1923 11.6932 38.629 11.572 38.0113 11.572V12.072ZM39.4513 12.396L39.2209 12.8397C39.5806 13.0265 39.8399 13.2471 40.0185 13.4935L40.4233 13.2L40.8281 12.9065C40.5427 12.5129 40.154 12.1975 39.6817 11.9523L39.4513 12.396ZM40.4233 13.2L40.0233 13.5C40.2269 13.7715 40.3956 14.0981 40.5249 14.4861L40.9993 14.328L41.4736 14.1699C41.3149 13.6938 41.0996 13.2685 40.8233 12.9L40.4233 13.2ZM40.9993 14.328L40.5249 14.4861C40.7469 15.1519 40.8593 15.8623 40.8593 16.62H41.3593H41.8593C41.8593 15.7617 41.7317 14.9441 41.4736 14.1699L40.9993 14.328ZM41.3593 16.62H40.8593C40.8593 18.0006 40.5615 19.0325 40.0206 19.7677L40.4233 20.064L40.826 20.3603C41.533 19.3995 41.8593 18.1354 41.8593 16.62H41.3593ZM40.4233 20.064L40.0185 19.7705C39.8413 20.0149 39.5845 20.2304 39.2277 20.4088L39.4513 20.856L39.6749 21.3032C40.1501 21.0656 40.5412 20.7531 40.8281 20.3575L40.4233 20.064ZM39.4513 20.856L39.2242 20.4105C38.8986 20.5765 38.5031 20.668 38.0233 20.668V21.168V21.668C38.6315 21.668 39.188 21.5515 39.6784 21.3015L39.4513 20.856ZM38.0233 21.168V20.668C37.544 20.668 37.1372 20.5767 36.7915 20.4071L36.5713 20.856L36.3511 21.3049C36.8533 21.5513 37.4145 21.668 38.0233 21.668V21.168ZM36.5713 20.856L36.8017 20.4123C36.4383 20.2235 36.1714 20.0033 35.9836 19.7591L35.5873 20.064L35.191 20.3689C35.4832 20.7487 35.8723 21.0565 36.3409 21.2997L36.5713 20.856ZM35.5873 20.064L35.9885 19.7656C35.7913 19.5004 35.6211 19.1748 35.4829 18.782L35.0113 18.948L34.5396 19.114C34.7054 19.5852 34.9193 20.0036 35.186 20.3624L35.5873 20.064ZM35.0113 18.948L35.4851 18.7882C35.2735 18.1609 35.1633 17.4363 35.1633 16.608H34.6633H34.1633C34.1633 17.5237 34.285 18.3591 34.5375 19.1078L35.0113 18.948ZM34.6633 16.608H35.1633C35.1633 15.8437 35.2515 15.2147 35.4149 14.7101L34.9393 14.556L34.4636 14.4019C34.2591 15.0333 34.1633 15.7723 34.1633 16.608H34.6633ZM34.9393 14.556L35.413 14.7161C35.5963 14.1738 35.7887 13.7815 35.9801 13.5175L35.5753 13.224L35.1705 12.9305C34.8979 13.3065 34.6663 13.8022 34.4656 14.3959L34.9393 14.556ZM37.9993 19.032V19.532C38.2878 19.532 38.5635 19.4622 38.8078 19.3072C39.0503 19.1535 39.2337 18.9338 39.3689 18.6766C39.6314 18.177 39.7353 17.4915 39.7353 16.68H39.2353H38.7353C38.7353 17.4365 38.6331 17.927 38.4837 18.2114C38.4128 18.3462 38.3388 18.4205 38.2722 18.4628C38.2076 18.5038 38.1227 18.532 37.9993 18.532V19.032ZM39.2353 16.68H39.7353V16.608H39.2353H38.7353V16.68H39.2353ZM39.2353 16.608H39.7353C39.7353 15.7779 39.6326 15.0801 39.3752 14.5727C39.2428 14.3118 39.0622 14.0871 38.8213 13.9288C38.5776 13.7688 38.3013 13.696 38.0113 13.696V14.196V14.696C38.1293 14.696 38.21 14.7237 38.2723 14.7647C38.3374 14.8074 38.4118 14.8842 38.4834 15.0253C38.6339 15.3219 38.7353 15.8301 38.7353 16.608H39.2353ZM38.0113 14.196V13.696C37.7208 13.696 37.4441 13.7693 37.2003 13.9302C36.9594 14.0893 36.7791 14.3149 36.647 14.5766C36.3899 15.0857 36.2873 15.7861 36.2873 16.62H36.7873H37.2873C37.2873 15.8379 37.3887 15.3263 37.5396 15.0274C37.6115 14.8851 37.6861 14.8077 37.7512 14.7648C37.8134 14.7237 37.8938 14.696 38.0113 14.696V14.196ZM36.7873 16.62H36.2873C36.2873 17.4497 36.3889 18.1467 36.6435 18.6535C36.7744 18.914 36.9532 19.1391 37.1926 19.2979C37.435 19.4587 37.7103 19.532 37.9993 19.532V19.032V18.532C37.8843 18.532 37.806 18.5048 37.7454 18.4646C37.6818 18.4224 37.6081 18.346 37.537 18.2045C37.3877 17.9073 37.2873 17.3983 37.2873 16.62H36.7873ZM42.8761 13.224L43.2809 13.5175L43.2843 13.5127L42.8761 13.224ZM43.8481 12.408L44.0785 12.8518L44.0816 12.8501L43.8481 12.408ZM46.7521 12.396L46.5181 12.8379L46.5217 12.8397L46.7521 12.396ZM47.7241 13.2L47.3192 13.4935L47.3241 13.5L47.7241 13.2ZM48.3001 14.328L48.7744 14.1699V14.1699L48.3001 14.328ZM47.7241 20.064L47.3213 19.7677L47.3193 19.7705L47.7241 20.064ZM46.7521 20.856L46.5285 20.4088L46.525 20.4105L46.7521 20.856ZM43.8721 20.856L43.6416 21.2999L43.6518 21.3049L43.8721 20.856ZM42.8881 20.064L42.4868 20.3624L42.4918 20.3689L42.8881 20.064ZM42.3121 18.948L41.8382 19.1078L41.8404 19.114L42.3121 18.948ZM42.2401 14.556L41.7664 14.3959L41.7644 14.4019L42.2401 14.556ZM42.8761 13.224L43.2843 13.5127C43.4631 13.2599 43.7214 13.0371 44.0785 12.8517L43.8481 12.408L43.6177 11.9643C43.1427 12.2109 42.753 12.5321 42.4679 12.9353L42.8761 13.224ZM43.8481 12.408L44.0816 12.8501C44.4234 12.6695 44.8291 12.572 45.3121 12.572V12.072V11.572C44.691 11.572 44.1207 11.6985 43.6145 11.9659L43.8481 12.408ZM45.3121 12.072V12.572C45.7984 12.572 46.195 12.6668 46.5181 12.8379L46.7521 12.396L46.986 11.9541C46.4931 11.6932 45.9297 11.572 45.3121 11.572V12.072ZM46.7521 12.396L46.5217 12.8397C46.8814 13.0265 47.1407 13.2471 47.3193 13.4935L47.7241 13.2L48.1289 12.9065C47.8435 12.5129 47.4548 12.1975 46.9825 11.9523L46.7521 12.396ZM47.7241 13.2L47.3241 13.5C47.5277 13.7715 47.6964 14.0981 47.8257 14.4861L48.3001 14.328L48.7744 14.1699C48.6157 13.6938 48.4004 13.2685 48.1241 12.9L47.7241 13.2ZM48.3001 14.328L47.8257 14.4861C48.0477 15.1519 48.1601 15.8623 48.1601 16.62H48.6601H49.1601C49.1601 15.7617 49.0325 14.9441 48.7744 14.1699L48.3001 14.328ZM48.6601 16.62H48.1601C48.1601 18.0006 47.8623 19.0325 47.3213 19.7677L47.7241 20.064L48.1268 20.3603C48.8338 19.3995 49.1601 18.1354 49.1601 16.62H48.6601ZM47.7241 20.064L47.3193 19.7705C47.1421 20.0149 46.8853 20.2304 46.5285 20.4088L46.7521 20.856L46.9757 21.3032C47.4509 21.0656 47.842 20.7531 48.1289 20.3575L47.7241 20.064ZM46.7521 20.856L46.525 20.4105C46.1994 20.5765 45.8039 20.668 45.3241 20.668V21.168V21.668C45.9323 21.668 46.4888 21.5515 46.9792 21.3015L46.7521 20.856ZM45.3241 21.168V20.668C44.8448 20.668 44.438 20.5767 44.0923 20.4071L43.8721 20.856L43.6518 21.3049C44.1541 21.5513 44.7153 21.668 45.3241 21.668V21.168ZM43.8721 20.856L44.1025 20.4123C43.739 20.2235 43.4722 20.0033 43.2844 19.7591L42.8881 20.064L42.4918 20.3689C42.7839 20.7487 43.1731 21.0565 43.6417 21.2997L43.8721 20.856ZM42.8881 20.064L43.2893 19.7656C43.0921 19.5004 42.9219 19.1748 42.7837 18.782L42.3121 18.948L41.8404 19.114C42.0062 19.5852 42.2201 20.0036 42.4868 20.3624L42.8881 20.064ZM42.3121 18.948L42.7859 18.7882C42.5743 18.1609 42.4641 17.4363 42.4641 16.608H41.9641H41.4641C41.4641 17.5237 41.5858 18.3591 41.8383 19.1078L42.3121 18.948ZM41.9641 16.608H42.4641C42.4641 15.8437 42.5523 15.2147 42.7157 14.7101L42.2401 14.556L41.7644 14.4019C41.5598 15.0333 41.4641 15.7723 41.4641 16.608H41.9641ZM42.2401 14.556L42.7137 14.7161C42.897 14.1738 43.0895 13.7815 43.2809 13.5175L42.8761 13.224L42.4713 12.9305C42.1987 13.3065 41.9671 13.8022 41.7664 14.3959L42.2401 14.556ZM45.3001 19.032V19.532C45.5886 19.532 45.8643 19.4622 46.1086 19.3072C46.3511 19.1535 46.5345 18.9338 46.6697 18.6766C46.9322 18.177 47.0361 17.4915 47.0361 16.68H46.5361H46.0361C46.0361 17.4365 45.9339 17.927 45.7845 18.2114C45.7136 18.3462 45.6396 18.4205 45.573 18.4628C45.5084 18.5038 45.4235 18.532 45.3001 18.532V19.032ZM46.5361 16.68H47.0361V16.608H46.5361H46.0361V16.68H46.5361ZM46.5361 16.608H47.0361C47.0361 15.7779 46.9334 15.0801 46.6759 14.5727C46.5435 14.3118 46.363 14.0871 46.1221 13.9288C45.8784 13.7688 45.6021 13.696 45.3121 13.696V14.196V14.696C45.4301 14.696 45.5107 14.7237 45.5731 14.7647C45.6381 14.8074 45.7126 14.8842 45.7842 15.0253C45.9347 15.3219 46.0361 15.8301 46.0361 16.608H46.5361ZM45.3121 14.196V13.696C45.0216 13.696 44.7449 13.7693 44.5011 13.9302C44.2602 14.0893 44.0799 14.3149 43.9477 14.5766C43.6907 15.0857 43.5881 15.7861 43.5881 16.62H44.0881H44.5881C44.5881 15.8379 44.6895 15.3263 44.8404 15.0274C44.9122 14.8851 44.9869 14.8077 45.052 14.7648C45.1142 14.7237 45.1946 14.696 45.3121 14.696V14.196ZM44.0881 16.62H43.5881C43.5881 17.4497 43.6896 18.1467 43.9443 18.6535C44.0752 18.914 44.254 19.1391 44.4934 19.2979C44.7358 19.4587 45.0111 19.532 45.3001 19.532V19.032V18.532C45.185 18.532 45.1068 18.5048 45.0462 18.4646C44.9826 18.4224 44.9089 18.346 44.8378 18.2045C44.6885 17.9073 44.5881 17.3983 44.5881 16.62H44.0881Z" fill="black" mask="url(#path-3-outside-1_82_292)"/>
</g>
<defs>
<filter id="filter0_d_82_292" x="0" y="0" width="71.3431" height="41" filterUnits="userSpaceOnUse" color-interpolation-filters="sRGB">
<feFlood flood-opacity="0" result="BackgroundImageFix"/>
<feColorMatrix in="SourceAlpha" type="matrix" values="0 0 0 0 0 0 0 0 0 0 0 0 0 0 0 0 0 0 127 0" result="hardAlpha"/>
<feOffset dy="4"/>
<feGaussianBlur stdDeviation="2"/>
<feComposite in2="hardAlpha" operator="out"/>
<feColorMatrix type="matrix" values="0 0 0 0 0 0 0 0 0 0 0 0 0 0 0 0 0 0 0.25 0"/>
<feBlend mode="normal" in2="BackgroundImageFix" result="effect1_dropShadow_82_292"/>
<feBlend mode="normal" in="SourceGraphic" in2="effect1_dropShadow_82_292" result="shape"/>
</filter>
</defs>
</svg>
