<svg width="21" height="21" viewBox="0 0 21 21" fill="none" xmlns="http://www.w3.org/2000/svg">
<path d="M7.35337 3.608C8.62037 1.336 9.25337 0.199997 10.2004 0.199997C11.1474 0.199997 11.7804 1.336 13.0474 3.608L13.3754 4.196C13.7354 4.842 13.9154 5.165 14.1954 5.378C14.4754 5.591 14.8254 5.67 15.5254 5.828L16.1614 5.972C18.6214 6.529 19.8504 6.807 20.1434 7.748C20.4354 8.688 19.5974 9.669 17.9204 11.63L17.4864 12.137C17.0104 12.694 16.7714 12.973 16.6644 13.317C16.5574 13.662 16.5934 14.034 16.6654 14.777L16.7314 15.454C16.9844 18.071 17.1114 19.379 16.3454 19.96C15.5794 20.541 14.4274 20.011 12.1254 18.951L11.5284 18.677C10.8744 18.375 10.5474 18.225 10.2004 18.225C9.85337 18.225 9.52637 18.375 8.87237 18.677L8.27637 18.951C5.97337 20.011 4.82137 20.541 4.05637 19.961C3.28937 19.379 3.41637 18.071 3.66937 15.454L3.73537 14.778C3.80737 14.034 3.84337 13.662 3.73537 13.318C3.62937 12.973 3.39037 12.694 2.91437 12.138L2.48037 11.63C0.80337 9.67 -0.0346307 8.689 0.257369 7.748C0.549369 6.807 1.78037 6.528 4.24037 5.972L4.87637 5.828C5.57537 5.67 5.92437 5.591 6.20537 5.378C6.48637 5.165 6.66537 4.842 7.02537 4.196L7.35337 3.608Z" fill="#FDAD42" stroke="black" stroke-width="0.4"/>
<mask id="path-2-outside-1_84_76" maskUnits="userSpaceOnUse" x="8.20013" y="6.2" width="4" height="9" fill="black">
<rect fill="white" x="8.20013" y="6.2" width="4" height="9"/>
<path d="M11.1217 14.31C10.9017 14.31 10.7483 14.2667 10.6617 14.18C10.575 14.0867 10.5317 13.9267 10.5317 13.7V7.9C10.5317 7.68 10.575 7.52666 10.6617 7.44C10.7483 7.35333 10.905 7.31 11.1317 7.31C11.3517 7.31 11.505 7.35666 11.5917 7.45C11.6783 7.53666 11.7217 7.69333 11.7217 7.92V13.71C11.7217 13.93 11.6783 14.0867 11.5917 14.18C11.505 14.2667 11.3483 14.31 11.1217 14.31ZM9.58166 9.92C9.42832 10.06 9.29166 10.13 9.17166 10.13C9.05166 10.1233 8.91832 10.04 8.77166 9.88C8.63166 9.72666 8.56499 9.58333 8.57166 9.45C8.58499 9.31666 8.67832 9.17333 8.85166 9.02L10.5617 7.51C10.715 7.37666 10.8517 7.31666 10.9717 7.33C11.0983 7.33666 11.2317 7.41666 11.3717 7.57C11.5183 7.72333 11.585 7.86666 11.5717 8C11.5583 8.13333 11.4617 8.27666 11.2817 8.43L9.58166 9.92Z"/>
</mask>
<path d="M11.1217 14.31C10.9017 14.31 10.7483 14.2667 10.6617 14.18C10.575 14.0867 10.5317 13.9267 10.5317 13.7V7.9C10.5317 7.68 10.575 7.52666 10.6617 7.44C10.7483 7.35333 10.905 7.31 11.1317 7.31C11.3517 7.31 11.505 7.35666 11.5917 7.45C11.6783 7.53666 11.7217 7.69333 11.7217 7.92V13.71C11.7217 13.93 11.6783 14.0867 11.5917 14.18C11.505 14.2667 11.3483 14.31 11.1217 14.31ZM9.58166 9.92C9.42832 10.06 9.29166 10.13 9.17166 10.13C9.05166 10.1233 8.91832 10.04 8.77166 9.88C8.63166 9.72666 8.56499 9.58333 8.57166 9.45C8.58499 9.31666 8.67832 9.17333 8.85166 9.02L10.5617 7.51C10.715 7.37666 10.8517 7.31666 10.9717 7.33C11.0983 7.33666 11.2317 7.41666 11.3717 7.57C11.5183 7.72333 11.585 7.86666 11.5717 8C11.5583 8.13333 11.4617 8.27666 11.2817 8.43L9.58166 9.92Z" fill="white"/>
<path d="M10.6617 14.18L10.515 14.3162L10.5202 14.3214L10.6617 14.18ZM10.6617 7.44L10.5202 7.29857L10.5202 7.29857L10.6617 7.44ZM11.5917 7.45L11.445 7.58618L11.4502 7.59142L11.5917 7.45ZM11.5917 14.18L11.7332 14.3215L11.7382 14.3161L11.5917 14.18ZM9.58166 9.92L9.4498 9.76956L9.4468 9.7723L9.58166 9.92ZM9.17166 10.13L9.16055 10.33H9.17166V10.13ZM8.77166 9.88L8.62396 10.0149L8.62423 10.0151L8.77166 9.88ZM8.57166 9.45L8.3724 9.43007L8.37191 9.44001L8.57166 9.45ZM8.85166 9.02L8.71928 8.87008L8.71914 8.8702L8.85166 9.02ZM10.5617 7.51L10.4304 7.35907L10.4293 7.36008L10.5617 7.51ZM10.9717 7.33L10.9495 7.52911L10.9611 7.52972L10.9717 7.33ZM11.3717 7.57L11.2239 7.70489L11.2271 7.70824L11.3717 7.57ZM11.5717 8L11.7707 8.0199V8.0199L11.5717 8ZM11.2817 8.43L11.152 8.27773L11.1498 8.27959L11.2817 8.43ZM11.1217 14.31V14.11C10.9161 14.11 10.8317 14.0672 10.8031 14.0386L10.6617 14.18L10.5202 14.3214C10.6649 14.4661 10.8872 14.51 11.1217 14.51V14.31ZM10.6617 14.18L10.8082 14.0439C10.7743 14.0073 10.7317 13.9119 10.7317 13.7H10.5317H10.3317C10.3317 13.9414 10.3757 14.166 10.5151 14.3161L10.6617 14.18ZM10.5317 13.7H10.7317V7.9H10.5317H10.3317V13.7H10.5317ZM10.5317 7.9H10.7317C10.7317 7.69448 10.7744 7.61008 10.8031 7.58142L10.6617 7.44L10.5202 7.29857C10.3756 7.44324 10.3317 7.66551 10.3317 7.9H10.5317ZM10.6617 7.44L10.8031 7.58142C10.8309 7.55356 10.9174 7.51 11.1317 7.51V7.31V7.11C10.8926 7.11 10.6657 7.1531 10.5202 7.29857L10.6617 7.44ZM11.1317 7.31V7.51C11.3341 7.51 11.4161 7.55486 11.4451 7.58609L11.5917 7.45L11.7382 7.31391C11.5939 7.15847 11.3692 7.11 11.1317 7.11V7.31ZM11.5917 7.45L11.4502 7.59142C11.4781 7.61928 11.5217 7.70575 11.5217 7.92H11.7217H11.9217C11.9217 7.68091 11.8785 7.45405 11.7331 7.30858L11.5917 7.45ZM11.7217 7.92H11.5217V13.71H11.7217H11.9217V7.92H11.7217ZM11.7217 13.71H11.5217C11.5217 13.9133 11.4798 14.0065 11.4451 14.0439L11.5917 14.18L11.7382 14.3161C11.8768 14.1668 11.9217 13.9467 11.9217 13.71H11.7217ZM11.5917 14.18L11.4502 14.0386C11.4224 14.0664 11.3359 14.11 11.1217 14.11V14.31V14.51C11.3607 14.51 11.5876 14.4669 11.7331 14.3214L11.5917 14.18ZM9.58166 9.92L9.4468 9.7723C9.30562 9.90121 9.21618 9.93 9.17166 9.93V10.13V10.33C9.36714 10.33 9.55103 10.2188 9.71651 10.0677L9.58166 9.92ZM9.17166 10.13L9.18275 9.93031C9.1435 9.92812 9.05631 9.89455 8.91909 9.74485L8.77166 9.88L8.62423 10.0151C8.78034 10.1854 8.95982 10.3185 9.16056 10.3297L9.17166 10.13ZM8.77166 9.88L8.91935 9.74514C8.79585 9.60988 8.76857 9.51682 8.77141 9.45998L8.57166 9.45L8.37191 9.44001C8.36142 9.64984 8.46746 9.84345 8.62396 10.0149L8.77166 9.88ZM8.57166 9.45L8.77067 9.4699C8.77642 9.41237 8.82332 9.31209 8.98417 9.1698L8.85166 9.02L8.71914 8.8702C8.53333 9.03457 8.39356 9.22096 8.37265 9.4301L8.57166 9.45ZM8.85166 9.02L8.98404 9.16991L10.694 7.65991L10.5617 7.51L10.4293 7.36008L8.71928 8.87008L8.85166 9.02ZM10.5617 7.51L10.6929 7.66092C10.8315 7.54038 10.9131 7.52473 10.9496 7.52877L10.9717 7.33L10.9937 7.13122C10.7902 7.1086 10.5985 7.21295 10.4304 7.35908L10.5617 7.51ZM10.9717 7.33L10.9611 7.52972C11.0104 7.53231 11.0979 7.56682 11.224 7.70485L11.3717 7.57L11.5194 7.43514C11.3654 7.26651 11.1863 7.14101 10.9822 7.13027L10.9717 7.33ZM11.3717 7.57L11.2271 7.70824C11.3568 7.84376 11.3775 7.93171 11.3727 7.9801L11.5717 8L11.7707 8.0199C11.7925 7.80162 11.6799 7.6029 11.5162 7.43175L11.3717 7.57ZM11.5717 8L11.3727 7.9801C11.3672 8.03472 11.3202 8.13445 11.152 8.27775L11.2817 8.43L11.4114 8.58225C11.6031 8.41888 11.7495 8.23194 11.7707 8.0199L11.5717 8ZM11.2817 8.43L11.1498 8.27959L9.44983 9.76959L9.58166 9.92L9.71348 10.0704L11.4135 8.5804L11.2817 8.43Z" fill="black" mask="url(#path-2-outside-1_84_76)"/>
</svg>
