<svg width="114" height="26" viewBox="0 0 114 26" fill="none" xmlns="http://www.w3.org/2000/svg">
<rect x="0.5" y="0.5" width="113" height="25" rx="7.5" fill="#D5682F" stroke="#3E1614"/>
<rect x="3.25" y="3.25" width="107.5" height="19.5" rx="5.75" fill="#A04423" stroke="#3E1614" stroke-width="0.5"/>
<mask id="path-3-outside-1_78_210" maskUnits="userSpaceOnUse" x="22" y="7" width="69" height="11" fill="black">
<rect fill="white" x="22" y="7" width="69" height="11"/>
<path d="M29.744 12.284C30.216 12.844 30.452 13.472 30.452 14.168C30.436 14.968 30.16 15.64 29.624 16.184C29.096 16.72 28.452 16.988 27.692 16.988H24.536C23.976 16.988 23.648 16.836 23.552 16.532C23.504 16.396 23.48 16.188 23.48 15.908V9.248C23.48 9.056 23.484 8.916 23.492 8.828C23.508 8.74 23.548 8.636 23.612 8.516C23.724 8.3 24.036 8.192 24.548 8.192H27.572C28.308 8.192 28.924 8.448 29.42 8.96C29.94 9.48 30.2 10.104 30.2 10.832C30.2 11.36 30.048 11.844 29.744 12.284ZM28.328 14.048C28.328 13.856 28.304 13.704 28.256 13.592C28.216 13.48 28.144 13.4 28.04 13.352C27.88 13.288 27.656 13.256 27.368 13.256C27.08 13.256 26.864 13.2 26.72 13.088C26.576 12.976 26.504 12.748 26.504 12.404C26.504 12.052 26.576 11.82 26.72 11.708C26.872 11.596 27.12 11.54 27.464 11.54C27.784 11.54 27.976 11.456 28.04 11.288C28.064 11.2 28.076 11.056 28.076 10.856C28.076 10.656 28.008 10.516 27.872 10.436C27.744 10.356 27.548 10.316 27.284 10.316H25.604V14.864H27.572C28.076 14.864 28.328 14.592 28.328 14.048ZM37.3338 13.088C37.3338 13.576 37.2098 13.94 36.9618 14.18C36.7218 14.412 36.4538 14.528 36.1578 14.528H33.3138C33.3138 14.752 33.4458 14.94 33.7098 15.092C33.9738 15.244 34.2378 15.32 34.5018 15.32C34.9658 15.32 35.3298 15.272 35.5938 15.176L35.7258 15.128C35.9178 15.04 36.0778 14.996 36.2058 14.996C36.4618 14.996 36.6818 15.176 36.8658 15.536C36.9698 15.752 37.0218 15.936 37.0218 16.088C37.0218 16.8 36.1698 17.156 34.4658 17.156C33.8738 17.156 33.3458 17.056 32.8818 16.856C32.4258 16.648 32.0698 16.376 31.8138 16.04C31.3098 15.392 31.0578 14.668 31.0578 13.868C31.0578 12.86 31.3818 12.056 32.0298 11.456C32.6858 10.848 33.5018 10.544 34.4778 10.544C35.5898 10.544 36.4058 10.936 36.9258 11.72C37.1978 12.136 37.3338 12.592 37.3338 13.088ZM34.8018 13.436C35.1058 13.436 35.2578 13.308 35.2578 13.052C35.2578 12.868 35.1858 12.72 35.0418 12.608C34.9058 12.496 34.7058 12.44 34.4418 12.44C34.1858 12.44 33.9298 12.548 33.6738 12.764C33.4178 12.972 33.2898 13.196 33.2898 13.436H34.8018ZM41.6327 10.676C42.4327 10.676 43.0967 10.984 43.6247 11.6C44.1607 12.208 44.4287 12.952 44.4287 13.832V15.944C44.4287 16.128 44.4207 16.268 44.4047 16.364C44.3967 16.452 44.3647 16.552 44.3087 16.664C44.1967 16.88 43.8847 16.988 43.3727 16.988C42.8047 16.988 42.4767 16.84 42.3887 16.544C42.3407 16.408 42.3167 16.204 42.3167 15.932V13.82C42.3167 13.492 42.2207 13.236 42.0287 13.052C41.8447 12.868 41.5927 12.776 41.2727 12.776C40.9607 12.776 40.7047 12.872 40.5047 13.064C40.3127 13.256 40.2167 13.508 40.2167 13.82V15.944C40.2167 16.128 40.2087 16.268 40.1927 16.364C40.1847 16.452 40.1487 16.552 40.0847 16.664C39.9807 16.88 39.6727 16.988 39.1607 16.988C38.6567 16.988 38.3487 16.88 38.2367 16.664C38.1807 16.544 38.1447 16.44 38.1287 16.352C38.1207 16.256 38.1167 16.116 38.1167 15.932V11.684C38.1167 11.508 38.1207 11.376 38.1287 11.288C38.1447 11.192 38.1847 11.088 38.2487 10.976C38.3607 10.776 38.6687 10.676 39.1727 10.676C39.6607 10.676 39.9607 10.768 40.0727 10.952C40.1527 11.088 40.1927 11.252 40.1927 11.444C40.2247 11.388 40.2967 11.308 40.4087 11.204C40.5207 11.1 40.6287 11.016 40.7327 10.952C41.0047 10.768 41.3047 10.676 41.6327 10.676ZM48.9489 12.8L48.1689 12.752V14.408C48.1689 14.624 48.2009 14.78 48.2649 14.876C48.3369 14.972 48.4649 15.02 48.6489 15.02C48.8409 15.02 48.9849 15.028 49.0809 15.044C49.1849 15.052 49.2929 15.088 49.4049 15.152C49.5889 15.256 49.6809 15.524 49.6809 15.956C49.6809 16.46 49.5689 16.768 49.3449 16.88C49.2249 16.936 49.1169 16.972 49.0209 16.988C48.9329 16.996 48.8009 17 48.6249 17C47.7929 17 47.1609 16.812 46.7289 16.436C46.2969 16.06 46.0809 15.424 46.0809 14.528V12.752C45.9289 12.776 45.7649 12.788 45.5889 12.788C45.4129 12.788 45.2649 12.72 45.1449 12.584C45.0329 12.448 44.9769 12.216 44.9769 11.888C44.9769 11.56 44.9969 11.324 45.0369 11.18C45.0769 11.028 45.1329 10.92 45.2049 10.856C45.3329 10.752 45.4929 10.7 45.6849 10.7L46.0809 10.748V9.512C46.0809 9.328 46.0849 9.192 46.0929 9.104C46.1089 9.016 46.1489 8.92 46.2129 8.816C46.3169 8.616 46.6249 8.516 47.1369 8.516C47.6809 8.516 48.0049 8.664 48.1089 8.96C48.1489 9.088 48.1689 9.292 48.1689 9.572V10.748C48.5209 10.716 48.7849 10.7 48.9609 10.7C49.1449 10.7 49.2809 10.708 49.3689 10.724C49.4649 10.732 49.5729 10.768 49.6929 10.832C49.9009 10.936 50.0049 11.244 50.0049 11.756C50.0049 12.26 49.8969 12.568 49.6809 12.68C49.5609 12.736 49.4529 12.772 49.3569 12.788C49.2689 12.796 49.1329 12.8 48.9489 12.8ZM50.4875 13.844C50.4875 12.884 50.8235 12.092 51.4955 11.468C52.1675 10.844 52.9355 10.532 53.7995 10.532C54.6635 10.532 55.4275 10.844 56.0915 11.468C56.7555 12.084 57.0875 12.872 57.0875 13.832C57.0875 14.496 56.9155 15.088 56.5715 15.608C56.2275 16.12 55.8075 16.5 55.3115 16.748C54.8235 16.988 54.3155 17.108 53.7875 17.108C53.2595 17.108 52.7475 16.98 52.2515 16.724C51.7555 16.46 51.3355 16.076 50.9915 15.572C50.6555 15.06 50.4875 14.484 50.4875 13.844ZM52.9955 14.708C53.2515 14.9 53.5115 14.996 53.7755 14.996C54.0395 14.996 54.3035 14.896 54.5675 14.696C54.8315 14.496 54.9635 14.2 54.9635 13.808C54.9635 13.416 54.8395 13.124 54.5915 12.932C54.3435 12.74 54.0755 12.644 53.7875 12.644C53.4995 12.644 53.2315 12.744 52.9835 12.944C52.7355 13.144 52.6115 13.44 52.6115 13.832C52.6115 14.216 52.7395 14.508 52.9955 14.708ZM61.4028 15.332H58.5468C58.0988 15.332 57.8308 15.196 57.7428 14.924C57.7028 14.78 57.6828 14.596 57.6828 14.372C57.6828 14.148 57.7068 13.968 57.7548 13.832C57.8028 13.696 57.8788 13.6 57.9828 13.544C58.1268 13.472 58.3188 13.436 58.5588 13.436H61.4148C61.8628 13.436 62.1268 13.568 62.2068 13.832C62.2548 13.976 62.2788 14.16 62.2788 14.384C62.2788 14.608 62.2548 14.792 62.2068 14.936C62.1668 15.072 62.0988 15.168 62.0028 15.224C61.8588 15.296 61.6588 15.332 61.4028 15.332ZM65.0342 13.844C65.0342 14.18 65.1462 14.444 65.3702 14.636C65.5942 14.82 65.8302 14.912 66.0782 14.912C66.3342 14.912 66.5702 14.84 66.7862 14.696C67.0102 14.544 67.1902 14.468 67.3262 14.468C67.5662 14.468 67.8582 14.68 68.2022 15.104C68.3862 15.336 68.4782 15.544 68.4782 15.728C68.4782 16.032 68.2582 16.316 67.8182 16.58C67.3622 16.9 66.8022 17.06 66.1382 17.06C65.3942 17.06 64.6782 16.792 63.9902 16.256C63.6622 16 63.3942 15.66 63.1862 15.236C62.9782 14.804 62.8742 14.332 62.8742 13.82C62.8742 13.3 62.9782 12.832 63.1862 12.416C63.3942 11.992 63.6622 11.652 63.9902 11.396C64.6542 10.868 65.3622 10.604 66.1142 10.604C66.4182 10.604 66.7142 10.648 67.0022 10.736C67.2902 10.816 67.5022 10.896 67.6382 10.976L67.8302 11.096C67.9742 11.192 68.0862 11.268 68.1662 11.324C68.3742 11.484 68.4782 11.668 68.4782 11.876C68.4782 12.076 68.3942 12.304 68.2262 12.56C67.9382 13 67.6622 13.22 67.3982 13.22C67.2462 13.22 67.0302 13.132 66.7502 12.956C66.6062 12.82 66.3982 12.752 66.1262 12.752C65.8622 12.752 65.6142 12.848 65.3822 13.04C65.1502 13.232 65.0342 13.5 65.0342 13.844ZM72.6871 10.7C73.4871 10.7 74.1511 11.004 74.6791 11.612C75.2151 12.22 75.4831 12.964 75.4831 13.844V15.956C75.4831 16.14 75.4751 16.28 75.4591 16.376C75.4511 16.464 75.4151 16.568 75.3511 16.688C75.2471 16.896 74.9391 17 74.4271 17C73.9391 17 73.6351 16.896 73.5151 16.688C73.4511 16.568 73.4111 16.46 73.3951 16.364C73.3871 16.268 73.3831 16.124 73.3831 15.932V13.832C73.3831 13.504 73.2911 13.248 73.1071 13.064C72.9231 12.88 72.6871 12.788 72.3991 12.788C72.1191 12.788 71.8711 12.876 71.6551 13.052C71.4391 13.22 71.3151 13.412 71.2831 13.628V15.956C71.2831 16.14 71.2751 16.28 71.2591 16.376C71.2511 16.464 71.2151 16.568 71.1511 16.688C71.0471 16.896 70.7391 17 70.2271 17C69.7231 17 69.4151 16.892 69.3031 16.676C69.2471 16.556 69.2111 16.452 69.1951 16.364C69.1871 16.276 69.1831 16.136 69.1831 15.944V8.768C69.1831 8.584 69.1871 8.448 69.1951 8.36C69.2111 8.264 69.2471 8.16 69.3031 8.048C69.4151 7.832 69.7271 7.724 70.2391 7.724C70.7431 7.724 71.0471 7.832 71.1511 8.048C71.2151 8.168 71.2511 8.276 71.2591 8.372C71.2751 8.46 71.2831 8.596 71.2831 8.78V11.432C71.6831 10.944 72.1511 10.7 72.6871 10.7ZM80.5528 11.348C80.6008 10.9 80.9168 10.676 81.5008 10.676C81.8128 10.676 82.0448 10.7 82.1968 10.748C82.3488 10.796 82.4528 10.88 82.5088 11C82.5728 11.12 82.6088 11.228 82.6168 11.324C82.6328 11.412 82.6408 11.548 82.6408 11.732V15.932C82.6408 16.116 82.6328 16.256 82.6168 16.352C82.6088 16.44 82.5768 16.544 82.5208 16.664C82.4088 16.872 82.1328 16.976 81.6928 16.976C81.2608 16.976 80.9688 16.924 80.8168 16.82C80.6728 16.708 80.5888 16.548 80.5648 16.34C80.2688 16.764 79.7728 16.976 79.0768 16.976C78.3888 16.976 77.7488 16.66 77.1568 16.028C76.5648 15.396 76.2688 14.664 76.2688 13.832C76.2688 12.992 76.5648 12.26 77.1568 11.636C77.7568 11.004 78.4128 10.688 79.1248 10.688C79.3968 10.688 79.6448 10.736 79.8688 10.832C80.0928 10.928 80.2488 11.02 80.3368 11.108C80.4248 11.188 80.4968 11.268 80.5528 11.348ZM78.3688 13.844C78.3688 14.108 78.4728 14.348 78.6808 14.564C78.8888 14.772 79.1408 14.876 79.4368 14.876C79.7328 14.876 79.9768 14.768 80.1688 14.552C80.3688 14.336 80.4688 14.1 80.4688 13.844C80.4688 13.58 80.3728 13.336 80.1808 13.112C79.9968 12.888 79.7448 12.776 79.4248 12.776C79.1128 12.776 78.8568 12.888 78.6568 13.112C78.4648 13.336 78.3688 13.58 78.3688 13.844ZM87.1132 10.676C87.9132 10.676 88.5772 10.984 89.1052 11.6C89.6412 12.208 89.9092 12.952 89.9092 13.832V15.944C89.9092 16.128 89.9012 16.268 89.8852 16.364C89.8772 16.452 89.8452 16.552 89.7892 16.664C89.6772 16.88 89.3652 16.988 88.8532 16.988C88.2852 16.988 87.9572 16.84 87.8692 16.544C87.8212 16.408 87.7972 16.204 87.7972 15.932V13.82C87.7972 13.492 87.7012 13.236 87.5092 13.052C87.3252 12.868 87.0732 12.776 86.7532 12.776C86.4412 12.776 86.1852 12.872 85.9852 13.064C85.7932 13.256 85.6972 13.508 85.6972 13.82V15.944C85.6972 16.128 85.6892 16.268 85.6732 16.364C85.6652 16.452 85.6292 16.552 85.5652 16.664C85.4612 16.88 85.1532 16.988 84.6412 16.988C84.1372 16.988 83.8292 16.88 83.7172 16.664C83.6612 16.544 83.6252 16.44 83.6092 16.352C83.6012 16.256 83.5972 16.116 83.5972 15.932V11.684C83.5972 11.508 83.6012 11.376 83.6092 11.288C83.6252 11.192 83.6652 11.088 83.7292 10.976C83.8412 10.776 84.1492 10.676 84.6532 10.676C85.1412 10.676 85.4412 10.768 85.5532 10.952C85.6332 11.088 85.6732 11.252 85.6732 11.444C85.7052 11.388 85.7772 11.308 85.8892 11.204C86.0012 11.1 86.1092 11.016 86.2132 10.952C86.4852 10.768 86.7852 10.676 87.1132 10.676Z"/>
</mask>
<path d="M29.744 12.284C30.216 12.844 30.452 13.472 30.452 14.168C30.436 14.968 30.16 15.64 29.624 16.184C29.096 16.72 28.452 16.988 27.692 16.988H24.536C23.976 16.988 23.648 16.836 23.552 16.532C23.504 16.396 23.48 16.188 23.48 15.908V9.248C23.48 9.056 23.484 8.916 23.492 8.828C23.508 8.74 23.548 8.636 23.612 8.516C23.724 8.3 24.036 8.192 24.548 8.192H27.572C28.308 8.192 28.924 8.448 29.42 8.96C29.94 9.48 30.2 10.104 30.2 10.832C30.2 11.36 30.048 11.844 29.744 12.284ZM28.328 14.048C28.328 13.856 28.304 13.704 28.256 13.592C28.216 13.48 28.144 13.4 28.04 13.352C27.88 13.288 27.656 13.256 27.368 13.256C27.08 13.256 26.864 13.2 26.72 13.088C26.576 12.976 26.504 12.748 26.504 12.404C26.504 12.052 26.576 11.82 26.72 11.708C26.872 11.596 27.12 11.54 27.464 11.54C27.784 11.54 27.976 11.456 28.04 11.288C28.064 11.2 28.076 11.056 28.076 10.856C28.076 10.656 28.008 10.516 27.872 10.436C27.744 10.356 27.548 10.316 27.284 10.316H25.604V14.864H27.572C28.076 14.864 28.328 14.592 28.328 14.048ZM37.3338 13.088C37.3338 13.576 37.2098 13.94 36.9618 14.18C36.7218 14.412 36.4538 14.528 36.1578 14.528H33.3138C33.3138 14.752 33.4458 14.94 33.7098 15.092C33.9738 15.244 34.2378 15.32 34.5018 15.32C34.9658 15.32 35.3298 15.272 35.5938 15.176L35.7258 15.128C35.9178 15.04 36.0778 14.996 36.2058 14.996C36.4618 14.996 36.6818 15.176 36.8658 15.536C36.9698 15.752 37.0218 15.936 37.0218 16.088C37.0218 16.8 36.1698 17.156 34.4658 17.156C33.8738 17.156 33.3458 17.056 32.8818 16.856C32.4258 16.648 32.0698 16.376 31.8138 16.04C31.3098 15.392 31.0578 14.668 31.0578 13.868C31.0578 12.86 31.3818 12.056 32.0298 11.456C32.6858 10.848 33.5018 10.544 34.4778 10.544C35.5898 10.544 36.4058 10.936 36.9258 11.72C37.1978 12.136 37.3338 12.592 37.3338 13.088ZM34.8018 13.436C35.1058 13.436 35.2578 13.308 35.2578 13.052C35.2578 12.868 35.1858 12.72 35.0418 12.608C34.9058 12.496 34.7058 12.44 34.4418 12.44C34.1858 12.44 33.9298 12.548 33.6738 12.764C33.4178 12.972 33.2898 13.196 33.2898 13.436H34.8018ZM41.6327 10.676C42.4327 10.676 43.0967 10.984 43.6247 11.6C44.1607 12.208 44.4287 12.952 44.4287 13.832V15.944C44.4287 16.128 44.4207 16.268 44.4047 16.364C44.3967 16.452 44.3647 16.552 44.3087 16.664C44.1967 16.88 43.8847 16.988 43.3727 16.988C42.8047 16.988 42.4767 16.84 42.3887 16.544C42.3407 16.408 42.3167 16.204 42.3167 15.932V13.82C42.3167 13.492 42.2207 13.236 42.0287 13.052C41.8447 12.868 41.5927 12.776 41.2727 12.776C40.9607 12.776 40.7047 12.872 40.5047 13.064C40.3127 13.256 40.2167 13.508 40.2167 13.82V15.944C40.2167 16.128 40.2087 16.268 40.1927 16.364C40.1847 16.452 40.1487 16.552 40.0847 16.664C39.9807 16.88 39.6727 16.988 39.1607 16.988C38.6567 16.988 38.3487 16.88 38.2367 16.664C38.1807 16.544 38.1447 16.44 38.1287 16.352C38.1207 16.256 38.1167 16.116 38.1167 15.932V11.684C38.1167 11.508 38.1207 11.376 38.1287 11.288C38.1447 11.192 38.1847 11.088 38.2487 10.976C38.3607 10.776 38.6687 10.676 39.1727 10.676C39.6607 10.676 39.9607 10.768 40.0727 10.952C40.1527 11.088 40.1927 11.252 40.1927 11.444C40.2247 11.388 40.2967 11.308 40.4087 11.204C40.5207 11.1 40.6287 11.016 40.7327 10.952C41.0047 10.768 41.3047 10.676 41.6327 10.676ZM48.9489 12.8L48.1689 12.752V14.408C48.1689 14.624 48.2009 14.78 48.2649 14.876C48.3369 14.972 48.4649 15.02 48.6489 15.02C48.8409 15.02 48.9849 15.028 49.0809 15.044C49.1849 15.052 49.2929 15.088 49.4049 15.152C49.5889 15.256 49.6809 15.524 49.6809 15.956C49.6809 16.46 49.5689 16.768 49.3449 16.88C49.2249 16.936 49.1169 16.972 49.0209 16.988C48.9329 16.996 48.8009 17 48.6249 17C47.7929 17 47.1609 16.812 46.7289 16.436C46.2969 16.06 46.0809 15.424 46.0809 14.528V12.752C45.9289 12.776 45.7649 12.788 45.5889 12.788C45.4129 12.788 45.2649 12.72 45.1449 12.584C45.0329 12.448 44.9769 12.216 44.9769 11.888C44.9769 11.56 44.9969 11.324 45.0369 11.18C45.0769 11.028 45.1329 10.92 45.2049 10.856C45.3329 10.752 45.4929 10.7 45.6849 10.7L46.0809 10.748V9.512C46.0809 9.328 46.0849 9.192 46.0929 9.104C46.1089 9.016 46.1489 8.92 46.2129 8.816C46.3169 8.616 46.6249 8.516 47.1369 8.516C47.6809 8.516 48.0049 8.664 48.1089 8.96C48.1489 9.088 48.1689 9.292 48.1689 9.572V10.748C48.5209 10.716 48.7849 10.7 48.9609 10.7C49.1449 10.7 49.2809 10.708 49.3689 10.724C49.4649 10.732 49.5729 10.768 49.6929 10.832C49.9009 10.936 50.0049 11.244 50.0049 11.756C50.0049 12.26 49.8969 12.568 49.6809 12.68C49.5609 12.736 49.4529 12.772 49.3569 12.788C49.2689 12.796 49.1329 12.8 48.9489 12.8ZM50.4875 13.844C50.4875 12.884 50.8235 12.092 51.4955 11.468C52.1675 10.844 52.9355 10.532 53.7995 10.532C54.6635 10.532 55.4275 10.844 56.0915 11.468C56.7555 12.084 57.0875 12.872 57.0875 13.832C57.0875 14.496 56.9155 15.088 56.5715 15.608C56.2275 16.12 55.8075 16.5 55.3115 16.748C54.8235 16.988 54.3155 17.108 53.7875 17.108C53.2595 17.108 52.7475 16.98 52.2515 16.724C51.7555 16.46 51.3355 16.076 50.9915 15.572C50.6555 15.06 50.4875 14.484 50.4875 13.844ZM52.9955 14.708C53.2515 14.9 53.5115 14.996 53.7755 14.996C54.0395 14.996 54.3035 14.896 54.5675 14.696C54.8315 14.496 54.9635 14.2 54.9635 13.808C54.9635 13.416 54.8395 13.124 54.5915 12.932C54.3435 12.74 54.0755 12.644 53.7875 12.644C53.4995 12.644 53.2315 12.744 52.9835 12.944C52.7355 13.144 52.6115 13.44 52.6115 13.832C52.6115 14.216 52.7395 14.508 52.9955 14.708ZM61.4028 15.332H58.5468C58.0988 15.332 57.8308 15.196 57.7428 14.924C57.7028 14.78 57.6828 14.596 57.6828 14.372C57.6828 14.148 57.7068 13.968 57.7548 13.832C57.8028 13.696 57.8788 13.6 57.9828 13.544C58.1268 13.472 58.3188 13.436 58.5588 13.436H61.4148C61.8628 13.436 62.1268 13.568 62.2068 13.832C62.2548 13.976 62.2788 14.16 62.2788 14.384C62.2788 14.608 62.2548 14.792 62.2068 14.936C62.1668 15.072 62.0988 15.168 62.0028 15.224C61.8588 15.296 61.6588 15.332 61.4028 15.332ZM65.0342 13.844C65.0342 14.18 65.1462 14.444 65.3702 14.636C65.5942 14.82 65.8302 14.912 66.0782 14.912C66.3342 14.912 66.5702 14.84 66.7862 14.696C67.0102 14.544 67.1902 14.468 67.3262 14.468C67.5662 14.468 67.8582 14.68 68.2022 15.104C68.3862 15.336 68.4782 15.544 68.4782 15.728C68.4782 16.032 68.2582 16.316 67.8182 16.58C67.3622 16.9 66.8022 17.06 66.1382 17.06C65.3942 17.06 64.6782 16.792 63.9902 16.256C63.6622 16 63.3942 15.66 63.1862 15.236C62.9782 14.804 62.8742 14.332 62.8742 13.82C62.8742 13.3 62.9782 12.832 63.1862 12.416C63.3942 11.992 63.6622 11.652 63.9902 11.396C64.6542 10.868 65.3622 10.604 66.1142 10.604C66.4182 10.604 66.7142 10.648 67.0022 10.736C67.2902 10.816 67.5022 10.896 67.6382 10.976L67.8302 11.096C67.9742 11.192 68.0862 11.268 68.1662 11.324C68.3742 11.484 68.4782 11.668 68.4782 11.876C68.4782 12.076 68.3942 12.304 68.2262 12.56C67.9382 13 67.6622 13.22 67.3982 13.22C67.2462 13.22 67.0302 13.132 66.7502 12.956C66.6062 12.82 66.3982 12.752 66.1262 12.752C65.8622 12.752 65.6142 12.848 65.3822 13.04C65.1502 13.232 65.0342 13.5 65.0342 13.844ZM72.6871 10.7C73.4871 10.7 74.1511 11.004 74.6791 11.612C75.2151 12.22 75.4831 12.964 75.4831 13.844V15.956C75.4831 16.14 75.4751 16.28 75.4591 16.376C75.4511 16.464 75.4151 16.568 75.3511 16.688C75.2471 16.896 74.9391 17 74.4271 17C73.9391 17 73.6351 16.896 73.5151 16.688C73.4511 16.568 73.4111 16.46 73.3951 16.364C73.3871 16.268 73.3831 16.124 73.3831 15.932V13.832C73.3831 13.504 73.2911 13.248 73.1071 13.064C72.9231 12.88 72.6871 12.788 72.3991 12.788C72.1191 12.788 71.8711 12.876 71.6551 13.052C71.4391 13.22 71.3151 13.412 71.2831 13.628V15.956C71.2831 16.14 71.2751 16.28 71.2591 16.376C71.2511 16.464 71.2151 16.568 71.1511 16.688C71.0471 16.896 70.7391 17 70.2271 17C69.7231 17 69.4151 16.892 69.3031 16.676C69.2471 16.556 69.2111 16.452 69.1951 16.364C69.1871 16.276 69.1831 16.136 69.1831 15.944V8.768C69.1831 8.584 69.1871 8.448 69.1951 8.36C69.2111 8.264 69.2471 8.16 69.3031 8.048C69.4151 7.832 69.7271 7.724 70.2391 7.724C70.7431 7.724 71.0471 7.832 71.1511 8.048C71.2151 8.168 71.2511 8.276 71.2591 8.372C71.2751 8.46 71.2831 8.596 71.2831 8.78V11.432C71.6831 10.944 72.1511 10.7 72.6871 10.7ZM80.5528 11.348C80.6008 10.9 80.9168 10.676 81.5008 10.676C81.8128 10.676 82.0448 10.7 82.1968 10.748C82.3488 10.796 82.4528 10.88 82.5088 11C82.5728 11.12 82.6088 11.228 82.6168 11.324C82.6328 11.412 82.6408 11.548 82.6408 11.732V15.932C82.6408 16.116 82.6328 16.256 82.6168 16.352C82.6088 16.44 82.5768 16.544 82.5208 16.664C82.4088 16.872 82.1328 16.976 81.6928 16.976C81.2608 16.976 80.9688 16.924 80.8168 16.82C80.6728 16.708 80.5888 16.548 80.5648 16.34C80.2688 16.764 79.7728 16.976 79.0768 16.976C78.3888 16.976 77.7488 16.66 77.1568 16.028C76.5648 15.396 76.2688 14.664 76.2688 13.832C76.2688 12.992 76.5648 12.26 77.1568 11.636C77.7568 11.004 78.4128 10.688 79.1248 10.688C79.3968 10.688 79.6448 10.736 79.8688 10.832C80.0928 10.928 80.2488 11.02 80.3368 11.108C80.4248 11.188 80.4968 11.268 80.5528 11.348ZM78.3688 13.844C78.3688 14.108 78.4728 14.348 78.6808 14.564C78.8888 14.772 79.1408 14.876 79.4368 14.876C79.7328 14.876 79.9768 14.768 80.1688 14.552C80.3688 14.336 80.4688 14.1 80.4688 13.844C80.4688 13.58 80.3728 13.336 80.1808 13.112C79.9968 12.888 79.7448 12.776 79.4248 12.776C79.1128 12.776 78.8568 12.888 78.6568 13.112C78.4648 13.336 78.3688 13.58 78.3688 13.844ZM87.1132 10.676C87.9132 10.676 88.5772 10.984 89.1052 11.6C89.6412 12.208 89.9092 12.952 89.9092 13.832V15.944C89.9092 16.128 89.9012 16.268 89.8852 16.364C89.8772 16.452 89.8452 16.552 89.7892 16.664C89.6772 16.88 89.3652 16.988 88.8532 16.988C88.2852 16.988 87.9572 16.84 87.8692 16.544C87.8212 16.408 87.7972 16.204 87.7972 15.932V13.82C87.7972 13.492 87.7012 13.236 87.5092 13.052C87.3252 12.868 87.0732 12.776 86.7532 12.776C86.4412 12.776 86.1852 12.872 85.9852 13.064C85.7932 13.256 85.6972 13.508 85.6972 13.82V15.944C85.6972 16.128 85.6892 16.268 85.6732 16.364C85.6652 16.452 85.6292 16.552 85.5652 16.664C85.4612 16.88 85.1532 16.988 84.6412 16.988C84.1372 16.988 83.8292 16.88 83.7172 16.664C83.6612 16.544 83.6252 16.44 83.6092 16.352C83.6012 16.256 83.5972 16.116 83.5972 15.932V11.684C83.5972 11.508 83.6012 11.376 83.6092 11.288C83.6252 11.192 83.6652 11.088 83.7292 10.976C83.8412 10.776 84.1492 10.676 84.6532 10.676C85.1412 10.676 85.4412 10.768 85.5532 10.952C85.6332 11.088 85.6732 11.252 85.6732 11.444C85.7052 11.388 85.7772 11.308 85.8892 11.204C86.0012 11.1 86.1092 11.016 86.2132 10.952C86.4852 10.768 86.7852 10.676 87.1132 10.676Z" fill="white"/>
<path d="M29.744 12.284L29.3326 11.9998L29.1155 12.3141L29.3617 12.6062L29.744 12.284ZM30.452 14.168L30.952 14.178V14.168H30.452ZM29.624 16.184L29.2678 15.8331L29.2678 15.8331L29.624 16.184ZM23.552 16.532L24.0288 16.3814L24.0263 16.3735L24.0235 16.3656L23.552 16.532ZM23.492 8.828L23.0001 8.73856L22.9961 8.76051L22.9941 8.78273L23.492 8.828ZM23.612 8.516L24.0532 8.75131L24.0559 8.74616L23.612 8.516ZM29.42 8.96L29.0608 9.30794L29.0664 9.31355L29.42 8.96ZM28.256 13.592L27.7851 13.7602L27.7903 13.7747L27.7964 13.789L28.256 13.592ZM28.04 13.352L28.2495 12.898L28.2377 12.8926L28.2257 12.8878L28.04 13.352ZM26.72 13.088L26.413 13.4827H26.413L26.72 13.088ZM26.72 11.708L26.4233 11.3053L26.413 11.3133L26.72 11.708ZM28.04 11.288L28.5072 11.466L28.5159 11.4431L28.5224 11.4196L28.04 11.288ZM27.872 10.436L27.6069 10.8602L27.6185 10.867L27.872 10.436ZM25.604 10.316V9.816H25.104V10.316H25.604ZM25.604 14.864H25.104V15.364H25.604V14.864ZM29.744 12.284L29.3617 12.6062C29.762 13.0812 29.952 13.5964 29.952 14.168H30.452H30.952C30.952 13.3476 30.67 12.6068 30.1263 11.9618L29.744 12.284ZM30.452 14.168L29.9521 14.158C29.9385 14.8369 29.7095 15.3848 29.2678 15.8331L29.624 16.184L29.9802 16.5349C30.6105 15.8952 30.9335 15.0991 30.9519 14.178L30.452 14.168ZM29.624 16.184L29.2678 15.8331C28.8348 16.2726 28.3196 16.488 27.692 16.488V16.988V17.488C28.5844 17.488 29.3572 17.1674 29.9802 16.5349L29.624 16.184ZM27.692 16.988V16.488H24.536V16.988V17.488H27.692V16.988ZM24.536 16.988V16.488C24.2927 16.488 24.1521 16.4537 24.0802 16.4203C24.0477 16.4053 24.036 16.3935 24.0337 16.391C24.0324 16.3897 24.031 16.3885 24.0288 16.3814L23.552 16.532L23.0752 16.6826C23.2793 17.3289 23.943 17.488 24.536 17.488V16.988ZM23.552 16.532L24.0235 16.3656C24.0047 16.3124 23.98 16.1743 23.98 15.908H23.48H22.98C22.98 16.2017 23.0033 16.4796 23.0805 16.6984L23.552 16.532ZM23.48 15.908H23.98V9.248H23.48H22.98V15.908H23.48ZM23.48 9.248H23.98C23.98 9.05786 23.9841 8.93713 23.9899 8.87327L23.492 8.828L22.9941 8.78273C22.9839 8.89487 22.98 9.05414 22.98 9.248H23.48ZM23.492 8.828L23.9839 8.91744C23.9872 8.8996 24.0022 8.84679 24.0532 8.75129L23.612 8.516L23.1708 8.28071C23.0938 8.42521 23.0288 8.5804 23.0001 8.73856L23.492 8.828ZM23.612 8.516L24.0559 8.74616C24.0345 8.78738 24.0146 8.77283 24.0936 8.74549C24.1763 8.71686 24.3205 8.692 24.548 8.692V8.192V7.692C24.2635 7.692 23.9957 7.72114 23.7664 7.80051C23.5334 7.88117 23.3015 8.02862 23.1681 8.28584L23.612 8.516ZM24.548 8.192V8.692H27.572V8.192V7.692H24.548V8.192ZM27.572 8.192V8.692C28.1776 8.692 28.6624 8.89661 29.0609 9.3079L29.42 8.96L29.7791 8.6121C29.1856 7.99939 28.4384 7.692 27.572 7.692V8.192ZM29.42 8.96L29.0664 9.31355C29.4937 9.74086 29.7 10.2381 29.7 10.832H30.2H30.7C30.7 9.96989 30.3863 9.21914 29.7736 8.60645L29.42 8.96ZM30.2 10.832H29.7C29.7 11.2571 29.5797 11.6422 29.3326 11.9998L29.744 12.284L30.1554 12.5682C30.5163 12.0458 30.7 11.4629 30.7 10.832H30.2ZM28.328 14.048H28.828C28.828 13.823 28.8012 13.5947 28.7156 13.395L28.256 13.592L27.7964 13.789C27.8068 13.8133 27.828 13.889 27.828 14.048H28.328ZM28.256 13.592L28.7269 13.4238C28.6436 13.1907 28.4806 13.0047 28.2495 12.898L28.04 13.352L27.8305 13.806C27.8249 13.8034 27.8126 13.7961 27.8004 13.7825C27.7884 13.7692 27.7847 13.7591 27.7851 13.7602L28.256 13.592ZM28.04 13.352L28.2257 12.8878C27.98 12.7895 27.6827 12.756 27.368 12.756V13.256V13.756C27.6293 13.756 27.78 13.7865 27.8543 13.8162L28.04 13.352ZM27.368 13.256V12.756C27.131 12.756 27.0453 12.7076 27.027 12.6933L26.72 13.088L26.413 13.4827C26.6827 13.6924 27.029 13.756 27.368 13.756V13.256ZM26.72 13.088L27.027 12.6933C27.0565 12.7163 27.0496 12.7295 27.0348 12.6824C27.0193 12.6334 27.004 12.5453 27.004 12.404H26.504H26.004C26.004 12.7753 26.0735 13.2186 26.413 13.4827L26.72 13.088ZM26.504 12.404H27.004C27.004 12.2578 27.0195 12.166 27.0355 12.1142C27.0511 12.064 27.0586 12.0781 27.027 12.1027L26.72 11.708L26.413 11.3133C26.0716 11.5789 26.004 12.0295 26.004 12.404H26.504ZM26.72 11.708L27.0166 12.1105C27.0367 12.0957 27.1502 12.04 27.464 12.04V11.54V11.04C27.0898 11.04 26.7073 11.0963 26.4234 11.3055L26.72 11.708ZM27.464 11.54V12.04C27.8164 12.04 28.3223 11.9515 28.5072 11.466L28.04 11.288L27.5728 11.11C27.5823 11.0849 27.598 11.0609 27.6172 11.0419C27.6353 11.0241 27.6489 11.0184 27.6476 11.0189C27.6456 11.0198 27.6312 11.0256 27.5991 11.0308C27.5671 11.0361 27.5229 11.04 27.464 11.04V11.54ZM28.04 11.288L28.5224 11.4196C28.5653 11.2623 28.576 11.0606 28.576 10.856H28.076H27.576C27.576 10.947 27.5732 11.0184 27.5687 11.0725C27.5665 11.0993 27.564 11.1198 27.5617 11.1348C27.5593 11.1503 27.5575 11.1568 27.5576 11.1564L28.04 11.288ZM28.076 10.856H28.576C28.576 10.5336 28.4562 10.1995 28.1255 10.005L27.872 10.436L27.6185 10.867C27.6127 10.8636 27.6039 10.8572 27.5946 10.8472C27.5853 10.8372 27.579 10.8272 27.5752 10.8195C27.5681 10.8048 27.576 10.8108 27.576 10.856H28.076ZM27.872 10.436L28.137 10.012C27.8899 9.85759 27.5803 9.816 27.284 9.816V10.316V10.816C27.3924 10.816 27.4724 10.8244 27.529 10.8359C27.5865 10.8476 27.6071 10.8601 27.607 10.86L27.872 10.436ZM27.284 10.316V9.816H25.604V10.316V10.816H27.284V10.316ZM25.604 10.316H25.104V14.864H25.604H26.104V10.316H25.604ZM25.604 14.864V15.364H27.572V14.864V14.364H25.604V14.864ZM27.572 14.864V15.364C27.9113 15.364 28.2548 15.2707 28.5058 14.9998C28.75 14.7362 28.828 14.388 28.828 14.048H28.328H27.828C27.828 14.252 27.78 14.3118 27.7722 14.3202C27.7712 14.3213 27.7367 14.364 27.572 14.364V14.864ZM36.9618 14.18L37.3093 14.5395L37.3095 14.5393L36.9618 14.18ZM33.3138 14.528V14.028H32.8138V14.528H33.3138ZM33.7098 15.092L33.9593 14.6587V14.6587L33.7098 15.092ZM35.5938 15.176L35.4229 14.7061V14.7061L35.5938 15.176ZM35.7258 15.128L35.8967 15.5979L35.9157 15.591L35.9341 15.5825L35.7258 15.128ZM36.8658 15.536L37.3164 15.319L37.311 15.3084L36.8658 15.536ZM32.8818 16.856L32.6743 17.311L32.6839 17.3152L32.8818 16.856ZM31.8138 16.04L32.2115 15.737L32.2085 15.733L31.8138 16.04ZM32.0298 11.456L32.3695 11.8229L32.3697 11.8227L32.0298 11.456ZM36.9258 11.72L37.3443 11.4464L37.3425 11.4436L36.9258 11.72ZM35.0418 12.608L34.7238 12.9941L34.7348 13.0027L35.0418 12.608ZM33.6738 12.764L33.9892 13.1521L33.9962 13.1461L33.6738 12.764ZM33.2898 13.436H32.7898V13.936H33.2898V13.436ZM37.3338 13.088H36.8338C36.8338 13.4975 36.7303 13.7083 36.6141 13.8207L36.9618 14.18L37.3095 14.5393C37.6894 14.1717 37.8338 13.6545 37.8338 13.088H37.3338ZM36.9618 14.18L36.6143 13.8205C36.4546 13.9749 36.3072 14.028 36.1578 14.028V14.528V15.028C36.6004 15.028 36.989 14.8491 37.3093 14.5395L36.9618 14.18ZM36.1578 14.528V14.028H33.3138V14.528V15.028H36.1578V14.528ZM33.3138 14.528H32.8138C32.8138 14.9933 33.1044 15.3204 33.4603 15.5253L33.7098 15.092L33.9593 14.6587C33.8709 14.6078 33.8347 14.5678 33.822 14.5497C33.8135 14.5376 33.8138 14.5344 33.8138 14.528H33.3138ZM33.7098 15.092L33.4603 15.5253C33.7884 15.7142 34.1375 15.82 34.5018 15.82V15.32V14.82C34.3381 14.82 34.1592 14.7738 33.9593 14.6587L33.7098 15.092ZM34.5018 15.32V15.82C34.9912 15.82 35.4218 15.7706 35.7647 15.6459L35.5938 15.176L35.4229 14.7061C35.2378 14.7734 34.9404 14.82 34.5018 14.82V15.32ZM35.5938 15.176L35.7647 15.6459L35.8967 15.5979L35.7258 15.128L35.5549 14.6581L35.4229 14.7061L35.5938 15.176ZM35.7258 15.128L35.9341 15.5825C36.098 15.5074 36.1817 15.496 36.2058 15.496V14.996V14.496C35.9739 14.496 35.7376 14.5726 35.5175 14.6735L35.7258 15.128ZM36.2058 14.996V15.496C36.2098 15.496 36.2116 15.4964 36.2142 15.4974C36.2175 15.4987 36.2282 15.5033 36.2462 15.518C36.2852 15.5499 36.3477 15.621 36.4206 15.7636L36.8658 15.536L37.311 15.3084C37.0954 14.8866 36.7441 14.496 36.2058 14.496V14.996ZM36.8658 15.536L36.4153 15.7529C36.5036 15.9362 36.5218 16.0421 36.5218 16.088H37.0218H37.5218C37.5218 15.8299 37.4361 15.5678 37.3163 15.3191L36.8658 15.536ZM37.0218 16.088H36.5218C36.5218 16.1579 36.5039 16.2025 36.4712 16.2434C36.4323 16.2922 36.3516 16.3601 36.19 16.4277C35.8569 16.5669 35.2981 16.656 34.4658 16.656V17.156V17.656C35.3376 17.656 36.0567 17.5671 36.5756 17.3503C36.84 17.2399 37.0788 17.0853 37.2529 16.8671C37.4332 16.641 37.5218 16.3741 37.5218 16.088H37.0218ZM34.4658 17.156V16.656C33.9303 16.656 33.4714 16.5657 33.0797 16.3968L32.8818 16.856L32.6839 17.3152C33.2202 17.5463 33.8173 17.656 34.4658 17.656V17.156ZM32.8818 16.856L33.0893 16.4011C32.6943 16.2209 32.4091 15.9963 32.2115 15.737L31.8138 16.04L31.4161 16.343C31.7306 16.7557 32.1573 17.0751 32.6743 17.3109L32.8818 16.856ZM31.8138 16.04L32.2085 15.733C31.7708 15.1703 31.5578 14.5537 31.5578 13.868H31.0578H30.5578C30.5578 14.7823 30.8488 15.6137 31.4191 16.347L31.8138 16.04ZM31.0578 13.868H31.5578C31.5578 12.9776 31.8386 12.3145 32.3695 11.8229L32.0298 11.456L31.6901 11.0891C30.925 11.7975 30.5578 12.7424 30.5578 13.868H31.0578ZM32.0298 11.456L32.3697 11.8227C32.9245 11.3085 33.6153 11.044 34.4778 11.044V10.544V10.044C33.3883 10.044 32.4472 10.3875 31.6899 11.0893L32.0298 11.456ZM34.4778 10.544V11.044C35.4575 11.044 36.0997 11.3791 36.5091 11.9964L36.9258 11.72L37.3425 11.4436C36.7119 10.4929 35.7222 10.044 34.4778 10.044V10.544ZM36.9258 11.72L36.5073 11.9936C36.7263 12.3285 36.8338 12.6894 36.8338 13.088H37.3338H37.8338C37.8338 12.4946 37.6694 11.9435 37.3443 11.4464L36.9258 11.72ZM34.8018 13.436V13.936C35.0119 13.936 35.2627 13.8936 35.4659 13.7225C35.6855 13.5375 35.7578 13.2818 35.7578 13.052H35.2578H34.7578C34.7578 13.0676 34.7554 13.0587 34.7644 13.036C34.7746 13.0102 34.7939 12.981 34.8217 12.9575C34.8477 12.9357 34.8675 12.9302 34.8662 12.9306C34.8636 12.9313 34.8444 12.936 34.8018 12.936V13.436ZM35.2578 13.052H35.7578C35.7578 12.7153 35.6158 12.421 35.3488 12.2133L35.0418 12.608L34.7348 13.0027C34.7446 13.0102 34.7495 13.0156 34.7517 13.0183C34.7528 13.0196 34.7535 13.0205 34.7537 13.0209C34.754 13.0214 34.7541 13.0216 34.7542 13.0217C34.7543 13.0219 34.7544 13.0222 34.7546 13.0228C34.7548 13.0235 34.7552 13.0247 34.7557 13.0267C34.7565 13.0307 34.7578 13.0387 34.7578 13.052H35.2578ZM35.0418 12.608L35.3597 12.222C35.099 12.0074 34.7662 11.94 34.4418 11.94V12.44V12.94C34.6454 12.94 34.7126 12.9846 34.724 12.994L35.0418 12.608ZM34.4418 12.44V11.94C34.0355 11.94 33.6694 12.1136 33.3514 12.3819L33.6738 12.764L33.9962 13.1461C34.1903 12.9824 34.3361 12.94 34.4418 12.94V12.44ZM33.6738 12.764L33.3585 12.3759C33.0319 12.6413 32.7898 12.9945 32.7898 13.436H33.2898H33.7898C33.7898 13.3975 33.8037 13.3027 33.9891 13.1521L33.6738 12.764ZM33.2898 13.436V13.936H34.8018V13.436V12.936H33.2898V13.436ZM43.6247 11.6L43.2451 11.9254L43.2497 11.9306L43.6247 11.6ZM44.4047 16.364L43.9115 16.2818L43.9085 16.3002L43.9068 16.3187L44.4047 16.364ZM44.3087 16.664L44.7526 16.8942L44.7559 16.8876L44.3087 16.664ZM42.3887 16.544L42.868 16.4015L42.8644 16.3895L42.8602 16.3776L42.3887 16.544ZM42.0287 13.052L41.6751 13.4056L41.6828 13.413L42.0287 13.052ZM40.5047 13.064L40.1584 12.7032L40.1512 12.7104L40.5047 13.064ZM40.1927 16.364L39.6995 16.2818L39.6965 16.3002L39.6948 16.3187L40.1927 16.364ZM40.0847 16.664L39.6506 16.4159L39.6419 16.4312L39.6342 16.4471L40.0847 16.664ZM38.2367 16.664L37.7836 16.8754L37.788 16.8849L37.7928 16.8942L38.2367 16.664ZM38.1287 16.352L37.6304 16.3935L37.6325 16.4176L37.6368 16.4414L38.1287 16.352ZM38.1287 11.288L37.6355 11.2058L37.6325 11.2242L37.6308 11.2427L38.1287 11.288ZM38.2487 10.976L38.6829 11.2241L38.685 11.2203L38.2487 10.976ZM40.0727 10.952L40.5037 10.6985L40.4998 10.692L40.0727 10.952ZM40.1927 11.444H39.6927V13.3268L40.6268 11.6921L40.1927 11.444ZM40.4087 11.204L40.7489 11.5704H40.7489L40.4087 11.204ZM40.7327 10.952L40.9948 11.3778L41.0039 11.3722L41.0129 11.3661L40.7327 10.952ZM41.6327 10.676V11.176C42.2844 11.176 42.8105 11.4184 43.2451 11.9254L43.6247 11.6L44.0043 11.2746C43.3829 10.5496 42.581 10.176 41.6327 10.176V10.676ZM43.6247 11.6L43.2497 11.9306C43.698 12.4392 43.9287 13.0625 43.9287 13.832H44.4287H44.9287C44.9287 12.8415 44.6235 11.9768 43.9998 11.2694L43.6247 11.6ZM44.4287 13.832H43.9287V15.944H44.4287H44.9287V13.832H44.4287ZM44.4287 15.944H43.9287C43.9287 16.1201 43.9206 16.2272 43.9115 16.2818L44.4047 16.364L44.8979 16.4462C44.9208 16.3088 44.9287 16.1359 44.9287 15.944H44.4287ZM44.4047 16.364L43.9068 16.3187C43.9062 16.3246 43.9003 16.3627 43.8615 16.4404L44.3087 16.664L44.7559 16.8876C44.8291 16.7413 44.8872 16.5794 44.9027 16.4093L44.4047 16.364ZM44.3087 16.664L43.8648 16.4338C43.8862 16.3926 43.9061 16.4072 43.8272 16.4345C43.7445 16.4631 43.6002 16.488 43.3727 16.488V16.988V17.488C43.6572 17.488 43.925 17.4589 44.1543 17.3795C44.3873 17.2988 44.6192 17.1514 44.7526 16.8942L44.3087 16.664ZM43.3727 16.988V16.488C43.1231 16.488 42.9791 16.4541 42.9064 16.4212C42.89 16.4138 42.8793 16.4074 42.873 16.4031C42.8699 16.4009 42.8678 16.3992 42.8665 16.3981C42.8652 16.397 42.8646 16.3964 42.8646 16.3964C42.8646 16.3964 42.8649 16.3967 42.8654 16.3974C42.866 16.3982 42.8666 16.399 42.8671 16.4C42.8683 16.4021 42.8684 16.403 42.868 16.4015L42.3887 16.544L41.9095 16.6865C42.0018 16.9973 42.2229 17.2099 42.4951 17.3328C42.7503 17.4479 43.0544 17.488 43.3727 17.488V16.988ZM42.3887 16.544L42.8602 16.3776C42.8411 16.3234 42.8167 16.1883 42.8167 15.932H42.3167H41.8167C41.8167 16.2197 41.8403 16.4926 41.9172 16.7104L42.3887 16.544ZM42.3167 15.932H42.8167V13.82H42.3167H41.8167V15.932H42.3167ZM42.3167 13.82H42.8167C42.8167 13.3897 42.6872 12.9905 42.3747 12.691L42.0287 13.052L41.6828 13.413C41.7543 13.4815 41.8167 13.5943 41.8167 13.82H42.3167ZM42.0287 13.052L42.3823 12.6984C42.0839 12.4 41.693 12.276 41.2727 12.276V12.776V13.276C41.4925 13.276 41.6056 13.336 41.6752 13.4056L42.0287 13.052ZM41.2727 12.776V12.276C40.8492 12.276 40.4635 12.4105 40.1585 12.7033L40.5047 13.064L40.851 13.4247C40.9459 13.3335 41.0722 13.276 41.2727 13.276V12.776ZM40.5047 13.064L40.1512 12.7104C39.8513 13.0104 39.7167 13.3968 39.7167 13.82H40.2167H40.7167C40.7167 13.6192 40.7742 13.5016 40.8583 13.4176L40.5047 13.064ZM40.2167 13.82H39.7167V15.944H40.2167H40.7167V13.82H40.2167ZM40.2167 15.944H39.7167C39.7167 16.1201 39.7086 16.2272 39.6995 16.2818L40.1927 16.364L40.6859 16.4462C40.7088 16.3088 40.7167 16.1359 40.7167 15.944H40.2167ZM40.1927 16.364L39.6948 16.3187C39.6953 16.3128 39.6957 16.3179 39.6893 16.3356C39.6829 16.3534 39.6712 16.3799 39.6506 16.4159L40.0847 16.664L40.5188 16.9121C40.6034 16.7642 40.6739 16.5937 40.6907 16.4093L40.1927 16.364ZM40.0847 16.664L39.6342 16.4471C39.658 16.3977 39.6856 16.4088 39.6103 16.4352C39.5308 16.463 39.3887 16.488 39.1607 16.488V16.988V17.488C39.4448 17.488 39.7126 17.459 39.9412 17.3788C40.1739 17.2972 40.4075 17.1463 40.5352 16.8809L40.0847 16.664ZM39.1607 16.988V16.488C38.9378 16.488 38.7973 16.4633 38.7172 16.4352C38.6414 16.4086 38.6603 16.3947 38.6806 16.4338L38.2367 16.664L37.7928 16.8942C37.9252 17.1493 38.154 17.2974 38.3863 17.3788C38.6142 17.4587 38.8796 17.488 39.1607 17.488V16.988ZM38.2367 16.664L38.6898 16.4526C38.6441 16.3547 38.6263 16.2935 38.6207 16.2626L38.1287 16.352L37.6368 16.4414C37.6632 16.5865 37.7173 16.7333 37.7836 16.8754L38.2367 16.664ZM38.1287 16.352L38.627 16.3105C38.6208 16.2356 38.6167 16.1122 38.6167 15.932H38.1167H37.6167C37.6167 16.1198 37.6207 16.2764 37.6304 16.3935L38.1287 16.352ZM38.1167 15.932H38.6167V11.684H38.1167H37.6167V15.932H38.1167ZM38.1167 11.684H38.6167C38.6167 11.5114 38.6208 11.3979 38.6267 11.3333L38.1287 11.288L37.6308 11.2427C37.6206 11.3541 37.6167 11.5046 37.6167 11.684H38.1167ZM38.1287 11.288L38.6219 11.3702C38.6256 11.3481 38.6392 11.3005 38.6828 11.2241L38.2487 10.976L37.8146 10.7279C37.7302 10.8755 37.6638 11.0359 37.6355 11.2058L38.1287 11.288ZM38.2487 10.976L38.685 11.2203C38.6581 11.2683 38.6344 11.2537 38.7181 11.2266C38.8026 11.1991 38.9474 11.176 39.1727 11.176V10.676V10.176C38.8941 10.176 38.6329 10.2029 38.4093 10.2754C38.185 10.3483 37.9513 10.4837 37.8125 10.7317L38.2487 10.976ZM39.1727 10.676V11.176C39.3914 11.176 39.5333 11.1973 39.6171 11.223C39.7026 11.2492 39.677 11.2635 39.6456 11.212L40.0727 10.952L40.4998 10.692C40.3565 10.4565 40.1248 10.3328 39.9103 10.267C39.6941 10.2007 39.4421 10.176 39.1727 10.176V10.676ZM40.0727 10.952L39.6418 11.2055C39.6677 11.2496 39.6927 11.3218 39.6927 11.444H40.1927H40.6927C40.6927 11.1822 40.6378 10.9264 40.5037 10.6985L40.0727 10.952ZM40.1927 11.444L40.6268 11.6921C40.6173 11.7087 40.6167 11.7051 40.6424 11.6765C40.6652 11.6511 40.6998 11.6161 40.7489 11.5704L40.4087 11.204L40.0685 10.8376C39.9562 10.9418 39.8323 11.067 39.7586 11.1959L40.1927 11.444ZM40.4087 11.204L40.7489 11.5704C40.8426 11.4834 40.9247 11.421 40.9948 11.3778L40.7327 10.952L40.4707 10.5262C40.3328 10.611 40.1988 10.7166 40.0685 10.8376L40.4087 11.204ZM40.7327 10.952L41.0129 11.3661C41.2023 11.238 41.4047 11.176 41.6327 11.176V10.676V10.176C41.2047 10.176 40.8072 10.298 40.4526 10.5379L40.7327 10.952ZM48.9489 12.8L48.9182 13.2991L48.9335 13.3H48.9489V12.8ZM48.1689 12.752L48.1996 12.2529L47.6689 12.2203V12.752H48.1689ZM48.2649 14.876L47.8489 15.1533L47.8565 15.1649L47.8649 15.176L48.2649 14.876ZM49.0809 15.044L48.9987 15.5372L49.0205 15.5408L49.0425 15.5425L49.0809 15.044ZM49.4049 15.152L49.1568 15.5861L49.1588 15.5873L49.4049 15.152ZM49.3449 16.88L49.5564 17.3333L49.5685 17.3272L49.3449 16.88ZM49.0209 16.988L49.0661 17.4859L49.0847 17.4843L49.1031 17.4812L49.0209 16.988ZM46.7289 16.436L47.0571 16.0588V16.0588L46.7289 16.436ZM46.0809 12.752H46.5809V12.1669L46.0029 12.2581L46.0809 12.752ZM45.1449 12.584L44.7589 12.9019L44.7643 12.9084L44.77 12.9148L45.1449 12.584ZM45.0369 11.18L45.5187 11.3138L45.5204 11.3072L45.0369 11.18ZM45.2049 10.856L44.8896 10.4679L44.881 10.4749L44.8727 10.4823L45.2049 10.856ZM45.6849 10.7L45.745 10.2036L45.7151 10.2H45.6849V10.7ZM46.0809 10.748L46.0207 11.2444L46.5809 11.3123V10.748H46.0809ZM46.0929 9.104L45.6009 9.01456L45.5969 9.03651L45.5949 9.05873L46.0929 9.104ZM46.2129 8.816L46.6387 9.07805L46.6482 9.06268L46.6565 9.04668L46.2129 8.816ZM48.1089 8.96L48.5861 8.81086L48.5835 8.80251L48.5806 8.79426L48.1089 8.96ZM48.1689 10.748H47.6689V11.2955L48.2141 11.2459L48.1689 10.748ZM49.3689 10.724L49.2794 11.2159L49.3032 11.2203L49.3274 11.2223L49.3689 10.724ZM49.6929 10.832L49.4575 11.2733L49.4693 11.2792L49.6929 10.832ZM49.6809 12.68L49.8923 13.1331L49.9018 13.1287L49.911 13.1239L49.6809 12.68ZM49.3569 12.788L49.4021 13.2859L49.4207 13.2843L49.4391 13.2812L49.3569 12.788ZM48.9489 12.8L48.9796 12.3009L48.1996 12.2529L48.1689 12.752L48.1382 13.2511L48.9182 13.2991L48.9489 12.8ZM48.1689 12.752H47.6689V14.408H48.1689H48.6689V12.752H48.1689ZM48.1689 14.408H47.6689C47.6689 14.6493 47.7001 14.9302 47.8489 15.1533L48.2649 14.876L48.6809 14.5986C48.6955 14.6205 48.6903 14.6238 48.6827 14.5865C48.6754 14.5509 48.6689 14.4933 48.6689 14.408H48.1689ZM48.2649 14.876L47.8649 15.176C48.0732 15.4538 48.3937 15.52 48.6489 15.52V15.02V14.52C48.6243 14.52 48.6075 14.5184 48.5974 14.5168C48.5873 14.5153 48.5858 14.5141 48.5904 14.5158C48.5954 14.5177 48.6069 14.5227 48.6215 14.5332C48.6365 14.544 48.6517 14.5584 48.6649 14.576L48.2649 14.876ZM48.6489 15.02V15.52C48.8344 15.52 48.9448 15.5282 48.9987 15.5372L49.0809 15.044L49.1631 14.5508C49.025 14.5278 48.8473 14.52 48.6489 14.52V15.02ZM49.0809 15.044L49.0425 15.5425C49.0574 15.5437 49.0942 15.5504 49.1568 15.5861L49.4049 15.152L49.6529 14.7179C49.4915 14.6256 49.3124 14.5603 49.1192 14.5455L49.0809 15.044ZM49.4049 15.152L49.1588 15.5873C49.1126 15.5612 49.119 15.5351 49.139 15.5933C49.1602 15.6552 49.1809 15.7694 49.1809 15.956H49.6809H50.1809C50.1809 15.7106 50.1555 15.4748 50.0848 15.2687C50.0128 15.0589 49.8811 14.8468 49.6509 14.7167L49.4049 15.152ZM49.6809 15.956H49.1809C49.1809 16.1777 49.1553 16.3161 49.127 16.3941C49.1008 16.4662 49.087 16.4499 49.1213 16.4328L49.3449 16.88L49.5685 17.3272C49.8268 17.1981 49.981 16.9718 50.0668 16.7359C50.1504 16.5059 50.1809 16.2383 50.1809 15.956H49.6809ZM49.3449 16.88L49.1334 16.4269C49.0408 16.4701 48.9772 16.4884 48.9387 16.4948L49.0209 16.988L49.1031 17.4812C49.2566 17.4556 49.4089 17.4019 49.5563 17.3331L49.3449 16.88ZM49.0209 16.988L48.9756 16.4901C48.911 16.4959 48.7975 16.5 48.6249 16.5V17V17.5C48.8043 17.5 48.9548 17.4961 49.0661 17.4859L49.0209 16.988ZM48.6249 17V16.5C47.86 16.5 47.3645 16.3264 47.0571 16.0588L46.7289 16.436L46.4006 16.8132C46.9572 17.2976 47.7258 17.5 48.6249 17.5V17ZM46.7289 16.436L47.0571 16.0588C46.7833 15.8205 46.5809 15.3604 46.5809 14.528H46.0809H45.5809C45.5809 15.4876 45.8105 16.2995 46.4006 16.8132L46.7289 16.436ZM46.0809 14.528H46.5809V12.752H46.0809H45.5809V14.528H46.0809ZM46.0809 12.752L46.0029 12.2581C45.88 12.2775 45.7424 12.288 45.5889 12.288V12.788V13.288C45.7874 13.288 45.9777 13.2745 46.1589 13.2459L46.0809 12.752ZM45.5889 12.788V12.288C45.567 12.288 45.558 12.2842 45.5546 12.2827C45.5509 12.2809 45.5389 12.2748 45.5198 12.2532L45.1449 12.584L44.77 12.9148C44.9816 13.1546 45.2645 13.288 45.5889 13.288V12.788ZM45.1449 12.584L45.5308 12.2661C45.5369 12.2735 45.5211 12.2579 45.5049 12.1907C45.4889 12.1244 45.4769 12.0261 45.4769 11.888H44.9769H44.4769C44.4769 12.2445 44.5321 12.6264 44.7589 12.9019L45.1449 12.584ZM44.9769 11.888H45.4769C45.4769 11.5646 45.4982 11.3874 45.5186 11.3138L45.0369 11.18L44.5551 11.0462C44.4956 11.2606 44.4769 11.5554 44.4769 11.888H44.9769ZM45.0369 11.18L45.5204 11.3072C45.5336 11.2572 45.5458 11.2285 45.5528 11.2152C45.5597 11.2018 45.557 11.212 45.5371 11.2297L45.2049 10.856L44.8727 10.4823C44.6939 10.6412 44.6041 10.86 44.5533 11.0528L45.0369 11.18ZM45.2049 10.856L45.5202 11.2441C45.5448 11.224 45.5879 11.2 45.6849 11.2V10.7V10.2C45.3978 10.2 45.1209 10.28 44.8896 10.4679L45.2049 10.856ZM45.6849 10.7L45.6247 11.1964L46.0207 11.2444L46.0809 10.748L46.141 10.2516L45.745 10.2036L45.6849 10.7ZM46.0809 10.748H46.5809V9.512H46.0809H45.5809V10.748H46.0809ZM46.0809 9.512H46.5809C46.5809 9.33062 46.585 9.21349 46.5908 9.14927L46.0929 9.104L45.5949 9.05873C45.5848 9.17051 45.5809 9.32538 45.5809 9.512H46.0809ZM46.0929 9.104L46.5848 9.19344C46.5864 9.18447 46.5962 9.14719 46.6387 9.07805L46.2129 8.816L45.787 8.55395C45.7016 8.69281 45.6313 8.84753 45.6009 9.01456L46.0929 9.104ZM46.2129 8.816L46.6565 9.04668C46.6258 9.10567 46.5925 9.09378 46.6763 9.06656C46.7601 9.03934 46.9066 9.016 47.1369 9.016V8.516V8.016C46.8552 8.016 46.5916 8.04266 46.3675 8.11544C46.1433 8.18822 45.9039 8.32633 45.7693 8.58532L46.2129 8.816ZM47.1369 8.516V9.016C47.3713 9.016 47.5085 9.0491 47.5801 9.0818C47.6368 9.1077 47.6365 9.12381 47.6371 9.12574L48.1089 8.96L48.5806 8.79426C48.3624 8.17312 47.7201 8.016 47.1369 8.016V8.516ZM48.1089 8.96L47.6316 9.10914C47.6476 9.16039 47.6689 9.3 47.6689 9.572H48.1689H48.6689C48.6689 9.284 48.6501 9.01561 48.5861 8.81086L48.1089 8.96ZM48.1689 9.572H47.6689V10.748H48.1689H48.6689V9.572H48.1689ZM48.1689 10.748L48.2141 11.2459C48.5629 11.2142 48.8084 11.2 48.9609 11.2V10.7V10.2C48.7613 10.2 48.4789 10.2178 48.1236 10.2501L48.1689 10.748ZM48.9609 10.7V11.2C49.1393 11.2 49.2379 11.2084 49.2794 11.2159L49.3689 10.724L49.4583 10.2321C49.3238 10.2076 49.1504 10.2 48.9609 10.2V10.7ZM49.3689 10.724L49.3274 11.2223C49.3337 11.2228 49.3747 11.229 49.4576 11.2732L49.6929 10.832L49.9282 10.3908C49.7711 10.307 49.596 10.2412 49.4104 10.2257L49.3689 10.724ZM49.6929 10.832L49.4693 11.2792C49.4149 11.252 49.4263 11.2215 49.4532 11.301C49.4807 11.3826 49.5049 11.5269 49.5049 11.756H50.0049H50.5049C50.5049 11.4731 50.477 11.2074 50.4006 10.981C50.3234 10.7525 50.1788 10.516 49.9165 10.3848L49.6929 10.832ZM50.0049 11.756H49.5049C49.5049 11.9789 49.4801 12.1195 49.452 12.1996C49.4255 12.2753 49.4115 12.2564 49.4507 12.2361L49.6809 12.68L49.911 13.1239C50.1662 12.9916 50.3143 12.7627 50.3957 12.5304C50.4756 12.3025 50.5049 12.0371 50.5049 11.756H50.0049ZM49.6809 12.68L49.4694 12.2269C49.3768 12.2701 49.3132 12.2884 49.2747 12.2948L49.3569 12.788L49.4391 13.2812C49.5926 13.2556 49.7449 13.2019 49.8923 13.1331L49.6809 12.68ZM49.3569 12.788L49.3116 12.2901C49.2474 12.2959 49.1303 12.3 48.9489 12.3V12.8V13.3C49.1355 13.3 49.2904 13.2961 49.4021 13.2859L49.3569 12.788ZM51.4955 11.468L51.8357 11.8344V11.8344L51.4955 11.468ZM56.0915 11.468L55.7491 11.8324L55.7514 11.8346L56.0915 11.468ZM56.5715 15.608L56.9865 15.8869L56.9885 15.8839L56.5715 15.608ZM55.3115 16.748L55.5322 17.1967L55.5351 17.1952L55.3115 16.748ZM52.2515 16.724L52.0166 17.1654L52.0222 17.1683L52.2515 16.724ZM50.9915 15.572L50.5734 15.8464L50.5785 15.8539L50.9915 15.572ZM52.9955 14.708L52.6876 15.1021L52.6955 15.108L52.9955 14.708ZM54.5675 14.696L54.2656 14.2975V14.2975L54.5675 14.696ZM54.5915 12.932L54.2854 13.3274V13.3274L54.5915 12.932ZM52.9835 12.944L52.6696 12.5548V12.5548L52.9835 12.944ZM50.4875 13.844H50.9875C50.9875 13.0157 51.2709 12.3589 51.8357 11.8344L51.4955 11.468L51.1553 11.1016C50.3761 11.8251 49.9875 12.7523 49.9875 13.844H50.4875ZM51.4955 11.468L51.8357 11.8344C52.4215 11.2905 53.07 11.032 53.7995 11.032V10.532V10.032C52.801 10.032 51.9135 10.3975 51.1553 11.1016L51.4955 11.468ZM53.7995 10.532V11.032C54.5288 11.032 55.1722 11.2903 55.7491 11.8324L56.0915 11.468L56.4339 11.1036C55.6828 10.3977 54.7982 10.032 53.7995 10.032V10.532ZM56.0915 11.468L55.7514 11.8346C56.3068 12.3498 56.5875 13.0017 56.5875 13.832H57.0875H57.5875C57.5875 12.7423 57.2042 11.8182 56.4316 11.1014L56.0915 11.468ZM57.0875 13.832H56.5875C56.5875 14.4046 56.4408 14.8994 56.1545 15.3321L56.5715 15.608L56.9885 15.8839C57.3902 15.2766 57.5875 14.5874 57.5875 13.832H57.0875ZM56.5715 15.608L56.1565 15.3292C55.8551 15.7777 55.4982 16.0956 55.0879 16.3008L55.3115 16.748L55.5351 17.1952C56.1168 16.9044 56.5999 16.4623 56.9865 15.8868L56.5715 15.608ZM55.3115 16.748L55.0908 16.2993C54.6694 16.5066 54.2367 16.608 53.7875 16.608V17.108V17.608C54.3943 17.608 54.9776 17.4694 55.5322 17.1967L55.3115 16.748ZM53.7875 17.108V16.608C53.3439 16.608 52.9101 16.5012 52.4808 16.2797L52.2515 16.724L52.0222 17.1683C52.5849 17.4588 53.1751 17.608 53.7875 17.608V17.108ZM52.2515 16.724L52.4864 16.2826C52.0678 16.0598 51.7069 15.7332 51.4045 15.2901L50.9915 15.572L50.5785 15.8539C50.9641 16.4188 51.4432 16.8602 52.0166 17.1654L52.2515 16.724ZM50.9915 15.572L51.4095 15.2977C51.1295 14.871 50.9875 14.3912 50.9875 13.844H50.4875H49.9875C49.9875 14.5768 50.1815 15.249 50.5735 15.8463L50.9915 15.572ZM52.9955 14.708L52.6955 15.108C53.0192 15.3508 53.3819 15.496 53.7755 15.496V14.996V14.496C53.6411 14.496 53.4838 14.4492 53.2955 14.308L52.9955 14.708ZM53.7755 14.996V15.496C54.1737 15.496 54.541 15.3434 54.8694 15.0945L54.5675 14.696L54.2656 14.2975C54.066 14.4486 53.9053 14.496 53.7755 14.496V14.996ZM54.5675 14.696L54.8694 15.0945C55.2819 14.782 55.4635 14.3241 55.4635 13.808H54.9635H54.4635C54.4635 14.0759 54.3811 14.21 54.2656 14.2975L54.5675 14.696ZM54.9635 13.808H55.4635C55.4635 13.3039 55.2981 12.8467 54.8976 12.5366L54.5915 12.932L54.2854 13.3274C54.3809 13.4013 54.4635 13.5281 54.4635 13.808H54.9635ZM54.5915 12.932L54.8976 12.5366C54.5703 12.2832 54.1963 12.144 53.7875 12.144V12.644V13.144C53.9547 13.144 54.1167 13.1968 54.2854 13.3274L54.5915 12.932ZM53.7875 12.644V12.144C53.373 12.144 52.9965 12.2912 52.6696 12.5548L52.9835 12.944L53.2974 13.3332C53.4665 13.1968 53.626 13.144 53.7875 13.144V12.644ZM52.9835 12.944L52.6696 12.5548C52.277 12.8714 52.1115 13.3271 52.1115 13.832H52.6115H53.1115C53.1115 13.5529 53.194 13.4166 53.2974 13.3332L52.9835 12.944ZM52.6115 13.832H52.1115C52.1115 14.3385 52.2876 14.7895 52.6877 15.102L52.9955 14.708L53.3033 14.314C53.1914 14.2265 53.1115 14.0935 53.1115 13.832H52.6115ZM57.7428 14.924L57.2611 15.0578L57.2639 15.0679L57.2671 15.0779L57.7428 14.924ZM57.7548 13.832L58.2263 13.9984V13.9984L57.7548 13.832ZM57.9828 13.544L57.7592 13.0968L57.7524 13.1002L57.7458 13.1038L57.9828 13.544ZM62.2068 13.832L61.7281 13.9771L61.7325 13.9901L62.2068 13.832ZM62.2068 14.936L61.7325 14.7779L61.7296 14.7864L61.7271 14.7949L62.2068 14.936ZM62.0028 15.224L62.2264 15.6712L62.2408 15.664L62.2547 15.6559L62.0028 15.224ZM61.4028 15.332V14.832H58.5468V15.332V15.832H61.4028V15.332ZM58.5468 15.332V14.832C58.366 14.832 58.274 14.8034 58.2361 14.7841C58.22 14.776 58.2172 14.7714 58.2193 14.7738C58.2217 14.7766 58.2209 14.7774 58.2185 14.7701L57.7428 14.924L57.2671 15.0779C57.3543 15.3476 57.5376 15.5511 57.7835 15.6759C58.0136 15.7926 58.2796 15.832 58.5468 15.832V15.332ZM57.7428 14.924L58.2246 14.7902C58.2011 14.7056 58.1828 14.5709 58.1828 14.372H57.6828H57.1828C57.1828 14.6211 57.2045 14.8544 57.2611 15.0578L57.7428 14.924ZM57.6828 14.372H58.1828C58.1828 14.1769 58.2046 14.0599 58.2263 13.9984L57.7548 13.832L57.2833 13.6656C57.209 13.8761 57.1828 14.1191 57.1828 14.372H57.6828ZM57.7548 13.832L58.2263 13.9984C58.2351 13.9734 58.2416 13.9662 58.2398 13.9684C58.239 13.9695 58.2366 13.9722 58.2327 13.9755C58.2287 13.9789 58.2242 13.9819 58.2199 13.9842L57.9828 13.544L57.7458 13.1038C57.5093 13.2311 57.3631 13.4395 57.2833 13.6656L57.7548 13.832ZM57.9828 13.544L58.2064 13.9912C58.2553 13.9668 58.3615 13.936 58.5588 13.936V13.436V12.936C58.2761 12.936 57.9983 12.9772 57.7592 13.0968L57.9828 13.544ZM58.5588 13.436V13.936H61.4148V13.436V12.936H58.5588V13.436ZM61.4148 13.436V13.936C61.5978 13.936 61.6893 13.9643 61.7252 13.9822C61.7399 13.9896 61.7399 13.9925 61.7348 13.9867C61.7293 13.9802 61.7276 13.9748 61.7283 13.977L62.2068 13.832L62.6853 13.687C62.6025 13.4136 62.4177 13.2104 62.1724 13.0878C61.9443 12.9737 61.6798 12.936 61.4148 12.936V13.436ZM62.2068 13.832L61.7325 13.9901C61.7575 14.0651 61.7788 14.1907 61.7788 14.384H62.2788H62.7788C62.7788 14.1293 62.7522 13.8869 62.6812 13.6739L62.2068 13.832ZM62.2788 14.384H61.7788C61.7788 14.5773 61.7575 14.7029 61.7325 14.7779L62.2068 14.936L62.6812 15.0941C62.7522 14.8811 62.7788 14.6387 62.7788 14.384H62.2788ZM62.2068 14.936L61.7271 14.7949C61.7196 14.8205 61.7141 14.8262 61.7178 14.821C61.7197 14.8183 61.7236 14.8135 61.7297 14.8078C61.7359 14.8021 61.7431 14.7967 61.7509 14.7921L62.0028 15.224L62.2547 15.6559C62.489 15.5193 62.6208 15.3004 62.6865 15.0771L62.2068 14.936ZM62.0028 15.224L61.7792 14.7768C61.7338 14.7995 61.6222 14.832 61.4028 14.832V15.332V15.832C61.6955 15.832 61.9838 15.7925 62.2264 15.6712L62.0028 15.224ZM65.3702 14.636L65.0448 15.0157L65.0528 15.0224L65.3702 14.636ZM66.7862 14.696L67.0636 15.112L67.067 15.1097L66.7862 14.696ZM68.2022 15.104L68.594 14.7933L68.5905 14.789L68.2022 15.104ZM67.8182 16.58L67.561 16.1513L67.5456 16.1605L67.531 16.1707L67.8182 16.58ZM63.9902 16.256L63.6826 16.6502L63.6829 16.6504L63.9902 16.256ZM63.1862 15.236L62.7357 15.4529L62.7373 15.4562L63.1862 15.236ZM63.1862 12.416L63.6334 12.6396L63.6351 12.6362L63.1862 12.416ZM63.9902 11.396L64.2979 11.7902L64.3014 11.7874L63.9902 11.396ZM67.0022 10.736L66.8561 11.2143L66.8684 11.2178L67.0022 10.736ZM67.6382 10.976L67.9033 10.5518L67.8917 10.545L67.6382 10.976ZM67.8302 11.096L68.1076 10.68L68.1015 10.6759L68.0952 10.672L67.8302 11.096ZM68.1662 11.324L68.4711 10.9277L68.4622 10.9208L68.4529 10.9144L68.1662 11.324ZM68.2262 12.56L67.8082 12.2857L67.8079 12.2862L68.2262 12.56ZM66.7502 12.956L66.4069 13.3195L66.4426 13.3532L66.4841 13.3793L66.7502 12.956ZM65.0342 13.844H64.5342C64.5342 14.3033 64.6939 14.7148 65.0448 15.0156L65.3702 14.636L65.6956 14.2564C65.5985 14.1732 65.5342 14.0567 65.5342 13.844H65.0342ZM65.3702 14.636L65.0528 15.0224C65.3505 15.2668 65.6955 15.412 66.0782 15.412V14.912V14.412C65.9649 14.412 65.838 14.3732 65.6876 14.2496L65.3702 14.636ZM66.0782 14.912V15.412C66.4344 15.412 66.7667 15.31 67.0636 15.112L66.7862 14.696L66.5089 14.28C66.3738 14.37 66.234 14.412 66.0782 14.412V14.912ZM66.7862 14.696L67.067 15.1097C67.1614 15.0457 67.233 15.007 67.2837 14.9856C67.3369 14.9632 67.3475 14.968 67.3262 14.968V14.468V13.968C67.0312 13.968 66.7442 14.1202 66.5055 14.2823L66.7862 14.696ZM67.3262 14.468V14.968C67.2996 14.968 67.3302 14.9581 67.4315 15.0316C67.5291 15.1025 67.6569 15.2254 67.8139 15.419L68.2022 15.104L68.5905 14.789C68.4035 14.5586 68.2134 14.3635 68.019 14.2224C67.8283 14.0839 67.5928 13.968 67.3262 13.968V14.468ZM68.2022 15.104L67.8105 15.4147C67.9641 15.6084 67.9782 15.7074 67.9782 15.728H68.4782H68.9782C68.9782 15.3806 68.8083 15.0636 68.594 14.7933L68.2022 15.104ZM68.4782 15.728H67.9782C67.9782 15.7605 67.9566 15.9139 67.561 16.1513L67.8182 16.58L68.0755 17.0087C68.5599 16.7181 68.9782 16.3035 68.9782 15.728H68.4782ZM67.8182 16.58L67.531 16.1707C67.1743 16.4211 66.7196 16.56 66.1382 16.56V17.06V17.56C66.8848 17.56 67.5502 17.3789 68.1054 16.9893L67.8182 16.58ZM66.1382 17.06V16.56C65.524 16.56 64.9134 16.3414 64.2975 15.8616L63.9902 16.256L63.6829 16.6504C64.443 17.2426 65.2645 17.56 66.1382 17.56V17.06ZM63.9902 16.256L64.2979 15.8618C64.0371 15.6583 63.8143 15.3811 63.6351 15.0158L63.1862 15.236L62.7373 15.4562C62.9741 15.9389 63.2873 16.3417 63.6826 16.6502L63.9902 16.256ZM63.1862 15.236L63.6367 15.0191C63.4635 14.6593 63.3742 14.2621 63.3742 13.82H62.8742H62.3742C62.3742 14.4019 62.493 14.9487 62.7357 15.4529L63.1862 15.236ZM62.8742 13.82H63.3742C63.3742 13.3684 63.4641 12.9783 63.6334 12.6396L63.1862 12.416L62.739 12.1924C62.4924 12.6857 62.3742 13.2316 62.3742 13.82H62.8742ZM63.1862 12.416L63.6351 12.6362C63.8143 12.2709 64.0371 11.9937 64.2979 11.7902L63.9902 11.396L63.6826 11.0018C63.2873 11.3103 62.9741 11.7131 62.7373 12.1958L63.1862 12.416ZM63.9902 11.396L64.3014 11.7874C64.8889 11.3202 65.4896 11.104 66.1142 11.104V10.604V10.104C65.2348 10.104 64.4195 10.4158 63.679 11.0046L63.9902 11.396ZM66.1142 10.604V11.104C66.3692 11.104 66.6159 11.1408 66.8561 11.2142L67.0022 10.736L67.1483 10.2578C66.8125 10.1552 66.4673 10.104 66.1142 10.104V10.604ZM67.0022 10.736L66.8684 11.2178C67.1447 11.2945 67.3061 11.3607 67.3847 11.407L67.6382 10.976L67.8917 10.545C67.6984 10.4313 67.4357 10.3375 67.136 10.2542L67.0022 10.736ZM67.6382 10.976L67.3732 11.4L67.5652 11.52L67.8302 11.096L68.0952 10.672L67.9032 10.552L67.6382 10.976ZM67.8302 11.096L67.5529 11.512C67.6957 11.6073 67.8041 11.6808 67.8795 11.7336L68.1662 11.324L68.4529 10.9144C68.3684 10.8552 68.2527 10.7767 68.1076 10.68L67.8302 11.096ZM68.1662 11.324L67.8614 11.7203C67.9818 11.8129 67.9782 11.8631 67.9782 11.876H68.4782H68.9782C68.9782 11.4729 68.7667 11.1551 68.4711 10.9277L68.1662 11.324ZM68.4782 11.876H67.9782C67.9782 11.9395 67.9491 12.071 67.8082 12.2857L68.2262 12.56L68.6442 12.8343C68.8393 12.537 68.9782 12.2125 68.9782 11.876H68.4782ZM68.2262 12.56L67.8079 12.2862C67.6802 12.4813 67.573 12.5991 67.4916 12.664C67.4123 12.7272 67.384 12.72 67.3982 12.72V13.22V13.72C67.6765 13.72 67.9182 13.6028 68.1149 13.446C68.3095 13.2909 68.4843 13.0787 68.6446 12.8338L68.2262 12.56ZM67.3982 13.22V12.72C67.412 12.72 67.3877 12.7222 67.3109 12.691C67.2383 12.6614 67.141 12.6111 67.0163 12.5327L66.7502 12.956L66.4841 13.3793C66.77 13.559 67.0921 13.72 67.3982 13.72V13.22ZM66.7502 12.956L67.0935 12.5925C66.8267 12.3405 66.4776 12.252 66.1262 12.252V12.752V13.252C66.3188 13.252 66.3857 13.2995 66.4069 13.3195L66.7502 12.956ZM66.1262 12.752V12.252C65.7296 12.252 65.3718 12.3996 65.0634 12.6548L65.3822 13.04L65.701 13.4252C65.8567 13.2964 65.9948 13.252 66.1262 13.252V12.752ZM65.3822 13.04L65.0634 12.6548C64.6995 12.956 64.5342 13.3748 64.5342 13.844H65.0342H65.5342C65.5342 13.6252 65.6009 13.508 65.701 13.4252L65.3822 13.04ZM74.6791 11.612L74.3016 11.9399L74.3041 11.9426L74.6791 11.612ZM75.4591 16.376L74.9659 16.2938L74.9629 16.3122L74.9612 16.3307L75.4591 16.376ZM75.3511 16.688L74.9098 16.4526L74.9039 16.4644L75.3511 16.688ZM73.5151 16.688L73.0739 16.9233L73.0779 16.9306L73.082 16.9379L73.5151 16.688ZM73.3951 16.364L72.8969 16.4055L72.8986 16.426L72.9019 16.4462L73.3951 16.364ZM71.6551 13.052L71.9622 13.4468L71.971 13.4396L71.6551 13.052ZM71.2831 13.628L70.7885 13.5547L70.7831 13.5912V13.628H71.2831ZM71.2591 16.376L70.7659 16.2938L70.7629 16.3122L70.7612 16.3307L71.2591 16.376ZM71.1511 16.688L70.7098 16.4526L70.7039 16.4644L71.1511 16.688ZM69.3031 16.676L68.85 16.8874L68.8544 16.8969L68.8592 16.9062L69.3031 16.676ZM69.1951 16.364L68.6972 16.4093L68.6992 16.4315L68.7032 16.4534L69.1951 16.364ZM69.1951 8.36L68.7019 8.2778L68.6989 8.29618L68.6972 8.31473L69.1951 8.36ZM69.3031 8.048L68.8592 7.81782L68.8559 7.82439L69.3031 8.048ZM71.1511 8.048L70.7006 8.26491L70.7051 8.2742L70.7099 8.28329L71.1511 8.048ZM71.2591 8.372L70.7609 8.41352L70.7629 8.43764L70.7672 8.46144L71.2591 8.372ZM71.2831 11.432H70.7831V12.8307L71.6698 11.749L71.2831 11.432ZM72.6871 10.7V11.2C73.3412 11.2 73.8679 11.4404 74.3016 11.9398L74.6791 11.612L75.0566 11.2842C74.4344 10.5676 73.6331 10.2 72.6871 10.2V10.7ZM74.6791 11.612L74.3041 11.9426C74.7524 12.4512 74.9831 13.0745 74.9831 13.844H75.4831H75.9831C75.9831 12.8535 75.6779 11.9888 75.0542 11.2814L74.6791 11.612ZM75.4831 13.844H74.9831V15.956H75.4831H75.9831V13.844H75.4831ZM75.4831 15.956H74.9831C74.9831 16.1321 74.975 16.2392 74.9659 16.2938L75.4591 16.376L75.9523 16.4582C75.9752 16.3208 75.9831 16.1479 75.9831 15.956H75.4831ZM75.4591 16.376L74.9612 16.3307C74.9616 16.326 74.9615 16.3338 74.9536 16.3564C74.9459 16.3788 74.9324 16.4106 74.91 16.4527L75.3511 16.688L75.7923 16.9233C75.8725 16.7729 75.9407 16.6018 75.9571 16.4213L75.4591 16.376ZM75.3511 16.688L74.9039 16.4644C74.9311 16.4101 74.9616 16.4215 74.8822 16.4483C74.8005 16.4758 74.6563 16.5 74.4271 16.5V17V17.5C74.71 17.5 74.9757 17.4722 75.2021 17.3957C75.4306 17.3185 75.6672 17.1739 75.7983 16.9116L75.3511 16.688ZM74.4271 17V16.5C74.2127 16.5 74.0752 16.4764 73.995 16.4489C73.9183 16.4227 73.9299 16.4064 73.9482 16.4381L73.5151 16.688L73.082 16.9379C73.2204 17.1776 73.444 17.3173 73.6713 17.3951C73.895 17.4716 74.1536 17.5 74.4271 17.5V17ZM73.5151 16.688L73.9563 16.4527C73.9085 16.3631 73.8926 16.3077 73.8883 16.2818L73.3951 16.364L72.9019 16.4462C72.9296 16.6123 72.9938 16.7729 73.0739 16.9233L73.5151 16.688ZM73.3951 16.364L73.8934 16.3225C73.8872 16.2479 73.8831 16.1209 73.8831 15.932H73.3831H72.8831C72.8831 16.1271 72.8871 16.2881 72.8969 16.4055L73.3951 16.364ZM73.3831 15.932H73.8831V13.832H73.3831H72.8831V15.932H73.3831ZM73.3831 13.832H73.8831C73.8831 13.4078 73.7614 13.0111 73.4607 12.7104L73.1071 13.064L72.7536 13.4176C72.8209 13.4849 72.8831 13.6002 72.8831 13.832H73.3831ZM73.1071 13.064L73.4607 12.7104C73.1725 12.4222 72.8042 12.288 72.3991 12.288V12.788V13.288C72.57 13.288 72.6738 13.3378 72.7536 13.4176L73.1071 13.064ZM72.3991 12.788V12.288C72.0047 12.288 71.645 12.4153 71.3393 12.6644L71.6551 13.052L71.971 13.4396C72.0973 13.3367 72.2336 13.288 72.3991 13.288V12.788ZM71.6551 13.052L71.3482 12.6573C71.0575 12.8834 70.8439 13.1813 70.7885 13.5547L71.2831 13.628L71.7777 13.7013C71.7864 13.6427 71.8207 13.5566 71.9621 13.4467L71.6551 13.052ZM71.2831 13.628H70.7831V15.956H71.2831H71.7831V13.628H71.2831ZM71.2831 15.956H70.7831C70.7831 16.1321 70.775 16.2392 70.7659 16.2938L71.2591 16.376L71.7523 16.4582C71.7752 16.3208 71.7831 16.1479 71.7831 15.956H71.2831ZM71.2591 16.376L70.7612 16.3307C70.7616 16.326 70.7615 16.3338 70.7536 16.3564C70.7459 16.3788 70.7324 16.4106 70.7099 16.4527L71.1511 16.688L71.5923 16.9233C71.6725 16.7729 71.7407 16.6018 71.7571 16.4213L71.2591 16.376ZM71.1511 16.688L70.7039 16.4644C70.7311 16.4101 70.7616 16.4215 70.6822 16.4483C70.6005 16.4758 70.4563 16.5 70.2271 16.5V17V17.5C70.51 17.5 70.7757 17.4722 71.0021 17.3957C71.2306 17.3185 71.4672 17.1739 71.5983 16.9116L71.1511 16.688ZM70.2271 17V16.5C70.0042 16.5 69.8637 16.4753 69.7836 16.4472C69.7079 16.4206 69.7267 16.4067 69.747 16.4458L69.3031 16.676L68.8592 16.9062C68.9916 17.1613 69.2204 17.3094 69.4527 17.3908C69.6806 17.4707 69.946 17.5 70.2271 17.5V17ZM69.3031 16.676L69.7562 16.4646C69.7105 16.3667 69.6927 16.3055 69.6871 16.2746L69.1951 16.364L68.7032 16.4534C68.7296 16.5985 68.7837 16.7453 68.85 16.8874L69.3031 16.676ZM69.1951 16.364L69.6931 16.3187C69.6873 16.2549 69.6831 16.1341 69.6831 15.944H69.1831H68.6831C68.6831 16.1379 68.687 16.2971 68.6972 16.4093L69.1951 16.364ZM69.1831 15.944H69.6831V8.768H69.1831H68.6831V15.944H69.1831ZM69.1831 8.768H69.6831C69.6831 8.58662 69.6872 8.46949 69.6931 8.40527L69.1951 8.36L68.6972 8.31473C68.687 8.42651 68.6831 8.58138 68.6831 8.768H69.1831ZM69.1951 8.36L69.6883 8.4422C69.6942 8.40711 69.7106 8.3511 69.7503 8.27161L69.3031 8.048L68.8559 7.82439C68.7837 7.9689 68.7281 8.12089 68.7019 8.2778L69.1951 8.36ZM69.3031 8.048L69.747 8.27816C69.7256 8.31938 69.7057 8.30483 69.7847 8.27749C69.8674 8.24886 70.0116 8.224 70.2391 8.224V7.724V7.224C69.9546 7.224 69.6869 7.25314 69.4576 7.33251C69.2245 7.41317 68.9926 7.56062 68.8592 7.81784L69.3031 8.048ZM70.2391 7.724V8.224C70.4625 8.224 70.6009 8.24886 70.6777 8.27615C70.7497 8.30171 70.7233 8.31208 70.7006 8.26491L71.1511 8.048L71.6016 7.83109C71.4749 7.56792 71.2446 7.41629 71.0125 7.33385C70.7853 7.25314 70.5198 7.224 70.2391 7.224V7.724ZM71.1511 8.048L70.7099 8.28329C70.7542 8.3662 70.7603 8.40716 70.7609 8.41352L71.2591 8.372L71.7574 8.33048C71.7419 8.14484 71.6761 7.9698 71.5923 7.81271L71.1511 8.048ZM71.2591 8.372L70.7672 8.46144C70.7747 8.50295 70.7831 8.60153 70.7831 8.78H71.2831H71.7831C71.7831 8.59047 71.7755 8.41705 71.7511 8.28256L71.2591 8.372ZM71.2831 8.78H70.7831V11.432H71.2831H71.7831V8.78H71.2831ZM71.2831 11.432L71.6698 11.749C71.9936 11.354 72.3282 11.2 72.6871 11.2V10.7V10.2C71.9741 10.2 71.3727 10.534 70.8964 11.115L71.2831 11.432ZM80.5527 11.348L80.1431 11.6347L80.9078 12.7272L81.0499 11.4013L80.5527 11.348ZM82.1968 10.748L82.3473 10.2712V10.2712L82.1968 10.748ZM82.5088 11L82.0557 11.2114L82.0613 11.2235L82.0676 11.2353L82.5088 11ZM82.6167 11.324L82.1185 11.3655L82.1205 11.3896L82.1248 11.4134L82.6167 11.324ZM82.6167 16.352L82.1236 16.2698L82.1205 16.2882L82.1188 16.3067L82.6167 16.352ZM82.5208 16.664L82.961 16.901L82.9678 16.8884L82.9738 16.8754L82.5208 16.664ZM80.8167 16.82L80.5098 17.2147L80.5218 17.224L80.5344 17.2327L80.8167 16.82ZM80.5648 16.34L81.0615 16.2827L80.9102 14.9717L80.1548 16.0538L80.5648 16.34ZM77.1567 16.028L76.7918 16.3698V16.3698L77.1567 16.028ZM77.1567 11.636L76.7941 11.2917L76.794 11.2919L77.1567 11.636ZM79.8688 10.832L79.6718 11.2916V11.2916L79.8688 10.832ZM80.3368 11.108L79.9832 11.4616L79.9916 11.47L80.0004 11.478L80.3368 11.108ZM78.6808 14.564L78.3205 14.9109L78.3272 14.9176L78.6808 14.564ZM80.1688 14.552L79.8018 14.2122L79.795 14.2198L80.1688 14.552ZM80.1807 13.112L79.7943 13.4294L79.8011 13.4374L80.1807 13.112ZM78.6567 13.112L78.2837 12.7789L78.2771 12.7866L78.6567 13.112ZM80.5527 11.348L81.0499 11.4013C81.0614 11.2942 81.0934 11.2671 81.1149 11.2519C81.1554 11.2232 81.2628 11.176 81.5008 11.176V10.676V10.176C81.1547 10.176 80.8121 10.2408 80.5366 10.4361C80.2421 10.6449 80.0921 10.9538 80.0556 11.2947L80.5527 11.348ZM81.5008 10.676V11.176C81.8007 11.176 81.9698 11.2007 82.0462 11.2248L82.1968 10.748L82.3473 10.2712C82.1197 10.1993 81.8248 10.176 81.5008 10.176V10.676ZM82.1968 10.748L82.0462 11.2248C82.0738 11.2335 82.0795 11.24 82.0746 11.236C82.0721 11.234 82.0683 11.2304 82.0643 11.2253C82.0603 11.2202 82.0574 11.2152 82.0557 11.2114L82.5088 11L82.9618 10.7886C82.8347 10.5161 82.6034 10.3521 82.3473 10.2712L82.1968 10.748ZM82.5088 11L82.0676 11.2353C82.1118 11.3182 82.1179 11.3592 82.1185 11.3655L82.6167 11.324L83.115 11.2825C83.0996 11.0968 83.0337 10.9218 82.9499 10.7647L82.5088 11ZM82.6167 11.324L82.1248 11.4134C82.1324 11.455 82.1408 11.5535 82.1408 11.732H82.6408H83.1408C83.1408 11.5425 83.1331 11.369 83.1087 11.2346L82.6167 11.324ZM82.6408 11.732H82.1408V15.932H82.6408H83.1408V11.732H82.6408ZM82.6408 15.932H82.1408C82.1408 16.1081 82.1327 16.2152 82.1236 16.2698L82.6167 16.352L83.1099 16.4342C83.1328 16.2968 83.1408 16.1239 83.1408 15.932H82.6408ZM82.6167 16.352L82.1188 16.3067C82.118 16.316 82.1102 16.3614 82.0677 16.4526L82.5208 16.664L82.9738 16.8754C83.0433 16.7266 83.0995 16.564 83.1147 16.3973L82.6167 16.352ZM82.5208 16.664L82.0805 16.427C82.0949 16.4002 82.1076 16.4097 82.0534 16.4301C81.9923 16.4531 81.8793 16.476 81.6927 16.476V16.976V17.476C82.1586 17.476 82.7063 17.374 82.961 16.901L82.5208 16.664ZM81.6927 16.976V16.476C81.4941 16.476 81.3447 16.4638 81.2374 16.4447C81.1235 16.4245 81.0916 16.4022 81.0991 16.4073L80.8167 16.82L80.5344 17.2327C80.6939 17.3418 80.884 17.3975 81.0621 17.4293C81.2468 17.4622 81.4594 17.476 81.6927 17.476V16.976ZM80.8167 16.82L81.1237 16.4253C81.1016 16.4081 81.0725 16.3788 81.0615 16.2827L80.5648 16.34L80.068 16.3973C80.105 16.7172 80.2439 17.0079 80.5098 17.2147L80.8167 16.82ZM80.5648 16.34L80.1548 16.0538C79.9829 16.3 79.6713 16.476 79.0768 16.476V16.976V17.476C79.8742 17.476 80.5546 17.228 80.9747 16.6262L80.5648 16.34ZM79.0768 16.976V16.476C78.561 16.476 78.0452 16.2451 77.5217 15.6862L77.1567 16.028L76.7918 16.3698C77.4523 17.0749 78.2165 17.476 79.0768 17.476V16.976ZM77.1567 16.028L77.5217 15.6862C77.0125 15.1427 76.7687 14.5314 76.7687 13.832H76.2687H75.7687C75.7687 14.7966 76.117 15.6493 76.7918 16.3698L77.1567 16.028ZM76.2687 13.832H76.7687C76.7687 13.1234 77.0133 12.5137 77.5195 11.9801L77.1567 11.636L76.794 11.2919C76.1162 12.0063 75.7687 12.8606 75.7687 13.832H76.2687ZM77.1567 11.636L77.5194 11.9803C78.0476 11.4238 78.5796 11.188 79.1247 11.188V10.688V10.188C78.2459 10.188 77.4659 10.5842 76.7941 11.2917L77.1567 11.636ZM79.1247 10.688V11.188C79.3369 11.188 79.5169 11.2252 79.6718 11.2916L79.8688 10.832L80.0657 10.3724C79.7726 10.2468 79.4566 10.188 79.1247 10.188V10.688ZM79.8688 10.832L79.6718 11.2916C79.8825 11.3819 79.9652 11.4436 79.9832 11.4616L80.3368 11.108L80.6903 10.7544C80.5323 10.5964 80.303 10.4741 80.0657 10.3724L79.8688 10.832ZM80.3368 11.108L80.0004 11.478C80.0667 11.5382 80.1124 11.5908 80.1431 11.6347L80.5527 11.348L80.9624 11.0613C80.8811 10.9452 80.7828 10.8378 80.6731 10.738L80.3368 11.108ZM78.3688 13.844H77.8688C77.8688 14.2552 78.0361 14.6153 78.3206 14.9108L78.6808 14.564L79.0409 14.2172C78.9094 14.0807 78.8688 13.9608 78.8688 13.844H78.3688ZM78.6808 14.564L78.3272 14.9176C78.6296 15.22 79.0091 15.376 79.4367 15.376V14.876V14.376C79.2724 14.376 79.1479 14.324 79.0343 14.2104L78.6808 14.564ZM79.4367 14.876V15.376C79.8716 15.376 80.253 15.2098 80.5425 14.8842L80.1688 14.552L79.795 14.2198C79.7005 14.3262 79.5939 14.376 79.4367 14.376V14.876ZM80.1688 14.552L80.5356 14.8917C80.8075 14.5981 80.9688 14.2448 80.9688 13.844H80.4688H79.9688C79.9688 13.9552 79.93 14.0739 79.8019 14.2123L80.1688 14.552ZM80.4688 13.844H80.9688C80.9688 13.4465 80.8203 13.0898 80.5604 12.7866L80.1807 13.112L79.8011 13.4374C79.9252 13.5822 79.9688 13.7135 79.9688 13.844H80.4688ZM80.1807 13.112L80.5671 12.7946C80.2775 12.442 79.8767 12.276 79.4248 12.276V12.776V13.276C79.6128 13.276 79.716 13.334 79.7944 13.4294L80.1807 13.112ZM79.4248 12.776V12.276C78.9766 12.276 78.5828 12.4441 78.2838 12.779L78.6567 13.112L79.0297 13.445C79.1307 13.3319 79.2489 13.276 79.4248 13.276V12.776ZM78.6567 13.112L78.2771 12.7866C78.0172 13.0898 77.8688 13.4465 77.8688 13.844H78.3688H78.8688C78.8688 13.7135 78.9123 13.5822 79.0364 13.4374L78.6567 13.112ZM89.1052 11.6L88.7255 11.9254L88.7301 11.9306L89.1052 11.6ZM89.8852 16.364L89.392 16.2818L89.3889 16.3002L89.3872 16.3187L89.8852 16.364ZM89.7892 16.664L90.2331 16.8942L90.2364 16.8876L89.7892 16.664ZM87.8692 16.544L88.3485 16.4015L88.3449 16.3895L88.3407 16.3776L87.8692 16.544ZM87.5092 13.052L87.1556 13.4056L87.1632 13.413L87.5092 13.052ZM85.9852 13.064L85.6388 12.7032L85.6316 12.7104L85.9852 13.064ZM85.6732 16.364L85.18 16.2818L85.1769 16.3002L85.1752 16.3187L85.6732 16.364ZM85.5652 16.664L85.1311 16.4159L85.1223 16.4312L85.1147 16.4471L85.5652 16.664ZM83.7172 16.664L83.2641 16.8754L83.2685 16.8849L83.2733 16.8942L83.7172 16.664ZM83.6092 16.352L83.1109 16.3935L83.1129 16.4176L83.1173 16.4414L83.6092 16.352ZM83.6092 11.288L83.116 11.2058L83.1129 11.2242L83.1112 11.2427L83.6092 11.288ZM83.7292 10.976L84.1633 11.2241L84.1654 11.2203L83.7292 10.976ZM85.5532 10.952L85.9842 10.6985L85.9803 10.692L85.5532 10.952ZM85.6732 11.444H85.1732V13.3268L86.1073 11.6921L85.6732 11.444ZM85.8892 11.204L86.2294 11.5704V11.5704L85.8892 11.204ZM86.2132 10.952L86.4752 11.3778L86.4844 11.3722L86.4933 11.3661L86.2132 10.952ZM87.1132 10.676V11.176C87.7649 11.176 88.291 11.4184 88.7256 11.9254L89.1052 11.6L89.4848 11.2746C88.8634 10.5496 88.0615 10.176 87.1132 10.176V10.676ZM89.1052 11.6L88.7301 11.9306C89.1784 12.4392 89.4092 13.0625 89.4092 13.832H89.9092H90.4092C90.4092 12.8415 90.1039 11.9768 89.4802 11.2694L89.1052 11.6ZM89.9092 13.832H89.4092V15.944H89.9092H90.4092V13.832H89.9092ZM89.9092 15.944H89.4092C89.4092 16.1201 89.4011 16.2272 89.392 16.2818L89.8852 16.364L90.3784 16.4462C90.4013 16.3088 90.4092 16.1359 90.4092 15.944H89.9092ZM89.8852 16.364L89.3872 16.3187C89.3867 16.3246 89.3808 16.3627 89.342 16.4404L89.7892 16.664L90.2364 16.8876C90.3096 16.7413 90.3677 16.5794 90.3831 16.4093L89.8852 16.364ZM89.7892 16.664L89.3453 16.4338C89.3667 16.3926 89.3866 16.4072 89.3076 16.4345C89.2249 16.4631 89.0807 16.488 88.8532 16.488V16.988V17.488C89.1377 17.488 89.4055 17.4589 89.6347 17.3795C89.8678 17.2988 90.0997 17.1514 90.2331 16.8942L89.7892 16.664ZM88.8532 16.988V16.488C88.6035 16.488 88.4596 16.4541 88.3868 16.4212C88.3704 16.4138 88.3598 16.4074 88.3535 16.4031C88.3503 16.4009 88.3482 16.3992 88.3469 16.3981C88.3457 16.397 88.3451 16.3964 88.3451 16.3964C88.345 16.3964 88.3454 16.3967 88.3459 16.3974C88.3464 16.3982 88.347 16.399 88.3476 16.4C88.3488 16.4021 88.3489 16.403 88.3485 16.4015L87.8692 16.544L87.3899 16.6865C87.4823 16.9973 87.7034 17.2099 87.9755 17.3328C88.2308 17.4479 88.5348 17.488 88.8532 17.488V16.988ZM87.8692 16.544L88.3407 16.3776C88.3216 16.3234 88.2972 16.1883 88.2972 15.932H87.7972H87.2972C87.2972 16.2197 87.3208 16.4926 87.3977 16.7104L87.8692 16.544ZM87.7972 15.932H88.2972V13.82H87.7972H87.2972V15.932H87.7972ZM87.7972 13.82H88.2972C88.2972 13.3897 88.1676 12.9905 87.8551 12.691L87.5092 13.052L87.1632 13.413C87.2347 13.4815 87.2972 13.5943 87.2972 13.82H87.7972ZM87.5092 13.052L87.8627 12.6984C87.5643 12.4 87.1734 12.276 86.7532 12.276V12.776V13.276C86.9729 13.276 87.086 13.336 87.1556 13.4056L87.5092 13.052ZM86.7532 12.776V12.276C86.3297 12.276 85.944 12.4105 85.6389 12.7033L85.9852 13.064L86.3315 13.4247C86.4264 13.3335 86.5527 13.276 86.7532 13.276V12.776ZM85.9852 13.064L85.6316 12.7104C85.3317 13.0104 85.1972 13.3968 85.1972 13.82H85.6972H86.1972C86.1972 13.6192 86.2547 13.5016 86.3387 13.4176L85.9852 13.064ZM85.6972 13.82H85.1972V15.944H85.6972H86.1972V13.82H85.6972ZM85.6972 15.944H85.1972C85.1972 16.1201 85.1891 16.2272 85.18 16.2818L85.6732 16.364L86.1664 16.4462C86.1893 16.3088 86.1972 16.1359 86.1972 15.944H85.6972ZM85.6732 16.364L85.1752 16.3187C85.1758 16.3128 85.1761 16.3179 85.1697 16.3356C85.1634 16.3534 85.1516 16.3799 85.1311 16.4159L85.5652 16.664L85.9993 16.9121C86.0838 16.7642 86.1544 16.5937 86.1711 16.4093L85.6732 16.364ZM85.5652 16.664L85.1147 16.4471C85.1384 16.3977 85.166 16.4088 85.0907 16.4352C85.0113 16.463 84.8691 16.488 84.6412 16.488V16.988V17.488C84.9252 17.488 85.1931 17.459 85.4216 17.3788C85.6543 17.2972 85.8879 17.1463 86.0157 16.8809L85.5652 16.664ZM84.6412 16.988V16.488C84.4183 16.488 84.2777 16.4633 84.1976 16.4352C84.1219 16.4086 84.1408 16.3947 84.1611 16.4338L83.7172 16.664L83.2733 16.8942C83.4056 17.1493 83.6345 17.2974 83.8667 17.3788C84.0946 17.4587 84.3601 17.488 84.6412 17.488V16.988ZM83.7172 16.664L84.1703 16.4526C84.1246 16.3547 84.1067 16.2935 84.1011 16.2626L83.6092 16.352L83.1173 16.4414C83.1436 16.5865 83.1978 16.7333 83.2641 16.8754L83.7172 16.664ZM83.6092 16.352L84.1075 16.3105C84.1012 16.2356 84.0972 16.1122 84.0972 15.932H83.5972H83.0972C83.0972 16.1198 83.1012 16.2764 83.1109 16.3935L83.6092 16.352ZM83.5972 15.932H84.0972V11.684H83.5972H83.0972V15.932H83.5972ZM83.5972 11.684H84.0972C84.0972 11.5114 84.1013 11.3979 84.1071 11.3333L83.6092 11.288L83.1112 11.2427C83.1011 11.3541 83.0972 11.5046 83.0972 11.684H83.5972ZM83.6092 11.288L84.1024 11.3702C84.1061 11.3481 84.1197 11.3005 84.1633 11.2241L83.7292 10.976L83.2951 10.7279C83.2107 10.8755 83.1443 11.0359 83.116 11.2058L83.6092 11.288ZM83.7292 10.976L84.1654 11.2203C84.1386 11.2683 84.1149 11.2537 84.1986 11.2266C84.283 11.1991 84.4279 11.176 84.6532 11.176V10.676V10.176C84.3745 10.176 84.1133 10.2029 83.8898 10.2754C83.6655 10.3483 83.4318 10.4837 83.2929 10.7317L83.7292 10.976ZM84.6532 10.676V11.176C84.8718 11.176 85.0138 11.1973 85.0976 11.223C85.1831 11.2492 85.1575 11.2635 85.1261 11.212L85.5532 10.952L85.9803 10.692C85.8369 10.4565 85.6053 10.3328 85.3908 10.267C85.1746 10.2007 84.9225 10.176 84.6532 10.176V10.676ZM85.5532 10.952L85.1222 11.2055C85.1481 11.2496 85.1732 11.3218 85.1732 11.444H85.6732H86.1732C86.1732 11.1822 86.1182 10.9264 85.9842 10.6985L85.5532 10.952ZM85.6732 11.444L86.1073 11.6921C86.0978 11.7087 86.0971 11.7051 86.1228 11.6765C86.1457 11.6511 86.1802 11.6161 86.2294 11.5704L85.8892 11.204L85.549 10.8376C85.4367 10.9418 85.3127 11.067 85.2391 11.1959L85.6732 11.444ZM85.8892 11.204L86.2294 11.5704C86.3231 11.4834 86.4051 11.421 86.4752 11.3778L86.2132 10.952L85.9511 10.5262C85.8133 10.611 85.6793 10.7166 85.549 10.8376L85.8892 11.204ZM86.2132 10.952L86.4933 11.3661C86.6827 11.238 86.8852 11.176 87.1132 11.176V10.676V10.176C86.6852 10.176 86.2876 10.298 85.933 10.5379L86.2132 10.952Z" fill="black" mask="url(#path-3-outside-1_78_210)"/>
</svg>
