<svg width="16" height="15" viewBox="0 0 16 15" fill="none" xmlns="http://www.w3.org/2000/svg">
<path d="M12.4844 0.696289C12.9295 0.130893 13.7504 0.0340499 14.3164 0.479492C14.8464 0.896782 14.9645 1.64408 14.6104 2.20215L14.5332 2.31152L5.0332 14.3115C4.90797 14.4627 4.75066 14.5839 4.57324 14.668C4.39545 14.7522 4.20158 14.7959 4.00488 14.7969C3.92586 14.7945 3.84716 14.7882 3.77344 14.7754C3.54384 14.7341 3.32922 14.6326 3.15234 14.4805C2.97509 14.328 2.84162 14.1306 2.7666 13.9092H2.76758L0.267578 6.40918C0.0401965 5.72657 0.408242 4.99026 1.09082 4.7627C1.77353 4.53512 2.51071 4.90323 2.73828 5.58594L4.36328 10.4609L4.47949 10.8125L4.70898 10.5215L12.4844 0.697266V0.696289Z" fill="#6CBF3D" stroke="#391417" stroke-width="0.4"/>
<path opacity="0.35" d="M8.89628 6.86531C9.08253 6.71031 12.6425 2.46281 12.6425 2.46281C12.6425 2.46281 12.94 2.14656 12.6875 1.86906C12.45 1.61531 12.14 1.78156 11.9913 1.94656C11.8425 2.11156 8.63003 5.89906 8.49754 6.08656C8.4339 6.19021 8.39929 6.30904 8.39731 6.43065C8.39533 6.55225 8.42606 6.67215 8.48628 6.77781C8.60378 6.96781 8.76753 6.97781 8.89628 6.86531Z" fill="white"/>
<path opacity="0.35" d="M1.09132 7.6878C1.17507 7.68655 1.15757 7.2178 1.37632 6.76905C1.53007 6.45155 1.72882 6.29155 1.72757 6.11405C1.72632 5.93655 1.48757 5.07155 1.30882 5.12905C1.06007 5.2078 0.742573 5.5278 0.671323 6.02655C0.560073 6.81155 0.937573 7.6903 1.09132 7.6878Z" fill="white"/>
</svg>
