<svg width="175" height="35" viewBox="0 0 175 35" fill="none" xmlns="http://www.w3.org/2000/svg">
<mask id="path-1-inside-1_109_128" fill="white">
<path d="M163 0C169.627 1.86835e-06 175 5.37258 175 12V14C175 20.6274 169.627 26 163 26H155.95C155.448 31.0533 151.185 35 146 35H29C23.8147 35 19.5515 31.0533 19.0498 26H12C5.37258 26 3.22139e-08 20.6274 0 14V12C0 5.37258 5.37258 0 12 0H163Z"/>
</mask>
<path d="M163 0C169.627 1.86835e-06 175 5.37258 175 12V14C175 20.6274 169.627 26 163 26H155.95C155.448 31.0533 151.185 35 146 35H29C23.8147 35 19.5515 31.0533 19.0498 26H12C5.37258 26 3.22139e-08 20.6274 0 14V12C0 5.37258 5.37258 0 12 0H163Z" fill="#FBE7D6"/>
<path d="M163 0V-0.2V-0.2V0ZM175 12H175.2H175ZM155.95 26V25.8H155.769L155.751 25.9802L155.95 26ZM19.0498 26L19.2488 25.9802L19.2309 25.8H19.0498V26ZM12 26V26.2V26.2V26ZM0 14H-0.2H0ZM163 0V0.2C169.517 0.200002 174.8 5.48304 174.8 12H175H175.2C175.2 5.26213 169.738 -0.199998 163 -0.2V0ZM175 12H174.8V14H175H175.2V12H175ZM175 14H174.8C174.8 20.517 169.517 25.8 163 25.8V26V26.2C169.738 26.2 175.2 20.7379 175.2 14H175ZM163 26V25.8H155.95V26V26.2H163V26ZM155.95 26L155.751 25.9802C155.259 30.9323 151.081 34.8 146 34.8V35V35.2C151.289 35.2 155.637 31.1743 156.149 26.0198L155.95 26ZM146 35V34.8H29V35V35.2H146V35ZM29 35V34.8C23.9185 34.8 19.7405 30.9323 19.2488 25.9802L19.0498 26L18.8508 26.0198C19.3626 31.1743 23.7108 35.2 29 35.2V35ZM19.0498 26V25.8H12V26V26.2H19.0498V26ZM12 26V25.8C5.48304 25.8 0.2 20.517 0.2 14H0H-0.2C-0.2 20.7379 5.26213 26.2 12 26.2V26ZM0 14H0.2V12H0H-0.2V14H0ZM0 12H0.2C0.2 5.48304 5.48304 0.2 12 0.2V0V-0.2C5.26213 -0.2 -0.2 5.26213 -0.2 12H0ZM12 0V0.2H163V0V-0.2H12V0Z" fill="#8A6A42" mask="url(#path-1-inside-1_109_128)"/>
<path d="M22.581 16.7358C22.3758 16.7419 22.2246 16.7171 22.1276 16.6613C22.0305 16.6055 21.9695 16.5267 21.9444 16.4247C21.9191 16.3154 21.9047 16.2021 21.9012 16.0848L21.7112 9.74068C21.7077 9.6234 21.7155 9.51679 21.7346 9.42084C21.7608 9.31734 21.8207 9.23484 21.9143 9.17335C22.0076 9.10452 22.1569 9.06704 22.3621 9.06089L24.6931 8.99107C25.0156 8.98141 25.3324 9.02694 25.6436 9.12767C25.9547 9.2284 26.2346 9.38509 26.483 9.59775C26.7388 9.81018 26.9412 10.0756 27.0901 10.3939C27.2464 10.7121 27.331 11.0874 27.344 11.5198C27.3567 11.945 27.2946 12.321 27.1577 12.6479C27.0278 12.9673 26.8416 13.2406 26.599 13.468C26.3563 13.6954 26.0827 13.8686 25.7782 13.9878C25.4809 14.1068 25.1674 14.1712 24.8375 14.1811L23.1773 14.2308L23.2319 16.056C23.2355 16.1733 23.2241 16.2837 23.1978 16.3872C23.1789 16.4904 23.1227 16.5728 23.0292 16.6343C22.943 16.6956 22.7936 16.7294 22.581 16.7358ZM23.1371 12.8894L24.8083 12.8393C25.0356 12.8325 25.2395 12.7824 25.4201 12.689C25.6078 12.588 25.7576 12.4441 25.8694 12.2573C25.981 12.0632 26.0325 11.8232 26.0239 11.5374C26.0162 11.2808 25.9547 11.0626 25.8392 10.8826C25.7309 10.6951 25.5799 10.5529 25.3862 10.456C25.1999 10.3588 24.9785 10.3141 24.7219 10.3218L23.0617 10.3715L23.1371 12.8894ZM29.5206 16.5441C29.3153 16.5493 29.1642 16.5202 29.0672 16.4567C28.9704 16.4005 28.9097 16.3214 28.885 16.2193C28.8604 16.1172 28.8465 16.0039 28.8433 15.8793L28.6799 9.53437C28.6769 9.41708 28.6851 9.30683 28.7044 9.20363C28.7311 9.10025 28.7877 9.0181 28.8741 8.95718C28.9679 8.89608 29.1211 8.8628 29.3337 8.85732C29.539 8.85204 29.6864 8.87759 29.7758 8.93397C29.8726 8.99016 29.9334 9.06929 29.958 9.17136C29.99 9.27324 30.0076 9.38649 30.0108 9.51112L30.1741 15.856C30.1773 15.9806 30.1656 16.0946 30.1389 16.198C30.1194 16.2939 30.0627 16.3724 29.9689 16.4335C29.8753 16.5019 29.7259 16.5388 29.5206 16.5441ZM35.4997 16.4341C35.1405 16.4434 34.7763 16.4014 34.4071 16.3082C34.0377 16.2077 33.6817 16.0555 33.339 15.8516C32.9961 15.6403 32.6887 15.3805 32.4166 15.072C32.1518 14.7561 31.937 14.3912 31.7722 13.9773C31.6074 13.556 31.5183 13.0888 31.5051 12.5757C31.4921 12.0698 31.5573 11.6133 31.7009 11.2062C31.8443 10.7917 32.0403 10.4272 32.289 10.1127C32.5449 9.79799 32.8352 9.53377 33.1598 9.32001C33.4918 9.10606 33.8397 8.94305 34.2036 8.83098C34.5747 8.71139 34.9434 8.64322 35.3097 8.62645C35.6836 8.61682 36.0072 8.64884 36.2805 8.7225C36.5538 8.79615 36.776 8.87846 36.9471 8.96942C37.118 9.05305 37.2332 9.11244 37.2928 9.14758C37.412 9.21787 37.5241 9.29935 37.6292 9.39201C37.7414 9.47715 37.8029 9.5856 37.8136 9.71737C37.8232 9.80515 37.8143 9.88607 37.7869 9.96014C37.7592 10.0269 37.7207 10.0976 37.6713 10.1722C37.5865 10.2991 37.5009 10.393 37.4144 10.4539C37.328 10.5148 37.2408 10.5464 37.1528 10.5487C37.0722 10.5507 36.9946 10.5307 36.9202 10.4886C36.8531 10.4463 36.7673 10.3935 36.663 10.3302C36.6183 10.302 36.5365 10.2601 36.4177 10.2045C36.306 10.1413 36.1542 10.0865 35.9623 10.0401C35.7777 9.99352 35.5535 9.97362 35.2896 9.98042C34.9743 9.98853 34.6678 10.0514 34.3701 10.1691C34.0724 10.2868 33.8054 10.4588 33.5691 10.6849C33.34 10.9036 33.1599 11.176 33.029 11.5021C32.8978 11.8209 32.8375 12.1856 32.8481 12.5961C32.8586 13.0066 32.9377 13.3714 33.0853 13.6904C33.2327 14.002 33.4265 14.2648 33.6668 14.4787C33.9142 14.685 34.1896 14.8393 34.493 14.9416C34.7964 15.0438 35.1057 15.0908 35.4209 15.0827C35.6702 15.0763 35.8822 15.0488 36.057 15.0003C36.2389 14.9443 36.3914 14.8817 36.5143 14.8125C36.6444 14.7358 36.7419 14.6783 36.807 14.6399C36.8863 14.5865 36.962 14.5369 37.0342 14.491C37.1064 14.4451 37.1828 14.4212 37.2634 14.4191C37.3514 14.4168 37.4365 14.444 37.5186 14.5005C37.6081 14.5569 37.6949 14.6501 37.7789 14.7799C37.8323 14.8593 37.8746 14.9352 37.9058 15.0077C37.937 15.0803 37.95 15.157 37.9447 15.2378C37.9408 15.37 37.8851 15.4851 37.7776 15.5832C37.6772 15.6739 37.5692 15.7537 37.4536 15.8227C37.3959 15.8608 37.284 15.9297 37.1178 16.0294C36.9588 16.1215 36.7446 16.2077 36.4753 16.288C36.2061 16.3756 35.8809 16.4243 35.4997 16.4341ZM40.1531 16.2703C39.9478 16.2756 39.7967 16.2465 39.6997 16.183C39.6028 16.1268 39.5421 16.0476 39.5175 15.9456C39.4928 15.8435 39.479 15.7338 39.476 15.6165L39.3124 9.26065C39.3092 9.13602 39.3173 9.02577 39.3369 8.92991C39.3635 8.82652 39.4201 8.74437 39.5066 8.68346C39.6004 8.62236 39.7536 8.58907 39.9662 8.5836C40.1714 8.57831 40.3188 8.60386 40.4083 8.66024C40.5051 8.71644 40.5658 8.79557 40.5905 8.89763C40.6224 8.99951 40.64 9.11276 40.6432 9.23739L40.7018 11.5136L43.4357 8.71435C43.5498 8.5867 43.6539 8.49966 43.7481 8.45322C43.8422 8.40678 43.9411 8.40057 44.0447 8.43458C44.1481 8.46126 44.2599 8.53174 44.3802 8.64602C44.5756 8.82438 44.675 8.98321 44.6786 9.1225C44.682 9.25445 44.6016 9.41057 44.4376 9.59085L41.6045 12.3817L44.6107 15.0332C44.7985 15.2044 44.8905 15.3598 44.8868 15.4993C44.883 15.6387 44.7881 15.7989 44.602 15.9797C44.4658 16.1006 44.3467 16.177 44.2448 16.209C44.1505 16.2481 44.055 16.2432 43.9584 16.1944C43.8693 16.1527 43.7681 16.0709 43.6549 15.9491L40.7471 13.2731L40.8068 15.5933C40.8099 15.7106 40.798 15.8209 40.7714 15.9243C40.752 16.0275 40.6954 16.1097 40.6016 16.1708C40.5152 16.2317 40.3656 16.2649 40.1531 16.2703ZM55.1105 8.26101C55.2205 8.25924 55.316 8.2687 55.397 8.2894C55.4854 8.30998 55.5559 8.36385 55.6086 8.45101C55.6613 8.53083 55.6891 8.6624 55.692 8.84571C55.695 9.02902 55.6715 9.16509 55.6216 9.2539C55.5716 9.33539 55.5027 9.38784 55.4151 9.41125C55.3273 9.42733 55.2285 9.43626 55.1185 9.43804L53.0948 9.47066L53.1893 15.3329C53.1913 15.4576 53.1784 15.5714 53.1508 15.6746C53.1303 15.7702 53.0729 15.8482 52.9785 15.9084C52.8915 15.9684 52.7416 16.0002 52.529 16.0036C52.331 16.0068 52.1838 15.9762 52.0874 15.9117C51.9912 15.8546 51.9313 15.7786 51.9077 15.6836C51.8841 15.5813 51.8713 15.4678 51.8693 15.3432L51.7749 9.49194L49.7292 9.52492C49.6265 9.52658 49.531 9.51711 49.4427 9.49653C49.3544 9.47596 49.2802 9.42581 49.2202 9.3461C49.1676 9.26627 49.1398 9.1347 49.1369 8.95139C49.1339 8.76808 49.1574 8.63569 49.2075 8.5542C49.2574 8.46539 49.3262 8.40927 49.4138 8.38586C49.5088 8.36232 49.6076 8.34973 49.7102 8.34807L55.1105 8.26101ZM62.6942 15.8287C62.4889 15.8321 62.3381 15.8052 62.2419 15.748C62.1456 15.6909 62.0856 15.6112 62.062 15.5089C62.0382 15.3993 62.0254 15.2858 62.0235 15.1685L61.9212 8.8223C61.9193 8.70498 61.9285 8.59482 61.9489 8.49181C61.9765 8.38868 62.0339 8.30708 62.1209 8.247C62.2153 8.18681 62.3688 8.155 62.5815 8.15157C62.7868 8.14826 62.9339 8.17522 63.0228 8.23246C63.1191 8.28959 63.179 8.3693 63.2027 8.4716C63.2337 8.57378 63.2502 8.68719 63.2522 8.81184L63.3545 15.158C63.3564 15.2753 63.3435 15.3856 63.3158 15.4887C63.2955 15.5917 63.2381 15.6733 63.1437 15.7335C63.0494 15.7937 62.8995 15.8254 62.6942 15.8287ZM57.8769 15.9064C57.6715 15.9097 57.5208 15.8828 57.4245 15.8257C57.3356 15.7685 57.2756 15.6887 57.2446 15.5866C57.2208 15.4769 57.208 15.3635 57.2061 15.2461L57.1038 8.89996C57.1019 8.78265 57.1111 8.67248 57.1315 8.56947C57.1592 8.46635 57.2202 8.38469 57.3146 8.32449C57.4089 8.2643 57.5588 8.23254 57.7641 8.22923C57.9767 8.22581 58.1275 8.25271 58.2164 8.30995C58.3127 8.36707 58.3727 8.44678 58.3963 8.54908C58.42 8.65138 58.4328 8.76486 58.4348 8.88951L58.5371 15.2357C58.539 15.353 58.5261 15.4632 58.4984 15.5663C58.4781 15.6694 58.4207 15.751 58.3264 15.8112C58.2393 15.8712 58.0895 15.903 57.8769 15.9064ZM58.1424 12.5907L58.1233 11.4029L62.1378 11.3381L62.1459 12.5262L58.1424 12.5907ZM65.7815 15.798C65.5762 15.8001 65.4255 15.7686 65.3295 15.7036C65.2336 15.6459 65.1741 15.5658 65.151 15.4634C65.128 15.361 65.1158 15.2474 65.1146 15.1228L65.0499 8.77609C65.0473 8.52677 65.0932 8.35396 65.1876 8.25766C65.2893 8.16128 65.4721 8.11175 65.7361 8.10906L70.0259 8.06534C70.1506 8.06407 70.2607 8.07761 70.3563 8.10597C70.4592 8.12693 70.5405 8.18477 70.6001 8.2795C70.6597 8.3669 70.6905 8.51692 70.6927 8.72958C70.6948 8.9349 70.6633 9.08556 70.5983 9.18156C70.5406 9.27749 70.4605 9.33698 70.3581 9.36002C70.263 9.38299 70.1531 9.39511 70.0285 9.39638L66.3877 9.43349L66.4065 11.2814L68.9144 11.2558C69.039 11.2546 69.1455 11.2681 69.2338 11.2966C69.322 11.3177 69.3922 11.3683 69.4443 11.4484C69.4965 11.5286 69.5235 11.664 69.5255 11.8546C69.5274 12.038 69.5031 12.1739 69.4526 12.2624C69.4021 12.3436 69.3293 12.3957 69.2342 12.4186C69.139 12.4343 69.0291 12.4427 68.9045 12.444L66.4186 12.4693L66.4388 14.4492L70.0906 14.412C70.2152 14.4107 70.3254 14.4243 70.421 14.4526C70.5239 14.4736 70.6052 14.5314 70.6648 14.6262C70.7244 14.7209 70.7553 14.8709 70.7574 15.0762C70.7595 15.2816 70.728 15.4322 70.663 15.5282C70.6053 15.6242 70.5252 15.6836 70.4228 15.7067C70.3278 15.737 70.2179 15.7528 70.0933 15.7541L65.7815 15.798ZM76.0265 15.7159C75.8211 15.717 75.6706 15.6847 75.575 15.6192C75.4793 15.561 75.4202 15.4807 75.3977 15.3781C75.3752 15.2756 75.3636 15.162 75.363 15.0373L75.3306 8.69038C75.33 8.57304 75.3404 8.46299 75.3619 8.36021C75.3907 8.2574 75.449 8.17643 75.5367 8.11732C75.6317 8.05816 75.7855 8.02805 75.9982 8.02696C76.2035 8.02591 76.3503 8.0545 76.4386 8.11271C76.5343 8.17089 76.5934 8.25126 76.6159 8.35381C76.6457 8.45633 76.661 8.56992 76.6616 8.69458L76.694 15.0415C76.6947 15.1662 76.6806 15.2799 76.6518 15.3827C76.6302 15.4782 76.572 15.5555 76.4769 15.6146C76.3819 15.6811 76.2318 15.7149 76.0265 15.7159ZM78.9263 15.6901C78.7283 15.6911 78.5815 15.6589 78.4858 15.5934C78.3975 15.5351 78.3384 15.4548 78.3086 15.3523C78.2861 15.2497 78.2745 15.1398 78.2739 15.0224L78.2413 8.64252C78.2408 8.53252 78.2549 8.42978 78.2838 8.33429C78.3126 8.23881 78.3745 8.1615 78.4696 8.10234C78.5719 8.04315 78.7221 8.01305 78.9201 8.01204C79.1401 8.01092 79.2906 8.03582 79.3715 8.08674C79.4597 8.13029 79.5407 8.19588 79.6145 8.2835L83.3147 13.4017L83.2903 8.61674C83.2897 8.50674 83.3038 8.404 83.3327 8.30852C83.3615 8.21304 83.4235 8.13572 83.5185 8.07657C83.6135 8.01741 83.7601 7.98733 83.9581 7.98632C84.1634 7.98527 84.3102 8.01752 84.3986 8.08307C84.4942 8.14125 84.5533 8.22162 84.5758 8.32417C84.6056 8.42669 84.6209 8.54028 84.6215 8.66494L84.6539 15.0009C84.6545 15.1182 84.6367 15.2283 84.6006 15.3311C84.5717 15.4266 84.5061 15.504 84.4037 15.5631C84.3087 15.6296 84.1586 15.6634 83.9533 15.6644C83.7919 15.6653 83.6635 15.6513 83.568 15.6224C83.4799 15.5935 83.3989 15.5316 83.3251 15.4367L79.57 10.3298L79.5939 15.0267C79.5945 15.144 79.5804 15.2541 79.5516 15.3569C79.5301 15.4524 79.4718 15.5297 79.3768 15.5888C79.2818 15.6553 79.1317 15.6891 78.9263 15.6901ZM90.0606 15.7251C89.5106 15.7232 89.0049 15.6261 88.5436 15.4339C88.0822 15.2343 87.6836 14.9542 87.3475 14.5937C87.0114 14.2332 86.7525 13.8106 86.5709 13.326C86.3893 12.834 86.2995 12.291 86.3016 11.697C86.3035 11.1397 86.4006 10.6304 86.5929 10.169C86.7851 9.70771 87.0542 9.30897 87.4 8.97284C87.7459 8.62938 88.1538 8.36313 88.6238 8.1741C89.1012 7.98509 89.6222 7.89157 90.1868 7.89354C90.4215 7.89435 90.6634 7.91719 90.9126 7.96206C91.1618 7.9996 91.4036 8.06277 91.6379 8.15159C91.8723 8.23307 92.0773 8.33645 92.2528 8.46173C92.3919 8.55021 92.5089 8.64229 92.6039 8.73795C92.7062 8.82631 92.7609 8.92917 92.7678 9.04653C92.7749 9.11255 92.7637 9.18585 92.7341 9.26641C92.7045 9.33964 92.6602 9.41649 92.6012 9.49695C92.5201 9.62133 92.4318 9.71269 92.3363 9.77103C92.2481 9.82939 92.16 9.85841 92.072 9.85811C92.0207 9.85793 91.9584 9.83938 91.8852 9.80246C91.812 9.7582 91.7132 9.69919 91.5888 9.62543C91.4937 9.55909 91.3692 9.49633 91.2154 9.43712C91.0617 9.37792 90.8932 9.32967 90.7099 9.29236C90.5267 9.25506 90.3361 9.23606 90.1381 9.23537C89.6468 9.23366 89.2138 9.33482 88.8391 9.53885C88.4644 9.74288 88.17 10.0352 87.956 10.4158C87.7494 10.7891 87.6452 11.2287 87.6434 11.7347C87.6416 12.2554 87.7464 12.7141 87.9576 13.1108C88.1689 13.5075 88.4575 13.8202 88.8234 14.0488C89.1966 14.2701 89.6252 14.3816 90.1092 14.3833C90.2779 14.3839 90.4466 14.3735 90.6153 14.3521C90.7914 14.3307 90.9602 14.2983 91.1217 14.2548C91.2905 14.2114 91.4447 14.157 91.5842 14.0914L91.5903 12.3534L90.0283 12.348C89.9256 12.3477 89.8303 12.3363 89.7424 12.314C89.6618 12.2917 89.596 12.2402 89.545 12.1593C89.5012 12.0785 89.4797 11.9464 89.4803 11.7631C89.481 11.5724 89.5071 11.4369 89.5588 11.3564C89.6104 11.2759 89.6765 11.2248 89.7573 11.2031C89.8454 11.1814 89.9407 11.1707 90.0434 11.1711L92.2874 11.1789C92.4781 11.1795 92.6173 11.213 92.705 11.2793C92.7928 11.3456 92.8512 11.4302 92.8802 11.5329C92.9092 11.6284 92.9234 11.7384 92.923 11.8631L92.9141 14.4261C92.9136 14.5727 92.8397 14.7228 92.6925 14.8763C92.5527 15.0298 92.3542 15.1721 92.097 15.3032C91.9281 15.3906 91.7335 15.467 91.5132 15.5322C91.3004 15.5901 91.0692 15.637 90.8197 15.6728C90.5776 15.7086 90.3246 15.7261 90.0606 15.7251ZM95.3509 15.6922C95.1456 15.6909 94.9954 15.6607 94.9005 15.6014C94.8128 15.5422 94.7547 15.4612 94.726 15.3583C94.7047 15.2482 94.6944 15.1344 94.6951 15.0171L94.7344 8.67023C94.7351 8.5529 94.7505 8.44666 94.7804 8.35151C94.8104 8.24903 94.8695 8.16873 94.9579 8.11061C95.0536 8.0452 95.2042 8.01313 95.4095 8.0144L97.7635 8.02899C98.1008 8.03108 98.4194 8.08805 98.7194 8.19992C99.0268 8.30449 99.3008 8.46752 99.5414 8.68902C99.7821 8.90318 99.9711 9.17569 100.108 9.50655C100.253 9.83012 100.324 10.2082 100.321 10.6409C100.32 10.9269 100.274 11.2126 100.184 11.4981C100.094 11.7762 99.9607 12.0357 99.7832 12.2766C99.6131 12.5102 99.3955 12.7105 99.1304 12.8776C98.8654 13.0446 98.5531 13.1526 98.1934 13.2018L96.0374 13.1884L96.026 15.0364C96.0253 15.1537 96.0099 15.2636 95.98 15.3661C95.9573 15.4686 95.8982 15.5489 95.8025 15.607C95.7141 15.6651 95.5636 15.6935 95.3509 15.6922ZM100.038 15.5562C99.8243 15.7016 99.6479 15.7555 99.5088 15.718C99.3771 15.6805 99.2458 15.5623 99.115 15.3635L97.2844 12.5581L98.7706 12.3693L100.22 14.6003C100.322 14.7476 100.383 14.8727 100.404 14.9755C100.426 15.0783 100.407 15.1735 100.348 15.2611C100.288 15.3488 100.185 15.4471 100.038 15.5562ZM96.0456 11.8684L97.9046 11.8799C98.0366 11.8808 98.1651 11.8596 98.29 11.8163C98.4223 11.7658 98.5401 11.6895 98.6434 11.5875C98.7468 11.4781 98.8282 11.3467 98.8879 11.193C98.9549 11.0321 98.989 10.8416 98.9904 10.6216C98.992 10.3576 98.9421 10.1337 98.8406 9.9497C98.7391 9.7584 98.5933 9.61449 98.4032 9.51798C98.2205 9.41418 97.9972 9.36146 97.7332 9.35983L96.0612 9.34947L96.0456 11.8684ZM102.607 15.7499C102.402 15.7484 102.252 15.7143 102.157 15.6475C102.062 15.5882 102.004 15.5071 101.983 15.4042C101.962 15.3014 101.952 15.1877 101.953 15.063L102 8.71617C102.002 8.46684 102.051 8.29487 102.147 8.20025C102.25 8.10569 102.434 8.0594 102.698 8.06138L106.988 8.09351C107.113 8.09444 107.222 8.10993 107.318 8.13998C107.42 8.16275 107.5 8.22201 107.558 8.31778C107.616 8.40622 107.644 8.55677 107.643 8.76943C107.641 8.97476 107.607 9.12484 107.54 9.21968C107.481 9.31457 107.4 9.37263 107.297 9.39386C107.202 9.41514 107.092 9.42532 106.967 9.42439L103.326 9.39712L103.312 11.2451L105.82 11.2638C105.945 11.2648 106.051 11.2802 106.139 11.3102C106.227 11.3329 106.296 11.3847 106.347 11.4658C106.397 11.5468 106.422 11.6827 106.421 11.8734C106.419 12.0567 106.392 12.1922 106.34 12.2798C106.289 12.3601 106.215 12.4108 106.119 12.4321C106.024 12.4461 105.914 12.4526 105.789 12.4517L103.303 12.433L103.288 14.413L106.94 14.4403C107.065 14.4413 107.175 14.4568 107.27 14.4868C107.372 14.5096 107.453 14.5688 107.511 14.6646C107.569 14.7604 107.597 14.9109 107.595 15.1163C107.594 15.3216 107.56 15.4717 107.493 15.5665C107.434 15.6614 107.352 15.7195 107.25 15.7407C107.154 15.7693 107.044 15.7831 106.919 15.7822L102.607 15.7499ZM109.679 15.8031C109.488 15.7999 109.346 15.7645 109.252 15.697C109.157 15.6367 109.096 15.555 109.069 15.4519C109.041 15.3487 109.028 15.2385 109.03 15.1212L109.136 8.76408C109.138 8.64676 109.151 8.54063 109.174 8.44567C109.205 8.34351 109.269 8.26389 109.365 8.20682C109.462 8.14241 109.613 8.11192 109.818 8.11534L111.885 8.16076C112.421 8.16967 112.91 8.2695 113.355 8.46025C113.806 8.65112 114.194 8.91795 114.519 9.26073C114.843 9.60351 115.089 10.011 115.257 10.4832C115.433 10.9482 115.516 11.4593 115.507 12.0166C115.497 12.5885 115.397 13.1112 115.206 13.5848C115.014 14.0583 114.751 14.4647 114.415 14.8038C114.08 15.1429 113.683 15.404 113.225 15.5871C112.775 15.7629 112.275 15.8463 111.725 15.8371L109.679 15.8031ZM110.372 14.4834L111.78 14.5069C112.249 14.5147 112.661 14.4189 113.017 14.2194C113.372 14.0126 113.648 13.7239 113.845 13.3531C114.05 12.9824 114.156 12.5478 114.164 12.0492C114.173 11.5433 114.081 11.1017 113.889 10.7245C113.705 10.34 113.435 10.0421 113.079 9.83085C112.73 9.61235 112.322 9.4992 111.852 9.49139L110.456 9.46814L110.372 14.4834ZM117.583 15.9457C117.378 15.9422 117.228 15.9067 117.134 15.8392C117.04 15.7789 116.982 15.6973 116.962 15.5943C116.942 15.4913 116.933 15.3774 116.935 15.2528L117.04 8.90665C117.042 8.78934 117.055 8.67953 117.079 8.57725C117.11 8.47508 117.17 8.3954 117.259 8.33821C117.355 8.28114 117.51 8.25437 117.722 8.25791C117.928 8.26133 118.074 8.2931 118.161 8.35322C118.255 8.41347 118.312 8.4951 118.333 8.59812C118.36 8.70126 118.373 8.81515 118.371 8.9398L118.265 15.2859C118.263 15.4106 118.247 15.524 118.216 15.6261C118.192 15.7211 118.132 15.7971 118.036 15.8542C117.939 15.9186 117.789 15.9491 117.583 15.9457ZM120.615 15.9961C120.41 15.9927 120.26 15.9572 120.166 15.8896C120.071 15.8294 120.014 15.7478 119.994 15.6447C119.973 15.5417 119.964 15.4279 119.966 15.3032L120.072 8.95711C120.076 8.70781 120.127 8.5363 120.223 8.44256C120.328 8.34895 120.512 8.30434 120.776 8.30874L125.065 8.38014C125.19 8.38221 125.3 8.39871 125.394 8.42962C125.497 8.45333 125.576 8.51333 125.633 8.60963C125.691 8.69859 125.717 8.84939 125.714 9.06203C125.711 9.26733 125.675 9.4171 125.607 9.51132C125.547 9.60566 125.466 9.66298 125.363 9.68327C125.267 9.70368 125.157 9.71284 125.032 9.71077L121.392 9.65017L121.361 11.4979L123.868 11.5397C123.993 11.5417 124.099 11.5582 124.187 11.589C124.274 11.6124 124.343 11.6649 124.393 11.7464C124.443 11.8279 124.466 11.964 124.463 12.1546C124.46 12.338 124.432 12.4732 124.38 12.5603C124.327 12.6401 124.253 12.6902 124.157 12.7106C124.061 12.7237 123.951 12.7292 123.827 12.7271L121.341 12.6858L121.308 14.6655L124.96 14.7263C125.084 14.7283 125.194 14.7448 125.289 14.7757C125.391 14.7994 125.471 14.8595 125.528 14.9557C125.585 15.052 125.612 15.2028 125.608 15.4081C125.605 15.6135 125.569 15.7632 125.502 15.8574C125.442 15.9518 125.36 16.0091 125.257 16.0294C125.161 16.0571 125.051 16.07 124.926 16.0679L120.615 15.9961ZM127.683 16.1112C127.486 16.1066 127.34 16.0701 127.246 16.0019C127.159 15.9412 127.103 15.8591 127.076 15.7558C127.056 15.6527 127.048 15.5424 127.051 15.4251L127.201 9.0469C127.204 8.93693 127.221 8.83464 127.252 8.74002C127.284 8.64541 127.348 8.5699 127.445 8.5135C127.549 8.45727 127.7 8.43149 127.898 8.43616C128.118 8.44135 128.267 8.47056 128.347 8.52378C128.434 8.56984 128.513 8.63773 128.584 8.72743L132.136 13.9497L132.249 9.166C132.251 9.05603 132.268 8.95374 132.3 8.85913C132.331 8.76451 132.396 8.689 132.492 8.6326C132.589 8.5762 132.736 8.55034 132.934 8.55501C133.139 8.55985 133.285 8.5963 133.372 8.66436C133.466 8.72526 133.522 8.80729 133.542 8.91044C133.569 9.01377 133.581 9.12775 133.578 9.25239L133.428 15.5866C133.426 15.7039 133.405 15.8135 133.366 15.9152C133.334 16.0098 133.266 16.0853 133.162 16.1415C133.065 16.2052 132.914 16.2347 132.709 16.2298C132.548 16.226 132.42 16.2083 132.325 16.1768C132.238 16.1454 132.159 16.0811 132.088 15.9841L128.481 10.7716L128.37 15.4673C128.367 15.5846 128.35 15.6942 128.318 15.7961C128.294 15.8909 128.233 15.9665 128.137 16.0229C128.04 16.0866 127.889 16.1161 127.683 16.1112ZM141.038 8.74677C141.148 8.74957 141.243 8.76298 141.323 8.78703C141.411 8.81126 141.479 8.86801 141.528 8.95729C141.577 9.03923 141.6 9.17184 141.595 9.35512C141.59 9.53839 141.561 9.67336 141.508 9.76003C141.454 9.83936 141.383 9.88891 141.295 9.90867C141.206 9.92109 141.107 9.92591 140.997 9.92311L138.974 9.87167L138.825 15.7328C138.822 15.8574 138.804 15.9707 138.772 16.0725C138.748 16.1673 138.687 16.2428 138.59 16.299C138.501 16.3554 138.35 16.3809 138.137 16.3755C137.939 16.3705 137.794 16.3338 137.7 16.2654C137.606 16.2043 137.549 16.1258 137.53 16.03C137.511 15.9268 137.502 15.8129 137.506 15.6882L137.654 9.83812L135.609 9.78612C135.506 9.78351 135.411 9.77009 135.324 9.74586C135.237 9.72163 135.165 9.66845 135.108 9.58632C135.059 9.50437 135.036 9.37176 135.041 9.18849C135.046 9.00522 135.075 8.87391 135.128 8.79457C135.182 8.70791 135.253 8.6547 135.341 8.63494C135.437 8.61537 135.536 8.60689 135.639 8.6095L141.038 8.74677ZM144.95 16.6477C144.62 16.6393 144.32 16.5914 144.051 16.5038C143.789 16.4165 143.557 16.3079 143.355 16.1781C143.16 16.0484 142.995 15.9158 142.859 15.7803C142.723 15.6448 142.623 15.5212 142.56 15.4096C142.468 15.2752 142.409 15.1563 142.382 15.053C142.356 14.9496 142.365 14.8508 142.412 14.7566C142.466 14.6553 142.56 14.5513 142.695 14.4447C142.83 14.3308 142.952 14.2752 143.062 14.278C143.18 14.2736 143.289 14.3094 143.39 14.3854C143.498 14.4615 143.601 14.5668 143.701 14.7014C143.871 14.9404 144.064 15.1141 144.282 15.2223C144.499 15.3232 144.718 15.3764 144.938 15.382C145.224 15.3893 145.474 15.359 145.688 15.2911C145.903 15.2158 146.071 15.1027 146.192 14.9518C146.321 14.801 146.388 14.6046 146.394 14.3627C146.399 14.1648 146.341 14.0019 146.219 13.8741C146.105 13.7392 145.951 13.6252 145.755 13.5322C145.559 13.4319 145.338 13.3419 145.091 13.2622C144.851 13.1754 144.607 13.0812 144.361 12.9796C144.186 12.9165 144.012 12.8423 143.838 12.7572C143.664 12.6648 143.502 12.5616 143.351 12.4477C143.207 12.334 143.078 12.2024 142.965 12.0528C142.859 11.8961 142.775 11.7179 142.714 11.5183C142.653 11.3186 142.626 11.0869 142.633 10.823C142.643 10.4051 142.755 10.0412 142.969 9.73115C143.182 9.41381 143.474 9.16816 143.846 8.99421C144.217 8.81292 144.637 8.72824 145.107 8.74017C145.407 8.74781 145.674 8.78394 145.907 8.84855C146.148 8.90602 146.351 8.98088 146.518 9.07314C146.691 9.15825 146.832 9.24619 146.94 9.33696C147.055 9.42058 147.138 9.49237 147.188 9.55232C147.352 9.72522 147.44 9.8705 147.452 9.98817C147.471 10.0987 147.401 10.2473 147.242 10.434C147.083 10.628 146.93 10.7342 146.783 10.7524C146.643 10.7635 146.487 10.7009 146.315 10.5645C146.2 10.4369 146.086 10.3349 145.97 10.2586C145.855 10.175 145.725 10.113 145.579 10.0726C145.44 10.0324 145.269 10.0097 145.063 10.0045C144.917 10.0008 144.773 10.0191 144.633 10.0596C144.5 10.0929 144.385 10.1486 144.287 10.2268C144.19 10.2977 144.111 10.3874 144.05 10.4959C143.995 10.6045 143.967 10.7285 143.963 10.8678C143.958 11.0584 144.006 11.2173 144.105 11.3446C144.212 11.4646 144.356 11.5673 144.537 11.6526C144.719 11.7306 144.922 11.8055 145.148 11.8772C145.373 11.949 145.603 12.0245 145.835 12.1038C146.075 12.1906 146.311 12.2919 146.543 12.4079C146.775 12.5238 146.98 12.6684 147.159 12.8417C147.338 13.0076 147.48 13.2166 147.583 13.4686C147.687 13.7134 147.734 14.0117 147.725 14.3635C147.715 14.7668 147.629 15.1167 147.468 15.4133C147.306 15.71 147.091 15.9503 146.822 16.1342C146.553 16.3181 146.257 16.4499 145.932 16.5297C145.607 16.6168 145.279 16.6561 144.95 16.6477ZM152.982 14.4274C152.777 14.4208 152.627 14.3903 152.534 14.3359C152.44 14.2742 152.384 14.1991 152.365 14.1104C152.346 14.0144 152.338 13.9114 152.342 13.8015L152.475 9.65663C152.478 9.54669 152.493 9.44443 152.518 9.34985C152.543 9.25527 152.604 9.18386 152.701 9.13561C152.798 9.08003 152.949 9.05553 153.154 9.06212C153.359 9.0687 153.505 9.10273 153.591 9.16418C153.685 9.21855 153.741 9.29373 153.76 9.38972C153.786 9.48594 153.798 9.58903 153.794 9.69897L153.662 13.8328C153.658 13.9501 153.64 14.0559 153.607 14.1503C153.582 14.2375 153.522 14.3089 153.424 14.3645C153.335 14.413 153.187 14.4339 152.982 14.4274ZM152.907 16.7692C152.614 16.7597 152.418 16.6984 152.319 16.5852C152.227 16.4722 152.185 16.2801 152.194 16.0089C152.198 15.877 152.217 15.7565 152.25 15.6475C152.283 15.5312 152.352 15.4417 152.456 15.379C152.561 15.3163 152.727 15.2886 152.954 15.2959C153.247 15.3053 153.44 15.3665 153.532 15.4795C153.623 15.5925 153.665 15.7846 153.656 16.0558C153.652 16.1877 153.633 16.3119 153.6 16.4282C153.575 16.5374 153.51 16.6234 153.405 16.6861C153.3 16.7488 153.134 16.7764 152.907 16.7692Z" fill="black"/>
<path d="M39.5734 29.872C39.3281 29.872 39.0961 29.8213 38.8774 29.72C38.6587 29.6187 38.4667 29.48 38.3014 29.304C38.1361 29.1227 38.0054 28.912 37.9094 28.672C37.8134 28.4267 37.7654 28.1653 37.7654 27.888C37.7654 27.6213 37.8134 27.3707 37.9094 27.136C38.0054 26.896 38.1361 26.688 38.3014 26.512C38.4721 26.3307 38.6667 26.1893 38.8854 26.088C39.1041 25.9867 39.3334 25.936 39.5734 25.936C39.8294 25.936 40.0587 25.9867 40.2614 26.088C40.4641 26.1893 40.6347 26.3307 40.7734 26.512C40.9174 26.688 41.0267 26.896 41.1014 27.136C41.1761 27.3707 41.2161 27.624 41.2214 27.896C41.2214 28.168 41.1841 28.424 41.1094 28.664C41.0401 28.8987 40.9334 29.1067 40.7894 29.288C40.6507 29.4693 40.4774 29.6133 40.2694 29.72C40.0667 29.8213 39.8347 29.872 39.5734 29.872ZM39.7014 28.936C39.8881 28.936 40.0534 28.8933 40.1974 28.808C40.3467 28.7173 40.4641 28.5947 40.5494 28.44C40.6401 28.2853 40.6854 28.1093 40.6854 27.912C40.6854 27.7093 40.6401 27.5307 40.5494 27.376C40.4641 27.2213 40.3467 27.0987 40.1974 27.008C40.0534 26.9173 39.8881 26.872 39.7014 26.872C39.5147 26.872 39.3467 26.9173 39.1974 27.008C39.0481 27.0933 38.9281 27.216 38.8374 27.376C38.7521 27.5307 38.7094 27.7093 38.7094 27.912C38.7094 28.1093 38.7521 28.2853 38.8374 28.44C38.9281 28.5947 39.0481 28.7173 39.1974 28.808C39.3521 28.8933 39.5201 28.936 39.7014 28.936ZM41.1814 29.872C41.0321 29.872 40.9227 29.848 40.8534 29.8C40.7841 29.7467 40.7387 29.664 40.7174 29.552V24.624C40.7174 24.5333 40.7227 24.4533 40.7334 24.384C40.7494 24.3093 40.7894 24.2507 40.8534 24.208C40.9227 24.16 41.0294 24.136 41.1734 24.136C41.3281 24.136 41.4374 24.1573 41.5014 24.2C41.5654 24.2427 41.6054 24.3013 41.6214 24.376C41.6427 24.4453 41.6534 24.5253 41.6534 24.616V29.384C41.6534 29.4747 41.6454 29.5573 41.6294 29.632C41.6134 29.7067 41.5707 29.7653 41.5014 29.808C41.4374 29.8507 41.3307 29.872 41.1814 29.872ZM43.271 29.88C43.127 29.88 43.0203 29.856 42.951 29.808C42.887 29.7653 42.847 29.7067 42.831 29.632C42.815 29.5573 42.807 29.4747 42.807 29.384V26.416C42.807 26.32 42.815 26.2373 42.831 26.168C42.847 26.0933 42.887 26.0373 42.951 26C43.0203 25.9573 43.1296 25.936 43.279 25.936C43.423 25.936 43.527 25.9547 43.591 25.992C43.6603 26.0293 43.703 26.0773 43.719 26.136C43.7403 26.1893 43.751 26.2427 43.751 26.296L43.687 26.44C43.7136 26.3973 43.751 26.3467 43.799 26.288C43.847 26.224 43.911 26.1627 43.991 26.104C44.071 26.04 44.167 25.9893 44.279 25.952C44.391 25.9093 44.5243 25.888 44.679 25.888C44.743 25.888 44.8096 25.896 44.879 25.912C44.9536 25.9227 45.0256 25.9413 45.095 25.968C45.1696 25.9893 45.2363 26.0187 45.295 26.056C45.3536 26.0933 45.399 26.1387 45.431 26.192C45.463 26.24 45.479 26.296 45.479 26.36C45.479 26.5307 45.4363 26.6747 45.351 26.792C45.2656 26.9093 45.1643 26.968 45.047 26.968C44.967 26.968 44.9083 26.96 44.871 26.944C44.8336 26.928 44.8016 26.9093 44.775 26.888C44.7536 26.8667 44.719 26.848 44.671 26.832C44.6283 26.816 44.559 26.808 44.463 26.808C44.383 26.808 44.3003 26.8213 44.215 26.848C44.135 26.8747 44.0603 26.9147 43.991 26.968C43.9216 27.0213 43.8656 27.0907 43.823 27.176C43.7803 27.256 43.759 27.3493 43.759 27.456V29.4C43.759 29.4907 43.751 29.5733 43.735 29.648C43.719 29.7173 43.6763 29.7733 43.607 29.816C43.5376 29.8587 43.4256 29.88 43.271 29.88ZM49.3989 29.864C49.2443 29.864 49.1296 29.8347 49.0549 29.776C48.9803 29.7173 48.9429 29.6373 48.9429 29.536L48.9989 29.272C48.9563 29.3413 48.8843 29.424 48.7829 29.52C48.6816 29.6107 48.5483 29.6933 48.3829 29.768C48.2176 29.8373 48.0176 29.872 47.7829 29.872C47.5323 29.872 47.2949 29.8213 47.0709 29.72C46.8523 29.6133 46.6576 29.4693 46.4869 29.288C46.3216 29.1013 46.1883 28.8907 46.0869 28.656C45.9909 28.416 45.9429 28.16 45.9429 27.888C45.9429 27.6267 45.9909 27.3813 46.0869 27.152C46.1883 26.9173 46.3243 26.7093 46.4949 26.528C46.6656 26.3467 46.8603 26.2053 47.0789 26.104C47.3029 25.9973 47.5376 25.944 47.7829 25.944C48.0016 25.944 48.1856 25.9733 48.3349 26.032C48.4896 26.0907 48.6203 26.1653 48.7269 26.256C48.8336 26.3413 48.9216 26.432 48.9909 26.528L48.9429 26.296C48.9429 26.1787 48.9803 26.0907 49.0549 26.032C49.1296 25.968 49.2469 25.936 49.4069 25.936C49.5563 25.936 49.6629 25.96 49.7269 26.008C49.7909 26.0507 49.8309 26.112 49.8469 26.192C49.8629 26.2667 49.8709 26.352 49.8709 26.448V29.376C49.8709 29.4667 49.8629 29.5493 49.8469 29.624C49.8309 29.6987 49.7883 29.7573 49.7189 29.8C49.6549 29.8427 49.5483 29.864 49.3989 29.864ZM47.9269 28.936C48.1083 28.936 48.2709 28.8907 48.4149 28.8C48.5589 28.7093 48.6736 28.5867 48.7589 28.432C48.8496 28.272 48.8949 28.096 48.8949 27.904C48.8949 27.696 48.8496 27.5147 48.7589 27.36C48.6683 27.2053 48.5483 27.0853 48.3989 27C48.2549 26.9093 48.0923 26.864 47.9109 26.864C47.7136 26.864 47.5376 26.912 47.3829 27.008C47.2283 27.0987 47.1056 27.224 47.0149 27.384C46.9296 27.5387 46.8869 27.7147 46.8869 27.912C46.8869 28.104 46.9323 28.2773 47.0229 28.432C47.1136 28.5867 47.2363 28.7093 47.3909 28.8C47.5509 28.8907 47.7296 28.936 47.9269 28.936ZM52.7136 31.48C52.5216 31.48 52.3376 31.456 52.1616 31.408C51.9856 31.3653 51.8256 31.3067 51.6816 31.232C51.543 31.1573 51.431 31.0773 51.3456 30.992C51.2656 30.9067 51.2256 30.8267 51.2256 30.752C51.2256 30.6773 51.2363 30.6133 51.2576 30.56C51.2843 30.5067 51.3216 30.4533 51.3696 30.4C51.4336 30.336 51.4843 30.288 51.5216 30.256C51.5643 30.224 51.6203 30.208 51.6896 30.208C51.7483 30.208 51.8043 30.2293 51.8576 30.272C51.9163 30.3147 51.983 30.3627 52.0576 30.416C52.1323 30.4693 52.223 30.5173 52.3296 30.56C52.4363 30.6027 52.5723 30.624 52.7376 30.624C52.8763 30.624 53.0043 30.6 53.1216 30.552C53.239 30.504 53.3376 30.432 53.4176 30.336C53.503 30.2453 53.5696 30.136 53.6176 30.008C53.6656 29.88 53.6896 29.736 53.6896 29.576L53.6816 26.264C53.6923 26.1413 53.735 26.056 53.8096 26.008C53.8843 25.9547 53.999 25.928 54.1536 25.928C54.2976 25.928 54.4016 25.9493 54.4656 25.992C54.5296 26.0293 54.5696 26.0853 54.5856 26.16C54.6016 26.2293 54.6096 26.3067 54.6096 26.392V29.632C54.6096 29.9253 54.559 30.1867 54.4576 30.416C54.3563 30.6453 54.2176 30.8373 54.0416 30.992C53.8656 31.152 53.663 31.272 53.4336 31.352C53.2096 31.4373 52.9696 31.48 52.7136 31.48ZM52.6256 29.776C52.375 29.776 52.1403 29.728 51.9216 29.632C51.7083 29.536 51.519 29.4 51.3536 29.224C51.1936 29.048 51.0656 28.8453 50.9696 28.616C50.879 28.3813 50.8336 28.128 50.8336 27.856C50.8336 27.5893 50.879 27.3413 50.9696 27.112C51.0656 26.8827 51.1936 26.68 51.3536 26.504C51.519 26.328 51.7083 26.192 51.9216 26.096C52.1403 25.9947 52.3723 25.944 52.6176 25.944C52.8576 25.944 53.0656 25.992 53.2416 26.088C53.423 26.1787 53.5723 26.3093 53.6896 26.48C53.807 26.6507 53.895 26.8533 53.9536 27.088C54.0176 27.3227 54.0496 27.5813 54.0496 27.864C54.0496 28.2533 53.9963 28.592 53.8896 28.88C53.783 29.168 53.6256 29.3893 53.4176 29.544C53.2096 29.6987 52.9456 29.776 52.6256 29.776ZM52.7136 28.872C52.895 28.872 53.055 28.8293 53.1936 28.744C53.3376 28.6533 53.4496 28.5307 53.5296 28.376C53.615 28.2213 53.6576 28.048 53.6576 27.856C53.6576 27.6587 53.615 27.4853 53.5296 27.336C53.4496 27.1813 53.3376 27.0613 53.1936 26.976C53.0496 26.8907 52.887 26.848 52.7056 26.848C52.5243 26.848 52.3616 26.8933 52.2176 26.984C52.079 27.0693 51.9696 27.1867 51.8896 27.336C51.8096 27.4853 51.7696 27.6587 51.7696 27.856C51.7696 28.0533 51.8096 28.2293 51.8896 28.384C51.975 28.5333 52.087 28.6533 52.2256 28.744C52.3696 28.8293 52.5323 28.872 52.7136 28.872ZM61.2886 29.864C61.134 29.864 61.0193 29.8347 60.9446 29.776C60.87 29.7173 60.8326 29.6373 60.8326 29.536L60.8886 29.272C60.846 29.3413 60.774 29.424 60.6726 29.52C60.5713 29.6107 60.438 29.6933 60.2726 29.768C60.1073 29.8373 59.9073 29.872 59.6726 29.872C59.422 29.872 59.1846 29.8213 58.9606 29.72C58.742 29.6133 58.5473 29.4693 58.3766 29.288C58.2113 29.1013 58.078 28.8907 57.9766 28.656C57.8806 28.416 57.8326 28.16 57.8326 27.888C57.8326 27.6267 57.8806 27.3813 57.9766 27.152C58.078 26.9173 58.214 26.7093 58.3846 26.528C58.5553 26.3467 58.75 26.2053 58.9686 26.104C59.1926 25.9973 59.4273 25.944 59.6726 25.944C59.8913 25.944 60.0753 25.9733 60.2246 26.032C60.3793 26.0907 60.51 26.1653 60.6166 26.256C60.7233 26.3413 60.8113 26.432 60.8806 26.528L60.8326 26.296C60.8326 26.1787 60.87 26.0907 60.9446 26.032C61.0193 25.968 61.1366 25.936 61.2966 25.936C61.446 25.936 61.5526 25.96 61.6166 26.008C61.6806 26.0507 61.7206 26.112 61.7366 26.192C61.7526 26.2667 61.7606 26.352 61.7606 26.448V29.376C61.7606 29.4667 61.7526 29.5493 61.7366 29.624C61.7206 29.6987 61.678 29.7573 61.6086 29.8C61.5446 29.8427 61.438 29.864 61.2886 29.864ZM59.8166 28.936C59.998 28.936 60.1606 28.8907 60.3046 28.8C60.4486 28.7093 60.5633 28.5867 60.6486 28.432C60.7393 28.272 60.7846 28.096 60.7846 27.904C60.7846 27.696 60.7393 27.5147 60.6486 27.36C60.558 27.2053 60.438 27.0853 60.2886 27C60.1446 26.9093 59.982 26.864 59.8006 26.864C59.6033 26.864 59.4273 26.912 59.2726 27.008C59.118 27.0987 58.9953 27.224 58.9046 27.384C58.8193 27.5387 58.7766 27.7147 58.7766 27.912C58.7766 28.104 58.822 28.2773 58.9126 28.432C59.0033 28.5867 59.126 28.7093 59.2806 28.8C59.4406 28.8907 59.6193 28.936 59.8166 28.936ZM63.3553 29.872C63.2113 29.872 63.1047 29.848 63.0353 29.8C62.9713 29.7573 62.9313 29.7013 62.9153 29.632C62.8993 29.5573 62.8913 29.4747 62.8913 29.384V26.392C62.8913 26.3067 62.8993 26.2293 62.9153 26.16C62.9313 26.0907 62.974 26.0373 63.0433 26C63.1127 25.9573 63.2193 25.936 63.3633 25.936C63.4913 25.936 63.5873 25.952 63.6513 25.984C63.7153 26.016 63.758 26.056 63.7793 26.104C63.8007 26.152 63.8113 26.2 63.8113 26.248C63.8167 26.296 63.822 26.3333 63.8273 26.36L63.7953 26.616C63.8273 26.5307 63.8807 26.448 63.9553 26.368C64.03 26.288 64.1207 26.216 64.2273 26.152C64.334 26.0827 64.4487 26.0293 64.5713 25.992C64.6993 25.9493 64.83 25.928 64.9633 25.928C65.214 25.928 65.438 25.9733 65.6353 26.064C65.8327 26.1547 66.0007 26.2827 66.1393 26.448C66.2833 26.6133 66.3927 26.8107 66.4673 27.04C66.542 27.264 66.5793 27.5173 66.5793 27.8V29.392C66.5793 29.4827 66.5687 29.5653 66.5473 29.64C66.5313 29.7093 66.4913 29.7653 66.4273 29.808C66.3633 29.8507 66.254 29.872 66.0993 29.872C65.95 29.872 65.8407 29.848 65.7713 29.8C65.702 29.7573 65.6593 29.7013 65.6433 29.632C65.6273 29.5573 65.6193 29.4747 65.6193 29.384V27.792C65.6193 27.6 65.5847 27.4347 65.5153 27.296C65.4513 27.1573 65.3553 27.0507 65.2273 26.976C65.1047 26.9013 64.9473 26.864 64.7553 26.864C64.5687 26.864 64.406 26.904 64.2673 26.984C64.1287 27.0587 64.022 27.1653 63.9473 27.304C63.8727 27.4427 63.8353 27.6053 63.8353 27.792V29.392C63.8353 29.4827 63.8273 29.5653 63.8113 29.64C63.7953 29.7093 63.7527 29.7653 63.6833 29.808C63.6193 29.8507 63.51 29.872 63.3553 29.872ZM69.3759 29.872C69.1306 29.872 68.8986 29.8213 68.6799 29.72C68.4612 29.6187 68.2692 29.48 68.1039 29.304C67.9386 29.1227 67.8079 28.912 67.7119 28.672C67.6159 28.4267 67.5679 28.1653 67.5679 27.888C67.5679 27.6213 67.6159 27.3707 67.7119 27.136C67.8079 26.896 67.9386 26.688 68.1039 26.512C68.2746 26.3307 68.4692 26.1893 68.6879 26.088C68.9066 25.9867 69.1359 25.936 69.3759 25.936C69.6319 25.936 69.8612 25.9867 70.0639 26.088C70.2666 26.1893 70.4372 26.3307 70.5759 26.512C70.7199 26.688 70.8292 26.896 70.9039 27.136C70.9786 27.3707 71.0186 27.624 71.0239 27.896C71.0239 28.168 70.9866 28.424 70.9119 28.664C70.8426 28.8987 70.7359 29.1067 70.5919 29.288C70.4532 29.4693 70.2799 29.6133 70.0719 29.72C69.8692 29.8213 69.6372 29.872 69.3759 29.872ZM69.5039 28.936C69.6906 28.936 69.8559 28.8933 69.9999 28.808C70.1492 28.7173 70.2666 28.5947 70.3519 28.44C70.4426 28.2853 70.4879 28.1093 70.4879 27.912C70.4879 27.7093 70.4426 27.5307 70.3519 27.376C70.2666 27.2213 70.1492 27.0987 69.9999 27.008C69.8559 26.9173 69.6906 26.872 69.5039 26.872C69.3172 26.872 69.1492 26.9173 68.9999 27.008C68.8506 27.0933 68.7306 27.216 68.6399 27.376C68.5546 27.5307 68.5119 27.7093 68.5119 27.912C68.5119 28.1093 68.5546 28.2853 68.6399 28.44C68.7306 28.5947 68.8506 28.7173 68.9999 28.808C69.1546 28.8933 69.3226 28.936 69.5039 28.936ZM70.9839 29.872C70.8346 29.872 70.7252 29.848 70.6559 29.8C70.5866 29.7467 70.5412 29.664 70.5199 29.552V24.624C70.5199 24.5333 70.5252 24.4533 70.5359 24.384C70.5519 24.3093 70.5919 24.2507 70.6559 24.208C70.7252 24.16 70.8319 24.136 70.9759 24.136C71.1306 24.136 71.2399 24.1573 71.3039 24.2C71.3679 24.2427 71.4079 24.3013 71.4239 24.376C71.4452 24.4453 71.4559 24.5253 71.4559 24.616V29.384C71.4559 29.4747 71.4479 29.5573 71.4319 29.632C71.4159 29.7067 71.3732 29.7653 71.3039 29.808C71.2399 29.8507 71.1332 29.872 70.9839 29.872ZM76.6018 29.872C76.3565 29.872 76.1245 29.8213 75.9058 29.72C75.6872 29.6187 75.4952 29.48 75.3298 29.304C75.1645 29.1227 75.0338 28.912 74.9378 28.672C74.8418 28.4267 74.7938 28.1653 74.7938 27.888C74.7938 27.6213 74.8418 27.3707 74.9378 27.136C75.0338 26.896 75.1645 26.688 75.3298 26.512C75.5005 26.3307 75.6952 26.1893 75.9138 26.088C76.1325 25.9867 76.3618 25.936 76.6018 25.936C76.8578 25.936 77.0872 25.9867 77.2898 26.088C77.4925 26.1893 77.6632 26.3307 77.8018 26.512C77.9458 26.688 78.0552 26.896 78.1298 27.136C78.2045 27.3707 78.2445 27.624 78.2498 27.896C78.2498 28.168 78.2125 28.424 78.1378 28.664C78.0685 28.8987 77.9618 29.1067 77.8178 29.288C77.6792 29.4693 77.5058 29.6133 77.2978 29.72C77.0952 29.8213 76.8632 29.872 76.6018 29.872ZM76.7298 28.936C76.9165 28.936 77.0818 28.8933 77.2258 28.808C77.3752 28.7173 77.4925 28.5947 77.5778 28.44C77.6685 28.2853 77.7138 28.1093 77.7138 27.912C77.7138 27.7093 77.6685 27.5307 77.5778 27.376C77.4925 27.2213 77.3752 27.0987 77.2258 27.008C77.0818 26.9173 76.9165 26.872 76.7298 26.872C76.5432 26.872 76.3752 26.9173 76.2258 27.008C76.0765 27.0933 75.9565 27.216 75.8658 27.376C75.7805 27.5307 75.7378 27.7093 75.7378 27.912C75.7378 28.1093 75.7805 28.2853 75.8658 28.44C75.9565 28.5947 76.0765 28.7173 76.2258 28.808C76.3805 28.8933 76.5485 28.936 76.7298 28.936ZM78.2098 29.872C78.0605 29.872 77.9512 29.848 77.8818 29.8C77.8125 29.7467 77.7672 29.664 77.7458 29.552V24.624C77.7458 24.5333 77.7512 24.4533 77.7618 24.384C77.7778 24.3093 77.8178 24.2507 77.8818 24.208C77.9512 24.16 78.0578 24.136 78.2018 24.136C78.3565 24.136 78.4658 24.1573 78.5298 24.2C78.5938 24.2427 78.6338 24.3013 78.6498 24.376C78.6712 24.4453 78.6818 24.5253 78.6818 24.616V29.384C78.6818 29.4747 78.6738 29.5573 78.6578 29.632C78.6418 29.7067 78.5992 29.7653 78.5298 29.808C78.4658 29.8507 78.3592 29.872 78.2098 29.872ZM80.2994 29.88C80.1554 29.88 80.0487 29.856 79.9794 29.808C79.9154 29.7653 79.8754 29.7067 79.8594 29.632C79.8434 29.5573 79.8354 29.4747 79.8354 29.384V26.416C79.8354 26.32 79.8434 26.2373 79.8594 26.168C79.8754 26.0933 79.9154 26.0373 79.9794 26C80.0487 25.9573 80.1581 25.936 80.3074 25.936C80.4514 25.936 80.5554 25.9547 80.6194 25.992C80.6887 26.0293 80.7314 26.0773 80.7474 26.136C80.7687 26.1893 80.7794 26.2427 80.7794 26.296L80.7154 26.44C80.7421 26.3973 80.7794 26.3467 80.8274 26.288C80.8754 26.224 80.9394 26.1627 81.0194 26.104C81.0994 26.04 81.1954 25.9893 81.3074 25.952C81.4194 25.9093 81.5527 25.888 81.7074 25.888C81.7714 25.888 81.8381 25.896 81.9074 25.912C81.9821 25.9227 82.0541 25.9413 82.1234 25.968C82.1981 25.9893 82.2647 26.0187 82.3234 26.056C82.3821 26.0933 82.4274 26.1387 82.4594 26.192C82.4914 26.24 82.5074 26.296 82.5074 26.36C82.5074 26.5307 82.4647 26.6747 82.3794 26.792C82.2941 26.9093 82.1927 26.968 82.0754 26.968C81.9954 26.968 81.9367 26.96 81.8994 26.944C81.8621 26.928 81.8301 26.9093 81.8034 26.888C81.7821 26.8667 81.7474 26.848 81.6994 26.832C81.6567 26.816 81.5874 26.808 81.4914 26.808C81.4114 26.808 81.3287 26.8213 81.2434 26.848C81.1634 26.8747 81.0887 26.9147 81.0194 26.968C80.9501 27.0213 80.8941 27.0907 80.8514 27.176C80.8087 27.256 80.7874 27.3493 80.7874 27.456V29.4C80.7874 29.4907 80.7794 29.5733 80.7634 29.648C80.7474 29.7173 80.7047 29.7733 80.6354 29.816C80.5661 29.8587 80.4541 29.88 80.2994 29.88ZM85.1515 29.928C84.8955 29.928 84.6448 29.88 84.3995 29.784C84.1595 29.6827 83.9408 29.5413 83.7435 29.36C83.5515 29.1787 83.3968 28.9653 83.2795 28.72C83.1675 28.4747 83.1115 28.2053 83.1115 27.912C83.1115 27.6293 83.1648 27.3653 83.2715 27.12C83.3781 26.8747 83.5248 26.6587 83.7115 26.472C83.8981 26.2853 84.1115 26.1413 84.3515 26.04C84.5968 25.9333 84.8581 25.88 85.1355 25.88C85.5088 25.88 85.8475 25.9707 86.1515 26.152C86.4555 26.328 86.6981 26.568 86.8795 26.872C87.0608 27.176 87.1515 27.52 87.1515 27.904C87.1515 28.208 87.0955 28.4853 86.9835 28.736C86.8715 28.9813 86.7195 29.1947 86.5275 29.376C86.3355 29.552 86.1195 29.688 85.8795 29.784C85.6448 29.88 85.4021 29.928 85.1515 29.928ZM85.1355 28.984C85.3115 28.984 85.4795 28.9413 85.6395 28.856C85.8048 28.7653 85.9381 28.6373 86.0395 28.472C86.1461 28.3067 86.1995 28.112 86.1995 27.888C86.1995 27.68 86.1515 27.496 86.0555 27.336C85.9648 27.176 85.8395 27.0507 85.6795 26.96C85.5195 26.8693 85.3355 26.824 85.1275 26.824C84.9301 26.824 84.7515 26.872 84.5915 26.968C84.4315 27.0587 84.3035 27.1867 84.2075 27.352C84.1168 27.512 84.0715 27.6933 84.0715 27.896C84.0715 28.12 84.1221 28.3147 84.2235 28.48C84.3248 28.64 84.4555 28.7653 84.6155 28.856C84.7808 28.9413 84.9541 28.984 85.1355 28.984ZM90.1242 29.824C89.8629 29.824 89.6282 29.776 89.4202 29.68C89.2175 29.5787 89.0442 29.44 88.9002 29.264C88.7615 29.0827 88.6549 28.8747 88.5802 28.64C88.5109 28.4053 88.4762 28.152 88.4762 27.88C88.4815 27.608 88.5215 27.3547 88.5962 27.12C88.6709 26.88 88.7775 26.672 88.9162 26.496C89.0602 26.32 89.2335 26.1813 89.4362 26.08C89.6389 25.9787 89.8682 25.928 90.1242 25.928C90.3695 25.928 90.5989 25.9787 90.8122 26.08C91.0309 26.1813 91.2229 26.3227 91.3882 26.504C91.5589 26.6853 91.6922 26.896 91.7882 27.136C91.8842 27.3707 91.9322 27.624 91.9322 27.896C91.9322 28.1733 91.8842 28.4293 91.7882 28.664C91.6922 28.8987 91.5615 29.104 91.3962 29.28C91.2309 29.4507 91.0389 29.584 90.8202 29.68C90.6015 29.776 90.3695 29.824 90.1242 29.824ZM88.5242 31.488C88.3802 31.488 88.2735 31.4667 88.2042 31.424C88.1349 31.3813 88.0922 31.3253 88.0762 31.256C88.0602 31.1867 88.0522 31.1067 88.0522 31.016V26.416C88.0522 26.3253 88.0602 26.2453 88.0762 26.176C88.0922 26.1067 88.1322 26.0507 88.1962 26.008C88.2655 25.96 88.3722 25.936 88.5162 25.936C88.6549 25.936 88.7642 25.9573 88.8442 26C88.9242 26.0427 88.9775 26.1147 89.0042 26.216V31.008C89.0095 31.0987 89.0015 31.1787 88.9802 31.248C88.9642 31.3227 88.9215 31.3813 88.8522 31.424C88.7829 31.4667 88.6735 31.488 88.5242 31.488ZM89.9962 28.928C90.1829 28.928 90.3509 28.8853 90.5002 28.8C90.6495 28.7093 90.7669 28.5867 90.8522 28.432C90.9429 28.272 90.9882 28.0933 90.9882 27.896C90.9882 27.6933 90.9429 27.5147 90.8522 27.36C90.7669 27.2053 90.6495 27.0853 90.5002 27C90.3509 26.9093 90.1829 26.864 89.9962 26.864C89.8149 26.864 89.6495 26.9093 89.5002 27C89.3509 27.0907 89.2309 27.2133 89.1402 27.368C89.0549 27.5173 89.0122 27.6933 89.0122 27.896C89.0122 28.0933 89.0549 28.272 89.1402 28.432C89.2309 28.5867 89.3509 28.7093 89.5002 28.8C89.6495 28.8853 89.8149 28.928 89.9962 28.928ZM95.7444 29.88C95.6004 29.88 95.4937 29.856 95.4244 29.808C95.3551 29.7653 95.3124 29.7093 95.2964 29.64C95.2804 29.5653 95.2724 29.4827 95.2724 29.392V26.416C95.2724 26.3307 95.2804 26.2533 95.2964 26.184C95.3177 26.1093 95.3604 26.0507 95.4244 26.008C95.4937 25.9653 95.6031 25.944 95.7524 25.944C95.9017 25.944 96.0084 25.9653 96.0724 26.008C96.1417 26.0507 96.1844 26.1093 96.2004 26.184C96.2164 26.2587 96.2244 26.3413 96.2244 26.432V29.4C96.2244 29.4907 96.2164 29.5733 96.2004 29.648C96.1844 29.7173 96.1417 29.7733 96.0724 29.816C96.0084 29.8587 95.8991 29.88 95.7444 29.88ZM95.7444 25.168C95.5897 25.168 95.4751 25.1467 95.4004 25.104C95.3311 25.056 95.2857 24.992 95.2644 24.912C95.2484 24.832 95.2404 24.744 95.2404 24.648C95.2404 24.5467 95.2484 24.4587 95.2644 24.384C95.2857 24.3093 95.3337 24.2507 95.4084 24.208C95.4831 24.16 95.5977 24.136 95.7524 24.136C95.9124 24.136 96.0271 24.16 96.0964 24.208C96.1657 24.256 96.2111 24.32 96.2324 24.4C96.2537 24.4747 96.2644 24.5627 96.2644 24.664C96.2644 24.7547 96.2537 24.84 96.2324 24.92C96.2111 25 96.1657 25.0613 96.0964 25.104C96.0271 25.1467 95.9097 25.168 95.7444 25.168ZM97.8916 29.872C97.7476 29.872 97.6409 29.848 97.5716 29.8C97.5076 29.7573 97.4676 29.7013 97.4516 29.632C97.4356 29.5573 97.4276 29.4747 97.4276 29.384V26.392C97.4276 26.3067 97.4356 26.2293 97.4516 26.16C97.4676 26.0907 97.5102 26.0373 97.5796 26C97.6489 25.9573 97.7556 25.936 97.8996 25.936C98.0276 25.936 98.1236 25.952 98.1876 25.984C98.2516 26.016 98.2942 26.056 98.3156 26.104C98.3369 26.152 98.3476 26.2 98.3476 26.248C98.3529 26.296 98.3582 26.3333 98.3636 26.36L98.3316 26.616C98.3636 26.5307 98.4169 26.448 98.4916 26.368C98.5662 26.288 98.6569 26.216 98.7636 26.152C98.8702 26.0827 98.9849 26.0293 99.1076 25.992C99.2356 25.9493 99.3662 25.928 99.4996 25.928C99.7502 25.928 99.9742 25.9733 100.172 26.064C100.369 26.1547 100.537 26.2827 100.676 26.448C100.82 26.6133 100.929 26.8107 101.004 27.04C101.078 27.264 101.116 27.5173 101.116 27.8V29.392C101.116 29.4827 101.105 29.5653 101.084 29.64C101.068 29.7093 101.028 29.7653 100.964 29.808C100.9 29.8507 100.79 29.872 100.636 29.872C100.486 29.872 100.377 29.848 100.308 29.8C100.238 29.7573 100.196 29.7013 100.18 29.632C100.164 29.5573 100.156 29.4747 100.156 29.384V27.792C100.156 27.6 100.121 27.4347 100.052 27.296C99.9876 27.1573 99.8916 27.0507 99.7636 26.976C99.6409 26.9013 99.4836 26.864 99.2916 26.864C99.1049 26.864 98.9422 26.904 98.8036 26.984C98.6649 27.0587 98.5582 27.1653 98.4836 27.304C98.4089 27.4427 98.3716 27.6053 98.3716 27.792V29.392C98.3716 29.4827 98.3636 29.5653 98.3476 29.64C98.3316 29.7093 98.2889 29.7653 98.2196 29.808C98.1556 29.8507 98.0462 29.872 97.8916 29.872ZM106.363 29.88C106.102 29.88 105.878 29.8533 105.691 29.8C105.504 29.7467 105.352 29.664 105.235 29.552C105.118 29.44 105.03 29.296 104.971 29.12C104.918 28.9387 104.891 28.7253 104.891 28.48V25.088C104.891 24.992 104.899 24.9093 104.915 24.84C104.936 24.7707 104.979 24.7173 105.043 24.68C105.112 24.6373 105.219 24.616 105.363 24.616C105.512 24.616 105.619 24.6373 105.683 24.68C105.752 24.7227 105.795 24.7813 105.811 24.856C105.832 24.9253 105.843 25.0027 105.843 25.088V28.448C105.843 28.56 105.851 28.6507 105.867 28.72C105.888 28.7893 105.918 28.8427 105.955 28.88C105.998 28.912 106.051 28.936 106.115 28.952C106.184 28.9627 106.267 28.968 106.363 28.968C106.464 28.968 106.55 28.976 106.619 28.992C106.694 29.008 106.75 29.048 106.787 29.112C106.824 29.1707 106.843 29.2693 106.843 29.408C106.843 29.5573 106.819 29.6667 106.771 29.736C106.728 29.8 106.67 29.84 106.595 29.856C106.526 29.872 106.448 29.88 106.363 29.88ZM104.563 26.016L105.387 26.024L106.491 25.992C106.582 25.992 106.662 26.0027 106.731 26.024C106.806 26.04 106.864 26.0827 106.907 26.152C106.95 26.216 106.971 26.3227 106.971 26.472C106.971 26.6107 106.95 26.7147 106.907 26.784C106.864 26.8533 106.808 26.8987 106.739 26.92C106.67 26.936 106.59 26.944 106.499 26.944L105.427 26.928L104.539 26.936C104.406 26.9307 104.312 26.8933 104.259 26.824C104.211 26.7493 104.187 26.6293 104.187 26.464C104.187 26.3093 104.216 26.1973 104.275 26.128C104.339 26.0533 104.435 26.016 104.563 26.016ZM108.319 29.88C108.17 29.88 108.061 29.856 107.991 29.808C107.927 29.7653 107.887 29.7067 107.871 29.632C107.855 29.5573 107.847 29.4773 107.847 29.392V24.616C107.847 24.5253 107.855 24.4453 107.871 24.376C107.893 24.3013 107.935 24.2427 107.999 24.2C108.069 24.1573 108.178 24.136 108.327 24.136C108.477 24.136 108.583 24.16 108.647 24.208C108.717 24.2507 108.759 24.3093 108.775 24.384C108.797 24.4533 108.807 24.5333 108.807 24.624V26.432C108.914 26.3093 109.05 26.1973 109.215 26.096C109.386 25.9893 109.591 25.936 109.831 25.936C110.157 25.936 110.447 26.016 110.703 26.176C110.959 26.3307 111.162 26.5467 111.311 26.824C111.461 27.1013 111.535 27.4267 111.535 27.8V29.4C111.535 29.4853 111.527 29.5653 111.511 29.64C111.495 29.7093 111.453 29.7653 111.383 29.808C111.319 29.8507 111.213 29.872 111.063 29.872C110.914 29.872 110.805 29.8507 110.735 29.808C110.666 29.7653 110.623 29.7093 110.607 29.64C110.591 29.5653 110.583 29.48 110.583 29.384V27.792C110.583 27.6053 110.551 27.4427 110.487 27.304C110.423 27.1653 110.327 27.0587 110.199 26.984C110.077 26.904 109.922 26.864 109.735 26.864C109.485 26.864 109.274 26.9387 109.103 27.088C108.933 27.232 108.834 27.4187 108.807 27.648V29.4C108.807 29.4853 108.797 29.5653 108.775 29.64C108.759 29.7147 108.717 29.7733 108.647 29.816C108.583 29.8587 108.474 29.88 108.319 29.88ZM114.471 29.928C114.124 29.928 113.82 29.872 113.559 29.76C113.303 29.648 113.087 29.496 112.911 29.304C112.74 29.1067 112.609 28.888 112.519 28.648C112.433 28.4027 112.391 28.1493 112.391 27.888C112.391 27.504 112.479 27.1627 112.655 26.864C112.831 26.5653 113.073 26.3307 113.383 26.16C113.697 25.9893 114.057 25.904 114.463 25.904C114.751 25.904 115.004 25.9493 115.223 26.04C115.441 26.1307 115.623 26.2507 115.767 26.4C115.916 26.544 116.028 26.704 116.103 26.88C116.183 27.056 116.223 27.2267 116.223 27.392C116.223 27.6747 116.153 27.88 116.015 28.008C115.881 28.136 115.713 28.2 115.511 28.2H113.399C113.404 28.3813 113.46 28.5387 113.567 28.672C113.679 28.8053 113.817 28.9093 113.983 28.984C114.153 29.0533 114.327 29.088 114.503 29.088C114.636 29.088 114.753 29.08 114.855 29.064C114.961 29.048 115.052 29.0293 115.127 29.008C115.201 28.9813 115.265 28.9547 115.319 28.928C115.377 28.9013 115.431 28.8773 115.479 28.856C115.527 28.8347 115.572 28.8213 115.615 28.816C115.673 28.8107 115.732 28.824 115.791 28.856C115.849 28.888 115.897 28.944 115.935 29.024C115.967 29.0773 115.988 29.128 115.999 29.176C116.015 29.2187 116.023 29.2613 116.023 29.304C116.023 29.4107 115.959 29.512 115.831 29.608C115.703 29.6987 115.521 29.7733 115.287 29.832C115.057 29.896 114.785 29.928 114.471 29.928ZM113.399 27.632H115.039C115.129 27.632 115.199 27.6187 115.247 27.592C115.295 27.56 115.319 27.496 115.319 27.4C115.319 27.2773 115.281 27.168 115.207 27.072C115.132 26.9707 115.031 26.8933 114.903 26.84C114.775 26.7813 114.625 26.752 114.455 26.752C114.257 26.752 114.079 26.792 113.919 26.872C113.759 26.9467 113.631 27.0507 113.535 27.184C113.444 27.3173 113.399 27.4667 113.399 27.632ZM121.56 29.872C121.298 29.872 121.064 29.8213 120.856 29.72C120.653 29.6133 120.48 29.4693 120.336 29.288C120.197 29.1067 120.09 28.8987 120.016 28.664C119.946 28.424 119.912 28.168 119.912 27.896C119.917 27.624 119.957 27.3707 120.032 27.136C120.106 26.896 120.213 26.688 120.352 26.512C120.496 26.3307 120.669 26.1893 120.872 26.088C121.074 25.9867 121.304 25.936 121.56 25.936C121.805 25.936 122.034 25.9867 122.248 26.088C122.466 26.1893 122.658 26.3307 122.824 26.512C122.994 26.688 123.128 26.896 123.224 27.136C123.32 27.3707 123.368 27.6213 123.368 27.888C123.368 28.1653 123.32 28.4267 123.224 28.672C123.128 28.912 122.997 29.1227 122.832 29.304C122.666 29.48 122.474 29.6187 122.256 29.72C122.037 29.8213 121.805 29.872 121.56 29.872ZM121.432 28.936C121.618 28.936 121.786 28.8933 121.936 28.808C122.085 28.7173 122.202 28.5947 122.288 28.44C122.378 28.2853 122.424 28.1093 122.424 27.912C122.424 27.7093 122.378 27.5307 122.288 27.376C122.202 27.216 122.085 27.0933 121.936 27.008C121.786 26.9173 121.618 26.872 121.432 26.872C121.25 26.872 121.085 26.9173 120.936 27.008C120.786 27.0987 120.666 27.2213 120.576 27.376C120.49 27.5307 120.448 27.7093 120.448 27.912C120.448 28.1093 120.49 28.2853 120.576 28.44C120.666 28.5947 120.786 28.7173 120.936 28.808C121.085 28.8933 121.25 28.936 121.432 28.936ZM119.952 29.88C119.808 29.88 119.701 29.856 119.632 29.808C119.562 29.7653 119.52 29.7093 119.504 29.64C119.488 29.5653 119.48 29.4827 119.48 29.392V24.624C119.48 24.5333 119.488 24.4533 119.504 24.384C119.52 24.3093 119.562 24.2507 119.632 24.208C119.701 24.1653 119.808 24.144 119.952 24.144C120.101 24.144 120.208 24.1653 120.272 24.208C120.336 24.2507 120.376 24.3093 120.392 24.384C120.408 24.4587 120.416 24.5387 120.416 24.624V29.552C120.394 29.6693 120.349 29.752 120.28 29.8C120.216 29.8533 120.106 29.88 119.952 29.88ZM126.211 29.928C125.955 29.928 125.704 29.88 125.459 29.784C125.219 29.6827 125 29.5413 124.803 29.36C124.611 29.1787 124.456 28.9653 124.339 28.72C124.227 28.4747 124.171 28.2053 124.171 27.912C124.171 27.6293 124.224 27.3653 124.331 27.12C124.437 26.8747 124.584 26.6587 124.771 26.472C124.957 26.2853 125.171 26.1413 125.411 26.04C125.656 25.9333 125.917 25.88 126.195 25.88C126.568 25.88 126.907 25.9707 127.211 26.152C127.515 26.328 127.757 26.568 127.939 26.872C128.12 27.176 128.211 27.52 128.211 27.904C128.211 28.208 128.155 28.4853 128.043 28.736C127.931 28.9813 127.779 29.1947 127.587 29.376C127.395 29.552 127.179 29.688 126.939 29.784C126.704 29.88 126.461 29.928 126.211 29.928ZM126.195 28.984C126.371 28.984 126.539 28.9413 126.699 28.856C126.864 28.7653 126.997 28.6373 127.099 28.472C127.205 28.3067 127.259 28.112 127.259 27.888C127.259 27.68 127.211 27.496 127.115 27.336C127.024 27.176 126.899 27.0507 126.739 26.96C126.579 26.8693 126.395 26.824 126.187 26.824C125.989 26.824 125.811 26.872 125.651 26.968C125.491 27.0587 125.363 27.1867 125.267 27.352C125.176 27.512 125.131 27.6933 125.131 27.896C125.131 28.12 125.181 28.3147 125.283 28.48C125.384 28.64 125.515 28.7653 125.675 28.856C125.84 28.9413 126.013 28.984 126.195 28.984ZM130.443 29.872C130.336 29.872 130.251 29.8507 130.187 29.808C130.128 29.7707 130.083 29.7227 130.051 29.664C130.024 29.6053 130 29.552 129.979 29.504L128.803 26.528C128.771 26.4267 128.755 26.3413 128.755 26.272C128.76 26.2027 128.787 26.144 128.835 26.096C128.888 26.0427 128.966 25.9973 129.067 25.96C129.238 25.8907 129.371 25.872 129.467 25.904C129.568 25.936 129.643 26.0267 129.691 26.176L130.451 28.192L131.139 26.264C131.155 26.216 131.179 26.1653 131.211 26.112C131.243 26.0587 131.288 26.0133 131.347 25.976C131.411 25.9333 131.496 25.912 131.603 25.912C131.715 25.912 131.803 25.9333 131.867 25.976C131.931 26.0133 131.979 26.0587 132.011 26.112C132.048 26.1653 132.072 26.216 132.083 26.264L132.771 28.208L133.499 26.248C133.563 26.0827 133.643 25.9733 133.739 25.92C133.835 25.8667 133.966 25.872 134.131 25.936C134.28 26 134.382 26.08 134.435 26.176C134.488 26.2667 134.483 26.3867 134.419 26.536L133.235 29.504C133.214 29.5573 133.187 29.6133 133.155 29.672C133.128 29.7253 133.083 29.7707 133.019 29.808C132.96 29.8507 132.88 29.872 132.779 29.872C132.672 29.872 132.587 29.8533 132.523 29.816C132.464 29.784 132.419 29.7387 132.387 29.68C132.355 29.6213 132.328 29.56 132.307 29.496L131.611 27.52L130.915 29.496C130.883 29.5707 130.854 29.6373 130.827 29.696C130.8 29.7547 130.758 29.7973 130.699 29.824C130.64 29.856 130.555 29.872 130.443 29.872ZM136.738 29.88C136.541 29.88 136.365 29.8667 136.21 29.84C136.061 29.8133 135.93 29.768 135.818 29.704C135.711 29.64 135.623 29.5547 135.554 29.448C135.485 29.336 135.431 29.2 135.394 29.04C135.362 28.88 135.346 28.688 135.346 28.464V24.608C135.346 24.5173 135.354 24.4373 135.37 24.368C135.391 24.2933 135.434 24.2347 135.498 24.192C135.567 24.144 135.677 24.12 135.826 24.12C135.975 24.12 136.082 24.1413 136.146 24.184C136.215 24.2267 136.258 24.2853 136.274 24.36C136.295 24.4293 136.306 24.5093 136.306 24.6V28.424C136.306 28.5253 136.311 28.6107 136.322 28.68C136.338 28.744 136.362 28.7973 136.394 28.84C136.431 28.8773 136.477 28.904 136.53 28.92C136.589 28.936 136.658 28.944 136.738 28.944C136.807 28.944 136.869 28.952 136.922 28.968C136.981 28.984 137.026 29.024 137.058 29.088C137.095 29.152 137.114 29.256 137.114 29.4C137.114 29.5493 137.095 29.6587 137.058 29.728C137.026 29.7973 136.981 29.84 136.922 29.856C136.863 29.872 136.802 29.88 136.738 29.88Z" fill="black"/>
</svg>
