<svg width="175" height="35" viewBox="0 0 175 35" fill="none" xmlns="http://www.w3.org/2000/svg">
<mask id="path-1-inside-1_109_127" fill="white">
<path d="M163 0C169.627 1.86835e-06 175 5.37258 175 12V14C175 20.6274 169.627 26 163 26H155.95C155.448 31.0533 151.185 35 146 35H29C23.8147 35 19.5515 31.0533 19.0498 26H12C5.37258 26 3.22139e-08 20.6274 0 14V12C0 5.37258 5.37258 0 12 0H163Z"/>
</mask>
<path d="M163 0C169.627 1.86835e-06 175 5.37258 175 12V14C175 20.6274 169.627 26 163 26H155.95C155.448 31.0533 151.185 35 146 35H29C23.8147 35 19.5515 31.0533 19.0498 26H12C5.37258 26 3.22139e-08 20.6274 0 14V12C0 5.37258 5.37258 0 12 0H163Z" fill="#FBE7D6"/>
<path d="M163 0V-0.2V-0.2V0ZM175 12H175.2H175ZM155.95 26V25.8H155.769L155.751 25.9802L155.95 26ZM19.0498 26L19.2488 25.9802L19.2309 25.8H19.0498V26ZM12 26V26.2V26.2V26ZM0 14H-0.2H0ZM163 0V0.2C169.517 0.200002 174.8 5.48304 174.8 12H175H175.2C175.2 5.26213 169.738 -0.199998 163 -0.2V0ZM175 12H174.8V14H175H175.2V12H175ZM175 14H174.8C174.8 20.517 169.517 25.8 163 25.8V26V26.2C169.738 26.2 175.2 20.7379 175.2 14H175ZM163 26V25.8H155.95V26V26.2H163V26ZM155.95 26L155.751 25.9802C155.259 30.9323 151.081 34.8 146 34.8V35V35.2C151.289 35.2 155.637 31.1743 156.149 26.0198L155.95 26ZM146 35V34.8H29V35V35.2H146V35ZM29 35V34.8C23.9185 34.8 19.7405 30.9323 19.2488 25.9802L19.0498 26L18.8508 26.0198C19.3626 31.1743 23.7108 35.2 29 35.2V35ZM19.0498 26V25.8H12V26V26.2H19.0498V26ZM12 26V25.8C5.48304 25.8 0.2 20.517 0.2 14H0H-0.2C-0.2 20.7379 5.26213 26.2 12 26.2V26ZM0 14H0.2V12H0H-0.2V14H0ZM0 12H0.2C0.2 5.48304 5.48304 0.2 12 0.2V0V-0.2C5.26213 -0.2 -0.2 5.26213 -0.2 12H0ZM12 0V0.2H163V0V-0.2H12V0Z" fill="#8A6A42" mask="url(#path-1-inside-1_109_127)"/>
<path d="M15.5195 16.9669C15.3143 16.9738 15.1631 16.9495 15.0658 16.894C14.9686 16.8385 14.9073 16.7599 14.8819 16.658C14.8562 16.5488 14.8414 16.4356 14.8375 16.3183L14.6259 9.97482C14.622 9.85755 14.6295 9.75091 14.6483 9.65489C14.6742 9.55131 14.7338 9.46861 14.8271 9.4068C14.9202 9.33765 15.0694 9.29966 15.2746 9.29282L17.6053 9.21508C17.9278 9.20432 18.2448 9.24878 18.5563 9.34845C18.8677 9.44812 19.1481 9.60386 19.3973 9.81568C19.6538 10.0272 19.8571 10.2919 20.0071 10.6098C20.1644 10.9274 20.2503 11.3024 20.2647 11.7348C20.2789 12.1599 20.2181 12.5362 20.0823 12.8635C19.9535 13.1833 19.7682 13.4573 19.5264 13.6855C19.2845 13.9137 19.0115 14.0879 18.7073 14.2081C18.4105 14.3281 18.0972 14.3936 17.7674 14.4046L16.1073 14.4599L16.1682 16.2849C16.1721 16.4022 16.1611 16.5126 16.1352 16.6162C16.1166 16.7195 16.0607 16.8021 15.9673 16.8639C15.8813 16.9255 15.7321 16.9598 15.5195 16.9669ZM16.0625 13.1187L17.7336 13.0629C17.9608 13.0554 18.1646 13.0045 18.3449 12.9105C18.5323 12.8088 18.6815 12.6645 18.7927 12.4773C18.9036 12.2828 18.9543 12.0427 18.9447 11.7568C18.9362 11.5003 18.8739 11.2823 18.7578 11.1027C18.6489 10.9156 18.4974 10.7739 18.3034 10.6776C18.1168 10.5811 17.8952 10.5371 17.6387 10.5457L15.9786 10.6011L16.0625 13.1187ZM22.475 16.7459C22.2698 16.7528 22.1184 16.7248 22.0209 16.662C21.9237 16.6066 21.8624 16.5279 21.837 16.426C21.8116 16.3241 21.7968 16.2109 21.7926 16.0863L21.581 9.74284C21.5771 9.62557 21.5845 9.51527 21.603 9.41192C21.6289 9.30834 21.6849 9.22576 21.7709 9.16419C21.8642 9.10238 22.0171 9.06793 22.2297 9.06084C22.4349 9.05399 22.5824 9.07842 22.6724 9.13412C22.7696 9.18958 22.8309 9.26824 22.8563 9.37012C22.8891 9.47175 22.9075 9.58487 22.9117 9.70946L23.1232 16.0529C23.1274 16.1775 23.1165 16.2916 23.0906 16.3952C23.0718 16.4912 23.0158 16.5701 22.9224 16.632C22.8294 16.7011 22.6802 16.7391 22.475 16.7459ZM28.1755 16.6708C27.6477 16.6849 27.1503 16.5991 26.6831 16.4135C26.2232 16.2204 25.8125 15.9526 25.4513 15.6101C25.0898 15.2603 24.804 14.8571 24.5937 14.4006C24.3833 13.9367 24.2709 13.4372 24.2566 12.902C24.242 12.3522 24.3236 11.8365 24.5014 11.3549C24.6865 10.8658 24.9428 10.4372 25.2704 10.069C25.6052 9.69323 25.9934 9.39677 26.4351 9.17958C26.8768 8.96239 27.3542 8.84695 27.8674 8.83326C28.4025 8.81898 28.9001 8.9084 29.3601 9.10154C29.8272 9.28714 30.2378 9.55495 30.5919 9.90497C30.9461 10.255 31.2285 10.6656 31.4391 11.1368C31.6495 11.6007 31.7621 12.1075 31.7768 12.6573C31.7911 13.1925 31.7092 13.7008 31.5314 14.1824C31.3533 14.6567 31.0969 15.0817 30.7621 15.4574C30.4271 15.8258 30.0388 16.1186 29.5971 16.3358C29.1625 16.5455 28.6887 16.6571 28.1755 16.6708ZM28.0848 15.3308C28.422 15.3218 28.7354 15.2474 29.0251 15.1076C29.3149 14.9678 29.5665 14.7777 29.7802 14.5373C30.0012 14.2966 30.1699 14.0207 30.2863 13.7095C30.4025 13.3909 30.4558 13.052 30.4462 12.6928C30.4367 12.3336 30.3618 12.0019 30.2216 11.6975C30.0886 11.3856 29.9053 11.1154 29.6718 10.8869C29.4454 10.6508 29.1839 10.4707 28.8871 10.3466C28.5977 10.2223 28.2844 10.1646 27.9472 10.1736C27.6173 10.1824 27.3075 10.2567 27.0178 10.3965C26.7281 10.5363 26.4728 10.7301 26.252 10.9781C26.0384 11.2186 25.8734 11.4981 25.7572 11.8166C25.641 12.1351 25.5876 12.4704 25.597 12.8222C25.6064 13.1741 25.6776 13.506 25.8106 13.8179C25.951 14.1296 26.1342 14.3998 26.3604 14.6285C26.5866 14.8572 26.8444 15.0337 27.1338 15.1581C27.4306 15.2822 27.7476 15.3398 28.0848 15.3308ZM36.8635 16.399C36.5043 16.4083 36.1401 16.3663 35.7709 16.2731C35.4016 16.1726 35.0455 16.0204 34.7028 15.8164C34.3599 15.6052 34.0525 15.3454 33.7805 15.0369C33.5156 14.721 33.3008 14.356 33.1361 13.9422C32.9712 13.5209 32.8821 13.0537 32.8689 12.5406C32.8559 12.0347 32.9212 11.5782 33.0647 11.1711C33.2081 10.7566 33.4041 10.3921 33.6528 10.0776C33.9088 9.76288 34.1991 9.49865 34.5237 9.2849C34.8556 9.07095 35.2035 8.90794 35.5674 8.79587C35.9385 8.67628 36.3072 8.60811 36.6735 8.59134C37.0474 8.58171 37.371 8.61373 37.6443 8.68738C37.9176 8.76104 38.1398 8.84335 38.3109 8.93431C38.4818 9.01794 38.597 9.07733 38.6566 9.11247C38.7758 9.18276 38.8879 9.26424 38.993 9.3569C39.1052 9.44204 39.1667 9.55049 39.1774 9.68226C39.187 9.77004 39.1781 9.85096 39.1507 9.92503C39.1231 9.99176 39.0845 10.0624 39.0351 10.1371C38.9503 10.264 38.8647 10.3579 38.7783 10.4188C38.6918 10.4797 38.6046 10.5113 38.5166 10.5135C38.436 10.5156 38.3584 10.4956 38.284 10.4535C38.2169 10.4112 38.1312 10.3584 38.0268 10.2951C37.9821 10.2669 37.9003 10.225 37.7815 10.1693C37.6698 10.1062 37.5181 10.0514 37.3261 10.005C37.1415 9.95841 36.9173 9.93851 36.6534 9.94531C36.3381 9.95342 36.0317 10.0163 35.7339 10.134C35.4362 10.2517 35.1692 10.4237 34.9329 10.6498C34.7038 10.8685 34.5238 11.1408 34.3928 11.467C34.2616 11.7858 34.2013 12.1505 34.2119 12.561C34.2225 12.9715 34.3015 13.3363 34.4491 13.6553C34.5965 13.9669 34.7904 14.2297 35.0306 14.4436C35.278 14.6499 35.5534 14.8042 35.8568 14.9064C36.1602 15.0087 36.4695 15.0557 36.7847 15.0476C37.034 15.0412 37.246 15.0137 37.4208 14.9652C37.6028 14.9092 37.7552 14.8466 37.8781 14.7774C38.0082 14.7007 38.1058 14.6431 38.1708 14.6048C38.2501 14.5514 38.3259 14.5018 38.398 14.4559C38.4702 14.41 38.5466 14.3861 38.6273 14.384C38.7152 14.3817 38.8003 14.4089 38.8824 14.4654C38.9719 14.5218 39.0587 14.6149 39.1427 14.7448C39.1961 14.8241 39.2384 14.9001 39.2696 14.9726C39.3008 15.0452 39.3138 15.1219 39.3086 15.2027C39.3046 15.3349 39.2489 15.45 39.1414 15.5481C39.041 15.6387 38.933 15.7185 38.8174 15.7875C38.7597 15.8257 38.6478 15.8946 38.4817 15.9943C38.3226 16.0864 38.1085 16.1726 37.8391 16.2529C37.5699 16.3405 37.2447 16.3892 36.8635 16.399ZM46.3068 16.1077C46.1015 16.1127 45.9505 16.0871 45.8538 16.0308C45.757 15.9745 45.6964 15.8953 45.6719 15.7932C45.6472 15.6838 45.6334 15.5704 45.6305 15.4531L45.4741 9.10805C45.4713 8.99076 45.4795 8.88052 45.499 8.77734C45.5258 8.67398 45.5825 8.5919 45.669 8.53108C45.7629 8.47008 45.9161 8.43697 46.1287 8.43173C46.334 8.42667 46.4813 8.45238 46.5707 8.50886C46.6675 8.56516 46.7281 8.64436 46.7526 8.74645C46.7845 8.84837 46.8019 8.96164 46.805 9.08627L46.9613 15.4313C46.9642 15.5486 46.9523 15.659 46.9255 15.7623C46.906 15.8655 46.8494 15.9476 46.7555 16.0086C46.6616 16.0696 46.5121 16.1026 46.3068 16.1077ZM41.4903 16.2263C41.285 16.2314 41.134 16.2058 41.0372 16.1495C40.9478 16.093 40.8872 16.0138 40.8553 15.9119C40.8306 15.8025 40.8168 15.6891 40.8139 15.5718L40.6576 9.22672C40.6547 9.10942 40.663 8.99919 40.6825 8.89601C40.7093 8.79265 40.7696 8.71047 40.8635 8.64948C40.9573 8.58848 41.1069 8.55545 41.3122 8.5504C41.5248 8.54516 41.6758 8.57078 41.7652 8.62726C41.8619 8.68356 41.9226 8.76276 41.9471 8.86485C41.9716 8.96695 41.9854 9.08031 41.9885 9.20494L42.1448 15.55C42.1477 15.6673 42.1357 15.7776 42.1089 15.881C42.0895 15.9842 42.0328 16.0663 41.939 16.1273C41.8524 16.1881 41.7029 16.2211 41.4903 16.2263ZM41.7276 12.9085L41.6984 11.7208L45.7121 11.622L45.7304 12.8099L41.7276 12.9085ZM49.3835 16.0543C49.1782 16.0577 49.0273 16.0271 48.9309 15.9626C48.8347 15.9055 48.7747 15.8258 48.7511 15.7235C48.7274 15.6212 48.7146 15.5077 48.7126 15.3831L48.6103 9.03689C48.6062 8.78759 48.6511 8.61451 48.7449 8.51766C48.846 8.42068 49.0286 8.37006 49.2925 8.36581L53.582 8.29666C53.7066 8.29465 53.8168 8.30754 53.9126 8.33533C54.0156 8.35567 54.0972 8.41303 54.1574 8.50741C54.2175 8.59445 54.2493 8.74429 54.2527 8.95693C54.256 9.16224 54.2254 9.31308 54.161 9.40947C54.1039 9.50573 54.0242 9.56569 53.9219 9.58934C53.8269 9.61288 53.7171 9.62565 53.5924 9.62766L49.9519 9.68635L49.9817 11.5341L52.4894 11.4937C52.614 11.4917 52.7206 11.5046 52.809 11.5325C52.8974 11.5531 52.9679 11.6033 53.0205 11.6831C53.0731 11.763 53.101 11.8982 53.104 12.0889C53.107 12.2722 53.0835 12.4082 53.0336 12.497C52.9836 12.5785 52.9111 12.631 52.8161 12.6546C52.721 12.6708 52.6112 12.6799 52.4865 12.6819L50.0008 12.722L50.0328 14.7017L53.6843 14.6428C53.8089 14.6408 53.9192 14.6537 54.0149 14.6815C54.118 14.7018 54.1996 14.7592 54.2598 14.8536C54.3199 14.948 54.3517 15.0978 54.355 15.3031C54.3583 15.5084 54.3277 15.6593 54.2633 15.7556C54.2062 15.8519 54.1265 15.9119 54.0242 15.9355C53.9293 15.9664 53.8196 15.9828 53.6949 15.9848L49.3835 16.0543ZM59.7577 15.8871C59.5451 15.8905 59.3906 15.86 59.2942 15.7956C59.1979 15.7384 59.1343 15.6588 59.1033 15.5566C59.0796 15.4543 59.0669 15.3445 59.065 15.2272L58.9627 8.881C58.9607 8.75635 58.9698 8.64252 58.9902 8.53951C59.0178 8.43638 59.0752 8.35478 59.1622 8.2947C59.2566 8.23451 59.4101 8.2027 59.6228 8.19927C59.8281 8.19596 59.9752 8.22292 60.0641 8.28016C60.1604 8.33729 60.2204 8.417 60.244 8.5193C60.275 8.62148 60.2915 8.73489 60.2935 8.85954L60.3875 14.6888L63.742 14.6347C63.852 14.6329 63.9512 14.6423 64.0395 14.6629C64.1278 14.6762 64.1982 14.7264 64.251 14.8135C64.3036 14.8934 64.3314 15.0249 64.3344 15.2082C64.3373 15.3915 64.3138 15.5276 64.2639 15.6164C64.2139 15.6979 64.1451 15.7504 64.0574 15.7738C63.9699 15.8045 63.8712 15.8208 63.7612 15.8225L59.7577 15.8871ZM66.3687 15.7897C66.1634 15.7916 66.0127 15.76 65.9168 15.6949C65.8209 15.6372 65.7615 15.557 65.7385 15.4546C65.7156 15.3521 65.7035 15.2386 65.7024 15.1139L65.6434 8.76717C65.6411 8.51785 65.6872 8.34508 65.7816 8.24886C65.8834 8.15258 66.0663 8.10321 66.3302 8.10076L70.6201 8.0609C70.7447 8.05975 70.8549 8.07339 70.9505 8.10183C71.0533 8.12288 71.1345 8.1808 71.1941 8.27558C71.2536 8.36303 71.2843 8.51308 71.2863 8.72574C71.2882 8.93107 71.2566 9.0817 71.1915 9.17764C71.1337 9.27352 71.0536 9.33293 70.9511 9.35588C70.856 9.37877 70.7461 9.39079 70.6214 9.39195L66.9806 9.42578L66.9978 11.2737L69.5056 11.2504C69.6303 11.2492 69.7368 11.2629 69.825 11.2914C69.9132 11.3126 69.9834 11.3633 70.0355 11.4435C70.0875 11.5237 70.1145 11.6591 70.1162 11.8497C70.1179 12.0331 70.0935 12.169 70.043 12.2574C69.9924 12.3386 69.9196 12.3906 69.8245 12.4135C69.7293 12.429 69.6193 12.4374 69.4947 12.4385L67.0088 12.4616L67.0272 14.4416L70.679 14.4076C70.8037 14.4065 70.9138 14.4201 71.0094 14.4486C71.1123 14.4696 71.1935 14.5275 71.2531 14.6223C71.3126 14.7171 71.3433 14.8671 71.3452 15.0725C71.3471 15.2778 71.3155 15.4284 71.2504 15.5244C71.1927 15.6202 71.1125 15.6797 71.0101 15.7026C70.915 15.7328 70.8052 15.7485 70.6805 15.7497L66.3687 15.7897ZM75.1983 15.8191C74.8683 15.8208 74.5674 15.782 74.2957 15.7028C74.0313 15.6234 73.7961 15.522 73.5901 15.3983C73.3915 15.2747 73.2221 15.1472 73.0821 15.0159C72.9421 14.8847 72.8389 14.7642 72.7723 14.6545C72.6763 14.523 72.6134 14.406 72.5835 14.3035C72.5536 14.201 72.5605 14.1019 72.604 14.0064C72.6548 13.9034 72.7459 13.7966 72.8773 13.686C73.0087 13.568 73.1294 13.5087 73.2394 13.5081C73.3567 13.5002 73.4669 13.5326 73.5699 13.6054C73.6803 13.6782 73.7872 13.7803 73.8905 13.9118C74.0677 14.1456 74.2666 14.3132 74.4871 14.4148C74.7076 14.509 74.9278 14.5555 75.1478 14.5544C75.4338 14.5529 75.6829 14.515 75.8952 14.4406C76.1075 14.3588 76.2719 14.2406 76.3884 14.086C76.5123 13.9314 76.5736 13.7331 76.5724 13.4911C76.5714 13.2931 76.5082 13.1321 76.3829 13.0081C76.2649 12.8767 76.1067 12.7675 75.9083 12.6805C75.7098 12.5862 75.4857 12.503 75.236 12.4309C74.9936 12.3515 74.7474 12.2647 74.4976 12.1707C74.3213 12.1129 74.145 12.0441 73.9686 11.9644C73.7921 11.8773 73.6266 11.7791 73.4721 11.6699C73.3248 11.5607 73.1922 11.433 73.0741 11.2869C72.9633 11.1335 72.8744 10.9579 72.8074 10.7603C72.7404 10.5626 72.7062 10.3318 72.7049 10.0678C72.7027 9.6498 72.8035 9.28262 73.0073 8.96624C73.2109 8.64253 73.4956 8.38807 73.8614 8.20287C74.2271 8.01033 74.6446 7.91287 75.1139 7.91047C75.4146 7.90894 75.6824 7.9369 75.9173 7.99437C76.1596 8.04447 76.3653 8.11309 76.5344 8.20022C76.7108 8.27999 76.8542 8.36359 76.9647 8.45103C77.0824 8.5311 77.1671 8.60033 77.2187 8.65874C77.3883 8.82654 77.4807 8.96907 77.4959 9.08633C77.5185 9.19621 77.4533 9.34688 77.3002 9.53833C77.1472 9.73712 76.9975 9.84788 76.8509 9.87063C76.7117 9.88601 76.5537 9.82815 76.377 9.69705C76.2591 9.57298 76.1412 9.47458 76.0235 9.40185C75.9058 9.32178 75.7735 9.26379 75.6266 9.22787C75.4871 9.19192 75.3147 9.17446 75.1093 9.17551C74.9627 9.17626 74.8198 9.19899 74.6807 9.2437C74.5489 9.28104 74.4355 9.34029 74.3406 9.42144C74.2456 9.49526 74.1691 9.58732 74.111 9.69762C74.0602 9.80788 74.0352 9.93267 74.0359 10.072C74.0369 10.2627 74.089 10.4201 74.1923 10.5442C74.3029 10.661 74.4501 10.7592 74.6338 10.839C74.8175 10.9114 75.0232 10.98 75.2509 11.0448C75.4786 11.1097 75.7099 11.1781 75.945 11.2503C76.1874 11.3297 76.4262 11.4238 76.6614 11.5326C76.8966 11.6414 77.1063 11.7797 77.2905 11.9474C77.4747 12.1078 77.6224 12.3124 77.7337 12.5612C77.8449 12.8026 77.9014 13.0993 77.9032 13.4513C77.9053 13.8546 77.8301 14.207 77.6776 14.5085C77.5251 14.8099 77.3174 15.0566 77.0544 15.2487C76.7914 15.4407 76.4987 15.5815 76.1765 15.6711C75.8543 15.7681 75.5283 15.8175 75.1983 15.8191ZM83.105 15.6798C82.8997 15.6808 82.7492 15.6486 82.6535 15.5831C82.5579 15.5249 82.4988 15.4445 82.4763 15.342C82.4538 15.2394 82.4422 15.1258 82.4416 15.0012L82.4092 8.65424C82.4086 8.53691 82.419 8.42685 82.4405 8.32407C82.4693 8.22126 82.5275 8.14029 82.6152 8.08118C82.7103 8.02203 82.8641 7.99191 83.0768 7.99082C83.2821 7.98977 83.4289 8.01836 83.5172 8.07657C83.6129 8.13475 83.6719 8.21512 83.6945 8.31767C83.7243 8.42019 83.7396 8.53378 83.7402 8.65844L83.7726 15.0054C83.7732 15.13 83.7592 15.2438 83.7303 15.3466C83.7088 15.442 83.6506 15.5193 83.5555 15.5785C83.4605 15.645 83.3104 15.6787 83.105 15.6798ZM85.9768 15.6628C85.7788 15.6624 85.6322 15.6291 85.537 15.5629C85.4491 15.5041 85.3906 15.4233 85.3615 15.3205C85.3397 15.2178 85.3289 15.1078 85.3292 14.9905L85.342 8.61049C85.3422 8.50049 85.3571 8.39785 85.3866 8.30258C85.4161 8.2073 85.4786 8.13043 85.5741 8.07195C85.6769 8.01349 85.8272 7.98446 86.0252 7.98486C86.2452 7.9853 86.3955 8.01127 86.4761 8.06277C86.564 8.10694 86.6445 8.1731 86.7177 8.26125L90.3814 13.4056L90.391 8.62063C90.3912 8.51063 90.4061 8.40799 90.4356 8.31272C90.4651 8.21745 90.5276 8.14057 90.6231 8.0821C90.7185 8.02362 90.8652 7.99458 91.0632 7.99498C91.2686 7.99539 91.4152 8.02869 91.503 8.09486C91.5983 8.15372 91.6568 8.23451 91.6785 8.33722C91.7077 8.43994 91.7221 8.55364 91.7219 8.6783L91.7091 15.0143C91.7089 15.1316 91.6903 15.2416 91.6535 15.3442C91.624 15.4395 91.5578 15.5163 91.455 15.5748C91.3595 15.6406 91.2091 15.6733 91.0038 15.6729C90.8425 15.6726 90.7142 15.6576 90.6189 15.6281C90.531 15.5986 90.4504 15.5361 90.3773 15.4406L86.6586 10.3071L86.6491 15.0041C86.6489 15.1215 86.634 15.2314 86.6045 15.334C86.5823 15.4293 86.5235 15.5062 86.428 15.5647C86.3326 15.6305 86.1822 15.6632 85.9768 15.6628ZM97.1282 15.7582C96.5782 15.7548 96.0728 15.6563 95.612 15.4628C95.1512 15.2619 94.7533 14.9808 94.4182 14.6194C94.0831 14.258 93.8254 13.8347 93.645 13.3496C93.4647 12.8571 93.3764 12.3139 93.3801 11.7199C93.3836 11.1626 93.4821 10.6535 93.6756 10.1927C93.8691 9.73189 94.1392 9.33389 94.486 8.9987C94.8328 8.65617 95.2414 8.39104 95.7119 8.20328C96.1898 8.01557 96.711 7.92347 97.2757 7.92696C97.5104 7.92842 97.7522 7.95192 98.0013 7.99746C98.2504 8.03567 98.492 8.0995 98.7261 8.18896C98.9603 8.27108 99.165 8.37501 99.3402 8.50077C99.479 8.58963 99.5957 8.68202 99.6905 8.77794C99.7926 8.86658 99.8469 8.96958 99.8536 9.08696C99.8605 9.153 99.849 9.22627 99.8192 9.30675C99.7894 9.3799 99.7449 9.45663 99.6858 9.53693C99.6043 9.66109 99.5158 9.75221 99.4201 9.81029C99.3317 9.86841 99.2435 9.8972 99.1555 9.89665C99.1042 9.89633 99.042 9.87761 98.9689 9.84049C98.8958 9.79604 98.7972 9.73676 98.673 9.66266C98.578 9.59607 98.4538 9.53296 98.3001 9.47334C98.1465 9.41372 97.9781 9.36501 97.795 9.32721C97.6119 9.28941 97.4214 9.26989 97.2234 9.26867C96.7321 9.26562 96.2988 9.36561 95.9235 9.56862C95.5482 9.77163 95.2531 10.0631 95.0381 10.4431C94.8304 10.8159 94.725 11.2552 94.7219 11.7612C94.7187 12.2819 94.8221 12.7409 95.0324 13.1382C95.2426 13.5355 95.5303 13.8489 95.8955 14.0785C96.2682 14.3008 96.6965 14.4135 97.1805 14.4165C97.3491 14.4175 97.5179 14.4076 97.6867 14.3866C97.8628 14.3657 98.0317 14.3338 98.1933 14.2908C98.3622 14.2478 98.5166 14.1938 98.6563 14.1286L98.6671 12.3907L97.1051 12.381C97.0024 12.3804 96.9072 12.3688 96.8193 12.3462C96.7388 12.3237 96.6731 12.272 96.6223 12.191C96.5788 12.1101 96.5576 11.9779 96.5587 11.7946C96.5599 11.6039 96.5864 11.4684 96.6382 11.3881C96.6901 11.3077 96.7564 11.2568 96.8372 11.2353C96.9253 11.2139 97.0207 11.2034 97.1234 11.2041L99.3673 11.218C99.558 11.2192 99.6971 11.253 99.7847 11.3196C99.8723 11.3861 99.9304 11.4708 99.9591 11.5737C99.9879 11.6692 100.002 11.7793 100.001 11.9039L99.9852 14.4669C99.9843 14.6135 99.91 14.7634 99.7624 14.9165C99.6221 15.0696 99.4233 15.2114 99.1658 15.3418C98.9966 15.4288 98.8018 15.5046 98.5814 15.5692C98.3683 15.6266 98.137 15.6728 97.8875 15.7079C97.6453 15.7431 97.3922 15.7598 97.1282 15.7582ZM102.425 15.7375C102.22 15.736 102.07 15.7055 101.975 15.6462C101.887 15.5869 101.829 15.5058 101.801 15.4029C101.779 15.2928 101.769 15.179 101.77 15.0617L101.816 8.71485C101.817 8.59752 101.833 8.4913 101.863 8.39618C101.893 8.29373 101.952 8.21349 102.04 8.15546C102.136 8.09016 102.287 8.05825 102.492 8.05975L104.846 8.07686C105.183 8.07931 105.502 8.13663 105.802 8.24881C106.109 8.35372 106.383 8.51705 106.623 8.7388C106.864 8.95322 107.052 9.22593 107.189 9.55694C107.334 9.88066 107.404 10.2589 107.401 10.6915C107.399 10.9775 107.353 11.2632 107.263 11.5485C107.173 11.8265 107.039 12.0859 106.861 12.3266C106.691 12.5601 106.473 12.7601 106.208 12.9269C105.943 13.0936 105.63 13.2014 105.27 13.2501L103.114 13.2344L103.101 15.0824C103.1 15.1997 103.085 15.3096 103.055 15.412C103.032 15.5145 102.973 15.5948 102.877 15.6527C102.788 15.7108 102.638 15.739 102.425 15.7375ZM107.112 15.6065C106.899 15.7517 106.722 15.8054 106.583 15.7677C106.451 15.7301 106.32 15.6118 106.19 15.4128L104.362 12.6055L105.848 12.4183L107.295 14.6508C107.397 14.7983 107.458 14.9234 107.48 15.0262C107.501 15.129 107.482 15.2242 107.422 15.3118C107.363 15.3994 107.26 15.4976 107.112 15.6065ZM103.124 11.9144L104.983 11.928C105.115 11.9289 105.243 11.9079 105.368 11.8648C105.501 11.8144 105.619 11.7382 105.722 11.6363C105.826 11.5271 105.907 11.3957 105.967 11.2421C106.034 11.0812 106.069 10.8908 106.07 10.6708C106.072 10.4068 106.022 10.1828 105.921 9.99873C105.82 9.80732 105.674 9.66326 105.484 9.56654C105.302 9.46254 105.078 9.40959 104.814 9.40767L103.142 9.39551L103.124 11.9144ZM109.649 15.8136C109.444 15.8102 109.294 15.7747 109.2 15.7071C109.106 15.6469 109.048 15.5652 109.028 15.4622C109.008 15.3592 108.999 15.2454 109.001 15.1207L109.107 8.77459C109.111 8.52529 109.161 8.35377 109.258 8.26004C109.362 8.16643 109.546 8.12182 109.81 8.12622L114.1 8.19761C114.224 8.19969 114.334 8.21618 114.429 8.2471C114.531 8.27081 114.611 8.33081 114.668 8.4271C114.725 8.51607 114.752 8.66687 114.749 8.87951C114.745 9.08481 114.71 9.23457 114.642 9.3288C114.582 9.42314 114.5 9.48046 114.397 9.50074C114.301 9.52115 114.191 9.53032 114.067 9.52825L110.426 9.46765L110.395 11.3154L112.903 11.3571C113.028 11.3592 113.134 11.3756 113.221 11.4064C113.309 11.4299 113.378 11.4824 113.428 11.5639C113.478 11.6454 113.501 11.7815 113.498 11.9721C113.495 12.1554 113.467 12.2906 113.414 12.3778C113.361 12.4576 113.287 12.5077 113.192 12.5281C113.096 12.5412 112.986 12.5467 112.861 12.5446L110.376 12.5032L110.343 14.483L113.994 14.5437C114.119 14.5458 114.229 14.5623 114.323 14.5932C114.426 14.6169 114.505 14.6769 114.562 14.7732C114.62 14.8695 114.646 15.0203 114.643 15.2256C114.639 15.4309 114.604 15.5807 114.536 15.6749C114.476 15.7693 114.395 15.8266 114.292 15.8469C114.196 15.8746 114.085 15.8874 113.961 15.8854L109.649 15.8136ZM116.757 15.9209C116.566 15.9177 116.424 15.8824 116.329 15.8148C116.235 15.7545 116.174 15.6728 116.146 15.5697C116.119 15.4666 116.106 15.3563 116.108 15.239L116.214 8.88189C116.216 8.76457 116.228 8.65844 116.252 8.56348C116.283 8.46132 116.347 8.3817 116.443 8.32463C116.539 8.26023 116.69 8.22973 116.896 8.23315L118.963 8.27857C119.498 8.28748 119.988 8.38731 120.432 8.57806C120.884 8.76894 121.272 9.03576 121.596 9.37854C121.921 9.72132 122.167 10.1288 122.335 10.601C122.511 11.066 122.594 11.5771 122.585 12.1344C122.575 12.7063 122.475 13.229 122.283 13.7026C122.092 14.1761 121.829 14.5825 121.493 14.9216C121.157 15.2607 120.761 15.5218 120.303 15.7049C119.852 15.8808 119.352 15.9641 118.802 15.955L116.757 15.9209ZM117.45 14.6013L118.858 14.6247C119.327 14.6325 119.739 14.5367 120.095 14.3372C120.45 14.1305 120.726 13.8417 120.923 13.4709C121.127 13.1003 121.233 12.6656 121.242 12.167C121.25 11.6611 121.159 11.2195 120.967 10.8423C120.783 10.4578 120.512 10.1599 120.157 9.94866C119.808 9.73016 119.399 9.61701 118.93 9.6092L117.533 9.58595L117.45 14.6013ZM124.661 16.0635C124.456 16.0601 124.306 16.0246 124.212 15.957C124.117 15.8967 124.06 15.8151 124.04 15.7121C124.019 15.6091 124.01 15.4952 124.012 15.3706L124.118 9.02446C124.12 8.90715 124.133 8.79734 124.157 8.69506C124.188 8.59289 124.248 8.51321 124.337 8.45602C124.433 8.39895 124.587 8.37218 124.8 8.37572C125.005 8.37914 125.151 8.41091 125.238 8.47103C125.333 8.53128 125.39 8.61291 125.41 8.71593C125.438 8.81907 125.451 8.93296 125.449 9.05761L125.343 15.4037C125.341 15.5284 125.324 15.6418 125.293 15.744C125.27 15.8389 125.21 15.9149 125.114 15.972C125.017 16.0364 124.866 16.0669 124.661 16.0635ZM127.666 16.1223C127.461 16.1176 127.312 16.0811 127.218 16.0129C127.124 15.9521 127.067 15.87 127.048 15.7669C127.028 15.6638 127.02 15.5499 127.022 15.4252L127.17 9.07993C127.175 8.83067 127.227 8.65949 127.325 8.56639C127.429 8.47346 127.614 8.43006 127.878 8.43618L132.167 8.53567C132.291 8.53856 132.401 8.55577 132.495 8.58731C132.598 8.61168 132.677 8.6722 132.733 8.76887C132.79 8.85821 132.816 9.00918 132.811 9.22179C132.806 9.42707 132.77 9.5766 132.701 9.67037C132.641 9.76432 132.559 9.8211 132.455 9.84071C132.36 9.8605 132.249 9.86894 132.125 9.86605L128.485 9.78162L128.442 11.6291L130.949 11.6873C131.074 11.6902 131.18 11.7073 131.267 11.7387C131.355 11.7627 131.423 11.8156 131.472 11.8975C131.522 11.9793 131.544 12.1155 131.54 12.3061C131.536 12.4894 131.507 12.6245 131.454 12.7113C131.4 12.7907 131.326 12.8403 131.23 12.8601C131.134 12.8726 131.024 12.8773 130.9 12.8745L128.414 12.8168L128.368 14.7963L132.019 14.881C132.144 14.8838 132.254 14.9011 132.348 14.9326C132.45 14.957 132.53 15.0175 132.586 15.1142C132.643 15.2108 132.668 15.3618 132.664 15.5671C132.659 15.7724 132.622 15.9219 132.554 16.0157C132.493 16.1096 132.411 16.1664 132.308 16.186C132.212 16.2131 132.102 16.2252 131.977 16.2223L127.666 16.1223ZM134.753 16.2785C134.555 16.2734 134.409 16.2367 134.316 16.1683C134.229 16.1074 134.173 16.0253 134.146 15.9219C134.126 15.8187 134.118 15.7085 134.121 15.5912L134.283 9.21324C134.286 9.10328 134.303 9.00102 134.335 8.90646C134.367 8.8119 134.431 8.73651 134.528 8.68029C134.632 8.62425 134.783 8.59875 134.981 8.60378C135.201 8.60937 135.351 8.63885 135.43 8.69222C135.517 8.73844 135.596 8.80647 135.667 8.8963L139.209 14.125L139.331 9.34157C139.334 9.2316 139.351 9.12934 139.383 9.03478C139.414 8.94023 139.479 8.86484 139.575 8.80861C139.672 8.75239 139.82 8.72679 140.017 8.73182C140.223 8.73704 140.368 8.77376 140.455 8.84197C140.549 8.90304 140.605 8.98518 140.625 9.08837C140.651 9.19175 140.663 9.30575 140.66 9.43038L140.499 15.7643C140.496 15.8816 140.475 15.9911 140.435 16.0928C140.404 16.1874 140.336 16.2627 140.232 16.3187C140.135 16.3823 139.984 16.4114 139.778 16.4062C139.617 16.4021 139.489 16.3842 139.395 16.3525C139.307 16.3209 139.228 16.2565 139.157 16.1594L135.56 10.9402L135.44 15.6357C135.438 15.753 135.42 15.8626 135.388 15.9645C135.364 16.0592 135.303 16.1347 135.206 16.191C135.109 16.2545 134.958 16.2837 134.753 16.2785ZM148.115 8.92668C148.225 8.92947 148.32 8.94289 148.4 8.96694C148.487 8.99117 148.555 9.04792 148.604 9.1372C148.654 9.21914 148.676 9.35175 148.671 9.53503C148.667 9.7183 148.637 9.85327 148.584 9.93994C148.531 10.0193 148.46 10.0688 148.371 10.0886C148.283 10.101 148.184 10.1058 148.074 10.103L146.05 10.0516L145.901 15.9127C145.898 16.0373 145.881 16.1506 145.849 16.2525C145.824 16.3472 145.764 16.4227 145.667 16.4789C145.577 16.5353 145.426 16.5608 145.214 16.5554C145.016 16.5504 144.87 16.5137 144.776 16.4453C144.683 16.3842 144.626 16.3057 144.606 16.2099C144.587 16.1067 144.579 15.9928 144.582 15.8681L144.731 10.018L142.685 9.96603C142.583 9.96342 142.488 9.95 142.4 9.92577C142.313 9.90154 142.241 9.84836 142.184 9.76623C142.135 9.68428 142.113 9.55167 142.117 9.3684C142.122 9.18513 142.151 9.05382 142.204 8.97448C142.258 8.88782 142.329 8.83461 142.418 8.81485C142.513 8.79528 142.613 8.7868 142.715 8.78941L148.115 8.92668ZM152.003 16.8433C151.673 16.8331 151.374 16.7835 151.105 16.6945C150.844 16.6058 150.613 16.4959 150.411 16.3649C150.217 16.2342 150.053 16.1007 149.917 15.9645C149.782 15.8282 149.683 15.7041 149.621 15.5921C149.53 15.4573 149.471 15.3381 149.445 15.2345C149.419 15.131 149.429 15.0323 149.476 14.9384C149.53 14.8373 149.625 14.7339 149.761 14.628C149.896 14.5148 150.019 14.4599 150.129 14.4633C150.246 14.4596 150.355 14.496 150.456 14.5724C150.563 14.6491 150.666 14.755 150.765 14.8902C150.934 15.1301 151.126 15.3049 151.343 15.4143C151.56 15.5163 151.778 15.5708 151.998 15.5776C152.284 15.5864 152.535 15.5575 152.749 15.4907C152.964 15.4167 153.133 15.3045 153.255 15.1542C153.384 15.0041 153.453 14.8082 153.46 14.5663C153.466 14.3684 153.409 14.2052 153.288 14.0767C153.175 13.9412 153.021 13.8263 152.826 13.7323C152.631 13.6309 152.41 13.5397 152.163 13.4587C151.923 13.3706 151.681 13.275 151.434 13.172C151.26 13.1079 151.086 13.0329 150.913 12.9468C150.74 12.8534 150.578 12.7494 150.427 12.6347C150.284 12.5202 150.156 12.3878 150.044 12.2376C149.938 12.0803 149.856 11.9016 149.796 11.7017C149.736 11.5018 149.71 11.2698 149.718 11.006C149.731 10.5882 149.845 10.2249 150.06 9.91601C150.275 9.59984 150.569 9.3558 150.941 9.18388C151.314 9.00463 151.734 8.92226 152.204 8.93676C152.504 8.94604 152.771 8.98363 153.003 9.04952C153.244 9.10831 153.447 9.18428 153.613 9.27745C153.786 9.36352 153.926 9.45223 154.034 9.54358C154.148 9.62784 154.231 9.70007 154.28 9.7603C154.443 9.9341 154.531 10.0799 154.542 10.1976C154.56 10.3082 154.49 10.4564 154.33 10.6423C154.17 10.8354 154.016 10.9407 153.869 10.9582C153.729 10.9685 153.573 10.905 153.402 10.7676C153.288 10.6394 153.174 10.5368 153.059 10.4599C152.944 10.3757 152.814 10.3129 152.669 10.2718C152.53 10.2308 152.359 10.2072 152.153 10.2008C152.007 10.1963 151.863 10.2139 151.723 10.2535C151.59 10.2861 151.474 10.3412 151.376 10.4189C151.279 10.4893 151.199 10.5785 151.137 10.6866C151.082 10.795 151.053 10.9188 151.048 11.0581C151.043 11.2487 151.089 11.4078 151.188 11.5356C151.294 11.6563 151.438 11.7598 151.618 11.8461C151.799 11.925 152.002 12.001 152.228 12.074C152.453 12.147 152.682 12.2238 152.914 12.3043C153.153 12.3924 153.389 12.4951 153.62 12.6123C153.851 12.7295 154.055 12.8752 154.233 13.0494C154.412 13.2163 154.552 13.4261 154.654 13.6787C154.757 13.924 154.803 14.2226 154.792 14.5744C154.779 14.9775 154.691 15.327 154.528 15.6228C154.365 15.9185 154.148 16.1576 153.879 16.34C153.609 16.5225 153.311 16.6527 152.986 16.7307C152.661 16.816 152.333 16.8535 152.003 16.8433ZM160.057 14.6544C159.852 14.6478 159.702 14.6173 159.609 14.563C159.515 14.5013 159.459 14.4261 159.44 14.3374C159.421 14.2414 159.413 14.1385 159.417 14.0285L159.55 9.88366C159.553 9.77372 159.568 9.67145 159.593 9.57688C159.618 9.4823 159.679 9.41088 159.776 9.36263C159.873 9.30705 160.024 9.28256 160.229 9.28914C160.434 9.29573 160.58 9.32975 160.666 9.39121C160.76 9.44557 160.816 9.52075 160.835 9.61674C160.861 9.71297 160.873 9.81605 160.869 9.92599L160.737 14.0599C160.733 14.1771 160.715 14.2829 160.682 14.3773C160.657 14.4645 160.597 14.536 160.499 14.5915C160.41 14.64 160.262 14.661 160.057 14.6544ZM159.982 16.9962C159.689 16.9868 159.493 16.9254 159.394 16.8122C159.302 16.6992 159.26 16.5071 159.269 16.2359C159.273 16.104 159.292 15.9835 159.325 15.8745C159.358 15.7582 159.427 15.6687 159.531 15.606C159.636 15.5433 159.802 15.5156 160.029 15.5229C160.322 15.5323 160.515 15.5935 160.607 15.7065C160.698 15.8195 160.74 16.0116 160.731 16.2828C160.727 16.4148 160.708 16.5389 160.675 16.6552C160.65 16.7645 160.585 16.8504 160.48 16.9131C160.375 16.9758 160.209 17.0035 159.982 16.9962Z" fill="black"/>
<path d="M48.8329 29.912C48.4329 29.912 48.0649 29.8427 47.7289 29.704C47.3929 29.56 47.1022 29.3573 46.8569 29.096C46.6116 28.8347 46.4222 28.528 46.2889 28.176C46.1556 27.8187 46.0889 27.424 46.0889 26.992C46.0889 26.5867 46.1582 26.216 46.2969 25.88C46.4356 25.544 46.6302 25.2533 46.8809 25.008C47.1316 24.7573 47.4276 24.5627 47.7689 24.424C48.1156 24.2853 48.4942 24.216 48.9049 24.216C49.0756 24.216 49.2516 24.232 49.4329 24.264C49.6142 24.2907 49.7902 24.336 49.9609 24.4C50.1316 24.4587 50.2809 24.5333 50.4089 24.624C50.5102 24.688 50.5956 24.7547 50.6649 24.824C50.7396 24.888 50.7796 24.9627 50.7849 25.048C50.7902 25.096 50.7822 25.1493 50.7609 25.208C50.7396 25.2613 50.7076 25.3173 50.6649 25.376C50.6062 25.4667 50.5422 25.5333 50.4729 25.576C50.4089 25.6187 50.3449 25.64 50.2809 25.64C50.2436 25.64 50.1982 25.6267 50.1449 25.6C50.0916 25.568 50.0196 25.5253 49.9289 25.472C49.8596 25.424 49.7689 25.3787 49.6569 25.336C49.5449 25.2933 49.4222 25.2587 49.2889 25.232C49.1556 25.2053 49.0169 25.192 48.8729 25.192C48.5156 25.192 48.2009 25.2667 47.9289 25.416C47.6569 25.5653 47.4436 25.7787 47.2889 26.056C47.1396 26.328 47.0649 26.648 47.0649 27.016C47.0649 27.3947 47.1422 27.728 47.2969 28.016C47.4516 28.304 47.6622 28.5307 47.9289 28.696C48.2009 28.856 48.5129 28.936 48.8649 28.936C48.9876 28.936 49.1102 28.928 49.2329 28.912C49.3609 28.896 49.4836 28.872 49.6009 28.84C49.7236 28.808 49.8356 28.768 49.9369 28.72V27.456H48.8009C48.7262 27.456 48.6569 27.448 48.5929 27.432C48.5342 27.416 48.4862 27.3787 48.4489 27.32C48.4169 27.2613 48.4009 27.1653 48.4009 27.032C48.4009 26.8933 48.4196 26.7947 48.4569 26.736C48.4942 26.6773 48.5422 26.64 48.6009 26.624C48.6649 26.608 48.7342 26.6 48.8089 26.6H50.4409C50.5796 26.6 50.6809 26.624 50.7449 26.672C50.8089 26.72 50.8516 26.7813 50.8729 26.856C50.8942 26.9253 50.9049 27.0053 50.9049 27.096V28.96C50.9049 29.0667 50.8516 29.176 50.7449 29.288C50.6436 29.4 50.4996 29.504 50.3129 29.6C50.1902 29.664 50.0489 29.72 49.8889 29.768C49.7342 29.8107 49.5662 29.8453 49.3849 29.872C49.2089 29.8987 49.0249 29.912 48.8329 29.912ZM53.5042 29.88C53.3069 29.88 53.1309 29.8667 52.9762 29.84C52.8269 29.8133 52.6962 29.768 52.5842 29.704C52.4776 29.64 52.3896 29.5547 52.3202 29.448C52.2509 29.336 52.1976 29.2 52.1602 29.04C52.1282 28.88 52.1122 28.688 52.1122 28.464V24.608C52.1122 24.5173 52.1202 24.4373 52.1362 24.368C52.1576 24.2933 52.2002 24.2347 52.2642 24.192C52.3336 24.144 52.4429 24.12 52.5922 24.12C52.7416 24.12 52.8482 24.1413 52.9122 24.184C52.9816 24.2267 53.0242 24.2853 53.0402 24.36C53.0616 24.4293 53.0722 24.5093 53.0722 24.6V28.424C53.0722 28.5253 53.0776 28.6107 53.0882 28.68C53.1042 28.744 53.1282 28.7973 53.1602 28.84C53.1976 28.8773 53.2429 28.904 53.2962 28.92C53.3549 28.936 53.4242 28.944 53.5042 28.944C53.5736 28.944 53.6349 28.952 53.6882 28.968C53.7469 28.984 53.7922 29.024 53.8242 29.088C53.8616 29.152 53.8802 29.256 53.8802 29.4C53.8802 29.5493 53.8616 29.6587 53.8242 29.728C53.7922 29.7973 53.7469 29.84 53.6882 29.856C53.6296 29.872 53.5682 29.88 53.5042 29.88ZM55.2884 29.88C55.1444 29.88 55.0377 29.856 54.9684 29.808C54.899 29.7653 54.8564 29.7093 54.8404 29.64C54.8244 29.5653 54.8164 29.4827 54.8164 29.392V26.416C54.8164 26.3307 54.8244 26.2533 54.8404 26.184C54.8617 26.1093 54.9044 26.0507 54.9684 26.008C55.0377 25.9653 55.147 25.944 55.2964 25.944C55.4457 25.944 55.5524 25.9653 55.6164 26.008C55.6857 26.0507 55.7284 26.1093 55.7444 26.184C55.7604 26.2587 55.7684 26.3413 55.7684 26.432V29.4C55.7684 29.4907 55.7604 29.5733 55.7444 29.648C55.7284 29.7173 55.6857 29.7733 55.6164 29.816C55.5524 29.8587 55.443 29.88 55.2884 29.88ZM55.2884 25.168C55.1337 25.168 55.019 25.1467 54.9444 25.104C54.875 25.056 54.8297 24.992 54.8084 24.912C54.7924 24.832 54.7844 24.744 54.7844 24.648C54.7844 24.5467 54.7924 24.4587 54.8084 24.384C54.8297 24.3093 54.8777 24.2507 54.9524 24.208C55.027 24.16 55.1417 24.136 55.2964 24.136C55.4564 24.136 55.571 24.16 55.6404 24.208C55.7097 24.256 55.755 24.32 55.7764 24.4C55.7977 24.4747 55.8084 24.5627 55.8084 24.664C55.8084 24.7547 55.7977 24.84 55.7764 24.92C55.755 25 55.7097 25.0613 55.6404 25.104C55.571 25.1467 55.4537 25.168 55.2884 25.168ZM58.3315 29.928C58.1929 29.928 58.0462 29.912 57.8915 29.88C57.7369 29.8533 57.5875 29.8133 57.4435 29.76C57.2995 29.7013 57.1742 29.6347 57.0675 29.56C56.9662 29.48 56.9022 29.392 56.8755 29.296C56.8542 29.2427 56.8462 29.192 56.8515 29.144C56.8569 29.0907 56.8729 29.0373 56.8995 28.984C56.9262 28.9253 56.9662 28.8667 57.0195 28.808C57.0675 28.7493 57.1155 28.7173 57.1635 28.712C57.2169 28.7013 57.2835 28.7173 57.3635 28.76C57.4329 28.7867 57.5075 28.8213 57.5875 28.864C57.6729 28.9067 57.7582 28.9493 57.8435 28.992C57.9342 29.0347 58.0249 29.0693 58.1155 29.096C58.2115 29.1227 58.3049 29.136 58.3955 29.136C58.5929 29.136 58.7502 29.104 58.8675 29.04C58.9849 28.9707 59.0435 28.8747 59.0435 28.752C59.0435 28.6827 59.0249 28.6213 58.9875 28.568C58.9502 28.5147 58.8995 28.472 58.8355 28.44C58.7769 28.4027 58.7049 28.3707 58.6195 28.344C58.5395 28.312 58.4515 28.2853 58.3555 28.264C58.2649 28.2373 58.1689 28.208 58.0675 28.176C57.9342 28.1387 57.8009 28.0933 57.6675 28.04C57.5342 27.9867 57.4142 27.9173 57.3075 27.832C57.2062 27.7467 57.1235 27.64 57.0595 27.512C56.9955 27.384 56.9635 27.224 56.9635 27.032C56.9635 26.792 57.0195 26.5893 57.1315 26.424C57.2489 26.2533 57.4169 26.1227 57.6355 26.032C57.8542 25.9413 58.1182 25.896 58.4275 25.896C58.5342 25.896 58.6355 25.904 58.7315 25.92C58.8329 25.936 58.9289 25.96 59.0195 25.992C59.1155 26.0187 59.2062 26.0533 59.2915 26.096C59.3822 26.1387 59.4675 26.1867 59.5475 26.24C59.6809 26.3147 59.7502 26.4027 59.7555 26.504C59.7609 26.6 59.7235 26.704 59.6435 26.816C59.5849 26.8907 59.5262 26.944 59.4675 26.976C59.4089 27.0027 59.3475 27.0027 59.2835 26.976C59.1982 26.9333 59.1049 26.888 59.0035 26.84C58.9075 26.7867 58.8062 26.7413 58.6995 26.704C58.5982 26.6667 58.4915 26.648 58.3795 26.648C58.2729 26.648 58.1769 26.664 58.0915 26.696C58.0062 26.728 57.9422 26.7733 57.8995 26.832C57.8569 26.8907 57.8355 26.96 57.8355 27.04C57.8355 27.1147 57.8569 27.176 57.8995 27.224C57.9422 27.272 57.9982 27.312 58.0675 27.344C58.1369 27.376 58.2195 27.4053 58.3155 27.432C58.4115 27.4533 58.5129 27.4747 58.6195 27.496C58.7689 27.528 58.9209 27.568 59.0755 27.616C59.2302 27.664 59.3715 27.7307 59.4995 27.816C59.6329 27.9013 59.7395 28.016 59.8195 28.16C59.8995 28.2987 59.9395 28.48 59.9395 28.704C59.9395 29.0933 59.7955 29.3947 59.5075 29.608C59.2249 29.8213 58.8329 29.928 58.3315 29.928ZM62.2453 29.928C62.1066 29.928 61.9599 29.912 61.8053 29.88C61.6506 29.8533 61.5013 29.8133 61.3573 29.76C61.2133 29.7013 61.0879 29.6347 60.9813 29.56C60.8799 29.48 60.8159 29.392 60.7893 29.296C60.7679 29.2427 60.7599 29.192 60.7653 29.144C60.7706 29.0907 60.7866 29.0373 60.8133 28.984C60.8399 28.9253 60.8799 28.8667 60.9333 28.808C60.9813 28.7493 61.0293 28.7173 61.0773 28.712C61.1306 28.7013 61.1973 28.7173 61.2773 28.76C61.3466 28.7867 61.4213 28.8213 61.5013 28.864C61.5866 28.9067 61.6719 28.9493 61.7573 28.992C61.8479 29.0347 61.9386 29.0693 62.0293 29.096C62.1253 29.1227 62.2186 29.136 62.3093 29.136C62.5066 29.136 62.6639 29.104 62.7813 29.04C62.8986 28.9707 62.9573 28.8747 62.9573 28.752C62.9573 28.6827 62.9386 28.6213 62.9013 28.568C62.8639 28.5147 62.8133 28.472 62.7493 28.44C62.6906 28.4027 62.6186 28.3707 62.5333 28.344C62.4533 28.312 62.3653 28.2853 62.2693 28.264C62.1786 28.2373 62.0826 28.208 61.9813 28.176C61.8479 28.1387 61.7146 28.0933 61.5813 28.04C61.4479 27.9867 61.3279 27.9173 61.2213 27.832C61.1199 27.7467 61.0373 27.64 60.9733 27.512C60.9093 27.384 60.8773 27.224 60.8773 27.032C60.8773 26.792 60.9333 26.5893 61.0453 26.424C61.1626 26.2533 61.3306 26.1227 61.5493 26.032C61.7679 25.9413 62.0319 25.896 62.3413 25.896C62.4479 25.896 62.5493 25.904 62.6453 25.92C62.7466 25.936 62.8426 25.96 62.9333 25.992C63.0293 26.0187 63.1199 26.0533 63.2053 26.096C63.2959 26.1387 63.3813 26.1867 63.4613 26.24C63.5946 26.3147 63.6639 26.4027 63.6693 26.504C63.6746 26.6 63.6373 26.704 63.5573 26.816C63.4986 26.8907 63.4399 26.944 63.3813 26.976C63.3226 27.0027 63.2613 27.0027 63.1973 26.976C63.1119 26.9333 63.0186 26.888 62.9173 26.84C62.8213 26.7867 62.7199 26.7413 62.6133 26.704C62.5119 26.6667 62.4053 26.648 62.2933 26.648C62.1866 26.648 62.0906 26.664 62.0053 26.696C61.9199 26.728 61.8559 26.7733 61.8133 26.832C61.7706 26.8907 61.7493 26.96 61.7493 27.04C61.7493 27.1147 61.7706 27.176 61.8133 27.224C61.8559 27.272 61.9119 27.312 61.9813 27.344C62.0506 27.376 62.1333 27.4053 62.2293 27.432C62.3253 27.4533 62.4266 27.4747 62.5333 27.496C62.6826 27.528 62.8346 27.568 62.9893 27.616C63.1439 27.664 63.2853 27.7307 63.4133 27.816C63.5466 27.9013 63.6533 28.016 63.7333 28.16C63.8133 28.2987 63.8533 28.48 63.8533 28.704C63.8533 29.0933 63.7093 29.3947 63.4213 29.608C63.1386 29.8213 62.7466 29.928 62.2453 29.928ZM66.7732 29.928C66.4265 29.928 66.1225 29.872 65.8612 29.76C65.6052 29.648 65.3892 29.496 65.2132 29.304C65.0425 29.1067 64.9118 28.888 64.8212 28.648C64.7358 28.4027 64.6932 28.1493 64.6932 27.888C64.6932 27.504 64.7812 27.1627 64.9572 26.864C65.1332 26.5653 65.3758 26.3307 65.6852 26.16C65.9998 25.9893 66.3598 25.904 66.7652 25.904C67.0532 25.904 67.3065 25.9493 67.5252 26.04C67.7438 26.1307 67.9252 26.2507 68.0692 26.4C68.2185 26.544 68.3305 26.704 68.4052 26.88C68.4852 27.056 68.5252 27.2267 68.5252 27.392C68.5252 27.6747 68.4558 27.88 68.3172 28.008C68.1838 28.136 68.0158 28.2 67.8132 28.2H65.7012C65.7065 28.3813 65.7625 28.5387 65.8692 28.672C65.9812 28.8053 66.1198 28.9093 66.2852 28.984C66.4558 29.0533 66.6292 29.088 66.8052 29.088C66.9385 29.088 67.0558 29.08 67.1572 29.064C67.2638 29.048 67.3545 29.0293 67.4292 29.008C67.5038 28.9813 67.5678 28.9547 67.6212 28.928C67.6798 28.9013 67.7332 28.8773 67.7812 28.856C67.8292 28.8347 67.8745 28.8213 67.9172 28.816C67.9758 28.8107 68.0345 28.824 68.0932 28.856C68.1518 28.888 68.1998 28.944 68.2372 29.024C68.2692 29.0773 68.2905 29.128 68.3012 29.176C68.3172 29.2187 68.3252 29.2613 68.3252 29.304C68.3252 29.4107 68.2612 29.512 68.1332 29.608C68.0052 29.6987 67.8238 29.7733 67.5892 29.832C67.3598 29.896 67.0878 29.928 66.7732 29.928ZM65.7012 27.632H67.3412C67.4318 27.632 67.5012 27.6187 67.5492 27.592C67.5972 27.56 67.6212 27.496 67.6212 27.4C67.6212 27.2773 67.5838 27.168 67.5092 27.072C67.4345 26.9707 67.3332 26.8933 67.2052 26.84C67.0772 26.7813 66.9278 26.752 66.7572 26.752C66.5598 26.752 66.3812 26.792 66.2212 26.872C66.0612 26.9467 65.9332 27.0507 65.8372 27.184C65.7465 27.3173 65.7012 27.4667 65.7012 27.632ZM69.5897 28.2C69.5203 28.2 69.451 28.192 69.3817 28.176C69.3177 28.16 69.2643 28.12 69.2217 28.056C69.1843 27.992 69.1657 27.888 69.1657 27.744C69.1657 27.6053 69.1843 27.5067 69.2217 27.448C69.2643 27.384 69.3177 27.344 69.3817 27.328C69.451 27.3067 69.5177 27.296 69.5817 27.296H71.5737C71.643 27.296 71.7097 27.3067 71.7737 27.328C71.8377 27.344 71.8883 27.384 71.9257 27.448C71.9683 27.5067 71.9897 27.608 71.9897 27.752C71.9897 27.8907 71.9683 27.992 71.9257 28.056C71.8883 28.12 71.8377 28.16 71.7737 28.176C71.7097 28.192 71.6403 28.2 71.5657 28.2H69.5897ZM74.5414 29.88C74.3441 29.88 74.1681 29.8667 74.0134 29.84C73.8641 29.8133 73.7334 29.768 73.6214 29.704C73.5147 29.64 73.4267 29.5547 73.3574 29.448C73.2881 29.336 73.2347 29.2 73.1974 29.04C73.1654 28.88 73.1494 28.688 73.1494 28.464V24.608C73.1494 24.5173 73.1574 24.4373 73.1734 24.368C73.1947 24.2933 73.2374 24.2347 73.3014 24.192C73.3707 24.144 73.4801 24.12 73.6294 24.12C73.7787 24.12 73.8854 24.1413 73.9494 24.184C74.0187 24.2267 74.0614 24.2853 74.0774 24.36C74.0987 24.4293 74.1094 24.5093 74.1094 24.6V28.424C74.1094 28.5253 74.1147 28.6107 74.1254 28.68C74.1414 28.744 74.1654 28.7973 74.1974 28.84C74.2347 28.8773 74.2801 28.904 74.3334 28.92C74.3921 28.936 74.4614 28.944 74.5414 28.944C74.6107 28.944 74.6721 28.952 74.7254 28.968C74.7841 28.984 74.8294 29.024 74.8614 29.088C74.8987 29.152 74.9174 29.256 74.9174 29.4C74.9174 29.5493 74.8987 29.6587 74.8614 29.728C74.8294 29.7973 74.7841 29.84 74.7254 29.856C74.6667 29.872 74.6054 29.88 74.5414 29.88ZM77.7175 29.928C77.3709 29.928 77.0669 29.872 76.8055 29.76C76.5495 29.648 76.3335 29.496 76.1575 29.304C75.9869 29.1067 75.8562 28.888 75.7655 28.648C75.6802 28.4027 75.6375 28.1493 75.6375 27.888C75.6375 27.504 75.7255 27.1627 75.9015 26.864C76.0775 26.5653 76.3202 26.3307 76.6295 26.16C76.9442 25.9893 77.3042 25.904 77.7095 25.904C77.9975 25.904 78.2509 25.9493 78.4695 26.04C78.6882 26.1307 78.8695 26.2507 79.0135 26.4C79.1629 26.544 79.2749 26.704 79.3495 26.88C79.4295 27.056 79.4695 27.2267 79.4695 27.392C79.4695 27.6747 79.4002 27.88 79.2615 28.008C79.1282 28.136 78.9602 28.2 78.7575 28.2H76.6455C76.6509 28.3813 76.7069 28.5387 76.8135 28.672C76.9255 28.8053 77.0642 28.9093 77.2295 28.984C77.4002 29.0533 77.5735 29.088 77.7495 29.088C77.8829 29.088 78.0002 29.08 78.1015 29.064C78.2082 29.048 78.2989 29.0293 78.3735 29.008C78.4482 28.9813 78.5122 28.9547 78.5655 28.928C78.6242 28.9013 78.6775 28.8773 78.7255 28.856C78.7735 28.8347 78.8189 28.8213 78.8615 28.816C78.9202 28.8107 78.9789 28.824 79.0375 28.856C79.0962 28.888 79.1442 28.944 79.1815 29.024C79.2135 29.0773 79.2349 29.128 79.2455 29.176C79.2615 29.2187 79.2695 29.2613 79.2695 29.304C79.2695 29.4107 79.2055 29.512 79.0775 29.608C78.9495 29.6987 78.7682 29.7733 78.5335 29.832C78.3042 29.896 78.0322 29.928 77.7175 29.928ZM76.6455 27.632H78.2855C78.3762 27.632 78.4455 27.6187 78.4935 27.592C78.5415 27.56 78.5655 27.496 78.5655 27.4C78.5655 27.2773 78.5282 27.168 78.4535 27.072C78.3789 26.9707 78.2775 26.8933 78.1495 26.84C78.0215 26.7813 77.8722 26.752 77.7015 26.752C77.5042 26.752 77.3255 26.792 77.1655 26.872C77.0055 26.9467 76.8775 27.0507 76.7815 27.184C76.6909 27.3173 76.6455 27.4667 76.6455 27.632ZM81.814 29.928C81.6754 29.928 81.5287 29.912 81.374 29.88C81.2194 29.8533 81.07 29.8133 80.926 29.76C80.782 29.7013 80.6567 29.6347 80.55 29.56C80.4487 29.48 80.3847 29.392 80.358 29.296C80.3367 29.2427 80.3287 29.192 80.334 29.144C80.3394 29.0907 80.3554 29.0373 80.382 28.984C80.4087 28.9253 80.4487 28.8667 80.502 28.808C80.55 28.7493 80.598 28.7173 80.646 28.712C80.6994 28.7013 80.766 28.7173 80.846 28.76C80.9154 28.7867 80.99 28.8213 81.07 28.864C81.1554 28.9067 81.2407 28.9493 81.326 28.992C81.4167 29.0347 81.5074 29.0693 81.598 29.096C81.694 29.1227 81.7874 29.136 81.878 29.136C82.0754 29.136 82.2327 29.104 82.35 29.04C82.4674 28.9707 82.526 28.8747 82.526 28.752C82.526 28.6827 82.5074 28.6213 82.47 28.568C82.4327 28.5147 82.382 28.472 82.318 28.44C82.2594 28.4027 82.1874 28.3707 82.102 28.344C82.022 28.312 81.934 28.2853 81.838 28.264C81.7474 28.2373 81.6514 28.208 81.55 28.176C81.4167 28.1387 81.2834 28.0933 81.15 28.04C81.0167 27.9867 80.8967 27.9173 80.79 27.832C80.6887 27.7467 80.606 27.64 80.542 27.512C80.478 27.384 80.446 27.224 80.446 27.032C80.446 26.792 80.502 26.5893 80.614 26.424C80.7314 26.2533 80.8994 26.1227 81.118 26.032C81.3367 25.9413 81.6007 25.896 81.91 25.896C82.0167 25.896 82.118 25.904 82.214 25.92C82.3154 25.936 82.4114 25.96 82.502 25.992C82.598 26.0187 82.6887 26.0533 82.774 26.096C82.8647 26.1387 82.95 26.1867 83.03 26.24C83.1634 26.3147 83.2327 26.4027 83.238 26.504C83.2434 26.6 83.206 26.704 83.126 26.816C83.0674 26.8907 83.0087 26.944 82.95 26.976C82.8914 27.0027 82.83 27.0027 82.766 26.976C82.6807 26.9333 82.5874 26.888 82.486 26.84C82.39 26.7867 82.2887 26.7413 82.182 26.704C82.0807 26.6667 81.974 26.648 81.862 26.648C81.7554 26.648 81.6594 26.664 81.574 26.696C81.4887 26.728 81.4247 26.7733 81.382 26.832C81.3394 26.8907 81.318 26.96 81.318 27.04C81.318 27.1147 81.3394 27.176 81.382 27.224C81.4247 27.272 81.4807 27.312 81.55 27.344C81.6194 27.376 81.702 27.4053 81.798 27.432C81.894 27.4533 81.9954 27.4747 82.102 27.496C82.2514 27.528 82.4034 27.568 82.558 27.616C82.7127 27.664 82.854 27.7307 82.982 27.816C83.1154 27.9013 83.222 28.016 83.302 28.16C83.382 28.2987 83.422 28.48 83.422 28.704C83.422 29.0933 83.278 29.3947 82.99 29.608C82.7074 29.8213 82.3154 29.928 81.814 29.928ZM88.4383 29.872C88.193 29.872 87.961 29.8213 87.7423 29.72C87.5236 29.6187 87.3316 29.48 87.1663 29.304C87.001 29.1227 86.8703 28.912 86.7743 28.672C86.6783 28.4267 86.6303 28.1653 86.6303 27.888C86.6303 27.6213 86.6783 27.3707 86.7743 27.136C86.8703 26.896 87.001 26.688 87.1663 26.512C87.337 26.3307 87.5316 26.1893 87.7503 26.088C87.969 25.9867 88.1983 25.936 88.4383 25.936C88.6943 25.936 88.9236 25.9867 89.1263 26.088C89.329 26.1893 89.4996 26.3307 89.6383 26.512C89.7823 26.688 89.8916 26.896 89.9663 27.136C90.041 27.3707 90.081 27.624 90.0863 27.896C90.0863 28.168 90.049 28.424 89.9743 28.664C89.905 28.8987 89.7983 29.1067 89.6543 29.288C89.5156 29.4693 89.3423 29.6133 89.1343 29.72C88.9316 29.8213 88.6996 29.872 88.4383 29.872ZM88.5663 28.936C88.753 28.936 88.9183 28.8933 89.0623 28.808C89.2116 28.7173 89.329 28.5947 89.4143 28.44C89.505 28.2853 89.5503 28.1093 89.5503 27.912C89.5503 27.7093 89.505 27.5307 89.4143 27.376C89.329 27.2213 89.2116 27.0987 89.0623 27.008C88.9183 26.9173 88.753 26.872 88.5663 26.872C88.3796 26.872 88.2116 26.9173 88.0623 27.008C87.913 27.0933 87.793 27.216 87.7023 27.376C87.617 27.5307 87.5743 27.7093 87.5743 27.912C87.5743 28.1093 87.617 28.2853 87.7023 28.44C87.793 28.5947 87.913 28.7173 88.0623 28.808C88.217 28.8933 88.385 28.936 88.5663 28.936ZM90.0463 29.872C89.897 29.872 89.7876 29.848 89.7183 29.8C89.649 29.7467 89.6036 29.664 89.5823 29.552V24.624C89.5823 24.5333 89.5876 24.4533 89.5983 24.384C89.6143 24.3093 89.6543 24.2507 89.7183 24.208C89.7876 24.16 89.8943 24.136 90.0383 24.136C90.193 24.136 90.3023 24.1573 90.3663 24.2C90.4303 24.2427 90.4703 24.3013 90.4863 24.376C90.5076 24.4453 90.5183 24.5253 90.5183 24.616V29.384C90.5183 29.4747 90.5103 29.5573 90.4943 29.632C90.4783 29.7067 90.4356 29.7653 90.3663 29.808C90.3023 29.8507 90.1956 29.872 90.0463 29.872ZM94.8657 29.864C94.7111 29.864 94.5964 29.8347 94.5217 29.776C94.4471 29.7173 94.4097 29.6373 94.4097 29.536L94.4657 29.272C94.4231 29.3413 94.3511 29.424 94.2497 29.52C94.1484 29.6107 94.0151 29.6933 93.8497 29.768C93.6844 29.8373 93.4844 29.872 93.2497 29.872C92.9991 29.872 92.7617 29.8213 92.5377 29.72C92.3191 29.6133 92.1244 29.4693 91.9537 29.288C91.7884 29.1013 91.6551 28.8907 91.5537 28.656C91.4577 28.416 91.4097 28.16 91.4097 27.888C91.4097 27.6267 91.4577 27.3813 91.5537 27.152C91.6551 26.9173 91.7911 26.7093 91.9617 26.528C92.1324 26.3467 92.3271 26.2053 92.5457 26.104C92.7697 25.9973 93.0044 25.944 93.2497 25.944C93.4684 25.944 93.6524 25.9733 93.8017 26.032C93.9564 26.0907 94.0871 26.1653 94.1937 26.256C94.3004 26.3413 94.3884 26.432 94.4577 26.528L94.4097 26.296C94.4097 26.1787 94.4471 26.0907 94.5217 26.032C94.5964 25.968 94.7137 25.936 94.8737 25.936C95.0231 25.936 95.1297 25.96 95.1937 26.008C95.2577 26.0507 95.2977 26.112 95.3137 26.192C95.3297 26.2667 95.3377 26.352 95.3377 26.448V29.376C95.3377 29.4667 95.3297 29.5493 95.3137 29.624C95.2977 29.6987 95.2551 29.7573 95.1857 29.8C95.1217 29.8427 95.0151 29.864 94.8657 29.864ZM93.3937 28.936C93.5751 28.936 93.7377 28.8907 93.8817 28.8C94.0257 28.7093 94.1404 28.5867 94.2257 28.432C94.3164 28.272 94.3617 28.096 94.3617 27.904C94.3617 27.696 94.3164 27.5147 94.2257 27.36C94.1351 27.2053 94.0151 27.0853 93.8657 27C93.7217 26.9093 93.5591 26.864 93.3777 26.864C93.1804 26.864 93.0044 26.912 92.8497 27.008C92.6951 27.0987 92.5724 27.224 92.4817 27.384C92.3964 27.5387 92.3537 27.7147 92.3537 27.912C92.3537 28.104 92.3991 28.2773 92.4897 28.432C92.5804 28.5867 92.7031 28.7093 92.8577 28.8C93.0177 28.8907 93.1964 28.936 93.3937 28.936ZM96.9324 29.872C96.7884 29.872 96.6817 29.848 96.6124 29.8C96.5484 29.7573 96.5084 29.7013 96.4924 29.632C96.4764 29.5573 96.4684 29.4747 96.4684 29.384V26.392C96.4684 26.3067 96.4764 26.2293 96.4924 26.16C96.5084 26.0907 96.5511 26.0373 96.6204 26C96.6897 25.9573 96.7964 25.936 96.9404 25.936C97.0684 25.936 97.1644 25.952 97.2284 25.984C97.2924 26.016 97.3351 26.056 97.3564 26.104C97.3777 26.152 97.3884 26.2 97.3884 26.248C97.3937 26.296 97.3991 26.3333 97.4044 26.36L97.3724 26.616C97.4044 26.5307 97.4577 26.448 97.5324 26.368C97.6071 26.288 97.6977 26.216 97.8044 26.152C97.9111 26.0827 98.0257 26.0293 98.1484 25.992C98.2764 25.9493 98.4071 25.928 98.5404 25.928C98.7911 25.928 99.0151 25.9733 99.2124 26.064C99.4097 26.1547 99.5777 26.2827 99.7164 26.448C99.8604 26.6133 99.9697 26.8107 100.044 27.04C100.119 27.264 100.156 27.5173 100.156 27.8V29.392C100.156 29.4827 100.146 29.5653 100.124 29.64C100.108 29.7093 100.068 29.7653 100.004 29.808C99.9404 29.8507 99.8311 29.872 99.6764 29.872C99.5271 29.872 99.4177 29.848 99.3484 29.8C99.2791 29.7573 99.2364 29.7013 99.2204 29.632C99.2044 29.5573 99.1964 29.4747 99.1964 29.384V27.792C99.1964 27.6 99.1617 27.4347 99.0924 27.296C99.0284 27.1573 98.9324 27.0507 98.8044 26.976C98.6817 26.9013 98.5244 26.864 98.3324 26.864C98.1457 26.864 97.9831 26.904 97.8444 26.984C97.7057 27.0587 97.5991 27.1653 97.5244 27.304C97.4497 27.4427 97.4124 27.6053 97.4124 27.792V29.392C97.4124 29.4827 97.4044 29.5653 97.3884 29.64C97.3724 29.7093 97.3297 29.7653 97.2604 29.808C97.1964 29.8507 97.0871 29.872 96.9324 29.872ZM102.625 29.928C102.486 29.928 102.34 29.912 102.185 29.88C102.03 29.8533 101.881 29.8133 101.737 29.76C101.593 29.7013 101.468 29.6347 101.361 29.56C101.26 29.48 101.196 29.392 101.169 29.296C101.148 29.2427 101.14 29.192 101.145 29.144C101.15 29.0907 101.166 29.0373 101.193 28.984C101.22 28.9253 101.26 28.8667 101.313 28.808C101.361 28.7493 101.409 28.7173 101.457 28.712C101.51 28.7013 101.577 28.7173 101.657 28.76C101.726 28.7867 101.801 28.8213 101.881 28.864C101.966 28.9067 102.052 28.9493 102.137 28.992C102.228 29.0347 102.318 29.0693 102.409 29.096C102.505 29.1227 102.598 29.136 102.689 29.136C102.886 29.136 103.044 29.104 103.161 29.04C103.278 28.9707 103.337 28.8747 103.337 28.752C103.337 28.6827 103.318 28.6213 103.281 28.568C103.244 28.5147 103.193 28.472 103.129 28.44C103.07 28.4027 102.998 28.3707 102.913 28.344C102.833 28.312 102.745 28.2853 102.649 28.264C102.558 28.2373 102.462 28.208 102.361 28.176C102.228 28.1387 102.094 28.0933 101.961 28.04C101.828 27.9867 101.708 27.9173 101.601 27.832C101.5 27.7467 101.417 27.64 101.353 27.512C101.289 27.384 101.257 27.224 101.257 27.032C101.257 26.792 101.313 26.5893 101.425 26.424C101.542 26.2533 101.71 26.1227 101.929 26.032C102.148 25.9413 102.412 25.896 102.721 25.896C102.828 25.896 102.929 25.904 103.025 25.92C103.126 25.936 103.222 25.96 103.313 25.992C103.409 26.0187 103.5 26.0533 103.585 26.096C103.676 26.1387 103.761 26.1867 103.841 26.24C103.974 26.3147 104.044 26.4027 104.049 26.504C104.054 26.6 104.017 26.704 103.937 26.816C103.878 26.8907 103.82 26.944 103.761 26.976C103.702 27.0027 103.641 27.0027 103.577 26.976C103.492 26.9333 103.398 26.888 103.297 26.84C103.201 26.7867 103.1 26.7413 102.993 26.704C102.892 26.6667 102.785 26.648 102.673 26.648C102.566 26.648 102.47 26.664 102.385 26.696C102.3 26.728 102.236 26.7733 102.193 26.832C102.15 26.8907 102.129 26.96 102.129 27.04C102.129 27.1147 102.15 27.176 102.193 27.224C102.236 27.272 102.292 27.312 102.361 27.344C102.43 27.376 102.513 27.4053 102.609 27.432C102.705 27.4533 102.806 27.4747 102.913 27.496C103.062 27.528 103.214 27.568 103.369 27.616C103.524 27.664 103.665 27.7307 103.793 27.816C103.926 27.9013 104.033 28.016 104.113 28.16C104.193 28.2987 104.233 28.48 104.233 28.704C104.233 29.0933 104.089 29.3947 103.801 29.608C103.518 29.8213 103.126 29.928 102.625 29.928ZM108.929 29.88C108.732 29.88 108.556 29.8667 108.401 29.84C108.252 29.8133 108.121 29.768 108.009 29.704C107.903 29.64 107.815 29.5547 107.745 29.448C107.676 29.336 107.623 29.2 107.585 29.04C107.553 28.88 107.537 28.688 107.537 28.464V24.608C107.537 24.5173 107.545 24.4373 107.561 24.368C107.583 24.2933 107.625 24.2347 107.689 24.192C107.759 24.144 107.868 24.12 108.017 24.12C108.167 24.12 108.273 24.1413 108.337 24.184C108.407 24.2267 108.449 24.2853 108.465 24.36C108.487 24.4293 108.497 24.5093 108.497 24.6V28.424C108.497 28.5253 108.503 28.6107 108.513 28.68C108.529 28.744 108.553 28.7973 108.585 28.84C108.623 28.8773 108.668 28.904 108.721 28.92C108.78 28.936 108.849 28.944 108.929 28.944C108.999 28.944 109.06 28.952 109.113 28.968C109.172 28.984 109.217 29.024 109.249 29.088C109.287 29.152 109.305 29.256 109.305 29.4C109.305 29.5493 109.287 29.6587 109.249 29.728C109.217 29.7973 109.172 29.84 109.113 29.856C109.055 29.872 108.993 29.88 108.929 29.88ZM112.105 29.928C111.759 29.928 111.455 29.872 111.193 29.76C110.937 29.648 110.721 29.496 110.545 29.304C110.375 29.1067 110.244 28.888 110.153 28.648C110.068 28.4027 110.025 28.1493 110.025 27.888C110.025 27.504 110.113 27.1627 110.289 26.864C110.465 26.5653 110.708 26.3307 111.017 26.16C111.332 25.9893 111.692 25.904 112.097 25.904C112.385 25.904 112.639 25.9493 112.857 26.04C113.076 26.1307 113.257 26.2507 113.401 26.4C113.551 26.544 113.663 26.704 113.737 26.88C113.817 27.056 113.857 27.2267 113.857 27.392C113.857 27.6747 113.788 27.88 113.649 28.008C113.516 28.136 113.348 28.2 113.145 28.2H111.033C111.039 28.3813 111.095 28.5387 111.201 28.672C111.313 28.8053 111.452 28.9093 111.617 28.984C111.788 29.0533 111.961 29.088 112.137 29.088C112.271 29.088 112.388 29.08 112.489 29.064C112.596 29.048 112.687 29.0293 112.761 29.008C112.836 28.9813 112.9 28.9547 112.953 28.928C113.012 28.9013 113.065 28.8773 113.113 28.856C113.161 28.8347 113.207 28.8213 113.249 28.816C113.308 28.8107 113.367 28.824 113.425 28.856C113.484 28.888 113.532 28.944 113.569 29.024C113.601 29.0773 113.623 29.128 113.633 29.176C113.649 29.2187 113.657 29.2613 113.657 29.304C113.657 29.4107 113.593 29.512 113.465 29.608C113.337 29.6987 113.156 29.7733 112.921 29.832C112.692 29.896 112.42 29.928 112.105 29.928ZM111.033 27.632H112.673C112.764 27.632 112.833 27.6187 112.881 27.592C112.929 27.56 112.953 27.496 112.953 27.4C112.953 27.2773 112.916 27.168 112.841 27.072C112.767 26.9707 112.665 26.8933 112.537 26.84C112.409 26.7813 112.26 26.752 112.089 26.752C111.892 26.752 111.713 26.792 111.553 26.872C111.393 26.9467 111.265 27.0507 111.169 27.184C111.079 27.3173 111.033 27.4667 111.033 27.632ZM119.194 29.872C118.933 29.872 118.698 29.8213 118.49 29.72C118.288 29.6133 118.114 29.4693 117.97 29.288C117.832 29.1067 117.725 28.8987 117.65 28.664C117.581 28.424 117.546 28.168 117.546 27.896C117.552 27.624 117.592 27.3707 117.666 27.136C117.741 26.896 117.848 26.688 117.986 26.512C118.13 26.3307 118.304 26.1893 118.506 26.088C118.709 25.9867 118.938 25.936 119.194 25.936C119.44 25.936 119.669 25.9867 119.882 26.088C120.101 26.1893 120.293 26.3307 120.458 26.512C120.629 26.688 120.762 26.896 120.858 27.136C120.954 27.3707 121.002 27.6213 121.002 27.888C121.002 28.1653 120.954 28.4267 120.858 28.672C120.762 28.912 120.632 29.1227 120.466 29.304C120.301 29.48 120.109 29.6187 119.89 29.72C119.672 29.8213 119.44 29.872 119.194 29.872ZM119.066 28.936C119.253 28.936 119.421 28.8933 119.57 28.808C119.72 28.7173 119.837 28.5947 119.922 28.44C120.013 28.2853 120.058 28.1093 120.058 27.912C120.058 27.7093 120.013 27.5307 119.922 27.376C119.837 27.216 119.72 27.0933 119.57 27.008C119.421 26.9173 119.253 26.872 119.066 26.872C118.885 26.872 118.72 26.9173 118.57 27.008C118.421 27.0987 118.301 27.2213 118.21 27.376C118.125 27.5307 118.082 27.7093 118.082 27.912C118.082 28.1093 118.125 28.2853 118.21 28.44C118.301 28.5947 118.421 28.7173 118.57 28.808C118.72 28.8933 118.885 28.936 119.066 28.936ZM117.586 29.88C117.442 29.88 117.336 29.856 117.266 29.808C117.197 29.7653 117.154 29.7093 117.138 29.64C117.122 29.5653 117.114 29.4827 117.114 29.392V24.624C117.114 24.5333 117.122 24.4533 117.138 24.384C117.154 24.3093 117.197 24.2507 117.266 24.208C117.336 24.1653 117.442 24.144 117.586 24.144C117.736 24.144 117.842 24.1653 117.906 24.208C117.97 24.2507 118.01 24.3093 118.026 24.384C118.042 24.4587 118.05 24.5387 118.05 24.624V29.552C118.029 29.6693 117.984 29.752 117.914 29.8C117.85 29.8533 117.741 29.88 117.586 29.88ZM123.845 29.928C123.589 29.928 123.338 29.88 123.093 29.784C122.853 29.6827 122.634 29.5413 122.437 29.36C122.245 29.1787 122.09 28.9653 121.973 28.72C121.861 28.4747 121.805 28.2053 121.805 27.912C121.805 27.6293 121.858 27.3653 121.965 27.12C122.072 26.8747 122.218 26.6587 122.405 26.472C122.592 26.2853 122.805 26.1413 123.045 26.04C123.29 25.9333 123.552 25.88 123.829 25.88C124.202 25.88 124.541 25.9707 124.845 26.152C125.149 26.328 125.392 26.568 125.573 26.872C125.754 27.176 125.845 27.52 125.845 27.904C125.845 28.208 125.789 28.4853 125.677 28.736C125.565 28.9813 125.413 29.1947 125.221 29.376C125.029 29.552 124.813 29.688 124.573 29.784C124.338 29.88 124.096 29.928 123.845 29.928ZM123.829 28.984C124.005 28.984 124.173 28.9413 124.333 28.856C124.498 28.7653 124.632 28.6373 124.733 28.472C124.84 28.3067 124.893 28.112 124.893 27.888C124.893 27.68 124.845 27.496 124.749 27.336C124.658 27.176 124.533 27.0507 124.373 26.96C124.213 26.8693 124.029 26.824 123.821 26.824C123.624 26.824 123.445 26.872 123.285 26.968C123.125 27.0587 122.997 27.1867 122.901 27.352C122.81 27.512 122.765 27.6933 122.765 27.896C122.765 28.12 122.816 28.3147 122.917 28.48C123.018 28.64 123.149 28.7653 123.309 28.856C123.474 28.9413 123.648 28.984 123.829 28.984ZM128.17 29.88C127.973 29.88 127.797 29.8667 127.642 29.84C127.493 29.8133 127.362 29.768 127.25 29.704C127.143 29.64 127.055 29.5547 126.986 29.448C126.917 29.336 126.863 29.2 126.826 29.04C126.794 28.88 126.778 28.688 126.778 28.464V24.608C126.778 24.5173 126.786 24.4373 126.802 24.368C126.823 24.2933 126.866 24.2347 126.93 24.192C126.999 24.144 127.109 24.12 127.258 24.12C127.407 24.12 127.514 24.1413 127.578 24.184C127.647 24.2267 127.69 24.2853 127.706 24.36C127.727 24.4293 127.738 24.5093 127.738 24.6V28.424C127.738 28.5253 127.743 28.6107 127.754 28.68C127.77 28.744 127.794 28.7973 127.826 28.84C127.863 28.8773 127.909 28.904 127.962 28.92C128.021 28.936 128.09 28.944 128.17 28.944C128.239 28.944 128.301 28.952 128.354 28.968C128.413 28.984 128.458 29.024 128.49 29.088C128.527 29.152 128.546 29.256 128.546 29.4C128.546 29.5493 128.527 29.6587 128.49 29.728C128.458 29.7973 128.413 29.84 128.354 29.856C128.295 29.872 128.234 29.88 128.17 29.88Z" fill="black"/>
</svg>
