<svg width="39" height="19" viewBox="0 0 39 19" fill="none" xmlns="http://www.w3.org/2000/svg">
<g filter="url(#filter0_d_195_280)">
<rect x="2" width="34.4017" height="14.8946" rx="7.4473" fill="url(#paint0_linear_195_280)"/>
<rect x="2.1" y="0.1" width="34.2017" height="14.6946" rx="7.3473" stroke="black" stroke-width="0.2"/>
</g>
<rect x="2.95781" y="1.8925" width="32.3347" height="11.1095" rx="5.55473" fill="url(#paint1_linear_195_280)" stroke="white" stroke-width="0.4"/>
<path d="M10.0093 9.31407H13.0893C13.2426 9.31407 13.356 9.32073 13.4293 9.33407C13.5093 9.34073 13.5993 9.37073 13.6993 9.42407C13.8793 9.5174 13.9693 9.7774 13.9693 10.2041C13.9693 10.6707 13.846 10.9441 13.5993 11.0241C13.486 11.0641 13.3126 11.0841 13.0793 11.0841H9.11931C8.65264 11.0841 8.37931 10.9574 8.29931 10.7041C8.25931 10.5974 8.23931 10.4274 8.23931 10.1941V4.63407C8.23931 4.29407 8.30264 4.06407 8.42931 3.94407C8.55598 3.8174 8.79598 3.75407 9.14931 3.75407H13.0893C13.2426 3.75407 13.356 3.76073 13.4293 3.77407C13.5093 3.78073 13.5993 3.81073 13.6993 3.86407C13.8793 3.9574 13.9693 4.2174 13.9693 4.64407C13.9693 5.11073 13.846 5.38407 13.5993 5.46407C13.486 5.50407 13.3126 5.52407 13.0793 5.52407H10.0093V6.53407H11.9893C12.1426 6.53407 12.256 6.54073 12.3293 6.55407C12.4093 6.56073 12.4993 6.59073 12.5993 6.64407C12.7793 6.7374 12.8693 6.9974 12.8693 7.42407C12.8693 7.89073 12.7426 8.16407 12.4893 8.24407C12.376 8.28407 12.2026 8.30407 11.9693 8.30407H10.0093V9.31407ZM20.4263 5.23407C20.5996 5.5874 20.6863 5.98073 20.6863 6.41407C20.6863 6.8474 20.5996 7.24073 20.4263 7.59407C20.2529 7.94073 20.0296 8.2174 19.7563 8.42407C19.2029 8.85073 18.6296 9.06407 18.0363 9.06407H16.7863V10.1941C16.7863 10.3474 16.7796 10.4641 16.7663 10.5441C16.7596 10.6174 16.7296 10.7041 16.6763 10.8041C16.5829 10.9841 16.3229 11.0741 15.8963 11.0741C15.4296 11.0741 15.1563 10.9507 15.0763 10.7041C15.0363 10.5907 15.0163 10.4174 15.0163 10.1841V4.63407C15.0163 4.48073 15.0196 4.3674 15.0263 4.29407C15.0396 4.21407 15.0729 4.12407 15.1263 4.02407C15.2196 3.84407 15.4796 3.75407 15.9063 3.75407H18.0463C18.6329 3.75407 19.2029 3.9674 19.7563 4.39407C20.0296 4.60073 20.2529 4.88073 20.4263 5.23407ZM18.0463 7.29407C18.2463 7.29407 18.4429 7.22073 18.6363 7.07407C18.8296 6.9274 18.9263 6.7074 18.9263 6.41407C18.9263 6.12073 18.8296 5.90073 18.6363 5.75407C18.4429 5.60073 18.2429 5.52407 18.0363 5.52407H16.7863V7.29407H18.0463ZM21.7346 4.63407C21.7346 4.48073 21.738 4.3674 21.7446 4.29407C21.758 4.21407 21.7913 4.12407 21.8446 4.02407C21.938 3.84407 22.198 3.75407 22.6246 3.75407C23.0913 3.75407 23.368 3.8774 23.4546 4.12407C23.488 4.2374 23.5046 4.41073 23.5046 4.64407V10.2041C23.5046 10.3641 23.498 10.4807 23.4846 10.5541C23.478 10.6274 23.448 10.7141 23.3946 10.8141C23.3013 10.9941 23.0413 11.0841 22.6146 11.0841C22.148 11.0841 21.8746 10.9574 21.7946 10.7041C21.7546 10.5974 21.7346 10.4274 21.7346 10.1941V4.63407ZM29.283 9.16407L29.463 9.03407C29.6897 8.90073 29.8497 8.83407 29.943 8.83407C30.1497 8.83407 30.373 9.02073 30.613 9.39407C30.7597 9.6274 30.833 9.81407 30.833 9.95407C30.833 10.0941 30.7863 10.2107 30.693 10.3041C30.6063 10.3974 30.503 10.4807 30.383 10.5541C30.263 10.6274 30.1463 10.6974 30.033 10.7641C29.9263 10.8307 29.703 10.9174 29.363 11.0241C29.023 11.1307 28.693 11.1841 28.373 11.1841C28.0597 11.1841 27.7397 11.1441 27.413 11.0641C27.093 10.9774 26.7597 10.8374 26.413 10.6441C26.073 10.4441 25.7663 10.2041 25.493 9.92407C25.2197 9.6374 24.993 9.27407 24.813 8.83407C24.6397 8.3874 24.553 7.90407 24.553 7.38407C24.553 6.86407 24.6397 6.39407 24.813 5.97407C24.9863 5.5474 25.2063 5.1974 25.473 4.92407C25.7463 4.64407 26.0563 4.41073 26.403 4.22407C27.0563 3.86407 27.713 3.68407 28.373 3.68407C28.6863 3.68407 29.003 3.73407 29.323 3.83407C29.6497 3.9274 29.8963 4.02407 30.063 4.12407L30.303 4.26407C30.423 4.3374 30.5163 4.3974 30.583 4.44407C30.7563 4.58407 30.843 4.74407 30.843 4.92407C30.843 5.0974 30.773 5.28073 30.633 5.47407C30.373 5.83407 30.1397 6.01407 29.933 6.01407C29.813 6.01407 29.643 5.94073 29.423 5.79407C29.143 5.5674 28.7697 5.45407 28.303 5.45407C27.8697 5.45407 27.443 5.60407 27.023 5.90407C26.823 6.05073 26.6563 6.2574 26.523 6.52407C26.3897 6.79073 26.323 7.09407 26.323 7.43407C26.323 7.7674 26.3897 8.0674 26.523 8.33407C26.6563 8.60073 26.8263 8.81073 27.033 8.96407C27.4397 9.2574 27.863 9.40407 28.303 9.40407C28.5097 9.40407 28.703 9.3774 28.883 9.32407C29.0697 9.27073 29.203 9.2174 29.283 9.16407Z" fill="white"/>
<path d="M10.0093 9.31407H9.90931V9.41407H10.0093V9.31407ZM13.4293 9.33407L13.4113 9.43292L13.421 9.43372L13.4293 9.33407ZM13.6993 9.42407L13.6522 9.51231L13.6533 9.51284L13.6993 9.42407ZM13.5993 11.0241L13.5684 10.9289L13.566 10.9298L13.5993 11.0241ZM8.29931 10.7041L8.3948 10.6739L8.39294 10.669L8.29931 10.7041ZM8.42931 3.94407L8.49811 4.01669L8.50002 4.01478L8.42931 3.94407ZM13.4293 3.77407L13.4113 3.87292L13.421 3.87372L13.4293 3.77407ZM13.6993 3.86407L13.6522 3.95231L13.6533 3.95284L13.6993 3.86407ZM13.5993 5.46407L13.5684 5.36891L13.566 5.36977L13.5993 5.46407ZM10.0093 5.52407V5.42407H9.90931V5.52407H10.0093ZM10.0093 6.53407H9.90931V6.63407H10.0093V6.53407ZM12.3293 6.55407L12.3113 6.65292L12.321 6.65372L12.3293 6.55407ZM12.5993 6.64407L12.5522 6.73231L12.5533 6.73284L12.5993 6.64407ZM12.4893 8.24407L12.4592 8.14866L12.456 8.14977L12.4893 8.24407ZM10.0093 8.30407V8.20407H9.90931V8.30407H10.0093ZM10.0093 9.31407V9.41407H13.0893V9.31407V9.21407H10.0093V9.31407ZM13.0893 9.31407V9.41407C13.2415 9.41407 13.3474 9.42081 13.4114 9.43245L13.4293 9.33407L13.4472 9.23568C13.3646 9.22066 13.2437 9.21407 13.0893 9.21407V9.31407ZM13.4293 9.33407L13.421 9.43372C13.4831 9.43889 13.5597 9.46293 13.6523 9.5123L13.6993 9.42407L13.7464 9.33583C13.639 9.27854 13.5355 9.24257 13.4376 9.23441L13.4293 9.33407ZM13.6993 9.42407L13.6533 9.51284C13.7134 9.54403 13.7676 9.60718 13.8073 9.72178C13.8472 9.83712 13.8693 9.99643 13.8693 10.2041H13.9693H14.0693C14.0693 9.98504 14.0464 9.80101 13.9963 9.65636C13.946 9.51095 13.8652 9.39743 13.7453 9.33529L13.6993 9.42407ZM13.9693 10.2041H13.8693C13.8693 10.6656 13.7465 10.8712 13.5685 10.9289L13.5993 11.0241L13.6302 11.1192C13.9454 11.0169 14.0693 10.6758 14.0693 10.2041H13.9693ZM13.5993 11.0241L13.566 10.9298C13.4693 10.9639 13.3099 10.9841 13.0793 10.9841V11.0841V11.1841C13.3154 11.1841 13.5027 11.1642 13.6326 11.1184L13.5993 11.0241ZM13.0793 11.0841V10.9841H9.11931V11.0841V11.1841H13.0793V11.0841ZM9.11931 11.0841V10.9841C8.65924 10.9841 8.45305 10.8588 8.39467 10.674L8.29931 10.7041L8.20395 10.7342C8.30557 11.056 8.64604 11.1841 9.11931 11.1841V11.0841ZM8.29931 10.7041L8.39294 10.669C8.35961 10.5801 8.33931 10.4253 8.33931 10.1941H8.23931H8.13931C8.13931 10.4295 8.15901 10.6147 8.20568 10.7392L8.29931 10.7041ZM8.23931 10.1941H8.33931V4.63407H8.23931H8.13931V10.1941H8.23931ZM8.23931 4.63407H8.33931C8.33931 4.29845 8.40348 4.10628 8.49808 4.01666L8.42931 3.94407L8.36054 3.87147C8.2018 4.02185 8.13931 4.28969 8.13931 4.63407H8.23931ZM8.42931 3.94407L8.50002 4.01478C8.59646 3.91834 8.79996 3.85407 9.14931 3.85407V3.75407V3.65407C8.79199 3.65407 8.51549 3.71646 8.3586 3.87336L8.42931 3.94407ZM9.14931 3.75407V3.85407H13.0893V3.75407V3.65407H9.14931V3.75407ZM13.0893 3.75407V3.85407C13.2415 3.85407 13.3474 3.86081 13.4114 3.87245L13.4293 3.77407L13.4472 3.67568C13.3646 3.66066 13.2437 3.65407 13.0893 3.65407V3.75407ZM13.4293 3.77407L13.421 3.87372C13.4831 3.87889 13.5597 3.90293 13.6523 3.9523L13.6993 3.86407L13.7464 3.77583C13.639 3.71854 13.5355 3.68257 13.4376 3.67441L13.4293 3.77407ZM13.6993 3.86407L13.6533 3.95284C13.7134 3.98403 13.7676 4.04718 13.8073 4.16178C13.8472 4.27712 13.8693 4.43643 13.8693 4.64407H13.9693H14.0693C14.0693 4.42504 14.0464 4.24101 13.9963 4.09636C13.946 3.95095 13.8652 3.83743 13.7453 3.77529L13.6993 3.86407ZM13.9693 4.64407H13.8693C13.8693 5.10564 13.7465 5.31119 13.5685 5.36894L13.5993 5.46407L13.6302 5.55919C13.9454 5.45694 14.0693 5.11583 14.0693 4.64407H13.9693ZM13.5993 5.46407L13.566 5.36977C13.4693 5.40392 13.3099 5.42407 13.0793 5.42407V5.52407V5.62407C13.3154 5.62407 13.5027 5.60421 13.6326 5.55837L13.5993 5.46407ZM13.0793 5.52407V5.42407H10.0093V5.52407V5.62407H13.0793V5.52407ZM10.0093 5.52407H9.90931V6.53407H10.0093H10.1093V5.52407H10.0093ZM10.0093 6.53407V6.63407H11.9893V6.53407V6.43407H10.0093V6.53407ZM11.9893 6.53407V6.63407C12.1415 6.63407 12.2474 6.64081 12.3114 6.65245L12.3293 6.55407L12.3472 6.45568C12.2646 6.44066 12.1437 6.43407 11.9893 6.43407V6.53407ZM12.3293 6.55407L12.321 6.65372C12.3831 6.65889 12.4597 6.68293 12.5523 6.7323L12.5993 6.64407L12.6464 6.55583C12.5389 6.49854 12.4355 6.46257 12.3376 6.45441L12.3293 6.55407ZM12.5993 6.64407L12.5533 6.73284C12.6134 6.76403 12.6676 6.82718 12.7073 6.94178C12.7472 7.05712 12.7693 7.21643 12.7693 7.42407H12.8693H12.9693C12.9693 7.20504 12.9464 7.02101 12.8963 6.87636C12.846 6.73095 12.7652 6.61743 12.6453 6.55529L12.5993 6.64407ZM12.8693 7.42407H12.7693C12.7693 7.88413 12.6441 8.09033 12.4592 8.14871L12.4893 8.24407L12.5194 8.33943C12.8412 8.2378 12.9693 7.89733 12.9693 7.42407H12.8693ZM12.4893 8.24407L12.456 8.14977C12.3593 8.18392 12.1999 8.20407 11.9693 8.20407V8.30407V8.40407C12.2054 8.40407 12.3927 8.38421 12.5226 8.33837L12.4893 8.24407ZM11.9693 8.30407V8.20407H10.0093V8.30407V8.40407H11.9693V8.30407ZM10.0093 8.30407H9.90931V9.31407H10.0093H10.1093V8.30407H10.0093ZM20.4263 5.23407L20.516 5.19002V5.19002L20.4263 5.23407ZM20.4263 7.59407L20.5157 7.63879L20.516 7.63811L20.4263 7.59407ZM19.7563 8.42407L19.696 8.3443L19.6952 8.34488L19.7563 8.42407ZM16.7863 9.06407V8.96407H16.6863V9.06407H16.7863ZM16.7663 10.5441L16.6674 10.5276L16.6667 10.535L16.7663 10.5441ZM16.6763 10.8041L16.588 10.757L16.5875 10.758L16.6763 10.8041ZM15.0763 10.7041L15.1714 10.6732L15.1706 10.6708L15.0763 10.7041ZM15.0263 4.29407L14.9274 4.27758L14.9267 4.28501L15.0263 4.29407ZM15.1263 4.02407L15.2145 4.07113L15.215 4.0701L15.1263 4.02407ZM19.7563 4.39407L19.6952 4.47326L19.696 4.47383L19.7563 4.39407ZM18.6363 7.07407L18.5758 6.9944V6.9944L18.6363 7.07407ZM18.6363 5.75407L18.5741 5.83243L18.5758 5.83374L18.6363 5.75407ZM16.7863 5.52407V5.42407H16.6863V5.52407H16.7863ZM16.7863 7.29407H16.6863V7.39407H16.7863V7.29407ZM20.4263 5.23407L20.3365 5.27811C20.5024 5.6164 20.5863 5.99444 20.5863 6.41407H20.6863H20.7863C20.7863 5.96703 20.6968 5.5584 20.516 5.19002L20.4263 5.23407ZM20.6863 6.41407H20.5863C20.5863 6.8337 20.5024 7.21174 20.3365 7.55002L20.4263 7.59407L20.516 7.63811C20.6968 7.26973 20.7863 6.8611 20.7863 6.41407H20.6863ZM20.4263 7.59407L20.3368 7.54935C20.1695 7.88406 19.9555 8.14807 19.696 8.3443L19.7563 8.42407L19.8166 8.50383C20.1037 8.28673 20.3364 7.99741 20.5157 7.63879L20.4263 7.59407ZM19.7563 8.42407L19.6952 8.34488C19.1561 8.76054 18.6037 8.96407 18.0363 8.96407V9.06407V9.16407C18.6554 9.16407 19.2497 8.94093 19.8173 8.50326L19.7563 8.42407ZM18.0363 9.06407V8.96407H16.7863V9.06407V9.16407H18.0363V9.06407ZM16.7863 9.06407H16.6863V10.1941H16.7863H16.8863V9.06407H16.7863ZM16.7863 10.1941H16.6863C16.6863 10.3458 16.6796 10.4559 16.6676 10.5276L16.7663 10.5441L16.8649 10.5605C16.8796 10.4722 16.8863 10.349 16.8863 10.1941H16.7863ZM16.7663 10.5441L16.6667 10.535C16.6617 10.5898 16.6381 10.6631 16.588 10.757L16.6763 10.8041L16.7645 10.8511C16.8211 10.745 16.8575 10.645 16.8659 10.5531L16.7663 10.5441ZM16.6763 10.8041L16.5875 10.758C16.5563 10.8182 16.4931 10.8724 16.3786 10.9121C16.2632 10.952 16.1039 10.9741 15.8963 10.9741V11.0741V11.1741C16.1153 11.1741 16.2993 11.1511 16.444 11.1011C16.5894 11.0507 16.7029 10.9699 16.765 10.8501L16.6763 10.8041ZM15.8963 11.0741V10.9741C15.4347 10.9741 15.2291 10.8513 15.1714 10.6732L15.0763 10.7041L14.9811 10.7349C15.0834 11.0502 15.4245 11.1741 15.8963 11.1741V11.0741ZM15.0763 10.7041L15.1706 10.6708C15.1364 10.574 15.1163 10.4147 15.1163 10.1841H15.0163H14.9163C14.9163 10.4201 14.9361 10.6075 14.982 10.7373L15.0763 10.7041ZM15.0163 10.1841H15.1163V4.63407H15.0163H14.9163V10.1841H15.0163ZM15.0163 4.63407H15.1163C15.1163 4.48126 15.1196 4.3717 15.1259 4.30312L15.0263 4.29407L14.9267 4.28501C14.9196 4.3631 14.9163 4.48021 14.9163 4.63407H15.0163ZM15.0263 4.29407L15.1249 4.31051C15.1359 4.24453 15.1644 4.16506 15.2145 4.07113L15.1263 4.02407L15.038 3.97701C14.9815 4.08308 14.9433 4.18361 14.9276 4.27763L15.0263 4.29407ZM15.1263 4.02407L15.215 4.0701C15.2462 4.00994 15.3094 3.95573 15.424 3.91607C15.5393 3.87614 15.6986 3.85407 15.9063 3.85407V3.75407V3.65407C15.6872 3.65407 15.5032 3.67699 15.3586 3.72707C15.2131 3.7774 15.0996 3.85819 15.0375 3.97804L15.1263 4.02407ZM15.9063 3.75407V3.85407H18.0463V3.75407V3.65407H15.9063V3.75407ZM18.0463 3.75407V3.85407C18.6068 3.85407 19.1559 4.05742 19.6952 4.47326L19.7563 4.39407L19.8173 4.31488C19.25 3.87738 18.659 3.65407 18.0463 3.65407V3.75407ZM19.7563 4.39407L19.696 4.47383C19.9551 4.66975 20.169 4.93673 20.3365 5.27811L20.4263 5.23407L20.516 5.19002C20.3368 4.82474 20.1041 4.53172 19.8166 4.3143L19.7563 4.39407ZM18.0463 7.29407V7.39407C18.2724 7.39407 18.4898 7.31071 18.6967 7.15374L18.6363 7.07407L18.5758 6.9944C18.3961 7.13076 18.2201 7.19407 18.0463 7.19407V7.29407ZM18.6363 7.07407L18.6967 7.15374C18.9203 6.98414 19.0263 6.73137 19.0263 6.41407H18.9263H18.8263C18.8263 6.68343 18.7389 6.87066 18.5758 6.9944L18.6363 7.07407ZM18.9263 6.41407H19.0263C19.0263 6.09676 18.9203 5.84399 18.6967 5.6744L18.6363 5.75407L18.5758 5.83374C18.7389 5.95748 18.8263 6.14471 18.8263 6.41407H18.9263ZM18.6363 5.75407L18.6984 5.67572C18.4909 5.51118 18.2696 5.42407 18.0363 5.42407V5.52407V5.62407C18.2162 5.62407 18.3949 5.69028 18.5741 5.83242L18.6363 5.75407ZM18.0363 5.52407V5.42407H16.7863V5.52407V5.62407H18.0363V5.52407ZM16.7863 5.52407H16.6863V7.29407H16.7863H16.8863V5.52407H16.7863ZM16.7863 7.29407V7.39407H18.0463V7.29407V7.19407H16.7863V7.29407ZM21.7446 4.29407L21.6457 4.27758L21.645 4.28501L21.7446 4.29407ZM21.8446 4.02407L21.9329 4.07113L21.9334 4.0701L21.8446 4.02407ZM23.4546 4.12407L23.5507 4.09581L23.549 4.09092L23.4546 4.12407ZM23.4846 10.5541L23.3858 10.5361L23.385 10.545L23.4846 10.5541ZM23.3946 10.8141L23.3064 10.767L23.3058 10.768L23.3946 10.8141ZM21.7946 10.7041L21.8901 10.6739L21.8883 10.669L21.7946 10.7041ZM21.7346 4.63407H21.8346C21.8346 4.48126 21.838 4.3717 21.8442 4.30312L21.7446 4.29407L21.645 4.28501C21.6379 4.3631 21.6346 4.48021 21.6346 4.63407H21.7346ZM21.7446 4.29407L21.8433 4.31051C21.8543 4.24453 21.8828 4.16506 21.9329 4.07113L21.8446 4.02407L21.7564 3.97701C21.6998 4.08308 21.6617 4.18361 21.646 4.27763L21.7446 4.29407ZM21.8446 4.02407L21.9334 4.0701C21.9646 4.00994 22.0277 3.95573 22.1423 3.91607C22.2577 3.87614 22.417 3.85407 22.6246 3.85407V3.75407V3.65407C22.4056 3.65407 22.2216 3.67699 22.0769 3.72707C21.9315 3.7774 21.818 3.85819 21.7558 3.97804L21.8446 4.02407ZM22.6246 3.75407V3.85407C23.0853 3.85407 23.2968 3.97658 23.3603 4.15722L23.4546 4.12407L23.549 4.09092C23.4391 3.77822 23.0973 3.65407 22.6246 3.65407V3.75407ZM23.4546 4.12407L23.3587 4.15228C23.3878 4.25136 23.4046 4.41289 23.4046 4.64407H23.5046H23.6046C23.6046 4.40857 23.5881 4.22344 23.5506 4.09585L23.4546 4.12407ZM23.5046 4.64407H23.4046V10.2041H23.5046H23.6046V4.64407H23.5046ZM23.5046 10.2041H23.4046C23.4046 10.3633 23.3979 10.4723 23.3862 10.5362L23.4846 10.5541L23.583 10.572C23.5981 10.4892 23.6046 10.3649 23.6046 10.2041H23.5046ZM23.4846 10.5541L23.385 10.545C23.38 10.5998 23.3565 10.6731 23.3064 10.767L23.3946 10.8141L23.4829 10.8611C23.5394 10.755 23.5759 10.655 23.5842 10.5631L23.4846 10.5541ZM23.3946 10.8141L23.3058 10.768C23.2747 10.8282 23.2115 10.8824 23.0969 10.9221C22.9816 10.962 22.8223 10.9841 22.6146 10.9841V11.0841V11.1841C22.8337 11.1841 23.0177 11.1611 23.1623 11.1111C23.3077 11.0607 23.4213 10.9799 23.4834 10.8601L23.3946 10.8141ZM22.6146 11.0841V10.9841C22.1546 10.9841 21.9484 10.8588 21.89 10.674L21.7946 10.7041L21.6993 10.7342C21.8009 11.056 22.1414 11.1841 22.6146 11.1841V11.0841ZM21.7946 10.7041L21.8883 10.669C21.8549 10.5801 21.8346 10.4253 21.8346 10.1941H21.7346H21.6346C21.6346 10.4295 21.6543 10.6147 21.701 10.7392L21.7946 10.7041ZM21.7346 10.1941H21.8346V4.63407H21.7346H21.6346V10.1941H21.7346ZM29.283 9.16407L29.3385 9.24733L29.3415 9.24514L29.283 9.16407ZM29.463 9.03407L29.4121 8.94749L29.4044 8.953L29.463 9.03407ZM30.613 9.39407L30.6977 9.34085L30.6971 9.33999L30.613 9.39407ZM30.693 10.3041L30.6222 10.2333L30.6197 10.236L30.693 10.3041ZM30.033 10.7641L29.9823 10.6778L29.98 10.6793L30.033 10.7641ZM29.363 11.0241L29.3929 11.1195V11.1195L29.363 11.0241ZM27.413 11.0641L27.3868 11.1606L27.3892 11.1612L27.413 11.0641ZM26.413 10.6441L26.3623 10.7303L26.3643 10.7314L26.413 10.6441ZM25.493 9.92407L25.4206 9.99308L25.4214 9.99392L25.493 9.92407ZM24.813 8.83407L24.7197 8.87025L24.7204 8.87193L24.813 8.83407ZM24.813 5.97407L24.9054 6.01222L24.9056 6.0117L24.813 5.97407ZM25.473 4.92407L25.4014 4.85421L25.4014 4.85423L25.473 4.92407ZM26.403 4.22407L26.4504 4.31212L26.4512 4.31165L26.403 4.22407ZM29.323 3.83407L29.2931 3.92954L29.2955 3.93022L29.323 3.83407ZM30.063 4.12407L30.0115 4.20982L30.0126 4.21044L30.063 4.12407ZM30.303 4.26407L30.3551 4.17872L30.3534 4.17769L30.303 4.26407ZM30.583 4.44407L30.646 4.36609L30.6403 4.36214L30.583 4.44407ZM30.633 5.47407L30.552 5.41542L30.5519 5.41552L30.633 5.47407ZM29.423 5.79407L29.3598 5.87213L29.3675 5.87727L29.423 5.79407ZM27.023 5.90407L26.9649 5.82269L26.9639 5.82343L27.023 5.90407ZM27.033 8.96407L26.9734 9.04438L26.9745 9.04517L27.033 8.96407ZM28.883 9.32407L28.8555 9.22791L28.8546 9.22819L28.883 9.32407ZM29.283 9.16407L29.3415 9.24514L29.5215 9.11514L29.463 9.03407L29.4044 8.953L29.2244 9.083L29.283 9.16407ZM29.463 9.03407L29.5137 9.12026C29.6249 9.05486 29.7172 9.0073 29.7914 8.97637C29.8679 8.94452 29.9164 8.93407 29.943 8.93407V8.83407V8.73407C29.8762 8.73407 29.7981 8.75695 29.7145 8.79176C29.6287 8.8275 29.5278 8.87994 29.4123 8.94787L29.463 9.03407ZM29.943 8.83407V8.93407C30.0149 8.93407 30.1004 8.96644 30.2014 9.0508C30.3023 9.13517 30.4118 9.26602 30.5289 9.44814L30.613 9.39407L30.6971 9.33999C30.5742 9.14878 30.452 8.99963 30.3296 8.89734C30.2072 8.79503 30.0777 8.73407 29.943 8.73407V8.83407ZM30.613 9.39407L30.5283 9.44728C30.673 9.67746 30.733 9.84377 30.733 9.95407H30.833H30.933C30.933 9.78436 30.8463 9.57734 30.6977 9.34085L30.613 9.39407ZM30.833 9.95407H30.733C30.733 10.0693 30.6956 10.16 30.6223 10.2334L30.693 10.3041L30.7637 10.3748C30.877 10.2615 30.933 10.1188 30.933 9.95407H30.833ZM30.693 10.3041L30.6197 10.236C30.5399 10.322 30.4438 10.3997 30.3308 10.4687L30.383 10.5541L30.4351 10.6394C30.5621 10.5618 30.6728 10.4728 30.7663 10.3721L30.693 10.3041ZM30.383 10.5541L30.3308 10.4687C30.2113 10.5418 30.0951 10.6115 29.9823 10.6779L30.033 10.7641L30.0837 10.8503C30.1975 10.7833 30.3147 10.713 30.4351 10.6394L30.383 10.5541ZM30.033 10.7641L29.98 10.6793C29.8858 10.7381 29.6747 10.8215 29.3331 10.9287L29.363 11.0241L29.3929 11.1195C29.7313 11.0133 29.9668 10.9234 30.086 10.8489L30.033 10.7641ZM29.363 11.0241L29.3331 10.9287C29.0017 11.0326 28.6818 11.0841 28.373 11.0841V11.1841V11.2841C28.7042 11.2841 29.0443 11.2288 29.3929 11.1195L29.363 11.0241ZM28.373 11.1841V11.0841C28.0682 11.0841 27.7562 11.0452 27.4368 10.9669L27.413 11.0641L27.3892 11.1612C27.7231 11.243 28.0511 11.2841 28.373 11.2841V11.1841ZM27.413 11.0641L27.4391 10.9675C27.1284 10.8834 26.8026 10.7468 26.4617 10.5567L26.413 10.6441L26.3643 10.7314C26.7167 10.928 27.0576 11.0714 27.3868 11.1606L27.413 11.0641ZM26.413 10.6441L26.4637 10.5579C26.1313 10.3623 25.8316 10.1278 25.5645 9.85421L25.493 9.92407L25.4214 9.99392C25.701 10.2803 26.0147 10.5258 26.3623 10.7303L26.413 10.6441ZM25.493 9.92407L25.5654 9.85506C25.3022 9.57903 25.0817 9.22691 24.9055 8.7962L24.813 8.83407L24.7204 8.87193C24.9042 9.32122 25.1371 9.69577 25.4206 9.99307L25.493 9.92407ZM24.813 8.83407L24.9062 8.79789C24.7377 8.36371 24.653 7.89275 24.653 7.38407H24.553H24.453C24.453 7.91538 24.5416 8.41109 24.7198 8.87024L24.813 8.83407ZM24.553 7.38407H24.653C24.653 6.87528 24.7378 6.4185 24.9054 6.01222L24.813 5.97407L24.7205 5.93592C24.5416 6.36964 24.453 6.85285 24.453 7.38407H24.553ZM24.813 5.97407L24.9056 6.0117C25.0751 5.59462 25.2886 5.25627 25.5446 4.9939L25.473 4.92407L25.4014 4.85423C25.124 5.13853 24.8976 5.50018 24.7203 5.93643L24.813 5.97407ZM25.473 4.92407L25.5445 4.99392C25.8108 4.72122 26.1126 4.49401 26.4504 4.31211L26.403 4.22407L26.3556 4.13602C26 4.32746 25.6819 4.56691 25.4014 4.85421L25.473 4.92407ZM26.403 4.22407L26.4512 4.31165C27.0918 3.95872 27.732 3.78407 28.373 3.78407V3.68407V3.58407C27.694 3.58407 27.0209 3.76942 26.3547 4.13648L26.403 4.22407ZM28.373 3.68407V3.78407C28.6755 3.78407 28.9821 3.83232 29.2932 3.92951L29.323 3.83407L29.3528 3.73862C29.0238 3.63581 28.6971 3.58407 28.373 3.58407V3.68407ZM29.323 3.83407L29.2955 3.93022C29.619 4.02265 29.8559 4.11646 30.0115 4.20982L30.063 4.12407L30.1144 4.03832C29.9367 3.93167 29.6803 3.83215 29.3505 3.73791L29.323 3.83407ZM30.063 4.12407L30.0126 4.21044L30.2526 4.35044L30.303 4.26407L30.3534 4.17769L30.1134 4.03769L30.063 4.12407ZM30.303 4.26407L30.2508 4.3494C30.3701 4.4223 30.4615 4.48106 30.5256 4.52599L30.583 4.44407L30.6403 4.36214C30.5712 4.31374 30.4758 4.2525 30.3551 4.17874L30.303 4.26407ZM30.583 4.44407L30.5202 4.52186C30.6761 4.64783 30.743 4.78138 30.743 4.92407H30.843H30.943C30.943 4.70676 30.8365 4.5203 30.6458 4.36627L30.583 4.44407ZM30.843 4.92407H30.743C30.743 5.06971 30.6842 5.23285 30.552 5.41542L30.633 5.47407L30.714 5.53272C30.8618 5.32861 30.943 5.12509 30.943 4.92407H30.843ZM30.633 5.47407L30.5519 5.41552C30.425 5.59124 30.3081 5.71794 30.2019 5.79989C30.0955 5.88198 30.0065 5.91407 29.933 5.91407V6.01407V6.11407C30.0661 6.11407 30.1971 6.05615 30.3241 5.95825C30.4512 5.8602 30.581 5.71689 30.7141 5.53262L30.633 5.47407ZM29.933 6.01407V5.91407C29.892 5.91407 29.8337 5.90114 29.7551 5.86725C29.6774 5.83374 29.5854 5.78214 29.4785 5.71086L29.423 5.79407L29.3675 5.87727C29.4806 5.95266 29.5835 6.01106 29.6759 6.05089C29.7673 6.09032 29.854 6.11407 29.933 6.11407V6.01407ZM29.423 5.79407L29.4859 5.71634C29.1834 5.47147 28.7857 5.35407 28.303 5.35407V5.45407V5.55407C28.7536 5.55407 29.1026 5.66333 29.3601 5.87179L29.423 5.79407ZM28.303 5.45407V5.35407C27.8451 5.35407 27.3985 5.51295 26.9649 5.82269L27.023 5.90407L27.0811 5.98544C27.4875 5.69518 27.8942 5.55407 28.303 5.55407V5.45407ZM27.023 5.90407L26.9639 5.82343C26.7487 5.98121 26.5726 6.20131 26.4335 6.47935L26.523 6.52407L26.6124 6.56879C26.7401 6.31349 26.8973 6.12026 27.0821 5.98471L27.023 5.90407ZM26.523 6.52407L26.4335 6.47935C26.2924 6.76173 26.223 7.08073 26.223 7.43407H26.323H26.423C26.423 7.1074 26.487 6.81973 26.6124 6.56879L26.523 6.52407ZM26.323 7.43407H26.223C26.223 7.78107 26.2925 8.09667 26.4335 8.37879L26.523 8.33407L26.6124 8.28935C26.4868 8.03813 26.423 7.75373 26.423 7.43407H26.323ZM26.523 8.33407L26.4335 8.37879C26.5728 8.65727 26.7523 8.88031 26.9734 9.04438L27.033 8.96407L27.0926 8.88376C26.9004 8.74116 26.7399 8.5442 26.6124 8.28935L26.523 8.33407ZM27.033 8.96407L26.9745 9.04517C27.3957 9.34901 27.8391 9.50407 28.303 9.50407V9.40407V9.30407C27.8868 9.30407 27.4836 9.1658 27.0915 8.88296L27.033 8.96407ZM28.303 9.40407V9.50407C28.5183 9.50407 28.7213 9.47627 28.9114 9.41995L28.883 9.32407L28.8546 9.22819C28.6847 9.27853 28.501 9.30407 28.303 9.30407V9.40407ZM28.883 9.32407L28.9105 9.42022C29.0991 9.36632 29.2449 9.30962 29.3385 9.24727L29.283 9.16407L29.2275 9.08086C29.161 9.12518 29.0402 9.17514 28.8555 9.22791L28.883 9.32407Z" fill="#3B3B3B"/>
<defs>
<filter id="filter0_d_195_280" x="0" y="0" width="38.4019" height="18.8945" filterUnits="userSpaceOnUse" color-interpolation-filters="sRGB">
<feFlood flood-opacity="0" result="BackgroundImageFix"/>
<feColorMatrix in="SourceAlpha" type="matrix" values="0 0 0 0 0 0 0 0 0 0 0 0 0 0 0 0 0 0 127 0" result="hardAlpha"/>
<feOffset dy="2"/>
<feGaussianBlur stdDeviation="1"/>
<feComposite in2="hardAlpha" operator="out"/>
<feColorMatrix type="matrix" values="0 0 0 0 0 0 0 0 0 0 0 0 0 0 0 0 0 0 0.5 0"/>
<feBlend mode="normal" in2="BackgroundImageFix" result="effect1_dropShadow_195_280"/>
<feBlend mode="normal" in="SourceGraphic" in2="effect1_dropShadow_195_280" result="shape"/>
</filter>
<linearGradient id="paint0_linear_195_280" x1="18.6704" y1="-4.58978e-08" x2="18.6704" y2="14.8946" gradientUnits="userSpaceOnUse">
<stop stop-color="#FFE8FA"/>
<stop offset="0.225962" stop-color="#E700B9"/>
</linearGradient>
<linearGradient id="paint1_linear_195_280" x1="20.6407" y1="1.6925" x2="20.6407" y2="13.202" gradientUnits="userSpaceOnUse">
<stop stop-color="#FFA2FF"/>
<stop offset="1" stop-color="#F90AF5"/>
</linearGradient>
</defs>
</svg>
