<svg width="39" height="19" viewBox="0 0 39 19" fill="none" xmlns="http://www.w3.org/2000/svg">
<g filter="url(#filter0_d_195_285)">
<rect x="2" width="34.4017" height="14.8946" rx="7.4473" fill="url(#paint0_linear_195_285)"/>
<rect x="2.1" y="0.1" width="34.2017" height="14.6946" rx="7.3473" stroke="black" stroke-width="0.2"/>
</g>
<rect x="2.95781" y="1.8925" width="32.3347" height="11.1095" rx="5.55473" fill="url(#paint1_linear_195_285)" stroke="white" stroke-width="0.4"/>
<path d="M10.1558 9.60407H12.8758C13.0958 9.60407 13.2558 9.63073 13.3558 9.68407C13.4558 9.73073 13.5225 9.8074 13.5558 9.91407C13.5891 10.0207 13.6058 10.1641 13.6058 10.3441C13.6058 10.5174 13.5891 10.6574 13.5558 10.7641C13.5225 10.8707 13.4658 10.9441 13.3858 10.9841C13.2591 11.0507 13.0858 11.0841 12.8658 11.0841H9.26579C8.79913 11.0841 8.52579 10.9574 8.44579 10.7041C8.40579 10.5974 8.38579 10.4274 8.38579 10.1941V4.63407C8.38579 4.48073 8.38913 4.3674 8.39579 4.29407C8.40913 4.21407 8.44246 4.12407 8.49579 4.02407C8.58913 3.84407 8.84913 3.75407 9.27579 3.75407C9.74246 3.75407 10.0191 3.8774 10.1058 4.12407C10.1391 4.2374 10.1558 4.41073 10.1558 4.64407V9.60407ZM16.4249 9.31407H19.5049C19.6583 9.31407 19.7716 9.32073 19.8449 9.33407C19.9249 9.34073 20.0149 9.37073 20.1149 9.42407C20.2949 9.5174 20.3849 9.7774 20.3849 10.2041C20.3849 10.6707 20.2616 10.9441 20.0149 11.0241C19.9016 11.0641 19.7283 11.0841 19.4949 11.0841H15.5349C15.0683 11.0841 14.7949 10.9574 14.7149 10.7041C14.6749 10.5974 14.6549 10.4274 14.6549 10.1941V4.63407C14.6549 4.29407 14.7183 4.06407 14.8449 3.94407C14.9716 3.8174 15.2116 3.75407 15.5649 3.75407H19.5049C19.6583 3.75407 19.7716 3.76073 19.8449 3.77407C19.9249 3.78073 20.0149 3.81073 20.1149 3.86407C20.2949 3.9574 20.3849 4.2174 20.3849 4.64407C20.3849 5.11073 20.2616 5.38407 20.0149 5.46407C19.9016 5.50407 19.7283 5.52407 19.4949 5.52407H16.4249V6.53407H18.4049C18.5583 6.53407 18.6716 6.54073 18.7449 6.55407C18.8249 6.56073 18.9149 6.59073 19.0149 6.64407C19.1949 6.7374 19.2849 6.9974 19.2849 7.42407C19.2849 7.89073 19.1583 8.16407 18.9049 8.24407C18.7916 8.28407 18.6183 8.30407 18.3849 8.30407H16.4249V9.31407ZM25.2519 6.66407H27.0119C27.3719 6.6774 27.5919 6.77073 27.6719 6.94407C27.7386 7.07073 27.7719 7.2574 27.7719 7.50407V9.70407C27.7719 9.9174 27.6786 10.1207 27.4919 10.3141C26.9319 10.8941 26.0919 11.1841 24.9719 11.1841C23.9786 11.1841 23.1152 10.8107 22.3819 10.0641C21.6486 9.31073 21.2819 8.40407 21.2819 7.34407C21.2819 6.28407 21.6552 5.40073 22.4019 4.69407C23.1486 3.98073 24.0286 3.62407 25.0419 3.62407C25.8286 3.62407 26.5719 3.88407 27.2719 4.40407C27.4519 4.5374 27.5419 4.6874 27.5419 4.85407C27.5419 5.01407 27.4652 5.20073 27.3119 5.41407C27.0519 5.7674 26.8152 5.94407 26.6019 5.94407C26.4752 5.94407 26.2719 5.85407 25.9919 5.67407C25.7119 5.4874 25.3786 5.39407 24.9919 5.39407C24.4852 5.39407 24.0352 5.57407 23.6419 5.93407C23.2486 6.2874 23.0519 6.75407 23.0519 7.33407C23.0519 7.9074 23.2519 8.3974 23.6519 8.80407C24.0519 9.20407 24.5052 9.40407 25.0119 9.40407C25.3786 9.40407 25.7086 9.34407 26.0019 9.22407V8.13407H25.2119C25.0052 8.13407 24.8586 8.1074 24.7719 8.05407C24.6852 8.00073 24.6286 7.92407 24.6019 7.82407C24.5752 7.7174 24.5619 7.5774 24.5619 7.40407C24.5619 7.22407 24.5752 7.08073 24.6019 6.97407C24.6352 6.8674 24.6919 6.79407 24.7719 6.75407C24.8919 6.69407 25.0519 6.66407 25.2519 6.66407ZM30.5206 9.43407C30.6339 9.5474 30.6906 9.78073 30.6906 10.1341V10.1741C30.6906 10.3341 30.6839 10.4541 30.6706 10.5341C30.6639 10.6074 30.6306 10.6974 30.5706 10.8041C30.4706 10.9974 30.2172 11.0941 29.8106 11.0941C29.4106 11.0941 29.1439 11.0307 29.0106 10.9041C28.8839 10.7774 28.8206 10.5374 28.8206 10.1841V10.1441C28.8206 9.99073 28.8239 9.87407 28.8306 9.79407C28.8439 9.71407 28.8772 9.62407 28.9306 9.52407C29.0306 9.32407 29.2806 9.22407 29.6806 9.22407C30.0872 9.22407 30.3672 9.29407 30.5206 9.43407Z" fill="white"/>
<path d="M10.1558 9.60407H10.0558V9.70407H10.1558V9.60407ZM13.3558 9.68407L13.3087 9.77243L13.3135 9.77469L13.3558 9.68407ZM13.5558 9.91407L13.6512 9.88424V9.88424L13.5558 9.91407ZM13.5558 10.7641L13.4603 10.7342V10.7342L13.5558 10.7641ZM13.3858 10.9841L13.3411 10.8946L13.3392 10.8956L13.3858 10.9841ZM8.44579 10.7041L8.54129 10.6739L8.53943 10.669L8.44579 10.7041ZM8.39579 4.29407L8.29688 4.27758L8.2962 4.28501L8.39579 4.29407ZM8.49579 4.02407L8.58404 4.07113L8.58457 4.0701L8.49579 4.02407ZM10.1058 4.12407L10.2019 4.09581L10.2001 4.09092L10.1058 4.12407ZM10.1558 9.60407V9.70407H12.8758V9.60407V9.50407H10.1558V9.60407ZM12.8758 9.60407V9.70407C13.0921 9.70407 13.2313 9.73103 13.3087 9.7723L13.3558 9.68407L13.4029 9.59583C13.2802 9.53044 13.0995 9.50407 12.8758 9.50407V9.60407ZM13.3558 9.68407L13.3135 9.77469C13.3877 9.80929 13.4353 9.86368 13.4603 9.94389L13.5558 9.91407L13.6512 9.88424C13.6096 9.75113 13.5239 9.65218 13.3981 9.59345L13.3558 9.68407ZM13.5558 9.91407L13.4603 9.94389C13.4894 10.0369 13.5058 10.1688 13.5058 10.3441H13.6058H13.7058C13.7058 10.1593 13.6889 10.0046 13.6512 9.88424L13.5558 9.91407ZM13.6058 10.3441H13.5058C13.5058 10.5122 13.4895 10.641 13.4603 10.7342L13.5558 10.7641L13.6512 10.7939C13.6888 10.6738 13.7058 10.5226 13.7058 10.3441H13.6058ZM13.5558 10.7641L13.4603 10.7342C13.433 10.8218 13.391 10.8697 13.3411 10.8946L13.3858 10.9841L13.4305 11.0735C13.5406 11.0185 13.612 10.9196 13.6512 10.7939L13.5558 10.7641ZM13.3858 10.9841L13.3392 10.8956C13.2326 10.9517 13.0775 10.9841 12.8658 10.9841V11.0841V11.1841C13.0941 11.1841 13.2857 11.1498 13.4324 11.0726L13.3858 10.9841ZM12.8658 11.0841V10.9841H9.26579V11.0841V11.1841H12.8658V11.0841ZM9.26579 11.0841V10.9841C8.80573 10.9841 8.59953 10.8588 8.54115 10.674L8.44579 10.7041L8.35044 10.7342C8.45206 11.056 8.79253 11.1841 9.26579 11.1841V11.0841ZM8.44579 10.7041L8.53943 10.669C8.50609 10.5801 8.48579 10.4253 8.48579 10.1941H8.38579H8.28579C8.28579 10.4295 8.3055 10.6147 8.35216 10.7392L8.44579 10.7041ZM8.38579 10.1941H8.48579V4.63407H8.38579H8.28579V10.1941H8.38579ZM8.38579 4.63407H8.48579C8.48579 4.48126 8.48915 4.3717 8.49538 4.30312L8.39579 4.29407L8.2962 4.28501C8.28911 4.3631 8.28579 4.48021 8.28579 4.63407H8.38579ZM8.39579 4.29407L8.49443 4.31051C8.50543 4.24453 8.53393 4.16506 8.58403 4.07113L8.49579 4.02407L8.40756 3.97701C8.35099 4.08308 8.31282 4.18361 8.29715 4.27763L8.39579 4.29407ZM8.49579 4.02407L8.58457 4.0701C8.61576 4.00994 8.67891 3.95573 8.79351 3.91607C8.90885 3.87614 9.06816 3.85407 9.27579 3.85407V3.75407V3.65407C9.05676 3.65407 8.87274 3.67699 8.72808 3.72707C8.58268 3.7774 8.46916 3.85819 8.40702 3.97804L8.49579 4.02407ZM9.27579 3.75407V3.85407C9.73648 3.85407 9.94798 3.97658 10.0114 4.15722L10.1058 4.12407L10.2001 4.09092C10.0903 3.77822 9.74844 3.65407 9.27579 3.65407V3.75407ZM10.1058 4.12407L10.0099 4.15228C10.039 4.25136 10.0558 4.41289 10.0558 4.64407H10.1558H10.2558C10.2558 4.40857 10.2393 4.22344 10.2017 4.09585L10.1058 4.12407ZM10.1558 4.64407H10.0558V9.60407H10.1558H10.2558V4.64407H10.1558ZM16.4249 9.31407H16.3249V9.41407H16.4249V9.31407ZM19.8449 9.33407L19.827 9.43292L19.8366 9.43372L19.8449 9.33407ZM20.1149 9.42407L20.0679 9.51231L20.0689 9.51284L20.1149 9.42407ZM20.0149 11.0241L19.9841 10.9289L19.9817 10.9298L20.0149 11.0241ZM14.7149 10.7041L14.8104 10.6739L14.8086 10.669L14.7149 10.7041ZM14.8449 3.94407L14.9137 4.01669L14.9156 4.01478L14.8449 3.94407ZM19.8449 3.77407L19.827 3.87292L19.8366 3.87372L19.8449 3.77407ZM20.1149 3.86407L20.0679 3.95231L20.0689 3.95284L20.1149 3.86407ZM20.0149 5.46407L19.9841 5.36891L19.9817 5.36977L20.0149 5.46407ZM16.4249 5.52407V5.42407H16.3249V5.52407H16.4249ZM16.4249 6.53407H16.3249V6.63407H16.4249V6.53407ZM18.7449 6.55407L18.727 6.65292L18.7366 6.65372L18.7449 6.55407ZM19.0149 6.64407L18.9679 6.73231L18.9689 6.73284L19.0149 6.64407ZM18.9049 8.24407L18.8748 8.14866L18.8717 8.14977L18.9049 8.24407ZM16.4249 8.30407V8.20407H16.3249V8.30407H16.4249ZM16.4249 9.31407V9.41407H19.5049V9.31407V9.21407H16.4249V9.31407ZM19.5049 9.31407V9.41407C19.6572 9.41407 19.763 9.42081 19.827 9.43245L19.8449 9.33407L19.8628 9.23568C19.7802 9.22066 19.6594 9.21407 19.5049 9.21407V9.31407ZM19.8449 9.33407L19.8366 9.43372C19.8987 9.43889 19.9753 9.46293 20.0679 9.5123L20.1149 9.42407L20.162 9.33583C20.0546 9.27854 19.9512 9.24257 19.8532 9.23441L19.8449 9.33407ZM20.1149 9.42407L20.0689 9.51284C20.1291 9.54403 20.1833 9.60718 20.2229 9.72178C20.2629 9.83712 20.2849 9.99643 20.2849 10.2041H20.3849H20.4849C20.4849 9.98504 20.462 9.80101 20.4119 9.65636C20.3616 9.51095 20.2808 9.39743 20.161 9.33529L20.1149 9.42407ZM20.3849 10.2041H20.2849C20.2849 10.6656 20.1622 10.8712 19.9841 10.9289L20.0149 11.0241L20.0458 11.1192C20.3611 11.0169 20.4849 10.6758 20.4849 10.2041H20.3849ZM20.0149 11.0241L19.9817 10.9298C19.8849 10.9639 19.7255 10.9841 19.4949 10.9841V11.0841V11.1841C19.731 11.1841 19.9183 11.1642 20.0482 11.1184L20.0149 11.0241ZM19.4949 11.0841V10.9841H15.5349V11.0841V11.1841H19.4949V11.0841ZM15.5349 11.0841V10.9841C15.0749 10.9841 14.8687 10.8588 14.8103 10.674L14.7149 10.7041L14.6196 10.7342C14.7212 11.056 15.0617 11.1841 15.5349 11.1841V11.0841ZM14.7149 10.7041L14.8086 10.669C14.7752 10.5801 14.7549 10.4253 14.7549 10.1941H14.6549H14.5549C14.5549 10.4295 14.5746 10.6147 14.6213 10.7392L14.7149 10.7041ZM14.6549 10.1941H14.7549V4.63407H14.6549H14.5549V10.1941H14.6549ZM14.6549 4.63407H14.7549C14.7549 4.29845 14.8191 4.10628 14.9137 4.01666L14.8449 3.94407L14.7762 3.87147C14.6174 4.02185 14.5549 4.28969 14.5549 4.63407H14.6549ZM14.8449 3.94407L14.9156 4.01478C15.0121 3.91834 15.2156 3.85407 15.5649 3.85407V3.75407V3.65407C15.2076 3.65407 14.9311 3.71646 14.7742 3.87336L14.8449 3.94407ZM15.5649 3.75407V3.85407H19.5049V3.75407V3.65407H15.5649V3.75407ZM19.5049 3.75407V3.85407C19.6572 3.85407 19.763 3.86081 19.827 3.87245L19.8449 3.77407L19.8628 3.67568C19.7802 3.66066 19.6594 3.65407 19.5049 3.65407V3.75407ZM19.8449 3.77407L19.8366 3.87372C19.8987 3.87889 19.9753 3.90293 20.0679 3.9523L20.1149 3.86407L20.162 3.77583C20.0546 3.71854 19.9512 3.68257 19.8532 3.67441L19.8449 3.77407ZM20.1149 3.86407L20.0689 3.95284C20.1291 3.98403 20.1833 4.04718 20.2229 4.16178C20.2629 4.27712 20.2849 4.43643 20.2849 4.64407H20.3849H20.4849C20.4849 4.42504 20.462 4.24101 20.4119 4.09636C20.3616 3.95095 20.2808 3.83743 20.161 3.77529L20.1149 3.86407ZM20.3849 4.64407H20.2849C20.2849 5.10564 20.1622 5.31119 19.9841 5.36894L20.0149 5.46407L20.0458 5.55919C20.3611 5.45694 20.4849 5.11583 20.4849 4.64407H20.3849ZM20.0149 5.46407L19.9817 5.36977C19.8849 5.40392 19.7255 5.42407 19.4949 5.42407V5.52407V5.62407C19.731 5.62407 19.9183 5.60421 20.0482 5.55837L20.0149 5.46407ZM19.4949 5.52407V5.42407H16.4249V5.52407V5.62407H19.4949V5.52407ZM16.4249 5.52407H16.3249V6.53407H16.4249H16.5249V5.52407H16.4249ZM16.4249 6.53407V6.63407H18.4049V6.53407V6.43407H16.4249V6.53407ZM18.4049 6.53407V6.63407C18.5572 6.63407 18.663 6.64081 18.727 6.65245L18.7449 6.55407L18.7628 6.45568C18.6802 6.44066 18.5594 6.43407 18.4049 6.43407V6.53407ZM18.7449 6.55407L18.7366 6.65372C18.7987 6.65889 18.8753 6.68293 18.9679 6.7323L19.0149 6.64407L19.062 6.55583C18.9546 6.49854 18.8512 6.46257 18.7532 6.45441L18.7449 6.55407ZM19.0149 6.64407L18.9689 6.73284C19.0291 6.76403 19.0833 6.82718 19.1229 6.94178C19.1629 7.05712 19.1849 7.21643 19.1849 7.42407H19.2849H19.3849C19.3849 7.20504 19.362 7.02101 19.3119 6.87636C19.2616 6.73095 19.1808 6.61743 19.061 6.55529L19.0149 6.64407ZM19.2849 7.42407H19.1849C19.1849 7.88413 19.0597 8.09033 18.8748 8.14871L18.9049 8.24407L18.935 8.33943C19.2568 8.2378 19.3849 7.89733 19.3849 7.42407H19.2849ZM18.9049 8.24407L18.8717 8.14977C18.7749 8.18392 18.6155 8.20407 18.3849 8.20407V8.30407V8.40407C18.621 8.40407 18.8083 8.38421 18.9382 8.33837L18.9049 8.24407ZM18.3849 8.30407V8.20407H16.4249V8.30407V8.40407H18.3849V8.30407ZM16.4249 8.30407H16.3249V9.31407H16.4249H16.5249V8.30407H16.4249ZM27.0119 6.66407L27.0156 6.56407H27.0119V6.66407ZM27.6719 6.94407L27.581 6.98603L27.5834 6.99064L27.6719 6.94407ZM27.4919 10.3141L27.4199 10.2446V10.2446L27.4919 10.3141ZM22.3819 10.0641L22.3102 10.1338L22.3105 10.1341L22.3819 10.0641ZM22.4019 4.69407L22.4706 4.7667L22.471 4.76637L22.4019 4.69407ZM27.2719 4.40407L27.2123 4.48434L27.2124 4.48442L27.2719 4.40407ZM27.3119 5.41407L27.3924 5.47334L27.3931 5.47243L27.3119 5.41407ZM25.9919 5.67407L25.9364 5.75728L25.9378 5.75818L25.9919 5.67407ZM23.6419 5.93407L23.7087 6.00846L23.7094 6.00783L23.6419 5.93407ZM23.6519 8.80407L23.5806 8.87419L23.5812 8.87478L23.6519 8.80407ZM26.0019 9.22407L26.0398 9.31662L26.1019 9.2912V9.22407H26.0019ZM26.0019 8.13407H26.1019V8.03407H26.0019V8.13407ZM24.7719 8.05407L24.7195 8.13923V8.13923L24.7719 8.05407ZM24.6019 7.82407L24.5049 7.84832L24.5053 7.84983L24.6019 7.82407ZM24.6019 6.97407L24.5063 6.94419L24.5049 6.94981L24.6019 6.97407ZM24.7719 6.75407L24.7272 6.66462V6.66462L24.7719 6.75407ZM25.2519 6.66407V6.76407H27.0119V6.66407V6.56407H25.2519V6.66407ZM27.0119 6.66407L27.0082 6.764C27.3639 6.77717 27.5272 6.86917 27.5811 6.98597L27.6719 6.94407L27.7627 6.90216C27.6566 6.6723 27.3798 6.57763 27.0156 6.56414L27.0119 6.66407ZM27.6719 6.94407L27.5834 6.99064C27.6389 7.09604 27.6719 7.26344 27.6719 7.50407H27.7719H27.8719C27.8719 7.25136 27.8382 7.04542 27.7604 6.89749L27.6719 6.94407ZM27.7719 7.50407H27.6719V9.70407H27.7719H27.8719V7.50407H27.7719ZM27.7719 9.70407H27.6719C27.6719 9.8852 27.5935 10.0648 27.4199 10.2446L27.4919 10.3141L27.5638 10.3835C27.7636 10.1766 27.8719 9.9496 27.8719 9.70407H27.7719ZM27.4919 10.3141L27.4199 10.2446C26.8852 10.7985 26.0756 11.0841 24.9719 11.0841V11.1841V11.2841C26.1082 11.2841 26.9786 10.9896 27.5638 10.3835L27.4919 10.3141ZM24.9719 11.1841V11.0841C24.007 11.0841 23.1689 10.7227 22.4532 9.994L22.3819 10.0641L22.3105 10.1341C23.0616 10.8988 23.9502 11.2841 24.9719 11.2841V11.1841ZM22.3819 10.0641L22.4535 9.99431C21.7386 9.25982 21.3819 8.37825 21.3819 7.34407H21.2819H21.1819C21.1819 8.42988 21.5586 9.36164 22.3102 10.1338L22.3819 10.0641ZM21.2819 7.34407H21.3819C21.3819 6.31058 21.7446 5.45382 22.4706 4.7667L22.4019 4.69407L22.3332 4.62144C21.5658 5.34764 21.1819 6.25755 21.1819 7.34407H21.2819ZM22.4019 4.69407L22.471 4.76637C23.1994 4.07044 24.0548 3.72407 25.0419 3.72407V3.62407V3.52407C24.0023 3.52407 23.0977 3.89103 22.3328 4.62176L22.4019 4.69407ZM25.0419 3.62407V3.72407C25.8047 3.72407 26.5275 3.97569 27.2123 4.48434L27.2719 4.40407L27.3315 4.32379C26.6162 3.79245 25.8524 3.52407 25.0419 3.52407V3.62407ZM27.2719 4.40407L27.2124 4.48442C27.3764 4.60593 27.4419 4.72929 27.4419 4.85407H27.5419H27.6419C27.6419 4.64551 27.5274 4.46887 27.3314 4.32371L27.2719 4.40407ZM27.5419 4.85407H27.4419C27.4419 4.98352 27.379 5.14942 27.2307 5.3557L27.3119 5.41407L27.3931 5.47243C27.5515 5.25204 27.6419 5.04461 27.6419 4.85407H27.5419ZM27.3119 5.41407L27.2313 5.3548C27.1046 5.52699 26.9872 5.65111 26.8796 5.73143C26.772 5.81172 26.6801 5.84407 26.6019 5.84407V5.94407V6.04407C26.737 6.04407 26.8701 5.98808 26.9992 5.8917C27.1283 5.79536 27.2591 5.65448 27.3924 5.47334L27.3119 5.41407ZM26.6019 5.94407V5.84407C26.5593 5.84407 26.492 5.82811 26.3949 5.78512C26.2996 5.74296 26.1835 5.67839 26.046 5.58995L25.9919 5.67407L25.9378 5.75818C26.0802 5.84975 26.2058 5.92017 26.3139 5.96801C26.4201 6.01502 26.5178 6.04407 26.6019 6.04407V5.94407ZM25.9919 5.67407L26.0474 5.59086C25.7486 5.39168 25.3953 5.29407 24.9919 5.29407V5.39407V5.49407C25.3618 5.49407 25.6752 5.58312 25.9364 5.75727L25.9919 5.67407ZM24.9919 5.39407V5.29407C24.4588 5.29407 23.9851 5.4844 23.5744 5.8603L23.6419 5.93407L23.7094 6.00783C24.0854 5.66374 24.5116 5.49407 24.9919 5.49407V5.39407ZM23.6419 5.93407L23.5751 5.85967C23.1584 6.23394 22.9519 6.72877 22.9519 7.33407H23.0519H23.1519C23.1519 6.77937 23.3387 6.34086 23.7087 6.00846L23.6419 5.93407ZM23.0519 7.33407H22.9519C22.9519 7.93349 23.1621 8.44871 23.5806 8.87419L23.6519 8.80407L23.7232 8.73394C23.3417 8.34609 23.1519 7.88132 23.1519 7.33407H23.0519ZM23.6519 8.80407L23.5812 8.87478C23.9975 9.29114 24.4755 9.50407 25.0119 9.50407V9.40407V9.30407C24.5349 9.30407 24.1062 9.11699 23.7226 8.73336L23.6519 8.80407ZM25.0119 9.40407V9.50407C25.3895 9.50407 25.7327 9.44225 26.0398 9.31662L26.0019 9.22407L25.964 9.13151C25.6844 9.24589 25.3676 9.30407 25.0119 9.30407V9.40407ZM26.0019 9.22407H26.1019V8.13407H26.0019H25.9019V9.22407H26.0019ZM26.0019 8.13407V8.03407H25.2119V8.13407V8.23407H26.0019V8.13407ZM25.2119 8.13407V8.03407C25.0082 8.03407 24.8858 8.00676 24.8243 7.9689L24.7719 8.05407L24.7195 8.13923C24.8313 8.20804 25.0022 8.23407 25.2119 8.23407V8.13407ZM24.7719 8.05407L24.8243 7.9689C24.7598 7.92923 24.7187 7.87404 24.6985 7.7983L24.6019 7.82407L24.5053 7.84983C24.5384 7.97409 24.6106 8.07223 24.7195 8.13923L24.7719 8.05407ZM24.6019 7.82407L24.6989 7.79981C24.675 7.70427 24.6619 7.57334 24.6619 7.40407H24.5619H24.4619C24.4619 7.58146 24.4754 7.73054 24.5049 7.84832L24.6019 7.82407ZM24.5619 7.40407H24.6619C24.6619 7.22777 24.6751 7.09365 24.6989 6.99832L24.6019 6.97407L24.5049 6.94981C24.4754 7.06782 24.4619 7.22037 24.4619 7.40407H24.5619ZM24.6019 6.97407L24.6973 7.00389C24.7247 6.91629 24.7667 6.86847 24.8166 6.84351L24.7719 6.75407L24.7272 6.66462C24.6171 6.71966 24.5457 6.81851 24.5064 6.94424L24.6019 6.97407ZM24.7719 6.75407L24.8166 6.84351C24.9176 6.79302 25.0604 6.76407 25.2519 6.76407V6.66407V6.56407C25.0434 6.56407 24.8662 6.59512 24.7272 6.66462L24.7719 6.75407ZM30.5206 9.43407L30.5913 9.36328L30.588 9.36022L30.5206 9.43407ZM30.6706 10.5341L30.5717 10.5176L30.571 10.525L30.6706 10.5341ZM30.5706 10.8041L30.4834 10.755L30.4817 10.7581L30.5706 10.8041ZM29.0106 10.9041L28.9398 10.9748L28.9417 10.9766L29.0106 10.9041ZM28.8306 9.79407L28.7316 9.77757L28.7309 9.78576L28.8306 9.79407ZM28.9306 9.52407L29.0188 9.57114L29.02 9.56879L28.9306 9.52407ZM30.5206 9.43407L30.4499 9.50478C30.4886 9.54354 30.5249 9.61057 30.5509 9.71767C30.5767 9.82391 30.5906 9.96199 30.5906 10.1341H30.6906H30.7906C30.7906 9.95281 30.7761 9.79756 30.7452 9.67047C30.7146 9.54423 30.6658 9.43793 30.5913 9.36336L30.5206 9.43407ZM30.6906 10.1341H30.5906V10.1741H30.6906H30.7906V10.1341H30.6906ZM30.6906 10.1741H30.5906C30.5906 10.3328 30.5839 10.446 30.5719 10.5176L30.6706 10.5341L30.7692 10.5505C30.7839 10.4621 30.7906 10.3354 30.7906 10.1741H30.6906ZM30.6706 10.5341L30.571 10.525C30.5662 10.578 30.5405 10.6536 30.4834 10.755L30.5706 10.8041L30.6577 10.8531C30.7206 10.7412 30.7616 10.6368 30.7702 10.5431L30.6706 10.5341ZM30.5706 10.8041L30.4817 10.7581C30.41 10.8969 30.2124 10.9941 29.8106 10.9941V11.0941V11.1941C30.2221 11.1941 30.5312 11.0979 30.6594 10.85L30.5706 10.8041ZM29.8106 11.0941V10.9941C29.6151 10.9941 29.4568 10.9785 29.3337 10.9493C29.2097 10.9198 29.1285 10.8782 29.0794 10.8316L29.0106 10.9041L28.9417 10.9766C29.0259 11.0566 29.1448 11.11 29.2875 11.1439C29.431 11.1779 29.606 11.1941 29.8106 11.1941V11.0941ZM29.0106 10.9041L29.0813 10.8334C28.9848 10.7369 28.9206 10.5334 28.9206 10.1841H28.8206H28.7206C28.7206 10.5414 28.783 10.8179 28.9399 10.9748L29.0106 10.9041ZM28.8206 10.1841H28.9206V10.1441H28.8206H28.7206V10.1841H28.8206ZM28.8206 10.1441H28.9206C28.9206 9.9915 28.9239 9.87815 28.9302 9.80237L28.8306 9.79407L28.7309 9.78576C28.7239 9.86998 28.7206 9.98997 28.7206 10.1441H28.8206ZM28.8306 9.79407L28.9292 9.81051C28.9402 9.74453 28.9687 9.66506 29.0188 9.57113L28.9306 9.52407L28.8423 9.47701C28.7858 9.58308 28.7476 9.68361 28.7319 9.77763L28.8306 9.79407ZM28.9306 9.52407L29.02 9.56879C29.0927 9.42342 29.2877 9.32407 29.6806 9.32407V9.22407V9.12407C29.2735 9.12407 28.9684 9.22471 28.8411 9.47935L28.9306 9.52407ZM29.6806 9.22407V9.32407C30.083 9.32407 30.3293 9.39482 30.4531 9.50792L30.5206 9.43407L30.588 9.36022C30.4052 9.19331 30.0915 9.12407 29.6806 9.12407V9.22407Z" fill="#3B3B3B"/>
<defs>
<filter id="filter0_d_195_285" x="0" y="0" width="38.4019" height="18.8945" filterUnits="userSpaceOnUse" color-interpolation-filters="sRGB">
<feFlood flood-opacity="0" result="BackgroundImageFix"/>
<feColorMatrix in="SourceAlpha" type="matrix" values="0 0 0 0 0 0 0 0 0 0 0 0 0 0 0 0 0 0 127 0" result="hardAlpha"/>
<feOffset dy="2"/>
<feGaussianBlur stdDeviation="1"/>
<feComposite in2="hardAlpha" operator="out"/>
<feColorMatrix type="matrix" values="0 0 0 0 0 0 0 0 0 0 0 0 0 0 0 0 0 0 0.5 0"/>
<feBlend mode="normal" in2="BackgroundImageFix" result="effect1_dropShadow_195_285"/>
<feBlend mode="normal" in="SourceGraphic" in2="effect1_dropShadow_195_285" result="shape"/>
</filter>
<linearGradient id="paint0_linear_195_285" x1="18.6704" y1="-4.58978e-08" x2="18.6704" y2="14.8946" gradientUnits="userSpaceOnUse">
<stop stop-color="#FEFCC4"/>
<stop offset="0.225962" stop-color="#FFC802"/>
</linearGradient>
<linearGradient id="paint1_linear_195_285" x1="20.6407" y1="1.6925" x2="20.6407" y2="13.202" gradientUnits="userSpaceOnUse">
<stop stop-color="#FFE77C"/>
<stop offset="1" stop-color="#FFDD00"/>
</linearGradient>
</defs>
</svg>
