<svg width="21" height="21" viewBox="0 0 21 21" fill="none" xmlns="http://www.w3.org/2000/svg">
<path d="M7.35337 3.60801C8.62037 1.33601 9.25337 0.200012 10.2004 0.200012C11.1474 0.200012 11.7804 1.33601 13.0474 3.60801L13.3754 4.19601C13.7354 4.84201 13.9154 5.16501 14.1954 5.37801C14.4754 5.59101 14.8254 5.67001 15.5254 5.82801L16.1614 5.97201C18.6214 6.52901 19.8504 6.80701 20.1434 7.74801C20.4354 8.68801 19.5974 9.66901 17.9204 11.63L17.4864 12.137C17.0104 12.694 16.7714 12.973 16.6644 13.317C16.5574 13.662 16.5934 14.034 16.6654 14.777L16.7314 15.454C16.9844 18.071 17.1114 19.379 16.3454 19.96C15.5794 20.541 14.4274 20.011 12.1254 18.951L11.5284 18.677C10.8744 18.375 10.5474 18.225 10.2004 18.225C9.85337 18.225 9.52637 18.375 8.87237 18.677L8.27637 18.951C5.97337 20.011 4.82137 20.541 4.05637 19.961C3.28937 19.379 3.41637 18.071 3.66937 15.454L3.73537 14.778C3.80737 14.034 3.84337 13.662 3.73537 13.318C3.62937 12.973 3.39037 12.694 2.91437 12.138L2.48037 11.63C0.80337 9.67001 -0.0346307 8.68901 0.257369 7.74801C0.549369 6.80701 1.78037 6.52801 4.24037 5.97201L4.87637 5.82801C5.57537 5.67001 5.92437 5.59101 6.20537 5.37801C6.48637 5.16501 6.66537 4.84201 7.02537 4.19601L7.35337 3.60801Z" fill="#FDAD42" stroke="black" stroke-width="0.4"/>
</svg>
