<svg width="32" height="31" viewBox="0 0 32 31" fill="none" xmlns="http://www.w3.org/2000/svg">
<rect x="10.1" y="3.1" width="12.8" height="20.8" fill="white" stroke="#FFF870" stroke-width="0.2"/>
<path d="M15.5557 0.0996094C23.9552 0.0996597 30.7942 5.9846 30.96 13.2627L30.9629 13.6104C30.9486 15.2826 30.5991 16.9352 29.9365 18.4707C29.2739 20.0062 28.3113 21.394 27.1045 22.5518L27.0732 22.5811V29.167C27.0729 29.3233 27.0311 29.477 26.9512 29.6113C26.8712 29.7456 26.7564 29.8558 26.6191 29.9307C26.4818 30.0056 26.3263 30.0427 26.1699 30.0371C26.0528 30.0329 25.9385 30.0043 25.833 29.9551L25.7305 29.8994L20.3535 26.4766L20.3154 26.4531L20.2725 26.4648C18.7377 26.8991 17.1506 27.1202 15.5557 27.1221C7.023 27.1221 0.0997441 21.0494 0.0996094 13.6113C0.0996094 6.17314 7.02292 0.0996094 15.5557 0.0996094ZM16.6201 19.7236C16.2697 19.5785 15.8838 19.5403 15.5117 19.6143C15.1398 19.6883 14.7985 19.8715 14.5303 20.1396C14.262 20.4079 14.0789 20.75 14.0049 21.1221C13.931 21.4939 13.9692 21.8792 14.1143 22.2295C14.2594 22.58 14.5049 22.8801 14.8203 23.0908C15.1356 23.3015 15.5065 23.414 15.8857 23.4141H15.9863V23.3984C16.4567 23.3738 16.9027 23.1795 17.2383 22.8457C17.5977 22.4882 17.801 22.003 17.8037 21.4961L17.7988 21.3545C17.7745 21.025 17.6649 20.7068 17.4805 20.4307C17.2697 20.1152 16.9706 19.8688 16.6201 19.7236ZM15.8809 4.85938C15.6775 4.85943 15.4763 4.90167 15.29 4.9834C15.1038 5.06519 14.9365 5.18524 14.7988 5.33496C14.6611 5.48485 14.5551 5.66186 14.4893 5.85449C14.4242 6.04462 14.4002 6.24604 14.416 6.44629H14.415V15.9443H14.416C14.4002 16.1445 14.4243 16.3461 14.4893 16.5361C14.5551 16.7287 14.6611 16.9049 14.7988 17.0547C14.9366 17.2046 15.1036 17.3244 15.29 17.4062C15.4763 17.488 15.6774 17.5302 15.8809 17.5303C16.0844 17.5303 16.2863 17.4881 16.4727 17.4062C16.659 17.3244 16.8261 17.2045 16.9639 17.0547C17.1015 16.9049 17.2076 16.7286 17.2734 16.5361C17.3384 16.3461 17.3624 16.1445 17.3467 15.9443H17.3477V6.44629H17.3467C17.3625 6.24606 17.3384 6.0446 17.2734 5.85449C17.2076 5.66186 17.1016 5.48485 16.9639 5.33496C16.8261 5.18519 16.659 5.0652 16.4727 4.9834C16.2863 4.90157 16.0844 4.85938 15.8809 4.85938Z" fill="#FF0000" stroke="#FFF870" stroke-width="0.2"/>
</svg>
