<svg width="39" height="19" viewBox="0 0 39 19" fill="none" xmlns="http://www.w3.org/2000/svg">
<g filter="url(#filter0_d_195_269)">
<rect x="2" width="34.4017" height="14.8946" rx="7.4473" fill="url(#paint0_linear_195_269)"/>
<rect x="2.1" y="0.1" width="34.2017" height="14.6946" rx="7.3473" stroke="black" stroke-width="0.2"/>
</g>
<rect x="2.95781" y="1.8925" width="32.3347" height="11.1095" rx="5.55473" fill="url(#paint1_linear_195_269)" stroke="white" stroke-width="0.4"/>
<path d="M11.5544 9.84407C11.6544 10.0841 11.7044 10.2574 11.7044 10.3641C11.7044 10.6174 11.4977 10.8307 11.0844 11.0041C10.8711 11.0974 10.6977 11.1441 10.5644 11.1441C10.4377 11.1441 10.3311 11.1141 10.2444 11.0541C10.1644 10.9874 10.1044 10.9207 10.0644 10.8541C9.99772 10.7274 9.73772 10.1241 9.28439 9.04407L8.97439 9.06407H7.71439V10.1941C7.71439 10.3474 7.70772 10.4641 7.69439 10.5441C7.68772 10.6174 7.65772 10.7041 7.60439 10.8041C7.51105 10.9841 7.25105 11.0741 6.82439 11.0741C6.35772 11.0741 6.08439 10.9507 6.00439 10.7041C5.96439 10.5907 5.94439 10.4174 5.94439 10.1841V4.63407C5.94439 4.48073 5.94772 4.3674 5.95439 4.29407C5.96772 4.21407 6.00105 4.12407 6.05439 4.02407C6.14772 3.84407 6.40772 3.75407 6.83439 3.75407H8.99439C9.58105 3.75407 10.1511 3.9674 10.7044 4.39407C10.9711 4.60073 11.1911 4.88073 11.3644 5.23407C11.5377 5.5874 11.6244 5.98073 11.6244 6.41407C11.6244 7.1674 11.3744 7.7874 10.8744 8.27407C11.0211 8.6274 11.2477 9.15073 11.5544 9.84407ZM7.71439 7.29407H8.99439C9.18772 7.29407 9.38105 7.22073 9.57439 7.07407C9.76772 6.9274 9.86439 6.7074 9.86439 6.41407C9.86439 6.12073 9.76772 5.90073 9.57439 5.75407C9.38105 5.60073 9.18105 5.52407 8.97439 5.52407H7.71439V7.29407ZM16.883 4.27407L19.583 9.85407C19.6963 10.0807 19.753 10.2507 19.753 10.3641C19.753 10.6041 19.5597 10.8207 19.173 11.0141C18.9463 11.1274 18.7663 11.1841 18.633 11.1841C18.5063 11.1841 18.3996 11.1541 18.313 11.0941C18.233 11.0341 18.173 10.9707 18.133 10.9041C18.0996 10.8374 18.0496 10.7374 17.983 10.6041L17.463 9.52407H14.693L14.173 10.6041C14.1063 10.7374 14.053 10.8341 14.013 10.8941C13.9796 10.9541 13.9196 11.0174 13.833 11.0841C13.753 11.1441 13.6463 11.1741 13.513 11.1741C13.3863 11.1741 13.2096 11.1174 12.983 11.0041C12.5963 10.8174 12.403 10.6041 12.403 10.3641C12.403 10.2507 12.4596 10.0807 12.573 9.85407L15.273 4.26407C15.3463 4.11073 15.4563 3.9874 15.603 3.89407C15.7563 3.80073 15.9163 3.75407 16.083 3.75407C16.443 3.75407 16.7096 3.9274 16.883 4.27407ZM16.073 6.67407L15.413 8.04407H16.743L16.073 6.67407ZM26.3095 9.84407C26.4095 10.0841 26.4595 10.2574 26.4595 10.3641C26.4595 10.6174 26.2528 10.8307 25.8395 11.0041C25.6261 11.0974 25.4528 11.1441 25.3195 11.1441C25.1928 11.1441 25.0861 11.1141 24.9995 11.0541C24.9195 10.9874 24.8595 10.9207 24.8195 10.8541C24.7528 10.7274 24.4928 10.1241 24.0395 9.04407L23.7295 9.06407H22.4695V10.1941C22.4695 10.3474 22.4628 10.4641 22.4495 10.5441C22.4428 10.6174 22.4128 10.7041 22.3595 10.8041C22.2661 10.9841 22.0061 11.0741 21.5795 11.0741C21.1128 11.0741 20.8395 10.9507 20.7595 10.7041C20.7195 10.5907 20.6995 10.4174 20.6995 10.1841V4.63407C20.6995 4.48073 20.7028 4.3674 20.7095 4.29407C20.7228 4.21407 20.7561 4.12407 20.8095 4.02407C20.9028 3.84407 21.1628 3.75407 21.5895 3.75407H23.7495C24.3361 3.75407 24.9061 3.9674 25.4595 4.39407C25.7261 4.60073 25.9461 4.88073 26.1195 5.23407C26.2928 5.5874 26.3795 5.98073 26.3795 6.41407C26.3795 7.1674 26.1295 7.7874 25.6295 8.27407C25.7761 8.6274 26.0028 9.15073 26.3095 9.84407ZM22.4695 7.29407H23.7495C23.9428 7.29407 24.1361 7.22073 24.3295 7.07407C24.5228 6.9274 24.6195 6.7074 24.6195 6.41407C24.6195 6.12073 24.5228 5.90073 24.3295 5.75407C24.1361 5.60073 23.9361 5.52407 23.7295 5.52407H22.4695V7.29407ZM29.1781 9.31407H32.2581C32.4114 9.31407 32.5247 9.32073 32.5981 9.33407C32.6781 9.34073 32.7681 9.37073 32.8681 9.42407C33.0481 9.5174 33.1381 9.7774 33.1381 10.2041C33.1381 10.6707 33.0147 10.9441 32.7681 11.0241C32.6547 11.0641 32.4814 11.0841 32.2481 11.0841H28.2881C27.8214 11.0841 27.5481 10.9574 27.4681 10.7041C27.4281 10.5974 27.4081 10.4274 27.4081 10.1941V4.63407C27.4081 4.29407 27.4714 4.06407 27.5981 3.94407C27.7247 3.8174 27.9647 3.75407 28.3181 3.75407H32.2581C32.4114 3.75407 32.5247 3.76073 32.5981 3.77407C32.6781 3.78073 32.7681 3.81073 32.8681 3.86407C33.0481 3.9574 33.1381 4.2174 33.1381 4.64407C33.1381 5.11073 33.0147 5.38407 32.7681 5.46407C32.6547 5.50407 32.4814 5.52407 32.2481 5.52407H29.1781V6.53407H31.1581C31.3114 6.53407 31.4247 6.54073 31.4981 6.55407C31.5781 6.56073 31.6681 6.59073 31.7681 6.64407C31.9481 6.7374 32.0381 6.9974 32.0381 7.42407C32.0381 7.89073 31.9114 8.16407 31.6581 8.24407C31.5447 8.28407 31.3714 8.30407 31.1381 8.30407H29.1781V9.31407Z" fill="white"/>
<path d="M11.5544 9.84407L11.6467 9.8056L11.6458 9.80362L11.5544 9.84407ZM11.0844 11.0041L11.0457 10.9118L11.0443 10.9125L11.0844 11.0041ZM10.2444 11.0541L10.1801 11.1312L10.1875 11.1363L10.2444 11.0541ZM10.0644 10.8541L9.97576 10.9007L9.97864 10.9055L10.0644 10.8541ZM9.28439 9.04407L9.37659 9.00536L9.34903 8.93969L9.27795 8.94427L9.28439 9.04407ZM8.97439 9.06407V9.16428L8.98083 9.16386L8.97439 9.06407ZM7.71439 9.06407V8.96407H7.61439V9.06407H7.71439ZM7.69439 10.5441L7.59547 10.5276L7.5948 10.535L7.69439 10.5441ZM7.60439 10.8041L7.51615 10.757L7.51561 10.758L7.60439 10.8041ZM6.00439 10.7041L6.09954 10.6732L6.09869 10.6708L6.00439 10.7041ZM5.95439 4.29407L5.85547 4.27758L5.8548 4.28501L5.95439 4.29407ZM6.05439 4.02407L6.14263 4.07113L6.14316 4.0701L6.05439 4.02407ZM10.7044 4.39407L10.7656 4.31503L10.7655 4.31488L10.7044 4.39407ZM11.3644 5.23407L11.2746 5.27811V5.27811L11.3644 5.23407ZM10.8744 8.27407L10.8046 8.20241L10.756 8.24974L10.782 8.3124L10.8744 8.27407ZM7.71439 7.29407H7.61439V7.39407H7.71439V7.29407ZM9.57439 7.07407L9.51395 6.9944V6.9944L9.57439 7.07407ZM9.57439 5.75407L9.51223 5.83243L9.51395 5.83374L9.57439 5.75407ZM7.71439 5.52407V5.42407H7.61439V5.52407H7.71439ZM11.5544 9.84407L11.4621 9.88253C11.5623 10.123 11.6044 10.2796 11.6044 10.3641H11.7044H11.8044C11.8044 10.2352 11.7465 10.0451 11.6467 9.80561L11.5544 9.84407ZM11.7044 10.3641H11.6044C11.6044 10.552 11.4524 10.7413 11.0457 10.9118L11.0844 11.0041L11.1231 11.0963C11.543 10.9202 11.8044 10.6828 11.8044 10.3641H11.7044ZM11.0844 11.0041L11.0443 10.9125C10.8356 11.0038 10.6772 11.0441 10.5644 11.0441V11.1441V11.2441C10.7182 11.2441 10.9065 11.191 11.1245 11.0957L11.0844 11.0041ZM10.5644 11.1441V11.0441C10.4539 11.0441 10.3681 11.0181 10.3013 10.9718L10.2444 11.0541L10.1875 11.1363C10.294 11.21 10.4216 11.2441 10.5644 11.2441V11.1441ZM10.2444 11.0541L10.3084 10.9772C10.2343 10.9155 10.1828 10.857 10.1501 10.8026L10.0644 10.8541L9.97864 10.9055C10.026 10.9844 10.0945 11.0593 10.1804 11.1309L10.2444 11.0541ZM10.0644 10.8541L10.1529 10.8075C10.0889 10.6858 9.83125 10.0885 9.37659 9.00536L9.28439 9.04407L9.19218 9.08277C9.64419 10.1596 9.90659 10.769 9.9759 10.9006L10.0644 10.8541ZM9.28439 9.04407L9.27795 8.94427L8.96795 8.96427L8.97439 9.06407L8.98083 9.16386L9.29083 9.14386L9.28439 9.04407ZM8.97439 9.06407V8.96407H7.71439V9.06407V9.16407H8.97439V9.06407ZM7.71439 9.06407H7.61439V10.1941H7.71439H7.81439V9.06407H7.71439ZM7.71439 10.1941H7.61439C7.61439 10.3458 7.6077 10.4559 7.59575 10.5276L7.69439 10.5441L7.79303 10.5605C7.80774 10.4722 7.81439 10.349 7.81439 10.1941H7.71439ZM7.69439 10.5441L7.5948 10.535C7.58981 10.5898 7.56624 10.6631 7.51615 10.757L7.60439 10.8041L7.69262 10.8511C7.7492 10.745 7.78563 10.645 7.79398 10.5531L7.69439 10.5441ZM7.60439 10.8041L7.51561 10.758C7.48442 10.8182 7.42127 10.8724 7.30668 10.9121C7.19133 10.952 7.03202 10.9741 6.82439 10.9741V11.0741V11.1741C7.04342 11.1741 7.22744 11.1511 7.3721 11.1011C7.5175 11.0507 7.63102 10.9699 7.69316 10.8501L7.60439 10.8041ZM6.82439 11.0741V10.9741C6.36282 10.9741 6.15726 10.8513 6.09951 10.6732L6.00439 10.7041L5.90927 10.7349C6.01151 11.0502 6.35262 11.1741 6.82439 11.1741V11.0741ZM6.00439 10.7041L6.09869 10.6708C6.06453 10.574 6.04439 10.4147 6.04439 10.1841H5.94439H5.84439C5.84439 10.4201 5.86425 10.6075 5.91009 10.7373L6.00439 10.7041ZM5.94439 10.1841H6.04439V4.63407H5.94439H5.84439V10.1841H5.94439ZM5.94439 4.63407H6.04439C6.04439 4.48126 6.04774 4.3717 6.05398 4.30312L5.95439 4.29407L5.8548 4.28501C5.8477 4.3631 5.84439 4.48021 5.84439 4.63407H5.94439ZM5.95439 4.29407L6.05303 4.31051C6.06402 4.24453 6.09253 4.16506 6.14262 4.07113L6.05439 4.02407L5.96615 3.97701C5.90958 4.08308 5.87142 4.18361 5.85575 4.27763L5.95439 4.29407ZM6.05439 4.02407L6.14316 4.0701C6.17436 4.00994 6.2375 3.95573 6.3521 3.91607C6.46744 3.87614 6.62675 3.85407 6.83439 3.85407V3.75407V3.65407C6.61536 3.65407 6.43133 3.67699 6.28668 3.72707C6.14127 3.7774 6.02775 3.85819 5.96561 3.97804L6.05439 4.02407ZM6.83439 3.75407V3.85407H8.99439V3.75407V3.65407H6.83439V3.75407ZM8.99439 3.75407V3.85407C9.55496 3.85407 10.104 4.05742 10.6433 4.47326L10.7044 4.39407L10.7655 4.31488C10.1981 3.87738 9.60715 3.65407 8.99439 3.65407V3.75407ZM10.7044 4.39407L10.6431 4.47311C10.8959 4.669 11.1069 4.93619 11.2746 5.27811L11.3644 5.23407L11.4542 5.19002C11.2752 4.82528 11.0462 4.53247 10.7656 4.31503L10.7044 4.39407ZM11.3644 5.23407L11.2746 5.27811C11.4406 5.6164 11.5244 5.99444 11.5244 6.41407H11.6244H11.7244C11.7244 5.96703 11.6349 5.5584 11.4542 5.19002L11.3644 5.23407ZM11.6244 6.41407H11.5244C11.5244 7.1428 11.2837 7.73617 10.8046 8.20241L10.8744 8.27407L10.9441 8.34573C11.4651 7.83863 11.7244 7.19201 11.7244 6.41407H11.6244ZM10.8744 8.27407L10.782 8.3124C10.9292 8.66684 11.1562 9.19102 11.4629 9.88452L11.5544 9.84407L11.6458 9.80362C11.3392 9.11045 11.113 8.58797 10.9667 8.23573L10.8744 8.27407ZM7.71439 7.29407V7.39407H8.99439V7.29407V7.19407H7.71439V7.29407ZM8.99439 7.29407V7.39407C9.21459 7.39407 9.42861 7.31018 9.63483 7.15374L9.57439 7.07407L9.51395 6.9944C9.3335 7.13129 9.16085 7.19407 8.99439 7.19407V7.29407ZM9.57439 7.07407L9.63483 7.15374C9.85838 6.98414 9.96439 6.73137 9.96439 6.41407H9.86439H9.76439C9.76439 6.68343 9.67706 6.87066 9.51395 6.9944L9.57439 7.07407ZM9.86439 6.41407H9.96439C9.96439 6.09676 9.85838 5.84399 9.63483 5.6744L9.57439 5.75407L9.51395 5.83374C9.67706 5.95748 9.76439 6.14471 9.76439 6.41407H9.86439ZM9.57439 5.75407L9.63653 5.67572C9.42907 5.51118 9.20777 5.42407 8.97439 5.42407V5.52407V5.62407C9.15434 5.62407 9.33304 5.69028 9.51225 5.83242L9.57439 5.75407ZM8.97439 5.52407V5.42407H7.71439V5.52407V5.62407H8.97439V5.52407ZM7.71439 5.52407H7.61439V7.29407H7.71439H7.81439V5.52407H7.71439ZM16.883 4.27407L16.973 4.23051L16.9724 4.22935L16.883 4.27407ZM19.583 9.85407L19.493 9.89763L19.4935 9.89879L19.583 9.85407ZM19.173 11.0141L19.1283 10.9246V10.9246L19.173 11.0141ZM18.313 11.0941L18.2529 11.1741L18.2561 11.1763L18.313 11.0941ZM18.133 10.9041L18.0433 10.9489L18.0472 10.9555L18.133 10.9041ZM17.983 10.6041L17.8929 10.6475L17.8935 10.6488L17.983 10.6041ZM17.463 9.52407L17.5531 9.48069L17.5258 9.42407H17.463V9.52407ZM14.693 9.52407V9.42407H14.6301L14.6029 9.48069L14.693 9.52407ZM14.173 10.6041L14.2624 10.6488L14.2631 10.6474L14.173 10.6041ZM14.013 10.8941L13.9295 10.8384L13.9256 10.8455L14.013 10.8941ZM13.833 11.0841L13.893 11.1641L13.894 11.1633L13.833 11.0841ZM12.983 11.0041L13.0277 10.9146L13.0265 10.914L12.983 11.0041ZM12.573 9.85407L12.6624 9.89879L12.663 9.89756L12.573 9.85407ZM15.273 4.26407L15.363 4.30756L15.3632 4.30721L15.273 4.26407ZM15.603 3.89407L15.551 3.80863L15.5493 3.8097L15.603 3.89407ZM16.073 6.67407L16.1628 6.63013L16.0723 6.44506L15.9829 6.63067L16.073 6.67407ZM15.413 8.04407L15.3229 8.00067L15.2538 8.14407H15.413V8.04407ZM16.743 8.04407V8.14407H16.9032L16.8328 8.00013L16.743 8.04407ZM16.883 4.27407L16.793 4.31762L19.493 9.89762L19.583 9.85407L19.673 9.81051L16.973 4.23051L16.883 4.27407ZM19.583 9.85407L19.4935 9.89879C19.6065 10.1247 19.653 10.2762 19.653 10.3641H19.753H19.853C19.853 10.2253 19.7862 10.0368 19.6724 9.80935L19.583 9.85407ZM19.753 10.3641H19.653C19.653 10.5428 19.5089 10.7343 19.1283 10.9246L19.173 11.0141L19.2177 11.1035C19.6104 10.9072 19.853 10.6654 19.853 10.3641H19.753ZM19.173 11.0141L19.1283 10.9246C18.9051 11.0362 18.7423 11.0841 18.633 11.0841V11.1841V11.2841C18.7903 11.2841 18.9875 11.2186 19.2177 11.1035L19.173 11.0141ZM18.633 11.1841V11.0841C18.5225 11.0841 18.4367 11.0581 18.3699 11.0118L18.313 11.0941L18.2561 11.1763C18.3626 11.25 18.4902 11.2841 18.633 11.2841V11.1841ZM18.313 11.0941L18.373 11.0141C18.3005 10.9597 18.2505 10.9055 18.2187 10.8526L18.133 10.9041L18.0472 10.9555C18.0955 11.036 18.1655 11.1084 18.253 11.1741L18.313 11.0941ZM18.133 10.9041L18.2224 10.8593C18.2204 10.8552 18.2182 10.8509 18.216 10.8465C18.2149 10.8442 18.2138 10.842 18.2126 10.8397C18.2125 10.8396 18.2125 10.8394 18.2124 10.8393C18.2123 10.8391 18.2123 10.839 18.2122 10.8389C18.2121 10.8387 18.212 10.8386 18.212 10.8384C18.2119 10.8383 18.2118 10.8381 18.2118 10.838C18.2117 10.8379 18.2116 10.8377 18.2115 10.8376C18.2115 10.8374 18.2114 10.8373 18.2113 10.8371C18.2113 10.837 18.2112 10.8369 18.2111 10.8367C18.211 10.8366 18.211 10.8364 18.2109 10.8363C18.2108 10.8361 18.2107 10.836 18.2107 10.8358C18.2106 10.8357 18.2105 10.8356 18.2105 10.8354C18.2104 10.8353 18.2103 10.8351 18.2102 10.835C18.2102 10.8348 18.2101 10.8347 18.21 10.8345C18.2099 10.8344 18.2099 10.8342 18.2098 10.8341C18.2097 10.834 18.2097 10.8338 18.2096 10.8337C18.2095 10.8335 18.2094 10.8334 18.2094 10.8332C18.2093 10.8331 18.2092 10.8329 18.2091 10.8328C18.2091 10.8326 18.209 10.8325 18.2089 10.8323C18.2089 10.8322 18.2088 10.8321 18.2087 10.8319C18.2086 10.8318 18.2086 10.8316 18.2085 10.8315C18.2084 10.8313 18.2083 10.8312 18.2083 10.831C18.2082 10.8309 18.2081 10.8307 18.208 10.8306C18.208 10.8304 18.2079 10.8303 18.2078 10.8301C18.2077 10.83 18.2077 10.8298 18.2076 10.8297C18.2075 10.8295 18.2074 10.8294 18.2074 10.8292C18.2073 10.8291 18.2072 10.8289 18.2072 10.8288C18.2071 10.8286 18.207 10.8285 18.2069 10.8284C18.2069 10.8282 18.2068 10.8281 18.2067 10.8279C18.2066 10.8278 18.2066 10.8276 18.2065 10.8275C18.2064 10.8273 18.2063 10.8272 18.2063 10.827C18.2062 10.8269 18.2061 10.8267 18.206 10.8266C18.206 10.8264 18.2059 10.8263 18.2058 10.8261C18.2057 10.826 18.2057 10.8258 18.2056 10.8257C18.2055 10.8255 18.2054 10.8254 18.2054 10.8252C18.2053 10.8251 18.2052 10.8249 18.2051 10.8247C18.2051 10.8246 18.205 10.8244 18.2049 10.8243C18.2048 10.8241 18.2048 10.824 18.2047 10.8238C18.2046 10.8237 18.2045 10.8235 18.2044 10.8234C18.2044 10.8232 18.2043 10.8231 18.2042 10.8229C18.2041 10.8228 18.2041 10.8226 18.204 10.8225C18.2039 10.8223 18.2038 10.8222 18.2038 10.822C18.2037 10.8219 18.2036 10.8217 18.2035 10.8216C18.2035 10.8214 18.2034 10.8213 18.2033 10.8211C18.2027 10.8199 18.2035 10.8214 18.2028 10.8202C18.2028 10.82 18.2027 10.8199 18.2026 10.8197C18.2025 10.8196 18.2025 10.8194 18.2024 10.8193C18.2023 10.8191 18.2022 10.8189 18.2022 10.8188C18.2021 10.8186 18.202 10.8185 18.2019 10.8183C18.2018 10.8181 18.1945 10.8036 18.1943 10.8031C18.1942 10.8029 18.1941 10.8028 18.1941 10.8026C18.194 10.8024 18.1939 10.8023 18.1938 10.8021C18.1937 10.802 18.1936 10.8018 18.1936 10.8016C18.1935 10.8015 18.1934 10.8013 18.1933 10.8011C18.1932 10.801 18.1932 10.8008 18.1931 10.8006C18.193 10.8005 18.1929 10.8003 18.1928 10.8002C18.1927 10.8 18.1927 10.7998 18.1926 10.7997C18.1925 10.7995 18.1924 10.7993 18.1923 10.7992C18.1923 10.799 18.1922 10.7988 18.1921 10.7987C18.192 10.7985 18.1919 10.7983 18.1918 10.7982C18.1912 10.7969 18.192 10.7985 18.1913 10.7972C18.1913 10.797 18.1912 10.7968 18.1911 10.7967C18.191 10.7965 18.1909 10.7964 18.1908 10.7962C18.1908 10.796 18.1907 10.7959 18.1906 10.7957C18.1905 10.7955 18.1904 10.7954 18.1903 10.7952C18.1903 10.795 18.1902 10.7949 18.1901 10.7947C18.19 10.7945 18.1899 10.7944 18.1898 10.7942C18.1898 10.794 18.1897 10.7938 18.1896 10.7937C18.1895 10.7935 18.1894 10.7933 18.1893 10.7932C18.1893 10.793 18.1892 10.7928 18.1891 10.7927C18.189 10.7925 18.1889 10.7923 18.1888 10.7922C18.1885 10.7915 18.1887 10.7918 18.1883 10.7912C18.1882 10.791 18.1882 10.7908 18.1881 10.7907C18.188 10.7905 18.1879 10.7903 18.1878 10.7901C18.1877 10.79 18.1877 10.7898 18.1876 10.7896C18.1875 10.7895 18.1874 10.7893 18.1873 10.7891C18.1866 10.7878 18.1875 10.7895 18.1868 10.7881C18.1867 10.7879 18.1866 10.7878 18.1865 10.7876C18.1865 10.7874 18.1864 10.7873 18.1863 10.7871C18.1862 10.7869 18.1861 10.7867 18.186 10.7866C18.186 10.7864 18.1859 10.7862 18.1858 10.7861C18.1857 10.7859 18.1856 10.7857 18.1855 10.7855C18.1854 10.7854 18.1854 10.7852 18.1853 10.785C18.1852 10.7849 18.1851 10.7847 18.185 10.7845C18.1849 10.7843 18.1848 10.7842 18.1847 10.784C18.1847 10.7838 18.1846 10.7836 18.1845 10.7835C18.1844 10.7833 18.1843 10.7831 18.1842 10.783C18.1839 10.7823 18.1841 10.7826 18.1837 10.7819C18.1836 10.7817 18.1835 10.7816 18.1835 10.7814C18.1834 10.7812 18.1833 10.781 18.1832 10.7809C18.1831 10.7807 18.183 10.7805 18.1829 10.7804C18.1828 10.7802 18.1828 10.78 18.1827 10.7798C18.1826 10.7797 18.1825 10.7795 18.1824 10.7793C18.1823 10.7791 18.1822 10.779 18.1821 10.7788C18.1793 10.7731 18.1808 10.776 18.1779 10.7703C18.1778 10.7701 18.1777 10.7699 18.1776 10.7697C18.1775 10.7696 18.1774 10.7694 18.1774 10.7692C18.1773 10.769 18.1772 10.7688 18.1771 10.7687C18.177 10.7685 18.1769 10.7683 18.1768 10.7681C18.1767 10.7679 18.1766 10.7678 18.1765 10.7676C18.1765 10.7674 18.1764 10.7672 18.1763 10.767C18.1762 10.7669 18.1761 10.7667 18.176 10.7665C18.1759 10.7663 18.1758 10.7661 18.1757 10.766C18.1756 10.7658 18.1756 10.7656 18.1755 10.7654C18.1754 10.7652 18.1753 10.7651 18.1752 10.7649C18.1751 10.7647 18.175 10.7645 18.1749 10.7643C18.1748 10.7641 18.1747 10.764 18.1746 10.7638C18.1743 10.7631 18.1745 10.7634 18.1741 10.7627C18.174 10.7625 18.1739 10.7623 18.1738 10.7621C18.1737 10.762 18.1736 10.7618 18.1735 10.7616C18.1735 10.7614 18.1734 10.7612 18.1733 10.761C18.1732 10.7609 18.1731 10.7607 18.173 10.7605C18.1729 10.7603 18.1728 10.7601 18.1727 10.7599C18.1726 10.7598 18.1725 10.7596 18.1724 10.7594C18.1724 10.7592 18.1723 10.759 18.1722 10.7588C18.1721 10.7587 18.172 10.7585 18.1719 10.7583C18.1718 10.7581 18.1717 10.7579 18.1716 10.7577C18.1715 10.7575 18.1714 10.7574 18.1713 10.7572C18.1712 10.757 18.1712 10.7568 18.1711 10.7566C18.171 10.7564 18.1709 10.7562 18.1708 10.7561C18.1707 10.7559 18.1706 10.7557 18.1705 10.7555C18.1704 10.7553 18.1703 10.7551 18.1702 10.7549C18.1701 10.7548 18.17 10.7546 18.1699 10.7544C18.1699 10.7542 18.1698 10.754 18.1697 10.7538C18.1696 10.7536 18.1695 10.7535 18.1694 10.7533C18.1693 10.7531 18.1692 10.7529 18.1691 10.7527C18.169 10.7525 18.1689 10.7523 18.1688 10.7521C18.1687 10.752 18.1686 10.7518 18.1685 10.7516C18.1684 10.7514 18.1684 10.7512 18.1683 10.751C18.1682 10.7508 18.1681 10.7506 18.168 10.7505C18.1676 10.7497 18.1678 10.7501 18.1674 10.7493C18.1673 10.7491 18.1672 10.7489 18.1671 10.7488C18.167 10.7486 18.1669 10.7484 18.1668 10.7482C18.1668 10.748 18.1667 10.7478 18.1666 10.7476C18.1665 10.7474 18.1664 10.7472 18.1663 10.7471C18.1662 10.7469 18.1661 10.7467 18.166 10.7465C18.1659 10.7463 18.1658 10.7461 18.1657 10.7459C18.1656 10.7457 18.1655 10.7455 18.1654 10.7453C18.1653 10.7452 18.1652 10.745 18.1651 10.7448C18.165 10.7446 18.1649 10.7444 18.1649 10.7442C18.1648 10.744 18.1647 10.7438 18.1646 10.7436C18.1645 10.7434 18.1644 10.7432 18.1643 10.743C18.1642 10.7429 18.1641 10.7427 18.164 10.7425C18.1639 10.7423 18.1638 10.7421 18.1637 10.7419C18.1636 10.7417 18.1635 10.7415 18.1634 10.7413C18.1633 10.7411 18.1632 10.7409 18.1631 10.7407C18.163 10.7406 18.1629 10.7404 18.1628 10.7402C18.1627 10.74 18.1626 10.7398 18.1625 10.7396C18.1625 10.7394 18.1624 10.7392 18.1623 10.739C18.1622 10.7388 18.1621 10.7386 18.162 10.7384C18.1619 10.7382 18.1618 10.738 18.1617 10.7378C18.1616 10.7377 18.1615 10.7375 18.1614 10.7373C18.1613 10.7371 18.1612 10.7369 18.1611 10.7367C18.1607 10.7359 18.1609 10.7363 18.1605 10.7355C18.1604 10.7353 18.1603 10.7351 18.1602 10.7349C18.1601 10.7347 18.16 10.7345 18.1599 10.7343C18.1598 10.7342 18.1597 10.734 18.1596 10.7338C18.1595 10.7336 18.1594 10.7334 18.1593 10.7332C18.1592 10.733 18.1591 10.7328 18.159 10.7326C18.1589 10.7324 18.1588 10.7322 18.1588 10.732C18.1584 10.7312 18.158 10.7304 18.1576 10.7296C18.1574 10.7292 18.1572 10.7288 18.157 10.7284C18.1569 10.7283 18.1568 10.7281 18.1567 10.7279C18.1566 10.7277 18.1565 10.7275 18.1564 10.7273C18.1563 10.7271 18.1562 10.7269 18.1561 10.7267C18.156 10.7265 18.1559 10.7263 18.1558 10.7261C18.1556 10.7257 18.1554 10.7253 18.1552 10.7249C18.1536 10.7217 18.152 10.7185 18.1504 10.7152C18.1471 10.7087 18.1438 10.702 18.1404 10.6953C18.1403 10.6951 18.1402 10.6949 18.1401 10.6946C18.14 10.6944 18.1399 10.6942 18.1398 10.694C18.1397 10.6938 18.1395 10.6936 18.1394 10.6934C18.1393 10.6932 18.1392 10.693 18.1391 10.6927C18.139 10.6925 18.1389 10.6923 18.1388 10.6921C18.1387 10.6919 18.1386 10.6917 18.1385 10.6915C18.1384 10.6912 18.1383 10.691 18.1382 10.6908C18.1381 10.6906 18.138 10.6904 18.1378 10.6902C18.1377 10.69 18.1376 10.6898 18.1375 10.6895C18.1374 10.6893 18.1373 10.6891 18.1372 10.6889C18.1371 10.6887 18.137 10.6885 18.1369 10.6883C18.1368 10.688 18.1367 10.6878 18.1366 10.6876C18.1361 10.6868 18.1357 10.6859 18.1353 10.685C18.1352 10.6848 18.1351 10.6846 18.1349 10.6844C18.1348 10.6842 18.1347 10.684 18.1346 10.6837C18.1345 10.6835 18.1344 10.6833 18.1343 10.6831C18.1342 10.6829 18.1341 10.6827 18.134 10.6824C18.1339 10.6822 18.1338 10.682 18.1336 10.6818C18.1335 10.6816 18.1334 10.6814 18.1333 10.6811C18.1332 10.6809 18.1331 10.6807 18.133 10.6805C18.1329 10.6803 18.1328 10.68 18.1327 10.6798C18.1322 10.679 18.1318 10.6781 18.1314 10.6772C18.1312 10.677 18.1311 10.6768 18.131 10.6766C18.1309 10.6763 18.1308 10.6761 18.1307 10.6759C18.1306 10.6757 18.1305 10.6755 18.1304 10.6752C18.1303 10.675 18.1302 10.6748 18.13 10.6746C18.1299 10.6744 18.1298 10.6741 18.1297 10.6739C18.1296 10.6737 18.1295 10.6735 18.1294 10.6733C18.1293 10.673 18.1292 10.6728 18.1291 10.6726C18.1289 10.6724 18.1288 10.6722 18.1287 10.6719C18.1286 10.6717 18.1285 10.6715 18.1284 10.6713C18.1283 10.6711 18.1282 10.6708 18.1281 10.6706C18.1279 10.6704 18.1278 10.6702 18.1277 10.6699C18.1276 10.6697 18.1275 10.6695 18.1274 10.6693C18.1273 10.6691 18.1272 10.6688 18.1271 10.6686C18.127 10.6684 18.1268 10.6682 18.1267 10.668C18.1266 10.6677 18.1265 10.6675 18.1264 10.6673C18.1263 10.6671 18.1262 10.6668 18.1261 10.6666C18.1259 10.6664 18.1258 10.6662 18.1257 10.6659C18.1256 10.6657 18.1255 10.6655 18.1254 10.6653C18.1253 10.6651 18.1252 10.6648 18.1251 10.6646C18.1249 10.6644 18.1248 10.6642 18.1247 10.6639C18.1246 10.6637 18.1245 10.6635 18.1244 10.6633C18.1243 10.663 18.1242 10.6628 18.124 10.6626C18.1239 10.6624 18.1238 10.6621 18.1237 10.6619C18.1236 10.6617 18.1235 10.6615 18.1234 10.6612C18.1233 10.661 18.1231 10.6608 18.123 10.6606C18.1229 10.6603 18.1228 10.6601 18.1227 10.6599C18.1226 10.6597 18.1225 10.6594 18.1224 10.6592C18.1222 10.659 18.1221 10.6588 18.122 10.6585C18.1219 10.6583 18.1218 10.6581 18.1217 10.6579C18.1216 10.6576 18.1215 10.6574 18.1213 10.6572C18.1212 10.657 18.1211 10.6567 18.121 10.6565C18.1209 10.6563 18.1208 10.6561 18.1207 10.6558C18.1206 10.6556 18.1204 10.6554 18.1203 10.6551C18.1202 10.6549 18.1201 10.6547 18.12 10.6545C18.1199 10.6542 18.1198 10.654 18.1196 10.6538C18.1195 10.6536 18.1194 10.6533 18.1193 10.6531C18.1156 10.6457 18.112 10.6385 18.1082 10.6308C18.1063 10.6271 18.1044 10.6232 18.1025 10.6194C18.1023 10.6192 18.1022 10.6189 18.1021 10.6187C18.102 10.6184 18.1019 10.6182 18.1017 10.618C18.1016 10.6177 18.1015 10.6175 18.1014 10.6172C18.1013 10.617 18.1011 10.6168 18.101 10.6165C18.1009 10.6163 18.1008 10.616 18.1006 10.6158C18.1005 10.6156 18.1004 10.6153 18.1003 10.6151C18.1002 10.6148 18.1 10.6146 18.0999 10.6143C18.0998 10.6141 18.0997 10.6139 18.0996 10.6136C18.0994 10.6134 18.0993 10.6131 18.0992 10.6129C18.0991 10.6126 18.099 10.6124 18.0988 10.6122C18.0987 10.6119 18.0986 10.6117 18.0985 10.6114C18.0983 10.6112 18.0982 10.611 18.0981 10.6107C18.098 10.6105 18.0979 10.6102 18.0977 10.61C18.0976 10.6097 18.0975 10.6095 18.0974 10.6092C18.0973 10.609 18.0971 10.6088 18.097 10.6085C18.0969 10.6083 18.0968 10.608 18.0966 10.6078C18.0965 10.6075 18.0964 10.6073 18.0963 10.6071C18.0962 10.6068 18.096 10.6066 18.0959 10.6063C18.0958 10.6061 18.0957 10.6058 18.0955 10.6056C18.0954 10.6053 18.0953 10.6051 18.0952 10.6048C18.0951 10.6046 18.0949 10.6044 18.0948 10.6041C18.0947 10.6039 18.0946 10.6036 18.0944 10.6034C18.0943 10.6031 18.0942 10.6029 18.0941 10.6026C18.0939 10.6024 18.0938 10.6021 18.0937 10.6019C18.0936 10.6017 18.0935 10.6014 18.0933 10.6012C18.0932 10.6009 18.0931 10.6007 18.093 10.6004C18.0928 10.6002 18.0927 10.5999 18.0926 10.5997C18.0925 10.5994 18.0923 10.5992 18.0922 10.5989C18.0921 10.5987 18.092 10.5984 18.0919 10.5982C18.0917 10.5979 18.0916 10.5977 18.0915 10.5975C18.0914 10.5972 18.0912 10.597 18.0911 10.5967C18.091 10.5965 18.0909 10.5962 18.0907 10.596C18.0867 10.588 18.0888 10.592 18.0847 10.584C18.0846 10.5837 18.0845 10.5835 18.0844 10.5832C18.0842 10.5829 18.0841 10.5827 18.084 10.5824C18.0838 10.5822 18.0837 10.5819 18.0836 10.5817C18.0835 10.5814 18.0833 10.5812 18.0832 10.5809C18.0831 10.5807 18.083 10.5804 18.0828 10.5802C18.0827 10.5799 18.0826 10.5797 18.0825 10.5794C18.0823 10.5791 18.0822 10.5789 18.0821 10.5786C18.0819 10.5784 18.0818 10.5781 18.0817 10.5779C18.0816 10.5776 18.0814 10.5774 18.0813 10.5771C18.0812 10.5769 18.0811 10.5766 18.0809 10.5763C18.0808 10.5761 18.0807 10.5758 18.0805 10.5756C18.0804 10.5753 18.0803 10.5751 18.0802 10.5748C18.08 10.5746 18.0799 10.5743 18.0798 10.5741C18.0797 10.5738 18.0795 10.5735 18.0794 10.5733C18.0793 10.573 18.0791 10.5728 18.079 10.5725C18.0789 10.5723 18.0788 10.572 18.0786 10.5717C18.0785 10.5715 18.0784 10.5712 18.0782 10.571C18.0781 10.5707 18.078 10.5705 18.0779 10.5702C18.0777 10.57 18.0776 10.5697 18.0775 10.5694C18.0773 10.5692 18.0772 10.5689 18.0771 10.5687C18.077 10.5684 18.0768 10.5682 18.0767 10.5679C18.0766 10.5676 18.0764 10.5674 18.0763 10.5671C18.0762 10.5669 18.0761 10.5666 18.0759 10.5663C18.0758 10.5661 18.0757 10.5658 18.0755 10.5656C18.0754 10.5653 18.0753 10.5651 18.0752 10.5648C18.075 10.5645 18.0749 10.5643 18.0748 10.564C18.0746 10.5638 18.0745 10.5635 18.0744 10.5632C18.0742 10.563 18.0741 10.5627 18.074 10.5625C18.0739 10.5622 18.0737 10.5619 18.0736 10.5617C18.0735 10.5614 18.0733 10.5612 18.0732 10.5609C18.0731 10.5606 18.0729 10.5604 18.0728 10.5601C18.0727 10.5599 18.0726 10.5596 18.0724 10.5593L17.983 10.6041L17.8935 10.6488C17.9102 10.6821 17.9258 10.7134 17.9404 10.7425C17.9477 10.7572 17.9547 10.7711 17.9615 10.7847C17.9616 10.7849 17.9617 10.7851 17.9618 10.7854C17.9619 10.7856 17.962 10.7858 17.9621 10.786C17.9622 10.7862 17.9624 10.7864 17.9625 10.7866C17.9626 10.7868 17.9627 10.787 17.9628 10.7873C17.9629 10.7875 17.963 10.7877 17.9631 10.7879C17.9632 10.7881 17.9633 10.7883 17.9634 10.7885C17.9635 10.7887 17.9636 10.7889 17.9637 10.7892C17.9638 10.7894 17.9639 10.7896 17.964 10.7898C17.9645 10.7906 17.9649 10.7915 17.9653 10.7923C17.9655 10.7927 17.9657 10.7931 17.9659 10.7935C17.966 10.7937 17.9661 10.794 17.9662 10.7942C17.9663 10.7944 17.9664 10.7946 17.9665 10.7948C17.9666 10.795 17.9667 10.7952 17.9668 10.7954C17.967 10.7956 17.9671 10.7958 17.9672 10.796C17.9673 10.7962 17.9674 10.7964 17.9675 10.7966C17.9676 10.7969 17.9677 10.7971 17.9678 10.7973C17.9686 10.7989 17.9682 10.7981 17.969 10.7997C17.9692 10.8002 17.9694 10.8006 17.9696 10.801C17.9697 10.8012 17.9698 10.8014 17.9699 10.8016C17.97 10.8018 17.9701 10.802 17.9702 10.8022C17.9703 10.8024 17.9705 10.8026 17.9706 10.8028C17.9707 10.803 17.9708 10.8032 17.9709 10.8034C17.971 10.8036 17.9711 10.8038 17.9712 10.804C17.9713 10.8042 17.9714 10.8044 17.9715 10.8046C17.9716 10.8049 17.9717 10.8051 17.9718 10.8053C17.9719 10.8055 17.972 10.8057 17.9721 10.8059C17.9722 10.8061 17.9723 10.8063 17.9724 10.8065C17.9725 10.8067 17.9726 10.8069 17.9727 10.8071C17.9728 10.8073 17.9729 10.8075 17.973 10.8077C17.9731 10.8079 17.9732 10.8081 17.9733 10.8083C17.9734 10.8085 17.9735 10.8087 17.9736 10.8089C17.9737 10.8091 17.9738 10.8093 17.9739 10.8095C17.974 10.8097 17.9741 10.8099 17.9742 10.8101C17.9743 10.8103 17.9744 10.8105 17.9745 10.8107C17.9747 10.8111 17.9749 10.8115 17.9751 10.8119C17.9752 10.8121 17.9753 10.8123 17.9754 10.8125C17.9755 10.8127 17.9756 10.8129 17.9757 10.8131C17.9758 10.8133 17.9759 10.8135 17.976 10.8137C17.9761 10.8139 17.9762 10.8141 17.9763 10.8143C17.9764 10.8145 17.9765 10.8147 17.9766 10.8149C17.9767 10.8151 17.9768 10.8153 17.9769 10.8155C17.977 10.8157 17.9771 10.8159 17.9772 10.8161C17.9773 10.8163 17.9774 10.8165 17.9775 10.8167C17.9776 10.8169 17.9777 10.8171 17.9778 10.8173C17.9779 10.8175 17.978 10.8177 17.9781 10.8179C17.9782 10.8181 17.9783 10.8183 17.9784 10.8185C17.9785 10.8187 17.9786 10.8189 17.9787 10.8191C17.9788 10.8193 17.9789 10.8195 17.979 10.8197C17.9791 10.8199 17.9792 10.8201 17.9793 10.8203C17.9794 10.8205 17.9795 10.8207 17.9796 10.8208C17.9797 10.821 17.9798 10.8212 17.9799 10.8214C17.9801 10.8218 17.9803 10.8222 17.9805 10.8226C17.9806 10.8228 17.9806 10.823 17.9807 10.8232C17.9808 10.8234 17.9809 10.8236 17.981 10.8238C17.9811 10.824 17.9812 10.8242 17.9813 10.8244C17.9814 10.8246 17.9815 10.8248 17.9816 10.825C17.9817 10.8252 17.9818 10.8253 17.9819 10.8255C17.982 10.8257 17.9821 10.8259 17.9822 10.8261C17.9823 10.8263 17.9824 10.8265 17.9825 10.8267C17.9826 10.8269 17.9827 10.8271 17.9828 10.8273C17.9829 10.8275 17.983 10.8277 17.9831 10.8279C17.9832 10.8281 17.9833 10.8283 17.9834 10.8285C17.9835 10.8286 17.9836 10.8288 17.9837 10.829C17.9838 10.8292 17.9839 10.8294 17.984 10.8296C17.984 10.8298 17.9841 10.83 17.9842 10.8302C17.9843 10.8304 17.9844 10.8306 17.9845 10.8308C17.9846 10.831 17.9847 10.8311 17.9848 10.8313C17.9849 10.8315 17.985 10.8317 17.9851 10.8319C17.9852 10.8321 17.9853 10.8323 17.9854 10.8325C17.9855 10.8327 17.9856 10.8329 17.9857 10.8331C17.9858 10.8333 17.9859 10.8334 17.986 10.8336C17.9861 10.8338 17.9862 10.834 17.9863 10.8342C17.9863 10.8344 17.9864 10.8346 17.9865 10.8348C17.9866 10.835 17.9867 10.8352 17.9868 10.8354C17.9869 10.8355 17.987 10.8357 17.9871 10.8359C17.9872 10.8361 17.9873 10.8363 17.9874 10.8365C17.9875 10.8367 17.9876 10.8369 17.9877 10.8371C17.9878 10.8373 17.9879 10.8374 17.988 10.8376C17.9881 10.8378 17.9882 10.838 17.9882 10.8382C17.9883 10.8384 17.9884 10.8386 17.9885 10.8388C17.9886 10.839 17.9887 10.8391 17.9888 10.8393C17.9889 10.8395 17.989 10.8397 17.9891 10.8399C17.9892 10.8401 17.9893 10.8403 17.9894 10.8405C17.9895 10.8406 17.9896 10.8408 17.9897 10.841C17.9898 10.8412 17.9898 10.8414 17.9899 10.8416C17.99 10.8418 17.9901 10.842 17.9902 10.8421C17.9903 10.8423 17.9904 10.8425 17.9905 10.8427C17.9906 10.8429 17.9907 10.8431 17.9908 10.8433C17.9909 10.8435 17.991 10.8436 17.9911 10.8438C17.9912 10.844 17.9912 10.8442 17.9913 10.8444C17.9914 10.8446 17.9915 10.8448 17.9916 10.8449C17.9917 10.8451 17.9918 10.8453 17.9919 10.8455C17.992 10.8457 17.9921 10.8459 17.9922 10.8461C17.9923 10.8462 17.9924 10.8464 17.9925 10.8466C17.9925 10.8468 17.9926 10.847 17.9927 10.8472C17.9928 10.8474 17.9929 10.8475 17.993 10.8477C17.9931 10.8479 17.9932 10.8481 17.9933 10.8483C17.9934 10.8485 17.9935 10.8486 17.9936 10.8488C17.9937 10.849 17.9937 10.8492 17.9938 10.8494C17.9939 10.8496 17.994 10.8498 17.9941 10.8499C17.9942 10.8501 17.9943 10.8503 17.9944 10.8505C17.9945 10.8507 17.9946 10.8509 17.9947 10.851C17.9948 10.8512 17.9948 10.8514 17.9949 10.8516C17.995 10.8518 17.9951 10.8519 17.9952 10.8521C17.9953 10.8523 17.9954 10.8525 17.9955 10.8527C17.9956 10.8529 17.9957 10.853 17.9958 10.8532C17.9958 10.8534 17.9959 10.8536 17.996 10.8538C17.9961 10.854 17.9962 10.8541 17.9963 10.8543C17.9964 10.8545 17.9965 10.8547 17.9966 10.8549C17.9967 10.855 17.9968 10.8552 17.9968 10.8554C17.9969 10.8556 17.997 10.8558 17.9971 10.8559C17.9972 10.8561 17.9973 10.8563 17.9974 10.8565C17.9975 10.8567 17.9976 10.8569 17.9977 10.857C17.9978 10.8572 17.9978 10.8574 17.9979 10.8576C17.998 10.8578 17.9981 10.8579 17.9982 10.8581C17.9983 10.8583 17.9984 10.8585 17.9985 10.8587C17.9986 10.8588 17.9987 10.859 17.9987 10.8592C17.9988 10.8594 17.9989 10.8595 17.999 10.8597C17.9991 10.8599 17.9992 10.8601 17.9993 10.8603C17.9994 10.8604 17.9995 10.8606 17.9995 10.8608C17.9996 10.861 17.9997 10.8612 17.9998 10.8613C17.9999 10.8615 18 10.8617 18.0001 10.8619C18.0002 10.862 18.0003 10.8622 18.0003 10.8624C18.0004 10.8626 18.0005 10.8628 18.0006 10.8629C18.0007 10.8631 18.0008 10.8633 18.0009 10.8635C18.001 10.8636 18.0011 10.8638 18.0011 10.864C18.0012 10.8642 18.0013 10.8644 18.0014 10.8645C18.0015 10.8647 18.0016 10.8649 18.0017 10.8651C18.0018 10.8652 18.0019 10.8654 18.0019 10.8656C18.002 10.8658 18.0021 10.8659 18.0022 10.8661C18.0023 10.8663 18.0024 10.8665 18.0025 10.8666C18.0026 10.8668 18.0026 10.867 18.0027 10.8672C18.0028 10.8673 18.0029 10.8675 18.003 10.8677C18.0031 10.8679 18.0032 10.868 18.0033 10.8682C18.0033 10.8684 18.0034 10.8686 18.0035 10.8687C18.0036 10.8689 18.0037 10.8691 18.0038 10.8693C18.0039 10.8694 18.004 10.8696 18.004 10.8698C18.0041 10.87 18.0042 10.8701 18.0043 10.8703C18.0044 10.8705 18.0045 10.8707 18.0046 10.8708C18.0047 10.871 18.0047 10.8712 18.0048 10.8714C18.0049 10.8715 18.005 10.8717 18.0051 10.8719C18.0052 10.8721 18.0053 10.8722 18.0053 10.8724C18.0054 10.8726 18.0055 10.8727 18.0056 10.8729C18.0057 10.8731 18.0058 10.8733 18.0059 10.8734C18.0059 10.8736 18.006 10.8738 18.0061 10.874C18.0062 10.8741 18.0063 10.8743 18.0064 10.8745C18.0065 10.8746 18.0066 10.8748 18.0066 10.875C18.0067 10.8752 18.0068 10.8753 18.0069 10.8755C18.007 10.8757 18.0071 10.8758 18.0072 10.876C18.0072 10.8762 18.0073 10.8764 18.0074 10.8765C18.0129 10.8875 18.01 10.8818 18.0154 10.8925C18.0155 10.8927 18.0156 10.8929 18.0157 10.893C18.0157 10.8932 18.0158 10.8934 18.0159 10.8935C18.016 10.8937 18.0161 10.8938 18.0161 10.894C18.0162 10.8942 18.0163 10.8943 18.0164 10.8945C18.0165 10.8946 18.0166 10.8948 18.0166 10.895C18.0167 10.8951 18.0168 10.8953 18.0169 10.8955C18.017 10.8956 18.017 10.8958 18.0171 10.8959C18.0172 10.8961 18.0173 10.8963 18.0174 10.8964C18.0174 10.8966 18.0175 10.8967 18.0176 10.8969C18.0177 10.8971 18.0178 10.8972 18.0178 10.8974C18.0179 10.8975 18.018 10.8977 18.0181 10.8979C18.0182 10.898 18.0182 10.8982 18.0183 10.8983C18.0184 10.8985 18.0185 10.8987 18.0186 10.8988C18.0186 10.899 18.0187 10.8991 18.0188 10.8993C18.0189 10.8995 18.019 10.8996 18.019 10.8998C18.0191 10.8999 18.0192 10.9001 18.0193 10.9003C18.0194 10.9004 18.0194 10.9006 18.0195 10.9007C18.0196 10.9009 18.0197 10.901 18.0197 10.9012C18.0198 10.9014 18.0199 10.9015 18.02 10.9017C18.0201 10.9018 18.0201 10.902 18.0202 10.9022C18.0203 10.9023 18.0204 10.9025 18.0205 10.9026C18.0205 10.9028 18.0206 10.9029 18.0207 10.9031C18.0208 10.9033 18.0209 10.9034 18.0209 10.9036C18.021 10.9037 18.0211 10.9039 18.0212 10.904C18.0212 10.9042 18.0213 10.9044 18.0214 10.9045C18.0215 10.9047 18.0216 10.9048 18.0216 10.905C18.0217 10.9051 18.0218 10.9053 18.0219 10.9054C18.0219 10.9056 18.022 10.9058 18.0221 10.9059C18.0222 10.9061 18.0223 10.9062 18.0223 10.9064C18.0224 10.9065 18.0225 10.9067 18.0226 10.9068C18.0226 10.907 18.0227 10.9072 18.0228 10.9073C18.0229 10.9075 18.023 10.9076 18.023 10.9078C18.0231 10.9079 18.0232 10.9081 18.0233 10.9082C18.0233 10.9084 18.0234 10.9085 18.0235 10.9087C18.0266 10.9149 18.0209 10.9035 18.024 10.9096C18.024 10.9098 18.0241 10.9099 18.0242 10.9101C18.0243 10.9102 18.0243 10.9104 18.0244 10.9105C18.0245 10.9107 18.0246 10.9108 18.0246 10.911C18.0247 10.9112 18.0248 10.9113 18.0249 10.9115C18.025 10.9116 18.025 10.9118 18.0251 10.9119C18.0252 10.9121 18.0253 10.9122 18.0253 10.9124C18.0254 10.9125 18.0255 10.9127 18.0256 10.9128C18.0256 10.913 18.0257 10.9131 18.0258 10.9133C18.0259 10.9134 18.0259 10.9136 18.026 10.9137C18.0261 10.9139 18.0262 10.914 18.0262 10.9142C18.0287 10.919 18.0243 10.9103 18.0267 10.9151C18.0268 10.9152 18.0268 10.9154 18.0269 10.9155C18.027 10.9157 18.0271 10.9158 18.0271 10.916C18.0272 10.9161 18.0273 10.9163 18.0274 10.9164C18.0274 10.9166 18.0275 10.9167 18.0276 10.9169C18.03 10.9217 18.0257 10.913 18.028 10.9178C18.0281 10.9179 18.0282 10.9181 18.0283 10.9182C18.0283 10.9184 18.0284 10.9185 18.0285 10.9187C18.0286 10.9188 18.0286 10.919 18.0287 10.9191C18.0288 10.9193 18.0289 10.9194 18.0289 10.9196C18.0307 10.9231 18.0276 10.9169 18.0294 10.9205C18.0295 10.9206 18.0295 10.9208 18.0296 10.9209C18.0297 10.9211 18.0297 10.9212 18.0298 10.9213C18.0299 10.9215 18.03 10.9216 18.03 10.9218C18.0301 10.9219 18.0302 10.9221 18.0303 10.9222C18.032 10.9257 18.029 10.9196 18.0307 10.9231C18.0308 10.9232 18.0308 10.9234 18.0309 10.9235C18.031 10.9237 18.0311 10.9238 18.0311 10.924C18.0312 10.9241 18.0313 10.9243 18.0314 10.9244C18.0314 10.9246 18.0315 10.9247 18.0316 10.9248C18.0333 10.9283 18.0303 10.9223 18.032 10.9257C18.0321 10.9259 18.0321 10.926 18.0322 10.9262C18.0323 10.9263 18.0324 10.9264 18.0324 10.9266C18.0325 10.9267 18.0326 10.9269 18.0327 10.927C18.0327 10.9272 18.0328 10.9273 18.0329 10.9274C18.034 10.9297 18.0322 10.926 18.0333 10.9283C18.0334 10.9284 18.0334 10.9286 18.0335 10.9287C18.0336 10.9289 18.0337 10.929 18.0337 10.9292C18.0338 10.9293 18.0339 10.9294 18.0339 10.9296C18.034 10.9297 18.0341 10.9299 18.0342 10.93C18.0353 10.9323 18.0335 10.9286 18.0346 10.9309C18.0346 10.931 18.0347 10.9311 18.0348 10.9313C18.0349 10.9314 18.0349 10.9316 18.035 10.9317C18.0351 10.9319 18.0351 10.932 18.0352 10.9321C18.0353 10.9323 18.0354 10.9324 18.0354 10.9326C18.0355 10.9327 18.0356 10.9328 18.0356 10.933C18.0357 10.9331 18.0358 10.9333 18.0358 10.9334C18.0359 10.9335 18.036 10.9337 18.0361 10.9338C18.0361 10.934 18.0362 10.9341 18.0363 10.9342C18.0363 10.9344 18.0364 10.9345 18.0365 10.9346C18.0365 10.9348 18.0366 10.9349 18.0367 10.9351C18.0367 10.9352 18.0368 10.9353 18.0369 10.9355C18.037 10.9356 18.037 10.9358 18.0371 10.9359C18.0372 10.936 18.0372 10.9362 18.0373 10.9363C18.0374 10.9365 18.0374 10.9366 18.0375 10.9367C18.0376 10.9369 18.0376 10.937 18.0377 10.9371C18.0378 10.9373 18.0379 10.9374 18.0379 10.9376C18.038 10.9377 18.0381 10.9378 18.0381 10.938C18.0382 10.9381 18.0383 10.9382 18.0383 10.9384C18.0384 10.9385 18.0385 10.9386 18.0385 10.9388C18.0386 10.9389 18.0387 10.9391 18.0387 10.9392C18.0388 10.9393 18.0389 10.9395 18.0389 10.9396C18.039 10.9397 18.0391 10.9399 18.0392 10.94C18.0392 10.9401 18.0393 10.9403 18.0394 10.9404C18.0394 10.9406 18.0395 10.9407 18.0396 10.9408C18.0396 10.941 18.0397 10.9411 18.0398 10.9412C18.0398 10.9414 18.0399 10.9415 18.04 10.9416C18.04 10.9418 18.0401 10.9419 18.0402 10.942C18.0402 10.9422 18.0403 10.9423 18.0404 10.9424C18.0404 10.9426 18.0405 10.9427 18.0406 10.9428C18.0406 10.943 18.0407 10.9431 18.0408 10.9432C18.0408 10.9434 18.0409 10.9435 18.041 10.9436C18.041 10.9438 18.0411 10.9439 18.0412 10.944C18.0412 10.9442 18.0413 10.9443 18.0414 10.9444C18.0414 10.9446 18.0415 10.9447 18.0416 10.9448C18.0416 10.945 18.0417 10.9451 18.0418 10.9452C18.0418 10.9454 18.0419 10.9455 18.042 10.9456C18.042 10.9458 18.0421 10.9459 18.0422 10.946C18.0422 10.9462 18.0423 10.9463 18.0424 10.9464C18.0424 10.9466 18.0425 10.9467 18.0426 10.9468C18.0426 10.947 18.0427 10.9471 18.0428 10.9472C18.0428 10.9474 18.0429 10.9475 18.043 10.9476C18.043 10.9477 18.0431 10.9479 18.0431 10.948C18.0432 10.9481 18.0433 10.9483 18.0433 10.9484C18.0434 10.9485 18.0435 10.9487 18.0435 10.9488L18.133 10.9041ZM17.983 10.6041L18.0731 10.5607L17.5531 9.48069L17.463 9.52407L17.3729 9.56745L17.8929 10.6474L17.983 10.6041ZM17.463 9.52407V9.42407H14.693V9.52407V9.62407H17.463V9.52407ZM14.693 9.52407L14.6029 9.48069L14.0829 10.5607L14.173 10.6041L14.2631 10.6474L14.7831 9.56745L14.693 9.52407ZM14.173 10.6041L14.0835 10.5593C14.0172 10.692 13.9662 10.784 13.9298 10.8386L14.013 10.8941L14.0962 10.9495C14.1398 10.8841 14.1954 10.7828 14.2624 10.6488L14.173 10.6041ZM14.013 10.8941L13.9256 10.8455C13.9016 10.8886 13.8535 10.9421 13.772 11.0048L13.833 11.0841L13.894 11.1633C13.9858 11.0927 14.0577 11.0195 14.1004 10.9426L14.013 10.8941ZM13.833 11.0841L13.773 11.0041C13.7153 11.0474 13.6318 11.0741 13.513 11.0741V11.1741V11.2741C13.6608 11.2741 13.7907 11.2408 13.893 11.1641L13.833 11.0841ZM13.513 11.1741V11.0741C13.4108 11.0741 13.2517 11.0266 13.0277 10.9146L12.983 11.0041L12.9383 11.0935C13.1676 11.2082 13.3618 11.2741 13.513 11.2741V11.1741ZM12.983 11.0041L13.0265 10.914C12.6461 10.7304 12.503 10.542 12.503 10.3641H12.403H12.303C12.303 10.6661 12.5465 10.9044 12.9395 11.0941L12.983 11.0041ZM12.403 10.3641H12.503C12.503 10.2762 12.5495 10.1247 12.6624 9.89879L12.573 9.85407L12.4835 9.80935C12.3698 10.0368 12.303 10.2253 12.303 10.3641H12.403ZM12.573 9.85407L12.663 9.89756L15.363 4.30756L15.273 4.26407L15.1829 4.22057L12.4829 9.81057L12.573 9.85407ZM15.273 4.26407L15.3632 4.30721C15.4283 4.17117 15.5254 4.06196 15.6567 3.97843L15.603 3.89407L15.5493 3.8097C15.3872 3.91284 15.2644 4.0503 15.1828 4.22092L15.273 4.26407ZM15.603 3.89407L15.655 3.97949C15.7939 3.89493 15.9361 3.85407 16.083 3.85407V3.75407V3.65407C15.8966 3.65407 15.7187 3.70654 15.551 3.80865L15.603 3.89407ZM16.083 3.75407V3.85407C16.2463 3.85407 16.3834 3.89314 16.4985 3.96791C16.6139 4.04296 16.7131 4.1579 16.7935 4.31879L16.883 4.27407L16.9724 4.22935C16.8795 4.04357 16.7587 3.89851 16.6075 3.80022C16.4559 3.70167 16.2797 3.65407 16.083 3.65407V3.75407ZM16.073 6.67407L15.9829 6.63067L15.3229 8.00067L15.413 8.04407L15.5031 8.08747L16.1631 6.71747L16.073 6.67407ZM15.413 8.04407V8.14407H16.743V8.04407V7.94407H15.413V8.04407ZM16.743 8.04407L16.8328 8.00013L16.1628 6.63013L16.073 6.67407L15.9832 6.718L16.6532 8.088L16.743 8.04407ZM26.3095 9.84407L26.4018 9.8056L26.4009 9.80362L26.3095 9.84407ZM25.8395 11.0041L25.8008 10.9118L25.7994 10.9125L25.8395 11.0041ZM24.9995 11.0541L24.9352 11.1312L24.9425 11.1363L24.9995 11.0541ZM24.8195 10.8541L24.7308 10.9007L24.7337 10.9055L24.8195 10.8541ZM24.0395 9.04407L24.1317 9.00536L24.1041 8.93969L24.033 8.94427L24.0395 9.04407ZM23.7295 9.06407V9.16428L23.7359 9.16386L23.7295 9.06407ZM22.4695 9.06407V8.96407H22.3695V9.06407H22.4695ZM22.4495 10.5441L22.3506 10.5276L22.3499 10.535L22.4495 10.5441ZM22.3595 10.8041L22.2712 10.757L22.2707 10.758L22.3595 10.8041ZM20.7595 10.7041L20.8546 10.6732L20.8538 10.6708L20.7595 10.7041ZM20.7095 4.29407L20.6106 4.27758L20.6099 4.28501L20.7095 4.29407ZM20.8095 4.02407L20.8977 4.07113L20.8982 4.0701L20.8095 4.02407ZM25.4595 4.39407L25.5207 4.31503L25.5205 4.31488L25.4595 4.39407ZM26.1195 5.23407L26.0297 5.27811V5.27811L26.1195 5.23407ZM25.6295 8.27407L25.5597 8.20241L25.5111 8.24974L25.5371 8.3124L25.6295 8.27407ZM22.4695 7.29407H22.3695V7.39407H22.4695V7.29407ZM24.3295 7.07407L24.269 6.9944V6.9944L24.3295 7.07407ZM24.3295 5.75407L24.2673 5.83243L24.269 5.83374L24.3295 5.75407ZM22.4695 5.52407V5.42407H22.3695V5.52407H22.4695ZM26.3095 9.84407L26.2172 9.88253C26.3174 10.123 26.3595 10.2796 26.3595 10.3641H26.4595H26.5595C26.5595 10.2352 26.5016 10.0451 26.4018 9.80561L26.3095 9.84407ZM26.4595 10.3641H26.3595C26.3595 10.552 26.2075 10.7413 25.8008 10.9118L25.8395 11.0041L25.8781 11.0963C26.2981 10.9202 26.5595 10.6828 26.5595 10.3641H26.4595ZM25.8395 11.0041L25.7994 10.9125C25.5906 11.0038 25.4323 11.0441 25.3195 11.0441V11.1441V11.2441C25.4733 11.2441 25.6616 11.191 25.8795 11.0957L25.8395 11.0041ZM25.3195 11.1441V11.0441C25.209 11.0441 25.1232 11.0181 25.0564 10.9718L24.9995 11.0541L24.9425 11.1363C25.0491 11.21 25.1766 11.2441 25.3195 11.2441V11.1441ZM24.9995 11.0541L25.0635 10.9772C24.9894 10.9155 24.9379 10.857 24.9052 10.8026L24.8195 10.8541L24.7337 10.9055C24.7811 10.9844 24.8496 11.0593 24.9354 11.1309L24.9995 11.0541ZM24.8195 10.8541L24.908 10.8075C24.8439 10.6858 24.5863 10.0885 24.1317 9.00536L24.0395 9.04407L23.9473 9.08277C24.3993 10.1596 24.6617 10.769 24.731 10.9006L24.8195 10.8541ZM24.0395 9.04407L24.033 8.94427L23.723 8.96427L23.7295 9.06407L23.7359 9.16386L24.0459 9.14386L24.0395 9.04407ZM23.7295 9.06407V8.96407H22.4695V9.06407V9.16407H23.7295V9.06407ZM22.4695 9.06407H22.3695V10.1941H22.4695H22.5695V9.06407H22.4695ZM22.4695 10.1941H22.3695C22.3695 10.3458 22.3628 10.4559 22.3508 10.5276L22.4495 10.5441L22.5481 10.5605C22.5628 10.4722 22.5695 10.349 22.5695 10.1941H22.4695ZM22.4495 10.5441L22.3499 10.535C22.3449 10.5898 22.3213 10.6631 22.2712 10.757L22.3595 10.8041L22.4477 10.8511C22.5043 10.745 22.5407 10.645 22.5491 10.5531L22.4495 10.5441ZM22.3595 10.8041L22.2707 10.758C22.2395 10.8182 22.1764 10.8724 22.0618 10.9121C21.9464 10.952 21.7871 10.9741 21.5795 10.9741V11.0741V11.1741C21.7985 11.1741 21.9825 11.1511 22.1272 11.1011C22.2726 11.0507 22.3861 10.9699 22.4482 10.8501L22.3595 10.8041ZM21.5795 11.0741V10.9741C21.1179 10.9741 20.9123 10.8513 20.8546 10.6732L20.7595 10.7041L20.6643 10.7349C20.7666 11.0502 21.1077 11.1741 21.5795 11.1741V11.0741ZM20.7595 10.7041L20.8538 10.6708C20.8196 10.574 20.7995 10.4147 20.7995 10.1841H20.6995H20.5995C20.5995 10.4201 20.6193 10.6075 20.6652 10.7373L20.7595 10.7041ZM20.6995 10.1841H20.7995V4.63407H20.6995H20.5995V10.1841H20.6995ZM20.6995 4.63407H20.7995C20.7995 4.48126 20.8028 4.3717 20.8091 4.30312L20.7095 4.29407L20.6099 4.28501C20.6028 4.3631 20.5995 4.48021 20.5995 4.63407H20.6995ZM20.7095 4.29407L20.8081 4.31051C20.8191 4.24453 20.8476 4.16506 20.8977 4.07113L20.8095 4.02407L20.7212 3.97701C20.6647 4.08308 20.6265 4.18361 20.6108 4.27763L20.7095 4.29407ZM20.8095 4.02407L20.8982 4.0701C20.9294 4.00994 20.9926 3.95573 21.1072 3.91607C21.2225 3.87614 21.3818 3.85407 21.5895 3.85407V3.75407V3.65407C21.3704 3.65407 21.1864 3.67699 21.0418 3.72707C20.8964 3.7774 20.7828 3.85819 20.7207 3.97804L20.8095 4.02407ZM21.5895 3.75407V3.85407H23.7495V3.75407V3.65407H21.5895V3.75407ZM23.7495 3.75407V3.85407C24.31 3.85407 24.8591 4.05742 25.3984 4.47326L25.4595 4.39407L25.5205 4.31488C24.9532 3.87738 24.3622 3.65407 23.7495 3.65407V3.75407ZM25.4595 4.39407L25.3982 4.47311C25.651 4.669 25.862 4.93619 26.0297 5.27811L26.1195 5.23407L26.2092 5.19002C26.0303 4.82528 25.8013 4.53247 25.5207 4.31503L25.4595 4.39407ZM26.1195 5.23407L26.0297 5.27811C26.1956 5.6164 26.2795 5.99444 26.2795 6.41407H26.3795H26.4795C26.4795 5.96703 26.39 5.5584 26.2092 5.19002L26.1195 5.23407ZM26.3795 6.41407H26.2795C26.2795 7.1428 26.0387 7.73617 25.5597 8.20241L25.6295 8.27407L25.6992 8.34573C26.2202 7.83863 26.4795 7.19201 26.4795 6.41407H26.3795ZM25.6295 8.27407L25.5371 8.3124C25.6842 8.66684 25.9113 9.19102 26.218 9.88452L26.3095 9.84407L26.4009 9.80362C26.0943 9.11045 25.868 8.58797 25.7218 8.23573L25.6295 8.27407ZM22.4695 7.29407V7.39407H23.7495V7.29407V7.19407H22.4695V7.29407ZM23.7495 7.29407V7.39407C23.9697 7.39407 24.1837 7.31018 24.3899 7.15374L24.3295 7.07407L24.269 6.9944C24.0886 7.13129 23.9159 7.19407 23.7495 7.19407V7.29407ZM24.3295 7.07407L24.3899 7.15374C24.6135 6.98414 24.7195 6.73137 24.7195 6.41407H24.6195H24.5195C24.5195 6.68343 24.4321 6.87066 24.269 6.9944L24.3295 7.07407ZM24.6195 6.41407H24.7195C24.7195 6.09676 24.6135 5.84399 24.3899 5.6744L24.3295 5.75407L24.269 5.83374C24.4321 5.95748 24.5195 6.14471 24.5195 6.41407H24.6195ZM24.3295 5.75407L24.3916 5.67572C24.1842 5.51118 23.9629 5.42407 23.7295 5.42407V5.52407V5.62407C23.9094 5.62407 24.0881 5.69028 24.2673 5.83242L24.3295 5.75407ZM23.7295 5.52407V5.42407H22.4695V5.52407V5.62407H23.7295V5.52407ZM22.4695 5.52407H22.3695V7.29407H22.4695H22.5695V5.52407H22.4695ZM29.1781 9.31407H29.0781V9.41407H29.1781V9.31407ZM32.5981 9.33407L32.5801 9.43292L32.5898 9.43372L32.5981 9.33407ZM32.8681 9.42407L32.821 9.51231L32.822 9.51284L32.8681 9.42407ZM32.7681 11.0241L32.7372 10.9289L32.7348 10.9298L32.7681 11.0241ZM27.4681 10.7041L27.5636 10.6739L27.5617 10.669L27.4681 10.7041ZM27.5981 3.94407L27.6669 4.01669L27.6688 4.01478L27.5981 3.94407ZM32.5981 3.77407L32.5801 3.87292L32.5898 3.87372L32.5981 3.77407ZM32.8681 3.86407L32.821 3.95231L32.822 3.95284L32.8681 3.86407ZM32.7681 5.46407L32.7372 5.36891L32.7348 5.36977L32.7681 5.46407ZM29.1781 5.52407V5.42407H29.0781V5.52407H29.1781ZM29.1781 6.53407H29.0781V6.63407H29.1781V6.53407ZM31.4981 6.55407L31.4801 6.65292L31.4898 6.65372L31.4981 6.55407ZM31.7681 6.64407L31.721 6.73231L31.722 6.73284L31.7681 6.64407ZM31.6581 8.24407L31.6279 8.14866L31.6248 8.14977L31.6581 8.24407ZM29.1781 8.30407V8.20407H29.0781V8.30407H29.1781ZM29.1781 9.31407V9.41407H32.2581V9.31407V9.21407H29.1781V9.31407ZM32.2581 9.31407V9.41407C32.4103 9.41407 32.5161 9.42081 32.5802 9.43245L32.5981 9.33407L32.616 9.23568C32.5333 9.22066 32.4125 9.21407 32.2581 9.21407V9.31407ZM32.5981 9.33407L32.5898 9.43372C32.6518 9.43889 32.7284 9.46293 32.821 9.5123L32.8681 9.42407L32.9151 9.33583C32.8077 9.27854 32.7043 9.24257 32.6064 9.23441L32.5981 9.33407ZM32.8681 9.42407L32.822 9.51284C32.8822 9.54403 32.9364 9.60718 32.9761 9.72178C33.016 9.83712 33.0381 9.99643 33.0381 10.2041H33.1381H33.2381C33.2381 9.98504 33.2151 9.80101 33.1651 9.65636C33.1147 9.51095 33.0339 9.39743 32.9141 9.33529L32.8681 9.42407ZM33.1381 10.2041H33.0381C33.0381 10.6656 32.9153 10.8712 32.7372 10.9289L32.7681 11.0241L32.7989 11.1192C33.1142 11.0169 33.2381 10.6758 33.2381 10.2041H33.1381ZM32.7681 11.0241L32.7348 10.9298C32.638 10.9639 32.4787 10.9841 32.2481 10.9841V11.0841V11.1841C32.4841 11.1841 32.6715 11.1642 32.8013 11.1184L32.7681 11.0241ZM32.2481 11.0841V10.9841H28.2881V11.0841V11.1841H32.2481V11.0841ZM28.2881 11.0841V10.9841C27.828 10.9841 27.6218 10.8588 27.5634 10.674L27.4681 10.7041L27.3727 10.7342C27.4743 11.056 27.8148 11.1841 28.2881 11.1841V11.0841ZM27.4681 10.7041L27.5617 10.669C27.5284 10.5801 27.5081 10.4253 27.5081 10.1941H27.4081H27.3081C27.3081 10.4295 27.3278 10.6147 27.3744 10.7392L27.4681 10.7041ZM27.4081 10.1941H27.5081V4.63407H27.4081H27.3081V10.1941H27.4081ZM27.4081 4.63407H27.5081C27.5081 4.29845 27.5722 4.10628 27.6668 4.01666L27.5981 3.94407L27.5293 3.87147C27.3706 4.02185 27.3081 4.28969 27.3081 4.63407H27.4081ZM27.5981 3.94407L27.6688 4.01478C27.7652 3.91834 27.9687 3.85407 28.3181 3.85407V3.75407V3.65407C27.9607 3.65407 27.6842 3.71646 27.5274 3.87336L27.5981 3.94407ZM28.3181 3.75407V3.85407H32.2581V3.75407V3.65407H28.3181V3.75407ZM32.2581 3.75407V3.85407C32.4103 3.85407 32.5161 3.86081 32.5802 3.87245L32.5981 3.77407L32.616 3.67568C32.5333 3.66066 32.4125 3.65407 32.2581 3.65407V3.75407ZM32.5981 3.77407L32.5898 3.87372C32.6518 3.87889 32.7284 3.90293 32.821 3.9523L32.8681 3.86407L32.9151 3.77583C32.8077 3.71854 32.7043 3.68257 32.6064 3.67441L32.5981 3.77407ZM32.8681 3.86407L32.822 3.95284C32.8822 3.98403 32.9364 4.04718 32.9761 4.16178C33.016 4.27712 33.0381 4.43643 33.0381 4.64407H33.1381H33.2381C33.2381 4.42504 33.2151 4.24101 33.1651 4.09636C33.1147 3.95095 33.0339 3.83743 32.9141 3.77529L32.8681 3.86407ZM33.1381 4.64407H33.0381C33.0381 5.10564 32.9153 5.31119 32.7372 5.36894L32.7681 5.46407L32.7989 5.55919C33.1142 5.45694 33.2381 5.11583 33.2381 4.64407H33.1381ZM32.7681 5.46407L32.7348 5.36977C32.638 5.40392 32.4787 5.42407 32.2481 5.42407V5.52407V5.62407C32.4841 5.62407 32.6715 5.60421 32.8013 5.55837L32.7681 5.46407ZM32.2481 5.52407V5.42407H29.1781V5.52407V5.62407H32.2481V5.52407ZM29.1781 5.52407H29.0781V6.53407H29.1781H29.2781V5.52407H29.1781ZM29.1781 6.53407V6.63407H31.1581V6.53407V6.43407H29.1781V6.53407ZM31.1581 6.53407V6.63407C31.3103 6.63407 31.4161 6.64081 31.4802 6.65245L31.4981 6.55407L31.516 6.45568C31.4333 6.44066 31.3125 6.43407 31.1581 6.43407V6.53407ZM31.4981 6.55407L31.4898 6.65372C31.5518 6.65889 31.6284 6.68293 31.721 6.7323L31.7681 6.64407L31.8151 6.55583C31.7077 6.49854 31.6043 6.46257 31.5064 6.45441L31.4981 6.55407ZM31.7681 6.64407L31.722 6.73284C31.7822 6.76403 31.8364 6.82718 31.8761 6.94178C31.916 7.05712 31.9381 7.21643 31.9381 7.42407H32.0381H32.1381C32.1381 7.20504 32.1151 7.02101 32.0651 6.87636C32.0147 6.73095 31.9339 6.61743 31.8141 6.55529L31.7681 6.64407ZM32.0381 7.42407H31.9381C31.9381 7.88413 31.8128 8.09033 31.628 8.14871L31.6581 8.24407L31.6882 8.33943C32.01 8.2378 32.1381 7.89733 32.1381 7.42407H32.0381ZM31.6581 8.24407L31.6248 8.14977C31.528 8.18392 31.3687 8.20407 31.1381 8.20407V8.30407V8.40407C31.3741 8.40407 31.5615 8.38421 31.6913 8.33837L31.6581 8.24407ZM31.1381 8.30407V8.20407H29.1781V8.30407V8.40407H31.1381V8.30407ZM29.1781 8.30407H29.0781V9.31407H29.1781H29.2781V8.30407H29.1781Z" fill="#3B3B3B"/>
<defs>
<filter id="filter0_d_195_269" x="0" y="0" width="38.4016" height="18.8945" filterUnits="userSpaceOnUse" color-interpolation-filters="sRGB">
<feFlood flood-opacity="0" result="BackgroundImageFix"/>
<feColorMatrix in="SourceAlpha" type="matrix" values="0 0 0 0 0 0 0 0 0 0 0 0 0 0 0 0 0 0 127 0" result="hardAlpha"/>
<feOffset dy="2"/>
<feGaussianBlur stdDeviation="1"/>
<feComposite in2="hardAlpha" operator="out"/>
<feColorMatrix type="matrix" values="0 0 0 0 0 0 0 0 0 0 0 0 0 0 0 0 0 0 0.5 0"/>
<feBlend mode="normal" in2="BackgroundImageFix" result="effect1_dropShadow_195_269"/>
<feBlend mode="normal" in="SourceGraphic" in2="effect1_dropShadow_195_269" result="shape"/>
</filter>
<linearGradient id="paint0_linear_195_269" x1="18.6704" y1="-4.58978e-08" x2="18.6704" y2="14.8946" gradientUnits="userSpaceOnUse">
<stop stop-color="#D7FEC4"/>
<stop offset="0.225962" stop-color="#00C213"/>
</linearGradient>
<linearGradient id="paint1_linear_195_269" x1="20.6407" y1="1.6925" x2="20.6407" y2="13.202" gradientUnits="userSpaceOnUse">
<stop stop-color="#54FA1D"/>
<stop offset="1" stop-color="#00AF40"/>
</linearGradient>
</defs>
</svg>
