<svg width="101" height="23" viewBox="0 0 101 23" fill="none" xmlns="http://www.w3.org/2000/svg">
<rect x="0.5" y="0.5" width="100" height="22" rx="6.5" fill="#EF8F3A" stroke="#BF7224"/>
<path d="M11.2508 4.90116C9.56975 5.27775 8.099 6.27201 7.14019 7.68005C6.18137 9.08809 5.80716 10.8032 6.0943 12.4737M11.2508 4.90116L9.00104 4M11.2508 4.90116L10.5009 6.94737M18.7982 14.3158C19.2613 13.4 19.5016 12.391 19.5001 11.3684C19.5001 8.0821 17.0681 5.35505 13.8756 4.82821M18.7982 14.3158L21 12.8421M18.7982 14.3158L17.6253 12.1053M7.13821 15.0526C7.75442 15.96 8.58915 16.7037 9.56825 17.2179C10.5474 17.7321 11.6405 18.0007 12.7507 18C14.4113 18.002 16.014 17.4005 17.2503 16.3112M7.13821 15.0526H9.75098M7.13821 15.0526V17.6316" stroke="#FBE9BE" stroke-width="1.5" stroke-linecap="round" stroke-linejoin="round"/>
</svg>
