<svg width="48" height="48" viewBox="0 0 48 48" fill="none" xmlns="http://www.w3.org/2000/svg">
<g filter="url(#filter0_d_78_209)">
<rect x="4" width="40" height="40" rx="17" fill="#FDAD42"/>
<rect x="4.25" y="0.25" width="39.5" height="39.5" rx="16.75" stroke="black" stroke-width="0.5"/>
</g>
<g filter="url(#filter1_d_78_209)">
<rect x="4" width="40" height="40" rx="17" fill="#FDAD42"/>
<rect x="4.35" y="0.35" width="39.3" height="39.3" rx="16.65" stroke="#3E1614" stroke-width="0.7"/>
</g>
<path d="M24 3.5C8 3.5 6 19.5 6 19.5C6 19.5 6 2 24 2C42 2 42 19.5 42 19.5C42 19.5 40 3.5 24 3.5Z" fill="url(#paint0_linear_78_209)" fill-opacity="0.75"/>
<path d="M6 23.5L4.5 20V25.5C6.5 33.5 12 38.5 19 39.5H28.5C37 38.5 42.5 32.5 43.5 24.5V20L42 23.5C40 32 34 36 26.5 37H21C13.5 36.5 7.5 30.5 6 23.5Z" fill="url(#paint1_linear_78_209)" fill-opacity="0.9"/>
<g filter="url(#filter2_d_78_209)">
<rect x="6.1" y="3.1" width="35.8" height="33.8" rx="15.9" stroke="#FEF053" stroke-width="0.2" shape-rendering="crispEdges"/>
</g>
<path d="M32.806 17.873H22.8601L26.3704 14.3292C26.9555 11.9667 25.2003 10.1947 22.8601 11.376L14.6693 19.0543C13.7672 20.2072 13.7866 20.8543 14.6693 22.0075L22.8601 29.6858C25.2003 30.8671 27.5405 28.5046 26.3704 26.142L22.8601 23.1888H32.806C35.7313 22.5981 35.7313 18.4637 32.806 17.873Z" fill="white" stroke="#60270A" stroke-width="0.8"/>
<defs>
<filter id="filter0_d_78_209" x="0" y="0" width="48" height="48" filterUnits="userSpaceOnUse" color-interpolation-filters="sRGB">
<feFlood flood-opacity="0" result="BackgroundImageFix"/>
<feColorMatrix in="SourceAlpha" type="matrix" values="0 0 0 0 0 0 0 0 0 0 0 0 0 0 0 0 0 0 127 0" result="hardAlpha"/>
<feOffset dy="4"/>
<feGaussianBlur stdDeviation="2"/>
<feComposite in2="hardAlpha" operator="out"/>
<feColorMatrix type="matrix" values="0 0 0 0 0 0 0 0 0 0 0 0 0 0 0 0 0 0 0.25 0"/>
<feBlend mode="normal" in2="BackgroundImageFix" result="effect1_dropShadow_78_209"/>
<feBlend mode="normal" in="SourceGraphic" in2="effect1_dropShadow_78_209" result="shape"/>
</filter>
<filter id="filter1_d_78_209" x="0" y="0" width="48" height="48" filterUnits="userSpaceOnUse" color-interpolation-filters="sRGB">
<feFlood flood-opacity="0" result="BackgroundImageFix"/>
<feColorMatrix in="SourceAlpha" type="matrix" values="0 0 0 0 0 0 0 0 0 0 0 0 0 0 0 0 0 0 127 0" result="hardAlpha"/>
<feOffset dy="4"/>
<feGaussianBlur stdDeviation="2"/>
<feComposite in2="hardAlpha" operator="out"/>
<feColorMatrix type="matrix" values="0 0 0 0 0 0 0 0 0 0 0 0 0 0 0 0 0 0 0.25 0"/>
<feBlend mode="normal" in2="BackgroundImageFix" result="effect1_dropShadow_78_209"/>
<feBlend mode="normal" in="SourceGraphic" in2="effect1_dropShadow_78_209" result="shape"/>
</filter>
<filter id="filter2_d_78_209" x="2" y="3" width="44" height="42" filterUnits="userSpaceOnUse" color-interpolation-filters="sRGB">
<feFlood flood-opacity="0" result="BackgroundImageFix"/>
<feColorMatrix in="SourceAlpha" type="matrix" values="0 0 0 0 0 0 0 0 0 0 0 0 0 0 0 0 0 0 127 0" result="hardAlpha"/>
<feOffset dy="4"/>
<feGaussianBlur stdDeviation="2"/>
<feComposite in2="hardAlpha" operator="out"/>
<feColorMatrix type="matrix" values="0 0 0 0 0 0 0 0 0 0 0 0 0 0 0 0 0 0 0.25 0"/>
<feBlend mode="normal" in2="BackgroundImageFix" result="effect1_dropShadow_78_209"/>
<feBlend mode="normal" in="SourceGraphic" in2="effect1_dropShadow_78_209" result="shape"/>
</filter>
<linearGradient id="paint0_linear_78_209" x1="23.5" y1="11.5" x2="24" y2="19.5" gradientUnits="userSpaceOnUse">
<stop stop-color="#FFEB09"/>
<stop offset="0.293269" stop-color="#FDAD42"/>
</linearGradient>
<linearGradient id="paint1_linear_78_209" x1="24" y1="20" x2="24" y2="39.5" gradientUnits="userSpaceOnUse">
<stop stop-color="#993C14"/>
<stop offset="1" stop-color="#331407"/>
</linearGradient>
</defs>
</svg>
