<svg width="48" height="48" viewBox="0 0 48 48" fill="none" xmlns="http://www.w3.org/2000/svg">
<g filter="url(#filter0_d_84_84)">
<g filter="url(#filter1_d_84_84)">
<rect x="4" width="40" height="40" rx="20" fill="#D5682F"/>
<rect x="4.5" y="0.5" width="39" height="39" rx="19.5" stroke="#3E1614"/>
</g>
<rect x="7.10712" y="3.10715" width="33.7857" height="33.7857" rx="16.8929" fill="#A04423" stroke="#3E1614" stroke-width="0.5"/>
<path d="M22.589 8.82144H25.4103C25.8924 8.82144 26.2987 8.97249 26.6417 9.27359C26.9888 9.57832 27.1933 9.94388 27.2638 10.3771V10.3781L27.5343 12.2638L27.5548 12.4123L27.6954 12.463C27.9424 12.5535 28.1743 12.6625 28.3917 12.7882C28.6161 12.918 28.8354 13.0569 29.049 13.2052L29.1603 13.2824L29.2843 13.2326L31.1456 12.4894L31.1495 12.4875C31.5948 12.301 32.0322 12.2857 32.4728 12.4367C32.92 12.59 33.2638 12.8591 33.5128 13.2482L34.92 15.5861L34.924 15.5919C35.1681 15.9738 35.2355 16.3707 35.132 16.798C35.0259 17.2355 34.7874 17.5972 34.4103 17.8878L32.8273 19.0255L32.7032 19.1144L32.7267 19.2658C32.745 19.3876 32.754 19.5038 32.754 19.6144V20.3849C32.754 20.482 32.738 20.5867 32.7042 20.6994L32.6525 20.8703L32.798 20.9748L34.382 22.1115V22.1125C34.7588 22.4029 34.9956 22.7641 35.1017 23.2013C35.2053 23.6288 35.1379 24.0264 34.8937 24.4084L34.8917 24.4123L33.4532 26.7511C33.2041 27.1407 32.8599 27.4102 32.4122 27.5636C31.9716 27.7146 31.5343 27.6984 31.089 27.5119H31.088L29.2872 26.7687L29.1613 26.7169L29.0499 26.7941C28.8368 26.9417 28.6131 27.0807 28.38 27.2101C28.1489 27.3384 27.9189 27.4483 27.6896 27.5392L27.5548 27.5929L27.5343 27.7365L27.2648 29.6173C27.1943 30.0532 26.9896 30.4207 26.6417 30.7267C26.2997 31.0276 25.8933 31.1789 25.4103 31.1789H22.589C22.107 31.1788 21.7015 31.0276 21.3595 30.7267C21.0552 30.459 20.8604 30.144 20.7687 29.7775L20.7355 29.6173L20.4659 27.7365L20.4445 27.588L20.3048 27.5363L20.1222 27.466C19.9426 27.3915 19.772 27.3064 19.6095 27.2121C19.3856 27.0821 19.1658 26.9428 18.9503 26.7941L18.84 26.7179L18.715 26.7677L16.8546 27.5109L16.8507 27.5119C16.4054 27.6984 15.9681 27.7146 15.5275 27.5636C15.1359 27.4294 14.8239 27.2062 14.5851 26.8918L14.4865 26.7511L13.0802 24.4142L13.0763 24.4084L12.9933 24.2638C12.8183 23.9261 12.7776 23.5753 12.8683 23.2013C12.9744 22.7641 13.2112 22.4029 13.588 22.1125L13.587 22.1115L15.172 20.9748L15.296 20.8849L15.2736 20.7345C15.2552 20.6124 15.2462 20.4957 15.2462 20.3849V19.6134C15.2462 19.5036 15.2553 19.3878 15.2736 19.2658L15.296 19.1144L15.172 19.0255L13.588 17.8878C13.211 17.5973 12.9743 17.2355 12.8683 16.798C12.7648 16.3706 12.8321 15.9739 13.0763 15.5919L13.0792 15.5861L14.4865 13.2492C14.7355 12.8596 15.0798 12.5901 15.5275 12.4367C15.9681 12.2857 16.4054 12.3009 16.8507 12.4875L16.8546 12.4894L18.715 13.2326L18.84 13.2824L18.9503 13.2052C19.1633 13.0578 19.3864 12.9195 19.6193 12.7902C19.8505 12.6618 20.0812 12.5521 20.3107 12.4611L20.4454 12.4074L20.4659 12.2638L20.7355 10.383C20.8059 9.94727 21.0109 9.57962 21.3595 9.27359C21.6596 9.01014 22.0076 8.86133 22.4122 8.82828L22.589 8.82144ZM24.0597 15.7502C22.8182 15.7502 21.7592 16.1632 20.8995 16.9914C20.041 17.8184 19.6077 18.826 19.6085 20.0002C19.6094 21.1741 20.0428 22.1819 20.9005 23.0089C21.7594 23.8371 22.8182 24.2501 24.0597 24.2502C25.2824 24.2502 26.3352 23.8361 27.2032 23.0099C28.0717 22.1832 28.5118 21.1752 28.5118 20.0002C28.5118 18.825 28.0717 17.8172 27.2032 16.9904C26.3352 16.1641 25.2825 15.7502 24.0597 15.7502Z" fill="white" stroke="#3E1614" stroke-width="0.5"/>
</g>
<defs>
<filter id="filter0_d_84_84" x="0" y="0" width="48" height="48" filterUnits="userSpaceOnUse" color-interpolation-filters="sRGB">
<feFlood flood-opacity="0" result="BackgroundImageFix"/>
<feColorMatrix in="SourceAlpha" type="matrix" values="0 0 0 0 0 0 0 0 0 0 0 0 0 0 0 0 0 0 127 0" result="hardAlpha"/>
<feOffset dy="4"/>
<feGaussianBlur stdDeviation="2"/>
<feComposite in2="hardAlpha" operator="out"/>
<feColorMatrix type="matrix" values="0 0 0 0 0 0 0 0 0 0 0 0 0 0 0 0 0 0 0.25 0"/>
<feBlend mode="normal" in2="BackgroundImageFix" result="effect1_dropShadow_84_84"/>
<feBlend mode="normal" in="SourceGraphic" in2="effect1_dropShadow_84_84" result="shape"/>
</filter>
<filter id="filter1_d_84_84" x="0" y="0" width="48" height="48" filterUnits="userSpaceOnUse" color-interpolation-filters="sRGB">
<feFlood flood-opacity="0" result="BackgroundImageFix"/>
<feColorMatrix in="SourceAlpha" type="matrix" values="0 0 0 0 0 0 0 0 0 0 0 0 0 0 0 0 0 0 127 0" result="hardAlpha"/>
<feOffset dy="4"/>
<feGaussianBlur stdDeviation="2"/>
<feComposite in2="hardAlpha" operator="out"/>
<feColorMatrix type="matrix" values="0 0 0 0 0 0 0 0 0 0 0 0 0 0 0 0 0 0 0.25 0"/>
<feBlend mode="normal" in2="BackgroundImageFix" result="effect1_dropShadow_84_84"/>
<feBlend mode="normal" in="SourceGraphic" in2="effect1_dropShadow_84_84" result="shape"/>
</filter>
</defs>
</svg>
