<svg width="237" height="57" viewBox="0 0 237 57" fill="none" xmlns="http://www.w3.org/2000/svg">
<g filter="url(#filter0_d_121_138)">
<rect x="4" width="229" height="49" rx="15" fill="#C15D1F"/>
<rect x="4.5" y="0.5" width="228" height="48" rx="14.5" stroke="#AC3415"/>
</g>
<rect x="5" width="227" height="44" rx="15" fill="url(#paint0_linear_121_138)"/>
<rect x="10.5" y="5.5" width="215" height="33" rx="11.5" fill="url(#paint1_linear_121_138)" stroke="#AC3415"/>
<foreignObject x="19" y="37.5" width="13.5" height="6.00128"><div xmlns="http://www.w3.org/1999/xhtml" style="backdrop-filter:blur(1px);clip-path:url(#bgblur_0_121_138_clip_path);height:100%;width:100%"></div></foreignObject><path data-figma-bg-blur-radius="2" d="M26 39.5C22.5 39.5 21 39.5 21 40.5386C21 41.5773 22.5 41.5 25.5 41.5C28.5 41.5 30.5 41.2357 30.5 40.5C30.5 39.7643 29.5 39.5 26 39.5Z" fill="white"/>
<foreignObject x="9.40625" y="4.72223" width="16.0938" height="13.2778"><div xmlns="http://www.w3.org/1999/xhtml" style="backdrop-filter:blur(1px);clip-path:url(#bgblur_1_121_138_clip_path);height:100%;width:100%"></div></foreignObject><path data-figma-bg-blur-radius="2" d="M16 8.5C12.5 10.5 11 16 11.5 16C12 16 14.5 12 16.5 10.5C18.5 9 23.5 7.5 23.5 7C23.5 6.50001 19.5 6.5 16 8.5Z" fill="white"/>
<foreignObject x="4.34448" y="-0.333252" width="17.6555" height="17.3333"><div xmlns="http://www.w3.org/1999/xhtml" style="backdrop-filter:blur(1px);clip-path:url(#bgblur_2_121_138_clip_path);height:100%;width:100%"></div></foreignObject><path data-figma-bg-blur-radius="2" d="M11.0938 5.00003C6.49999 9.00003 6.00001 15 6.49998 15C6.99996 15 7.3658 10 12 6.00003C16.6342 2.00003 20 2.50004 20 2.00008C20 1.50012 15.6875 1.00002 11.0938 5.00003Z" fill="white"/>
<foreignObject x="205.5" y="36.4421" width="18" height="7.55786"><div xmlns="http://www.w3.org/1999/xhtml" style="backdrop-filter:blur(1px);clip-path:url(#bgblur_3_121_138_clip_path);height:100%;width:100%"></div></foreignObject><path data-figma-bg-blur-radius="2" d="M214.5 39.5C211 39.5 207.5 39 207.5 40.5C207.5 42 211.5 42 214.5 42H214.5C217.5 42 221.5 40.5 221.5 39C221.5 37.5 218 39.5 214.5 39.5Z" fill="white"/>
<foreignObject x="114" y="38" width="13.5" height="6.00128"><div xmlns="http://www.w3.org/1999/xhtml" style="backdrop-filter:blur(1px);clip-path:url(#bgblur_4_121_138_clip_path);height:100%;width:100%"></div></foreignObject><path data-figma-bg-blur-radius="2" d="M121 40C117.5 40 116 40 116 41.0386C116 42.0772 117.5 42 120.5 42C123.5 42 125.5 42 125.5 41C125.5 40 124.5 40 121 40H121Z" fill="white"/>
<defs>
<filter id="filter0_d_121_138" x="0" y="0" width="237" height="57" filterUnits="userSpaceOnUse" color-interpolation-filters="sRGB">
<feFlood flood-opacity="0" result="BackgroundImageFix"/>
<feColorMatrix in="SourceAlpha" type="matrix" values="0 0 0 0 0 0 0 0 0 0 0 0 0 0 0 0 0 0 127 0" result="hardAlpha"/>
<feOffset dy="4"/>
<feGaussianBlur stdDeviation="2"/>
<feComposite in2="hardAlpha" operator="out"/>
<feColorMatrix type="matrix" values="0 0 0 0 0 0 0 0 0 0 0 0 0 0 0 0 0 0 0.25 0"/>
<feBlend mode="normal" in2="BackgroundImageFix" result="effect1_dropShadow_121_138"/>
<feBlend mode="normal" in="SourceGraphic" in2="effect1_dropShadow_121_138" result="shape"/>
</filter>
<clipPath id="bgblur_0_121_138_clip_path" transform="translate(-19 -37.5)"><path d="M26 39.5C22.5 39.5 21 39.5 21 40.5386C21 41.5773 22.5 41.5 25.5 41.5C28.5 41.5 30.5 41.2357 30.5 40.5C30.5 39.7643 29.5 39.5 26 39.5Z"/>
</clipPath><clipPath id="bgblur_1_121_138_clip_path" transform="translate(-9.40625 -4.72223)"><path d="M16 8.5C12.5 10.5 11 16 11.5 16C12 16 14.5 12 16.5 10.5C18.5 9 23.5 7.5 23.5 7C23.5 6.50001 19.5 6.5 16 8.5Z"/>
</clipPath><clipPath id="bgblur_2_121_138_clip_path" transform="translate(-4.34448 0.333252)"><path d="M11.0938 5.00003C6.49999 9.00003 6.00001 15 6.49998 15C6.99996 15 7.3658 10 12 6.00003C16.6342 2.00003 20 2.50004 20 2.00008C20 1.50012 15.6875 1.00002 11.0938 5.00003Z"/>
</clipPath><clipPath id="bgblur_3_121_138_clip_path" transform="translate(-205.5 -36.4421)"><path d="M214.5 39.5C211 39.5 207.5 39 207.5 40.5C207.5 42 211.5 42 214.5 42H214.5C217.5 42 221.5 40.5 221.5 39C221.5 37.5 218 39.5 214.5 39.5Z"/>
</clipPath><clipPath id="bgblur_4_121_138_clip_path" transform="translate(-114 -38)"><path d="M121 40C117.5 40 116 40 116 41.0386C116 42.0772 117.5 42 120.5 42C123.5 42 125.5 42 125.5 41C125.5 40 124.5 40 121 40H121Z"/>
</clipPath><linearGradient id="paint0_linear_121_138" x1="115" y1="-1.35586e-07" x2="115" y2="44" gradientUnits="userSpaceOnUse">
<stop stop-color="#FEFDC4"/>
<stop offset="0.225962" stop-color="#FEC137"/>
</linearGradient>
<linearGradient id="paint1_linear_121_138" x1="128" y1="5" x2="128" y2="39" gradientUnits="userSpaceOnUse">
<stop stop-color="#FEDB4B"/>
<stop offset="1" stop-color="#FDA126"/>
</linearGradient>
</defs>
</svg>
