<svg width="229" height="20" viewBox="0 0 229 20" fill="none" xmlns="http://www.w3.org/2000/svg">
<g filter="url(#filter0_d_109_109)">
<rect x="4.5" y="0.5" width="220" height="11" rx="5.5" fill="#552D23" stroke="#A14D31"/>
<rect x="42" y="2" width="53" height="8" rx="4" fill="url(#paint0_linear_109_109)"/>
<rect x="6" y="2" width="36" height="8" rx="4" fill="url(#paint1_linear_109_109)"/>
<rect x="95" y="2" width="90" height="8" rx="4" fill="url(#paint2_linear_109_109)"/>
<mask id="path-5-outside-1_109_109" maskUnits="userSpaceOnUse" x="104.534" y="1" width="17" height="9" fill="black">
<rect fill="white" x="104.534" y="1" width="17" height="9"/>
<path d="M107.331 9.1C107.144 9.1 107.008 9.08 106.921 9.04C106.841 9 106.788 8.94333 106.761 8.87C106.734 8.79667 106.721 8.71333 106.721 8.62C106.721 8.23333 106.778 7.85667 106.891 7.49C107.004 7.12333 107.151 6.76667 107.331 6.42C107.511 6.07333 107.701 5.74667 107.901 5.44C108.101 5.12667 108.288 4.83667 108.461 4.57C108.641 4.30333 108.788 4.06333 108.901 3.85C109.021 3.63667 109.081 3.46 109.081 3.32H106.261C106.154 3.32 106.054 3.30667 105.961 3.28C105.868 3.25333 105.794 3.2 105.741 3.12C105.688 3.03333 105.661 2.89667 105.661 2.71C105.661 2.52333 105.684 2.39 105.731 2.31C105.784 2.22333 105.851 2.17 105.931 2.15C106.018 2.12333 106.111 2.11 106.211 2.11H109.891C110.084 2.11 110.221 2.14333 110.301 2.21C110.381 2.27 110.431 2.35 110.451 2.45C110.478 2.54333 110.491 2.65 110.491 2.77C110.491 3.05 110.428 3.34333 110.301 3.65C110.181 3.95 110.024 4.26 109.831 4.58C109.644 4.9 109.441 5.22667 109.221 5.56C109.001 5.89333 108.794 6.23333 108.601 6.58C108.408 6.92 108.248 7.26333 108.121 7.61C108.001 7.95 107.941 8.29333 107.941 8.64C107.941 8.72667 107.928 8.80667 107.901 8.88C107.881 8.94667 107.828 9 107.741 9.04C107.654 9.08 107.518 9.1 107.331 9.1ZM113.921 9.16C113.421 9.16 112.994 9.05333 112.641 8.84C112.287 8.62 112.014 8.3 111.821 7.88C111.634 7.46 111.541 6.95333 111.541 6.36C111.541 5.84667 111.597 5.37 111.711 4.93C111.831 4.49 112.001 4.09667 112.221 3.75C112.447 3.39667 112.717 3.09667 113.031 2.85C113.351 2.60333 113.707 2.41333 114.101 2.28C114.494 2.14667 114.921 2.08 115.381 2.08C115.487 2.08 115.581 2.09333 115.661 2.12C115.747 2.14 115.817 2.19333 115.871 2.28C115.924 2.36667 115.951 2.50333 115.951 2.69C115.951 2.87667 115.921 3.01333 115.861 3.1C115.807 3.18667 115.734 3.24 115.641 3.26C115.554 3.28 115.454 3.29 115.341 3.29C115.007 3.29 114.711 3.33333 114.451 3.42C114.191 3.50667 113.961 3.62333 113.761 3.77C113.561 3.91667 113.394 4.08667 113.261 4.28C113.127 4.46667 113.027 4.66667 112.961 4.88C112.894 5.08667 112.857 5.29333 112.851 5.5L112.711 5.56C112.751 5.44667 112.831 5.34 112.951 5.24C113.071 5.14 113.221 5.06 113.401 5C113.587 4.93333 113.787 4.9 114.001 4.9C114.421 4.9 114.791 4.99 115.111 5.17C115.437 5.35 115.694 5.59667 115.881 5.91C116.067 6.21667 116.161 6.56333 116.161 6.95C116.161 7.37667 116.064 7.75667 115.871 8.09C115.684 8.42333 115.421 8.68667 115.081 8.88C114.747 9.06667 114.361 9.16 113.921 9.16ZM113.881 8.03C114.114 8.03 114.311 7.99 114.471 7.91C114.637 7.82333 114.761 7.70333 114.841 7.55C114.927 7.39667 114.971 7.21333 114.971 7C114.971 6.8 114.931 6.62667 114.851 6.48C114.771 6.32667 114.651 6.21 114.491 6.13C114.337 6.04333 114.154 6 113.941 6C113.707 6 113.504 6.04333 113.331 6.13C113.157 6.21 113.024 6.32333 112.931 6.47C112.844 6.61667 112.801 6.78667 112.801 6.98C112.801 7.19333 112.841 7.38 112.921 7.54C113.007 7.7 113.131 7.82333 113.291 7.91C113.451 7.99 113.647 8.03 113.881 8.03ZM119.133 9.16C118.96 9.16 118.777 9.14 118.583 9.1C118.39 9.06667 118.203 9.01667 118.023 8.95C117.843 8.87667 117.687 8.79333 117.553 8.7C117.427 8.6 117.347 8.49 117.313 8.37C117.287 8.30333 117.277 8.24 117.283 8.18C117.29 8.11333 117.31 8.04667 117.343 7.98C117.377 7.90667 117.427 7.83333 117.493 7.76C117.553 7.68667 117.613 7.64667 117.673 7.64C117.74 7.62667 117.823 7.64667 117.923 7.7C118.01 7.73333 118.103 7.77667 118.203 7.83C118.31 7.88333 118.417 7.93667 118.523 7.99C118.637 8.04333 118.75 8.08667 118.863 8.12C118.983 8.15333 119.1 8.17 119.213 8.17C119.46 8.17 119.657 8.13 119.803 8.05C119.95 7.96333 120.023 7.84333 120.023 7.69C120.023 7.60333 120 7.52667 119.953 7.46C119.907 7.39333 119.843 7.34 119.763 7.3C119.69 7.25333 119.6 7.21333 119.493 7.18C119.393 7.14 119.283 7.10667 119.163 7.08C119.05 7.04667 118.93 7.01 118.803 6.97C118.637 6.92333 118.47 6.86667 118.303 6.8C118.137 6.73333 117.987 6.64667 117.853 6.54C117.727 6.43333 117.623 6.3 117.543 6.14C117.463 5.98 117.423 5.78 117.423 5.54C117.423 5.24 117.493 4.98667 117.633 4.78C117.78 4.56667 117.99 4.40333 118.263 4.29C118.537 4.17667 118.867 4.12 119.253 4.12C119.387 4.12 119.513 4.13 119.633 4.15C119.76 4.17 119.88 4.2 119.993 4.24C120.113 4.27333 120.227 4.31667 120.333 4.37C120.447 4.42333 120.553 4.48333 120.653 4.55C120.82 4.64333 120.907 4.75333 120.913 4.88C120.92 5 120.873 5.13 120.773 5.27C120.7 5.36333 120.627 5.43 120.553 5.47C120.48 5.50333 120.403 5.50333 120.323 5.47C120.217 5.41667 120.1 5.36 119.973 5.3C119.853 5.23333 119.727 5.17667 119.593 5.13C119.467 5.08333 119.333 5.06 119.193 5.06C119.06 5.06 118.94 5.08 118.833 5.12C118.727 5.16 118.647 5.21667 118.593 5.29C118.54 5.36333 118.513 5.45 118.513 5.55C118.513 5.64333 118.54 5.72 118.593 5.78C118.647 5.84 118.717 5.89 118.803 5.93C118.89 5.97 118.993 6.00667 119.113 6.04C119.233 6.06667 119.36 6.09333 119.493 6.12C119.68 6.16 119.87 6.21 120.063 6.27C120.257 6.33 120.433 6.41333 120.593 6.52C120.76 6.62667 120.893 6.77 120.993 6.95C121.093 7.12333 121.143 7.35 121.143 7.63C121.143 8.11667 120.963 8.49333 120.603 8.76C120.25 9.02667 119.76 9.16 119.133 9.16Z"/>
</mask>
<path d="M107.331 9.1C107.144 9.1 107.008 9.08 106.921 9.04C106.841 9 106.788 8.94333 106.761 8.87C106.734 8.79667 106.721 8.71333 106.721 8.62C106.721 8.23333 106.778 7.85667 106.891 7.49C107.004 7.12333 107.151 6.76667 107.331 6.42C107.511 6.07333 107.701 5.74667 107.901 5.44C108.101 5.12667 108.288 4.83667 108.461 4.57C108.641 4.30333 108.788 4.06333 108.901 3.85C109.021 3.63667 109.081 3.46 109.081 3.32H106.261C106.154 3.32 106.054 3.30667 105.961 3.28C105.868 3.25333 105.794 3.2 105.741 3.12C105.688 3.03333 105.661 2.89667 105.661 2.71C105.661 2.52333 105.684 2.39 105.731 2.31C105.784 2.22333 105.851 2.17 105.931 2.15C106.018 2.12333 106.111 2.11 106.211 2.11H109.891C110.084 2.11 110.221 2.14333 110.301 2.21C110.381 2.27 110.431 2.35 110.451 2.45C110.478 2.54333 110.491 2.65 110.491 2.77C110.491 3.05 110.428 3.34333 110.301 3.65C110.181 3.95 110.024 4.26 109.831 4.58C109.644 4.9 109.441 5.22667 109.221 5.56C109.001 5.89333 108.794 6.23333 108.601 6.58C108.408 6.92 108.248 7.26333 108.121 7.61C108.001 7.95 107.941 8.29333 107.941 8.64C107.941 8.72667 107.928 8.80667 107.901 8.88C107.881 8.94667 107.828 9 107.741 9.04C107.654 9.08 107.518 9.1 107.331 9.1ZM113.921 9.16C113.421 9.16 112.994 9.05333 112.641 8.84C112.287 8.62 112.014 8.3 111.821 7.88C111.634 7.46 111.541 6.95333 111.541 6.36C111.541 5.84667 111.597 5.37 111.711 4.93C111.831 4.49 112.001 4.09667 112.221 3.75C112.447 3.39667 112.717 3.09667 113.031 2.85C113.351 2.60333 113.707 2.41333 114.101 2.28C114.494 2.14667 114.921 2.08 115.381 2.08C115.487 2.08 115.581 2.09333 115.661 2.12C115.747 2.14 115.817 2.19333 115.871 2.28C115.924 2.36667 115.951 2.50333 115.951 2.69C115.951 2.87667 115.921 3.01333 115.861 3.1C115.807 3.18667 115.734 3.24 115.641 3.26C115.554 3.28 115.454 3.29 115.341 3.29C115.007 3.29 114.711 3.33333 114.451 3.42C114.191 3.50667 113.961 3.62333 113.761 3.77C113.561 3.91667 113.394 4.08667 113.261 4.28C113.127 4.46667 113.027 4.66667 112.961 4.88C112.894 5.08667 112.857 5.29333 112.851 5.5L112.711 5.56C112.751 5.44667 112.831 5.34 112.951 5.24C113.071 5.14 113.221 5.06 113.401 5C113.587 4.93333 113.787 4.9 114.001 4.9C114.421 4.9 114.791 4.99 115.111 5.17C115.437 5.35 115.694 5.59667 115.881 5.91C116.067 6.21667 116.161 6.56333 116.161 6.95C116.161 7.37667 116.064 7.75667 115.871 8.09C115.684 8.42333 115.421 8.68667 115.081 8.88C114.747 9.06667 114.361 9.16 113.921 9.16ZM113.881 8.03C114.114 8.03 114.311 7.99 114.471 7.91C114.637 7.82333 114.761 7.70333 114.841 7.55C114.927 7.39667 114.971 7.21333 114.971 7C114.971 6.8 114.931 6.62667 114.851 6.48C114.771 6.32667 114.651 6.21 114.491 6.13C114.337 6.04333 114.154 6 113.941 6C113.707 6 113.504 6.04333 113.331 6.13C113.157 6.21 113.024 6.32333 112.931 6.47C112.844 6.61667 112.801 6.78667 112.801 6.98C112.801 7.19333 112.841 7.38 112.921 7.54C113.007 7.7 113.131 7.82333 113.291 7.91C113.451 7.99 113.647 8.03 113.881 8.03ZM119.133 9.16C118.96 9.16 118.777 9.14 118.583 9.1C118.39 9.06667 118.203 9.01667 118.023 8.95C117.843 8.87667 117.687 8.79333 117.553 8.7C117.427 8.6 117.347 8.49 117.313 8.37C117.287 8.30333 117.277 8.24 117.283 8.18C117.29 8.11333 117.31 8.04667 117.343 7.98C117.377 7.90667 117.427 7.83333 117.493 7.76C117.553 7.68667 117.613 7.64667 117.673 7.64C117.74 7.62667 117.823 7.64667 117.923 7.7C118.01 7.73333 118.103 7.77667 118.203 7.83C118.31 7.88333 118.417 7.93667 118.523 7.99C118.637 8.04333 118.75 8.08667 118.863 8.12C118.983 8.15333 119.1 8.17 119.213 8.17C119.46 8.17 119.657 8.13 119.803 8.05C119.95 7.96333 120.023 7.84333 120.023 7.69C120.023 7.60333 120 7.52667 119.953 7.46C119.907 7.39333 119.843 7.34 119.763 7.3C119.69 7.25333 119.6 7.21333 119.493 7.18C119.393 7.14 119.283 7.10667 119.163 7.08C119.05 7.04667 118.93 7.01 118.803 6.97C118.637 6.92333 118.47 6.86667 118.303 6.8C118.137 6.73333 117.987 6.64667 117.853 6.54C117.727 6.43333 117.623 6.3 117.543 6.14C117.463 5.98 117.423 5.78 117.423 5.54C117.423 5.24 117.493 4.98667 117.633 4.78C117.78 4.56667 117.99 4.40333 118.263 4.29C118.537 4.17667 118.867 4.12 119.253 4.12C119.387 4.12 119.513 4.13 119.633 4.15C119.76 4.17 119.88 4.2 119.993 4.24C120.113 4.27333 120.227 4.31667 120.333 4.37C120.447 4.42333 120.553 4.48333 120.653 4.55C120.82 4.64333 120.907 4.75333 120.913 4.88C120.92 5 120.873 5.13 120.773 5.27C120.7 5.36333 120.627 5.43 120.553 5.47C120.48 5.50333 120.403 5.50333 120.323 5.47C120.217 5.41667 120.1 5.36 119.973 5.3C119.853 5.23333 119.727 5.17667 119.593 5.13C119.467 5.08333 119.333 5.06 119.193 5.06C119.06 5.06 118.94 5.08 118.833 5.12C118.727 5.16 118.647 5.21667 118.593 5.29C118.54 5.36333 118.513 5.45 118.513 5.55C118.513 5.64333 118.54 5.72 118.593 5.78C118.647 5.84 118.717 5.89 118.803 5.93C118.89 5.97 118.993 6.00667 119.113 6.04C119.233 6.06667 119.36 6.09333 119.493 6.12C119.68 6.16 119.87 6.21 120.063 6.27C120.257 6.33 120.433 6.41333 120.593 6.52C120.76 6.62667 120.893 6.77 120.993 6.95C121.093 7.12333 121.143 7.35 121.143 7.63C121.143 8.11667 120.963 8.49333 120.603 8.76C120.25 9.02667 119.76 9.16 119.133 9.16Z" fill="white"/>
<path d="M106.921 9.04L106.832 9.21897L106.837 9.22159L106.921 9.04ZM106.761 8.87L106.573 8.93835V8.93835L106.761 8.87ZM106.891 7.49L107.082 7.54906V7.54906L106.891 7.49ZM107.331 6.42L107.509 6.51216V6.51216L107.331 6.42ZM107.901 5.44L108.069 5.54926L108.07 5.54761L107.901 5.44ZM108.461 4.57L108.295 4.45809L108.293 4.461L108.461 4.57ZM108.901 3.85L108.727 3.75192L108.725 3.75617L108.901 3.85ZM109.081 3.32H109.281V3.12H109.081V3.32ZM105.741 3.12L105.571 3.22489L105.575 3.23094L105.741 3.12ZM105.731 2.31L105.561 2.20515L105.558 2.20923L105.731 2.31ZM105.931 2.15L105.98 2.34431L105.99 2.34116L105.931 2.15ZM110.301 2.21L110.173 2.36385L110.181 2.37L110.301 2.21ZM110.451 2.45L110.255 2.48922L110.257 2.49716L110.259 2.50494L110.451 2.45ZM110.301 3.65L110.116 3.57364L110.115 3.57572L110.301 3.65ZM109.831 4.58L109.66 4.47656L109.658 4.47923L109.831 4.58ZM109.221 5.56L109.054 5.44983V5.44983L109.221 5.56ZM108.601 6.58L108.775 6.67886L108.776 6.67741L108.601 6.58ZM108.121 7.61L107.933 7.54136L107.933 7.54344L108.121 7.61ZM107.901 8.88L107.713 8.81154L107.71 8.82253L107.901 8.88ZM107.741 9.04L107.657 8.85841V8.85841L107.741 9.04ZM107.331 9.1V8.9C107.151 8.9 107.051 8.87949 107.005 8.85841L106.921 9.04L106.837 9.22159C106.965 9.28052 107.138 9.3 107.331 9.3V9.1ZM106.921 9.04L107.011 8.86111C106.969 8.8404 106.956 8.81982 106.949 8.80165L106.761 8.87L106.573 8.93835C106.62 9.06685 106.713 9.1596 106.832 9.21889L106.921 9.04ZM106.761 8.87L106.949 8.80165C106.932 8.75405 106.921 8.69447 106.921 8.62H106.721H106.521C106.521 8.73219 106.537 8.83928 106.573 8.93835L106.761 8.87ZM106.721 8.62H106.921C106.921 8.2532 106.975 7.89645 107.082 7.54906L106.891 7.49L106.7 7.43094C106.581 7.81688 106.521 8.21346 106.521 8.62H106.721ZM106.891 7.49L107.082 7.54906C107.192 7.19401 107.334 6.84841 107.509 6.51216L107.331 6.42L107.154 6.32784C106.968 6.68492 106.817 7.05265 106.7 7.43094L106.891 7.49ZM107.331 6.42L107.509 6.51216C107.686 6.17097 107.872 5.85004 108.069 5.54925L107.901 5.44L107.734 5.33075C107.53 5.64329 107.336 5.9757 107.154 6.32784L107.331 6.42ZM107.901 5.44L108.07 5.54761C108.269 5.23466 108.456 4.94513 108.629 4.679L108.461 4.57L108.293 4.461C108.12 4.7282 107.933 5.01867 107.733 5.33239L107.901 5.44ZM108.461 4.57L108.627 4.68189C108.81 4.41118 108.96 4.16502 109.078 3.94383L108.901 3.85L108.725 3.75617C108.615 3.96165 108.473 4.19549 108.295 4.45811L108.461 4.57ZM108.901 3.85L109.075 3.94805C109.201 3.7242 109.281 3.51129 109.281 3.32H109.081H108.881C108.881 3.40871 108.841 3.54913 108.727 3.75195L108.901 3.85ZM109.081 3.32V3.12H106.261V3.32V3.52H109.081V3.32ZM106.261 3.32V3.12C106.171 3.12 106.09 3.10878 106.016 3.0877L105.961 3.28L105.906 3.4723C106.019 3.50455 106.138 3.52 106.261 3.52V3.32ZM105.961 3.28L106.016 3.0877C105.968 3.07393 105.934 3.04916 105.908 3.00906L105.741 3.12L105.575 3.23094C105.655 3.35084 105.768 3.43274 105.906 3.4723L105.961 3.28ZM105.741 3.12L105.911 3.01518C105.888 2.97675 105.861 2.88605 105.861 2.71H105.661H105.461C105.461 2.90729 105.488 3.08991 105.571 3.22482L105.741 3.12ZM105.661 2.71H105.861C105.861 2.52949 105.886 2.44219 105.904 2.41077L105.731 2.31L105.558 2.20923C105.483 2.33781 105.461 2.51718 105.461 2.71H105.661ZM105.731 2.31L105.901 2.41482C105.934 2.36165 105.962 2.34853 105.98 2.34403L105.931 2.15L105.883 1.95597C105.741 1.99147 105.635 2.08501 105.561 2.20518L105.731 2.31ZM105.931 2.15L105.99 2.34116C106.056 2.32092 106.129 2.31 106.211 2.31V2.11V1.91C106.093 1.91 105.98 1.92575 105.872 1.95884L105.931 2.15ZM106.211 2.11V2.31H109.891V2.11V1.91H106.211V2.11ZM109.891 2.11V2.31C110.073 2.31 110.149 2.3436 110.173 2.36364L110.301 2.21L110.429 2.05636C110.293 1.94307 110.096 1.91 109.891 1.91V2.11ZM110.301 2.21L110.181 2.37C110.221 2.39984 110.244 2.43642 110.255 2.48922L110.451 2.45L110.647 2.41078C110.618 2.26358 110.541 2.14016 110.421 2.05L110.301 2.21ZM110.451 2.45L110.259 2.50494C110.279 2.57678 110.291 2.66439 110.291 2.77H110.491H110.691C110.691 2.63561 110.676 2.50989 110.643 2.39506L110.451 2.45ZM110.491 2.77H110.291C110.291 3.01943 110.235 3.2868 110.116 3.57365L110.301 3.65L110.486 3.72635C110.621 3.39987 110.691 3.08057 110.691 2.77H110.491ZM110.301 3.65L110.115 3.57572C110 3.8642 109.849 4.16447 109.66 4.47658L109.831 4.58L110.002 4.68342C110.2 4.35553 110.362 4.03579 110.487 3.72428L110.301 3.65ZM109.831 4.58L109.658 4.47923C109.474 4.79581 109.272 5.11934 109.054 5.44983L109.221 5.56L109.388 5.67017C109.61 5.33399 109.815 5.00419 110.004 4.68077L109.831 4.58ZM109.221 5.56L109.054 5.44983C108.831 5.78729 108.622 6.13155 108.426 6.48259L108.601 6.58L108.776 6.67741C108.967 6.33512 109.171 5.99937 109.388 5.67017L109.221 5.56ZM108.601 6.58L108.427 6.48114C108.229 6.83024 108.064 7.18365 107.933 7.54136L108.121 7.61L108.309 7.67864C108.432 7.34302 108.587 7.00976 108.775 6.67886L108.601 6.58ZM108.121 7.61L107.933 7.54344C107.805 7.90395 107.741 8.26976 107.741 8.64H107.941H108.141C108.141 8.31691 108.197 7.99605 108.31 7.67656L108.121 7.61ZM107.941 8.64H107.741C107.741 8.70592 107.731 8.76251 107.713 8.81165L107.901 8.88L108.089 8.94835C108.125 8.85082 108.141 8.74741 108.141 8.64H107.941ZM107.901 8.88L107.71 8.82253C107.71 8.82259 107.71 8.8227 107.709 8.82321C107.709 8.82378 107.708 8.82562 107.705 8.82858C107.698 8.83479 107.685 8.84578 107.657 8.85841L107.741 9.04L107.825 9.22159C107.943 9.16688 108.051 9.07723 108.093 8.93747L107.901 8.88ZM107.741 9.04L107.657 8.85841C107.612 8.87949 107.511 8.9 107.331 8.9V9.1V9.3C107.524 9.3 107.697 9.28052 107.825 9.22159L107.741 9.04ZM112.641 8.84L112.535 9.0098L112.537 9.01121L112.641 8.84ZM111.821 7.88L111.638 7.96123L111.639 7.96363L111.821 7.88ZM111.711 4.93L111.518 4.87737L111.517 4.88011L111.711 4.93ZM112.221 3.75L112.052 3.64201L112.052 3.64283L112.221 3.75ZM113.031 2.85L112.909 2.69159L112.907 2.69285L113.031 2.85ZM114.101 2.28L114.037 2.09059V2.09059L114.101 2.28ZM115.661 2.12L115.598 2.30974L115.607 2.31274L115.616 2.31488L115.661 2.12ZM115.871 2.28L116.041 2.17518V2.17518L115.871 2.28ZM115.861 3.1L115.696 2.98599L115.69 2.99518L115.861 3.1ZM115.641 3.26L115.599 3.06442L115.596 3.06512L115.641 3.26ZM113.761 3.77L113.879 3.93128V3.93128L113.761 3.77ZM113.261 4.28L113.424 4.39626L113.425 4.39355L113.261 4.28ZM112.961 4.88L113.151 4.9414L113.152 4.93965L112.961 4.88ZM112.851 5.5L112.93 5.68383L113.047 5.63368L113.051 5.50645L112.851 5.5ZM112.711 5.56L112.522 5.49344L112.37 5.92347L112.79 5.74383L112.711 5.56ZM112.951 5.24L113.079 5.39364V5.39364L112.951 5.24ZM113.401 5L113.464 5.18978L113.468 5.18835L113.401 5ZM115.111 5.17L115.013 5.34432L115.014 5.34517L115.111 5.17ZM115.881 5.91L115.709 6.01237L115.71 6.01399L115.881 5.91ZM115.871 8.09L115.698 7.98965L115.696 7.99228L115.871 8.09ZM115.081 8.88L115.179 9.05451L115.18 9.05386L115.081 8.88ZM114.471 7.91L114.56 8.08891L114.563 8.08744L114.471 7.91ZM114.841 7.55L114.667 7.45153L114.663 7.45749L114.841 7.55ZM114.851 6.48L114.673 6.57253L114.675 6.57577L114.851 6.48ZM114.491 6.13L114.392 6.30434L114.401 6.30889L114.491 6.13ZM113.331 6.13L113.415 6.31168L113.42 6.30889L113.331 6.13ZM112.931 6.47L112.762 6.36257L112.759 6.36825L112.931 6.47ZM112.921 7.54L112.742 7.62949L112.745 7.63526L112.921 7.54ZM113.291 7.91L113.196 8.08595L113.201 8.08889L113.291 7.91ZM113.921 9.16V8.96C113.45 8.96 113.06 8.85966 112.744 8.66879L112.641 8.84L112.537 9.01121C112.928 9.24701 113.392 9.36 113.921 9.36V9.16ZM112.641 8.84L112.747 8.67022C112.43 8.47315 112.181 8.18493 112.002 7.79637L111.821 7.88L111.639 7.96363C111.847 8.41507 112.145 8.76685 112.535 9.00978L112.641 8.84ZM111.821 7.88L112.004 7.79877C111.831 7.41063 111.741 6.93316 111.741 6.36H111.541H111.341C111.341 6.97351 111.437 7.50937 111.638 7.96123L111.821 7.88ZM111.541 6.36H111.741C111.741 5.86136 111.796 5.40164 111.904 4.97989L111.711 4.93L111.517 4.88011C111.399 5.33836 111.341 5.83198 111.341 6.36H111.541ZM111.711 4.93L111.904 4.98262C112.019 4.55979 112.181 4.1852 112.39 3.85716L112.221 3.75L112.052 3.64283C111.82 4.00813 111.643 4.42021 111.518 4.87738L111.711 4.93ZM112.221 3.75L112.389 3.85799C112.604 3.52242 112.86 3.23932 113.155 3.00715L113.031 2.85L112.907 2.69285C112.575 2.95402 112.291 3.27091 112.052 3.64201L112.221 3.75ZM113.031 2.85L113.153 3.0084C113.455 2.77557 113.792 2.59587 114.165 2.46941L114.101 2.28L114.037 2.09059C113.623 2.2308 113.247 2.4311 112.909 2.6916L113.031 2.85ZM114.101 2.28L114.165 2.46941C114.536 2.3438 114.94 2.28 115.381 2.28V2.08V1.88C114.901 1.88 114.453 1.94953 114.037 2.09059L114.101 2.28ZM115.381 2.08V2.28C115.471 2.28 115.543 2.29139 115.598 2.30974L115.661 2.12L115.724 1.93026C115.619 1.89527 115.504 1.88 115.381 1.88V2.08ZM115.661 2.12L115.616 2.31488C115.643 2.32108 115.671 2.33659 115.7 2.38482L115.871 2.28L116.041 2.17518C115.964 2.05008 115.852 1.95892 115.706 1.92512L115.661 2.12ZM115.871 2.28L115.7 2.38482C115.724 2.42325 115.751 2.51395 115.751 2.69H115.951H116.151C116.151 2.49271 116.124 2.31009 116.041 2.17518L115.871 2.28ZM115.951 2.69H115.751C115.751 2.86353 115.721 2.95006 115.696 2.98616L115.861 3.1L116.025 3.21384C116.12 3.0766 116.151 2.8898 116.151 2.69H115.951ZM115.861 3.1L115.69 2.99518C115.664 3.03877 115.635 3.0567 115.599 3.06444L115.641 3.26L115.683 3.45556C115.833 3.4233 115.951 3.33457 116.031 3.20482L115.861 3.1ZM115.641 3.26L115.596 3.06512C115.527 3.08094 115.443 3.09 115.341 3.09V3.29V3.49C115.465 3.49 115.581 3.47906 115.686 3.45488L115.641 3.26ZM115.341 3.29V3.09C114.99 3.09 114.672 3.13551 114.388 3.23026L114.451 3.42L114.514 3.60974C114.75 3.53115 115.024 3.49 115.341 3.49V3.29ZM114.451 3.42L114.388 3.23026C114.11 3.32282 113.861 3.44855 113.643 3.60872L113.761 3.77L113.879 3.93128C114.061 3.79812 114.272 3.69052 114.514 3.60974L114.451 3.42ZM113.761 3.77L113.643 3.60872C113.426 3.76785 113.243 3.95372 113.096 4.16645L113.261 4.28L113.425 4.39355C113.545 4.21961 113.696 4.06548 113.879 3.93128L113.761 3.77ZM113.261 4.28L113.098 4.16375C112.953 4.36721 112.843 4.58624 112.77 4.82034L112.961 4.88L113.152 4.93965C113.212 4.74709 113.302 4.56612 113.424 4.39625L113.261 4.28ZM112.961 4.88L112.77 4.8186C112.698 5.04215 112.658 5.26729 112.651 5.49355L112.851 5.5L113.051 5.50645C113.057 5.31937 113.09 5.13118 113.151 4.9414L112.961 4.88ZM112.851 5.5L112.772 5.31617L112.632 5.37617L112.711 5.56L112.79 5.74383L112.93 5.68383L112.851 5.5ZM112.711 5.56L112.899 5.62656C112.924 5.55591 112.978 5.47735 113.079 5.39364L112.951 5.24L112.823 5.08636C112.683 5.20265 112.577 5.33742 112.522 5.49344L112.711 5.56ZM112.951 5.24L113.079 5.39364C113.176 5.31263 113.303 5.2435 113.464 5.18974L113.401 5L113.338 4.81026C113.139 4.8765 112.966 4.96737 112.823 5.08636L112.951 5.24ZM113.401 5L113.468 5.18835C113.632 5.12996 113.809 5.1 114.001 5.1V4.9V4.7C113.766 4.7 113.543 4.73671 113.334 4.81165L113.401 5ZM114.001 4.9V5.1C114.391 5.1 114.727 5.18345 115.013 5.34432L115.111 5.17L115.209 4.99568C114.855 4.79655 114.45 4.7 114.001 4.7V4.9ZM115.111 5.17L115.014 5.34517C115.311 5.50843 115.541 5.73027 115.709 6.01236L115.881 5.91L116.053 5.80764C115.847 5.46306 115.564 5.19157 115.207 4.99483L115.111 5.17ZM115.881 5.91L115.71 6.01399C115.876 6.28691 115.961 6.59708 115.961 6.95H116.161H116.361C116.361 6.52959 116.259 6.14643 116.052 5.80601L115.881 5.91ZM116.161 6.95H115.961C115.961 7.3453 115.872 7.69 115.698 7.98966L115.871 8.09L116.044 8.19034C116.257 7.82334 116.361 7.40803 116.361 6.95H116.161ZM115.871 8.09L115.696 7.99228C115.528 8.29303 115.291 8.53037 114.982 8.70614L115.081 8.88L115.18 9.05386C115.551 8.84296 115.84 8.55364 116.045 8.18772L115.871 8.09ZM115.081 8.88L114.983 8.7055C114.684 8.87306 114.332 8.96 113.921 8.96V9.16V9.36C114.39 9.36 114.811 9.26028 115.179 9.0545L115.081 8.88ZM113.881 8.03V8.23C114.136 8.23 114.365 8.18634 114.56 8.08889L114.471 7.91L114.381 7.73111C114.256 7.79366 114.092 7.83 113.881 7.83V8.03ZM114.471 7.91L114.563 8.08744C114.763 7.98357 114.918 7.83537 115.018 7.64251L114.841 7.55L114.663 7.45749C114.604 7.5713 114.512 7.6631 114.379 7.73256L114.471 7.91ZM114.841 7.55L115.015 7.64841C115.122 7.45931 115.171 7.24056 115.171 7H114.971H114.771C114.771 7.1861 114.733 7.33402 114.667 7.45159L114.841 7.55ZM114.971 7H115.171C115.171 6.77311 115.125 6.56555 115.026 6.38423L114.851 6.48L114.675 6.57577C114.736 6.68778 114.771 6.82689 114.771 7H114.971ZM114.851 6.48L115.028 6.38749C114.928 6.19549 114.777 6.04925 114.58 5.95111L114.491 6.13L114.401 6.30889C114.525 6.37075 114.614 6.45785 114.673 6.57251L114.851 6.48ZM114.491 6.13L114.589 5.95589C114.4 5.84901 114.181 5.8 113.941 5.8V6V6.2C114.127 6.2 114.275 6.23766 114.392 6.30411L114.491 6.13ZM113.941 6V5.8C113.683 5.8 113.448 5.84801 113.241 5.95111L113.331 6.13L113.42 6.30889C113.561 6.23866 113.732 6.2 113.941 6.2V6ZM113.331 6.13L113.247 5.94841C113.042 6.04285 112.878 6.18044 112.762 6.36262L112.931 6.47L113.1 6.57737C113.17 6.46623 113.273 6.37715 113.415 6.31159L113.331 6.13ZM112.931 6.47L112.759 6.36825C112.651 6.54972 112.601 6.7558 112.601 6.98H112.801H113.001C113.001 6.81754 113.037 6.68362 113.103 6.57175L112.931 6.47ZM112.801 6.98H112.601C112.601 7.21845 112.646 7.43681 112.742 7.62944L112.921 7.54L113.1 7.45056C113.036 7.32319 113.001 7.16821 113.001 6.98H112.801ZM112.921 7.54L112.745 7.63526C112.85 7.82937 113.001 7.98071 113.196 8.08586L113.291 7.91L113.386 7.73414C113.26 7.66595 113.165 7.57063 113.097 7.44474L112.921 7.54ZM113.291 7.91L113.201 8.08889C113.396 8.18634 113.626 8.23 113.881 8.23V8.03V7.83C113.669 7.83 113.505 7.79366 113.38 7.73111L113.291 7.91ZM118.583 9.1L118.624 8.90404L118.617 8.90291L118.583 9.1ZM118.023 8.95L117.948 9.13531L117.954 9.13755L118.023 8.95ZM117.553 8.7L117.429 8.85724L117.439 8.86385L117.553 8.7ZM117.313 8.37L117.506 8.31647L117.503 8.3059L117.499 8.29572L117.313 8.37ZM117.283 8.18L117.482 8.20209L117.482 8.1999L117.283 8.18ZM117.343 7.98L117.522 8.0695L117.525 8.06276L117.343 7.98ZM117.493 7.76L117.642 7.89472L117.648 7.88665L117.493 7.76ZM117.673 7.64L117.695 7.83878L117.704 7.83782L117.713 7.83612L117.673 7.64ZM117.923 7.7L117.829 7.87647L117.84 7.88226L117.852 7.88667L117.923 7.7ZM118.203 7.83L118.109 8.00653L118.114 8.00889L118.203 7.83ZM118.523 7.99L118.434 8.16894L118.438 8.17096L118.523 7.99ZM118.863 8.12L118.807 8.3119L118.81 8.3127L118.863 8.12ZM119.803 8.05L119.899 8.22568L119.905 8.22219L119.803 8.05ZM119.953 7.46L120.117 7.34531V7.34531L119.953 7.46ZM119.763 7.3L119.656 7.46873L119.665 7.47427L119.674 7.47889L119.763 7.3ZM119.493 7.18L119.419 7.36569L119.426 7.36858L119.434 7.3709L119.493 7.18ZM119.163 7.08L119.107 7.27231L119.12 7.27524L119.163 7.08ZM118.803 6.97L118.864 6.77918L118.857 6.77741L118.803 6.97ZM118.303 6.8L118.378 6.6143V6.6143L118.303 6.8ZM117.853 6.54L117.724 6.69303L117.728 6.69617L117.853 6.54ZM117.633 4.78L117.469 4.66669L117.468 4.66783L117.633 4.78ZM118.263 4.29L118.34 4.47475V4.47475L118.263 4.29ZM119.633 4.15L119.6 4.34729L119.602 4.34755L119.633 4.15ZM119.993 4.24L119.927 4.42904L119.94 4.4327L119.993 4.24ZM120.333 4.37L120.244 4.54894L120.248 4.55096L120.333 4.37ZM120.653 4.55L120.542 4.71641L120.549 4.72071L120.556 4.7245L120.653 4.55ZM120.913 4.88L120.714 4.89051L120.714 4.89109L120.913 4.88ZM120.773 5.27L120.931 5.39369L120.936 5.38625L120.773 5.27ZM120.553 5.47L120.636 5.65207L120.643 5.64906L120.649 5.64558L120.553 5.47ZM120.323 5.47L120.234 5.64931L120.246 5.65462L120.323 5.47ZM119.973 5.3L119.876 5.4752L119.888 5.48075L119.973 5.3ZM119.593 5.13L119.524 5.31769L119.527 5.31877L119.593 5.13ZM118.833 5.12L118.904 5.30727V5.30727L118.833 5.12ZM118.593 5.29L118.755 5.40763V5.40763L118.593 5.29ZM118.593 5.78L118.743 5.64713V5.64713L118.593 5.78ZM118.803 5.93L118.72 6.11159V6.11159L118.803 5.93ZM119.113 6.04L119.06 6.23297L119.07 6.23524L119.113 6.04ZM119.493 6.12L119.535 5.92442L119.533 5.92388L119.493 6.12ZM120.593 6.52L120.482 6.68644L120.486 6.68845L120.593 6.52ZM120.993 6.95L120.818 7.04714L120.82 7.04994L120.993 6.95ZM120.603 8.76L120.484 8.59928L120.483 8.60036L120.603 8.76ZM119.133 9.16V8.96C118.975 8.96 118.806 8.94176 118.624 8.90415L118.583 9.1L118.543 9.29585C118.748 9.33824 118.945 9.36 119.133 9.36V9.16ZM118.583 9.1L118.617 8.90291C118.436 8.87161 118.261 8.82476 118.093 8.76245L118.023 8.95L117.954 9.13755C118.146 9.20857 118.344 9.26172 118.549 9.29709L118.583 9.1ZM118.023 8.95L118.099 8.76478C117.93 8.69603 117.787 8.61946 117.668 8.53615L117.553 8.7L117.439 8.86385C117.586 8.96721 117.757 9.0573 117.948 9.13522L118.023 8.95ZM117.553 8.7L117.677 8.54302C117.574 8.46155 117.525 8.38493 117.506 8.31647L117.313 8.37L117.121 8.42353C117.168 8.59507 117.279 8.73845 117.429 8.85698L117.553 8.7ZM117.313 8.37L117.499 8.29572C117.482 8.25384 117.48 8.22371 117.482 8.20209L117.283 8.18L117.085 8.15791C117.074 8.25629 117.091 8.35283 117.128 8.44428L117.313 8.37ZM117.283 8.18L117.482 8.1999C117.486 8.16002 117.499 8.11679 117.522 8.06944L117.343 7.98L117.164 7.89056C117.121 7.97655 117.094 8.06665 117.084 8.1601L117.283 8.18ZM117.343 7.98L117.525 8.06276C117.548 8.01213 117.586 7.95589 117.641 7.89453L117.493 7.76L117.345 7.62547C117.268 7.71078 117.205 7.80121 117.161 7.89724L117.343 7.98ZM117.493 7.76L117.648 7.88665C117.669 7.86081 117.685 7.84757 117.694 7.84141C117.703 7.83572 117.703 7.83795 117.695 7.83878L117.673 7.64L117.651 7.44122C117.516 7.45621 117.413 7.54184 117.339 7.63335L117.493 7.76ZM117.673 7.64L117.713 7.83612C117.711 7.83641 117.719 7.83453 117.739 7.83948C117.76 7.84448 117.79 7.85539 117.829 7.87647L117.923 7.7L118.017 7.52353C117.902 7.46178 117.768 7.41714 117.634 7.44388L117.673 7.64ZM117.923 7.7L117.852 7.88667C117.929 7.91651 118.015 7.95618 118.109 8.00647L118.203 7.83L118.297 7.65353C118.192 7.59715 118.091 7.55016 117.995 7.51333L117.923 7.7ZM118.203 7.83L118.114 8.00889C118.221 8.06222 118.327 8.11555 118.434 8.16889L118.523 7.99L118.613 7.81111C118.506 7.75778 118.399 7.70445 118.293 7.65111L118.203 7.83ZM118.523 7.99L118.438 8.17096C118.56 8.2284 118.683 8.27548 118.807 8.31187L118.863 8.12L118.92 7.92813C118.817 7.89786 118.713 7.85826 118.608 7.80904L118.523 7.99ZM118.863 8.12L118.81 8.3127C118.946 8.3504 119.08 8.37 119.213 8.37V8.17V7.97C119.12 7.97 119.021 7.95626 118.917 7.9273L118.863 8.12ZM119.213 8.17V8.37C119.479 8.37 119.712 8.32744 119.899 8.22558L119.803 8.05L119.708 7.87442C119.601 7.93256 119.441 7.97 119.213 7.97V8.17ZM119.803 8.05L119.905 8.22219C120.104 8.10434 120.223 7.92303 120.223 7.69H120.023H119.823C119.823 7.76363 119.795 7.82232 119.702 7.87781L119.803 8.05ZM120.023 7.69H120.223C120.223 7.56512 120.189 7.44783 120.117 7.34531L119.953 7.46L119.789 7.57469C119.811 7.60551 119.823 7.64155 119.823 7.69H120.023ZM119.953 7.46L120.117 7.34531C120.05 7.24876 119.959 7.17448 119.853 7.12111L119.763 7.3L119.674 7.47889C119.727 7.50552 119.764 7.53791 119.789 7.57469L119.953 7.46ZM119.763 7.3L119.871 7.13127C119.779 7.0729 119.672 7.02628 119.553 6.9891L119.493 7.18L119.434 7.3709C119.528 7.40039 119.601 7.43377 119.656 7.46873L119.763 7.3ZM119.493 7.18L119.568 6.9943C119.456 6.94978 119.336 6.91345 119.207 6.88476L119.163 7.08L119.12 7.27524C119.231 7.29988 119.33 7.33022 119.419 7.36569L119.493 7.18ZM119.163 7.08L119.22 6.88813C119.108 6.85521 118.989 6.81893 118.864 6.77928L118.803 6.97L118.743 7.16072C118.871 7.20107 118.992 7.23812 119.107 7.27187L119.163 7.08ZM118.803 6.97L118.857 6.77741C118.698 6.73274 118.538 6.67841 118.378 6.6143L118.303 6.8L118.229 6.98569C118.402 7.05493 118.576 7.11392 118.749 7.16259L118.803 6.97ZM118.303 6.8L118.378 6.6143C118.228 6.55456 118.095 6.4776 117.978 6.38383L117.853 6.54L117.728 6.69617C117.878 6.81573 118.045 6.91211 118.229 6.98569L118.303 6.8ZM117.853 6.54L117.982 6.38702C117.878 6.29927 117.791 6.18817 117.722 6.05056L117.543 6.14L117.364 6.22944C117.456 6.41183 117.575 6.5674 117.724 6.69298L117.853 6.54ZM117.543 6.14L117.722 6.05056C117.66 5.92615 117.623 5.75907 117.623 5.54H117.423H117.223C117.223 5.80093 117.267 6.03385 117.364 6.22944L117.543 6.14ZM117.423 5.54H117.623C117.623 5.27179 117.686 5.05953 117.799 4.89217L117.633 4.78L117.468 4.66783C117.301 4.9138 117.223 5.20821 117.223 5.54H117.423ZM117.633 4.78L117.798 4.89331C117.92 4.71618 118.097 4.57546 118.34 4.47475L118.263 4.29L118.187 4.10525C117.883 4.23121 117.64 4.41716 117.469 4.66669L117.633 4.78ZM118.263 4.29L118.34 4.47475C118.583 4.37406 118.885 4.32 119.253 4.32V4.12V3.92C118.848 3.92 118.491 3.97928 118.187 4.10525L118.263 4.29ZM119.253 4.12V4.32C119.377 4.32 119.492 4.32925 119.6 4.34728L119.633 4.15L119.666 3.95272C119.534 3.93075 119.397 3.92 119.253 3.92V4.12ZM119.633 4.15L119.602 4.34755C119.718 4.36578 119.826 4.39291 119.927 4.4286L119.993 4.24L120.06 4.0514C119.934 4.00709 119.802 3.97422 119.665 3.95245L119.633 4.15ZM119.993 4.24L119.94 4.4327C120.048 4.46275 120.149 4.50155 120.244 4.54889L120.333 4.37L120.423 4.19111C120.304 4.13178 120.179 4.08392 120.047 4.0473L119.993 4.24ZM120.333 4.37L120.248 4.55096C120.353 4.60027 120.451 4.65545 120.542 4.71641L120.653 4.55L120.764 4.38359C120.656 4.31122 120.54 4.2464 120.418 4.18904L120.333 4.37ZM120.653 4.55L120.556 4.7245C120.695 4.80241 120.712 4.86265 120.714 4.89051L120.913 4.88L121.113 4.86949C121.101 4.64402 120.945 4.48425 120.751 4.3755L120.653 4.55ZM120.913 4.88L120.714 4.89109C120.717 4.94967 120.695 5.03518 120.611 5.15375L120.773 5.27L120.936 5.38625C121.051 5.22482 121.123 5.05032 121.113 4.86891L120.913 4.88ZM120.773 5.27L120.616 5.14644C120.553 5.22675 120.499 5.27166 120.458 5.29442L120.553 5.47L120.649 5.64558C120.754 5.58834 120.847 5.49992 120.931 5.39356L120.773 5.27ZM120.553 5.47L120.471 5.28793C120.452 5.29639 120.433 5.29917 120.4 5.28538L120.323 5.47L120.246 5.65462C120.373 5.7075 120.508 5.71027 120.636 5.65207L120.553 5.47ZM120.323 5.47L120.413 5.29111C120.305 5.23705 120.187 5.17976 120.059 5.11925L119.973 5.3L119.888 5.48075C120.013 5.54024 120.129 5.59628 120.234 5.64889L120.323 5.47ZM119.973 5.3L120.07 5.12517C119.94 5.05282 119.803 4.99154 119.659 4.94123L119.593 5.13L119.527 5.31877C119.65 5.36179 119.766 5.41384 119.876 5.47483L119.973 5.3ZM119.593 5.13L119.662 4.94233C119.513 4.88721 119.356 4.86 119.193 4.86V5.06V5.26C119.311 5.26 119.42 5.27946 119.524 5.31767L119.593 5.13ZM119.193 5.06V4.86C119.04 4.86 118.896 4.88301 118.763 4.93273L118.833 5.12L118.904 5.30727C118.984 5.27699 119.08 5.26 119.193 5.26V5.06ZM118.833 5.12L118.763 4.93273C118.629 4.98296 118.513 5.06012 118.432 5.17237L118.593 5.29L118.755 5.40763C118.78 5.37321 118.824 5.33704 118.904 5.30727L118.833 5.12ZM118.593 5.29L118.432 5.17237C118.351 5.2834 118.313 5.4123 118.313 5.55H118.513H118.713C118.713 5.4877 118.729 5.44327 118.755 5.40763L118.593 5.29ZM118.513 5.55H118.313C118.313 5.68386 118.353 5.8104 118.444 5.91287L118.593 5.78L118.743 5.64713C118.727 5.6296 118.713 5.60281 118.713 5.55H118.513ZM118.593 5.78L118.444 5.91287C118.519 5.99697 118.612 6.06219 118.72 6.11159L118.803 5.93L118.887 5.74841C118.821 5.7178 118.775 5.68303 118.743 5.64713L118.593 5.78ZM118.803 5.93L118.72 6.11159C118.818 6.15722 118.932 6.1973 119.06 6.2327L119.113 6.04L119.167 5.8473C119.054 5.81603 118.962 5.78277 118.887 5.74841L118.803 5.93ZM119.113 6.04L119.07 6.23524C119.191 6.26224 119.32 6.2892 119.454 6.31612L119.493 6.12L119.533 5.92388C119.4 5.89747 119.275 5.87109 119.157 5.84476L119.113 6.04ZM119.493 6.12L119.451 6.31556C119.632 6.35423 119.816 6.40268 120.004 6.46101L120.063 6.27L120.123 6.07899C119.924 6.01732 119.728 5.96577 119.535 5.92444L119.493 6.12ZM120.063 6.27L120.004 6.46101C120.18 6.51563 120.339 6.59093 120.482 6.68641L120.593 6.52L120.704 6.35359C120.527 6.23574 120.333 6.14437 120.123 6.07899L120.063 6.27ZM120.593 6.52L120.486 6.68845C120.623 6.77653 120.734 6.89487 120.818 7.04713L120.993 6.95L121.168 6.85287C121.053 6.64513 120.897 6.47681 120.701 6.35155L120.593 6.52ZM120.993 6.95L120.82 7.04994C120.897 7.18313 120.943 7.37178 120.943 7.63H121.143H121.343C121.343 7.32822 121.29 7.06354 121.167 6.85006L120.993 6.95ZM121.143 7.63H120.943C120.943 8.05964 120.788 8.37397 120.484 8.59929L120.603 8.76L120.722 8.92071C121.138 8.6127 121.343 8.17369 121.343 7.63H121.143ZM120.603 8.76L120.483 8.60036C120.176 8.83192 119.734 8.96 119.133 8.96V9.16V9.36C119.786 9.36 120.324 9.22141 120.724 8.91964L120.603 8.76Z" fill="black" mask="url(#path-5-outside-1_109_109)"/>
</g>
<defs>
<filter id="filter0_d_109_109" x="0" y="0" width="229" height="20" filterUnits="userSpaceOnUse" color-interpolation-filters="sRGB">
<feFlood flood-opacity="0" result="BackgroundImageFix"/>
<feColorMatrix in="SourceAlpha" type="matrix" values="0 0 0 0 0 0 0 0 0 0 0 0 0 0 0 0 0 0 127 0" result="hardAlpha"/>
<feOffset dy="4"/>
<feGaussianBlur stdDeviation="2"/>
<feComposite in2="hardAlpha" operator="out"/>
<feColorMatrix type="matrix" values="0 0 0 0 0 0 0 0 0 0 0 0 0 0 0 0 0 0 0.25 0"/>
<feBlend mode="normal" in2="BackgroundImageFix" result="effect1_dropShadow_109_109"/>
<feBlend mode="normal" in="SourceGraphic" in2="effect1_dropShadow_109_109" result="shape"/>
</filter>
<linearGradient id="paint0_linear_109_109" x1="42" y1="7.37499" x2="95" y2="7.37499" gradientUnits="userSpaceOnUse">
<stop stop-color="#FDAD42"/>
<stop offset="1" stop-color="#FFDC4A"/>
</linearGradient>
<linearGradient id="paint1_linear_109_109" x1="6" y1="7.37499" x2="42" y2="7.37499" gradientUnits="userSpaceOnUse">
<stop stop-color="#FF0000"/>
<stop offset="1" stop-color="#FF7D4A"/>
</linearGradient>
<linearGradient id="paint2_linear_109_109" x1="95" y1="7.37499" x2="185" y2="7.37499" gradientUnits="userSpaceOnUse">
<stop stop-color="#00FF00"/>
<stop offset="1" stop-color="#63FF99"/>
</linearGradient>
</defs>
</svg>
