<svg width="111" height="19" viewBox="0 0 111 19" fill="none" xmlns="http://www.w3.org/2000/svg">
<g filter="url(#filter0_d_83_349)">
<rect x="4.5" y="0.5" width="102" height="10" rx="5" fill="#D5682F" stroke="#3E1614"/>
<rect x="6" y="2" width="44.0585" height="7.33333" rx="3.66667" fill="url(#paint0_linear_83_349)"/>
<mask id="path-3-outside-1_83_349" maskUnits="userSpaceOnUse" x="46" y="1" width="18" height="9" fill="black">
<rect fill="white" x="46" y="1" width="18" height="9"/>
<path d="M51.1003 9.09C50.9136 9.09 50.777 9.06333 50.6903 9.01C50.6103 8.95667 50.557 8.88333 50.5303 8.79C50.5103 8.69667 50.5003 8.59333 50.5003 8.48V6.96H47.5803C47.3936 6.96 47.257 6.93333 47.1703 6.88C47.0836 6.82 47.027 6.74333 47.0003 6.65C46.9803 6.55667 46.9703 6.45667 46.9703 6.35C46.9703 6.29667 46.9736 6.25333 46.9803 6.22C46.987 6.18 46.9936 6.14 47.0003 6.1L47.9903 2.55C48.0503 2.29667 48.1336 2.14667 48.2403 2.1C48.347 2.05333 48.5103 2.05333 48.7303 2.1C48.9036 2.14 49.0336 2.20667 49.1203 2.3C49.2136 2.38667 49.2436 2.5 49.2103 2.64L48.3203 5.83H50.5003V2.66C50.5003 2.55333 50.5103 2.46 50.5303 2.38C50.557 2.3 50.6136 2.23333 50.7003 2.18C50.7936 2.12667 50.9336 2.1 51.1203 2.1C51.307 2.1 51.4436 2.13 51.5303 2.19C51.617 2.24333 51.6703 2.31667 51.6903 2.41C51.7103 2.49667 51.7203 2.59667 51.7203 2.71V8.5C51.7203 8.60667 51.707 8.70667 51.6803 8.8C51.6603 8.89333 51.607 8.96333 51.5203 9.01C51.4336 9.06333 51.2936 9.09 51.1003 9.09ZM53.0691 9.48C52.8757 9.38 52.7624 9.27333 52.7291 9.16C52.6957 9.05333 52.7324 8.89333 52.8391 8.68L56.1191 2.17C56.1924 2.02333 56.2624 1.92 56.3291 1.86C56.4024 1.79333 56.4857 1.76333 56.5791 1.77C56.6791 1.77 56.7924 1.80333 56.9191 1.87C57.0591 1.93667 57.1557 2.00667 57.2091 2.08C57.2624 2.14667 57.2824 2.23 57.2691 2.33C57.2557 2.42333 57.2124 2.54333 57.1391 2.69L53.8491 9.17C53.7491 9.39 53.6424 9.51667 53.5291 9.55C53.4224 9.59 53.2691 9.56667 53.0691 9.48ZM59.1172 9.09C59.0172 9.09 58.9239 9.07667 58.8372 9.05C58.7572 9.03 58.6905 8.97667 58.6372 8.89C58.5905 8.80333 58.5672 8.66667 58.5672 8.48C58.5672 8.29333 58.5939 8.16 58.6472 8.08C58.7072 7.99333 58.7839 7.94 58.8772 7.92C58.9705 7.89333 59.0739 7.88 59.1872 7.88C59.5139 7.88 59.8072 7.84 60.0672 7.76C60.3339 7.67333 60.5639 7.55667 60.7572 7.41C60.9572 7.25667 61.1239 7.08667 61.2572 6.9C61.3905 6.70667 61.4905 6.50667 61.5572 6.3C61.6239 6.08667 61.6605 5.87667 61.6672 5.67L61.8172 5.62C61.7772 5.72667 61.6939 5.83 61.5672 5.93C61.4472 6.03 61.2972 6.11333 61.1172 6.18C60.9372 6.24 60.7372 6.27 60.5172 6.27C60.1039 6.27 59.7339 6.18 59.4072 6C59.0805 5.82 58.8239 5.57667 58.6372 5.27C58.4572 4.95667 58.3672 4.61 58.3672 4.23C58.3672 3.80333 58.4605 3.42333 58.6472 3.09C58.8339 2.75667 59.0939 2.49667 59.4272 2.31C59.7672 2.11667 60.1572 2.02 60.5972 2.02C61.0972 2.02 61.5239 2.13 61.8772 2.35C62.2372 2.56333 62.5105 2.88 62.6972 3.3C62.8905 3.71333 62.9872 4.22 62.9872 4.82C62.9872 5.33333 62.9272 5.81 62.8072 6.25C62.6872 6.69 62.5139 7.08667 62.2872 7.44C62.0672 7.78667 61.7972 8.08333 61.4772 8.33C61.1639 8.57667 60.8072 8.76667 60.4072 8.9C60.0139 9.02667 59.5839 9.09 59.1172 9.09ZM60.5772 5.18C60.8172 5.18 61.0205 5.14 61.1872 5.06C61.3605 4.97333 61.4905 4.85667 61.5772 4.71C61.6705 4.55667 61.7172 4.38667 61.7172 4.2C61.7172 3.98 61.6739 3.79333 61.5872 3.64C61.5072 3.48 61.3872 3.35667 61.2272 3.27C61.0739 3.18333 60.8772 3.14 60.6372 3.14C60.4039 3.14 60.2039 3.18333 60.0372 3.27C59.8772 3.35 59.7539 3.46667 59.6672 3.62C59.5872 3.77333 59.5472 3.95667 59.5472 4.17C59.5472 4.36333 59.5872 4.53667 59.6672 4.69C59.7539 4.84333 59.8739 4.96333 60.0272 5.05C60.1805 5.13667 60.3639 5.18 60.5772 5.18Z"/>
</mask>
<path d="M51.1003 9.09C50.9136 9.09 50.777 9.06333 50.6903 9.01C50.6103 8.95667 50.557 8.88333 50.5303 8.79C50.5103 8.69667 50.5003 8.59333 50.5003 8.48V6.96H47.5803C47.3936 6.96 47.257 6.93333 47.1703 6.88C47.0836 6.82 47.027 6.74333 47.0003 6.65C46.9803 6.55667 46.9703 6.45667 46.9703 6.35C46.9703 6.29667 46.9736 6.25333 46.9803 6.22C46.987 6.18 46.9936 6.14 47.0003 6.1L47.9903 2.55C48.0503 2.29667 48.1336 2.14667 48.2403 2.1C48.347 2.05333 48.5103 2.05333 48.7303 2.1C48.9036 2.14 49.0336 2.20667 49.1203 2.3C49.2136 2.38667 49.2436 2.5 49.2103 2.64L48.3203 5.83H50.5003V2.66C50.5003 2.55333 50.5103 2.46 50.5303 2.38C50.557 2.3 50.6136 2.23333 50.7003 2.18C50.7936 2.12667 50.9336 2.1 51.1203 2.1C51.307 2.1 51.4436 2.13 51.5303 2.19C51.617 2.24333 51.6703 2.31667 51.6903 2.41C51.7103 2.49667 51.7203 2.59667 51.7203 2.71V8.5C51.7203 8.60667 51.707 8.70667 51.6803 8.8C51.6603 8.89333 51.607 8.96333 51.5203 9.01C51.4336 9.06333 51.2936 9.09 51.1003 9.09ZM53.0691 9.48C52.8757 9.38 52.7624 9.27333 52.7291 9.16C52.6957 9.05333 52.7324 8.89333 52.8391 8.68L56.1191 2.17C56.1924 2.02333 56.2624 1.92 56.3291 1.86C56.4024 1.79333 56.4857 1.76333 56.5791 1.77C56.6791 1.77 56.7924 1.80333 56.9191 1.87C57.0591 1.93667 57.1557 2.00667 57.2091 2.08C57.2624 2.14667 57.2824 2.23 57.2691 2.33C57.2557 2.42333 57.2124 2.54333 57.1391 2.69L53.8491 9.17C53.7491 9.39 53.6424 9.51667 53.5291 9.55C53.4224 9.59 53.2691 9.56667 53.0691 9.48ZM59.1172 9.09C59.0172 9.09 58.9239 9.07667 58.8372 9.05C58.7572 9.03 58.6905 8.97667 58.6372 8.89C58.5905 8.80333 58.5672 8.66667 58.5672 8.48C58.5672 8.29333 58.5939 8.16 58.6472 8.08C58.7072 7.99333 58.7839 7.94 58.8772 7.92C58.9705 7.89333 59.0739 7.88 59.1872 7.88C59.5139 7.88 59.8072 7.84 60.0672 7.76C60.3339 7.67333 60.5639 7.55667 60.7572 7.41C60.9572 7.25667 61.1239 7.08667 61.2572 6.9C61.3905 6.70667 61.4905 6.50667 61.5572 6.3C61.6239 6.08667 61.6605 5.87667 61.6672 5.67L61.8172 5.62C61.7772 5.72667 61.6939 5.83 61.5672 5.93C61.4472 6.03 61.2972 6.11333 61.1172 6.18C60.9372 6.24 60.7372 6.27 60.5172 6.27C60.1039 6.27 59.7339 6.18 59.4072 6C59.0805 5.82 58.8239 5.57667 58.6372 5.27C58.4572 4.95667 58.3672 4.61 58.3672 4.23C58.3672 3.80333 58.4605 3.42333 58.6472 3.09C58.8339 2.75667 59.0939 2.49667 59.4272 2.31C59.7672 2.11667 60.1572 2.02 60.5972 2.02C61.0972 2.02 61.5239 2.13 61.8772 2.35C62.2372 2.56333 62.5105 2.88 62.6972 3.3C62.8905 3.71333 62.9872 4.22 62.9872 4.82C62.9872 5.33333 62.9272 5.81 62.8072 6.25C62.6872 6.69 62.5139 7.08667 62.2872 7.44C62.0672 7.78667 61.7972 8.08333 61.4772 8.33C61.1639 8.57667 60.8072 8.76667 60.4072 8.9C60.0139 9.02667 59.5839 9.09 59.1172 9.09ZM60.5772 5.18C60.8172 5.18 61.0205 5.14 61.1872 5.06C61.3605 4.97333 61.4905 4.85667 61.5772 4.71C61.6705 4.55667 61.7172 4.38667 61.7172 4.2C61.7172 3.98 61.6739 3.79333 61.5872 3.64C61.5072 3.48 61.3872 3.35667 61.2272 3.27C61.0739 3.18333 60.8772 3.14 60.6372 3.14C60.4039 3.14 60.2039 3.18333 60.0372 3.27C59.8772 3.35 59.7539 3.46667 59.6672 3.62C59.5872 3.77333 59.5472 3.95667 59.5472 4.17C59.5472 4.36333 59.5872 4.53667 59.6672 4.69C59.7539 4.84333 59.8739 4.96333 60.0272 5.05C60.1805 5.13667 60.3639 5.18 60.5772 5.18Z" fill="white"/>
<path d="M50.6903 9.01L50.5793 9.17652L50.5855 9.18033L50.6903 9.01ZM50.5303 8.79L50.3343 8.832L50.338 8.84494L50.5303 8.79ZM50.5003 6.96H50.7003V6.76H50.5003V6.96ZM47.1703 6.88L47.0563 7.04468L47.0655 7.05033L47.1703 6.88ZM47.0003 6.65L46.8043 6.692L46.808 6.70494L47.0003 6.65ZM46.9803 6.22L47.1765 6.25924L47.1776 6.25288L46.9803 6.22ZM47.0003 6.1L46.8077 6.04628L46.8048 6.05657L46.803 6.06712L47.0003 6.1ZM47.9903 2.55L48.1831 2.60377L48.1849 2.59609L47.9903 2.55ZM48.2403 2.1L48.1601 1.91677L48.1601 1.91677L48.2403 2.1ZM48.7303 2.1L48.7753 1.90509L48.7718 1.90435L48.7303 2.1ZM49.1203 2.3L48.9738 2.43609L48.9788 2.44152L48.9842 2.44656L49.1203 2.3ZM49.2103 2.64L49.4031 2.69379L49.4049 2.68632L49.2103 2.64ZM48.3203 5.83L48.1277 5.77625L48.0569 6.03H48.3203V5.83ZM50.5003 5.83V6.03H50.7003V5.83H50.5003ZM50.5303 2.38L50.3406 2.31675L50.3381 2.32404L50.3363 2.33149L50.5303 2.38ZM50.7003 2.18L50.601 2.00626L50.5955 2.00967L50.7003 2.18ZM51.5303 2.19L51.4163 2.35468L51.4255 2.36033L51.5303 2.19ZM51.6903 2.41L51.4947 2.45191L51.4954 2.45497L51.6903 2.41ZM51.6803 8.8L51.4876 8.74493L51.4848 8.75809L51.6803 8.8ZM51.5203 9.01L51.4253 8.83361L51.4155 8.83967L51.5203 9.01ZM51.1003 9.09V8.89C50.9243 8.89 50.8336 8.86332 50.7951 8.83967L50.6903 9.01L50.5855 9.18033C50.7204 9.26335 50.903 9.29 51.1003 9.29V9.09ZM50.6903 9.01L50.8013 8.84359C50.7612 8.81686 50.7364 8.78324 50.7226 8.73506L50.5303 8.79L50.338 8.84494C50.3776 8.98343 50.4595 9.09648 50.5794 9.17641L50.6903 9.01ZM50.5303 8.79L50.7259 8.74809C50.7093 8.67081 50.7003 8.58178 50.7003 8.48H50.5003H50.3003C50.3003 8.60488 50.3113 8.72252 50.3348 8.83191L50.5303 8.79ZM50.5003 8.48H50.7003V6.96H50.5003H50.3003V8.48H50.5003ZM50.5003 6.96V6.76H47.5803V6.96V7.16H50.5003V6.96ZM47.5803 6.96V6.76C47.4043 6.76 47.3136 6.73332 47.2751 6.70967L47.1703 6.88L47.0655 7.05033C47.2004 7.13335 47.383 7.16 47.5803 7.16V6.96ZM47.1703 6.88L47.2842 6.71556C47.232 6.67947 47.2055 6.63999 47.1926 6.59506L47.0003 6.65L46.808 6.70494C46.8485 6.84668 46.9353 6.96054 47.0565 7.04444L47.1703 6.88ZM47.0003 6.65L47.1959 6.60809C47.1791 6.53003 47.1703 6.4442 47.1703 6.35H46.9703H46.7703C46.7703 6.46913 46.7815 6.5833 46.8048 6.69191L47.0003 6.65ZM46.9703 6.35H47.1703C47.1703 6.30331 47.1734 6.27452 47.1764 6.25922L46.9803 6.22L46.7842 6.18078C46.7739 6.23215 46.7703 6.29002 46.7703 6.35H46.9703ZM46.9803 6.22L47.1776 6.25288C47.1843 6.21288 47.1909 6.17288 47.1976 6.13288L47.0003 6.1L46.803 6.06712C46.7964 6.10712 46.7897 6.14712 46.783 6.18712L46.9803 6.22ZM47.0003 6.1L47.193 6.15372L48.183 2.60372L47.9903 2.55L47.7977 2.49627L46.8077 6.04628L47.0003 6.1ZM47.9903 2.55L48.1849 2.59609C48.2126 2.47907 48.2432 2.39761 48.2726 2.34463C48.3027 2.29052 48.3223 2.28242 48.3205 2.28323L48.2403 2.1L48.1601 1.91677C48.0516 1.96424 47.9763 2.05447 47.923 2.15037C47.8691 2.24739 47.828 2.3676 47.7957 2.50391L47.9903 2.55ZM48.2403 2.1L48.3205 2.28323C48.367 2.2629 48.4774 2.25081 48.6888 2.29565L48.7303 2.1L48.7718 1.90435C48.5432 1.85585 48.327 1.84377 48.1601 1.91677L48.2403 2.1ZM48.7303 2.1L48.6853 2.29488C48.8346 2.32933 48.9231 2.38158 48.9738 2.43609L49.1203 2.3L49.2669 2.16391C49.1442 2.03175 48.9727 1.95067 48.7753 1.90512L48.7303 2.1ZM49.1203 2.3L48.9842 2.44656C49.0169 2.47693 49.035 2.5128 49.0158 2.59368L49.2103 2.64L49.4049 2.68632C49.4523 2.4872 49.4104 2.29641 49.2564 2.15344L49.1203 2.3ZM49.2103 2.64L49.0177 2.58625L48.1277 5.77625L48.3203 5.83L48.513 5.88375L49.403 2.69375L49.2103 2.64ZM48.3203 5.83V6.03H50.5003V5.83V5.63H48.3203V5.83ZM50.5003 5.83H50.7003V2.66H50.5003H50.3003V5.83H50.5003ZM50.5003 2.66H50.7003C50.7003 2.56518 50.7093 2.4888 50.7243 2.42851L50.5303 2.38L50.3363 2.33149C50.3114 2.4312 50.3003 2.54148 50.3003 2.66H50.5003ZM50.5303 2.38L50.72 2.44325C50.729 2.41654 50.7499 2.38435 50.8051 2.35033L50.7003 2.18L50.5955 2.00967C50.4774 2.08232 50.385 2.18346 50.3406 2.31675L50.5303 2.38ZM50.7003 2.18L50.7995 2.35365C50.8479 2.32603 50.9461 2.3 51.1203 2.3V2.1V1.9C50.9212 1.9 50.7394 1.9273 50.6011 2.00635L50.7003 2.18ZM51.1203 2.1V2.3C51.2938 2.3 51.3804 2.32945 51.4165 2.35444L51.5303 2.19L51.6442 2.02556C51.5069 1.93055 51.3201 1.9 51.1203 1.9V2.1ZM51.5303 2.19L51.4255 2.36033C51.4691 2.38715 51.487 2.41579 51.4948 2.45191L51.6903 2.41L51.8859 2.36809C51.8536 2.21754 51.7649 2.09951 51.6351 2.01967L51.5303 2.19ZM51.6903 2.41L51.4954 2.45497C51.5113 2.52352 51.5203 2.6079 51.5203 2.71H51.7203H51.9203C51.9203 2.58544 51.9094 2.46982 51.8852 2.36503L51.6903 2.41ZM51.7203 2.71H51.5203V8.5H51.7203H51.9203V2.71H51.7203ZM51.7203 8.5H51.5203C51.5203 8.5899 51.5091 8.67126 51.488 8.74506L51.6803 8.8L51.8726 8.85494C51.9049 8.74207 51.9203 8.62343 51.9203 8.5H51.7203ZM51.6803 8.8L51.4848 8.75809C51.4775 8.79207 51.4624 8.81404 51.4255 8.83391L51.5203 9.01L51.6151 9.18609C51.7516 9.11263 51.8432 8.9946 51.8759 8.84191L51.6803 8.8ZM51.5203 9.01L51.4155 8.83967C51.3778 8.86286 51.2846 8.89 51.1003 8.89V9.09V9.29C51.3027 9.29 51.4895 9.2638 51.6251 9.18033L51.5203 9.01ZM53.0691 9.48L52.977 9.65806L52.9895 9.66351L53.0691 9.48ZM52.7291 9.16L52.921 9.10356L52.92 9.10034L52.7291 9.16ZM52.8391 8.68L52.6605 8.59001L52.6602 8.59056L52.8391 8.68ZM56.1191 2.17L56.2977 2.25999L56.2979 2.25944L56.1191 2.17ZM56.3291 1.86L56.4629 2.00866L56.4636 2.00799L56.3291 1.86ZM56.5791 1.77L56.5648 1.96949L56.5719 1.97H56.5791V1.77ZM56.9191 1.87L56.8258 2.04713L56.8331 2.05057L56.9191 1.87ZM57.2091 2.08L57.0471 2.19776L57.0529 2.20494L57.2091 2.08ZM57.2691 2.33L57.4671 2.35828L57.4673 2.35643L57.2691 2.33ZM57.1391 2.69L57.3174 2.78054L57.3179 2.77944L57.1391 2.69ZM53.8491 9.17L53.6706 9.07937L53.667 9.08724L53.8491 9.17ZM53.5291 9.55L53.4726 9.35813L53.4656 9.36018L53.4588 9.36273L53.5291 9.55ZM53.0691 9.48L53.1609 9.30236C52.979 9.20822 52.9301 9.13476 52.9209 9.10357L52.7291 9.16L52.5372 9.21643C52.5947 9.4119 52.7725 9.55178 52.9772 9.65764L53.0691 9.48ZM52.7291 9.16L52.92 9.10034C52.9177 9.09305 52.9126 9.06527 52.9265 9.00467C52.9401 8.94544 52.9688 8.86768 53.0179 8.76944L52.8391 8.68L52.6602 8.59056C52.6026 8.70565 52.5597 8.81456 52.5366 8.91533C52.5138 9.01473 52.5071 9.12028 52.5382 9.21966L52.7291 9.16ZM52.8391 8.68L53.0177 8.76999L56.2977 2.25999L56.1191 2.17L55.9405 2.08001L52.6605 8.59001L52.8391 8.68ZM56.1191 2.17L56.2979 2.25944C56.3678 2.11975 56.4243 2.04333 56.4629 2.00866L56.3291 1.86L56.1953 1.71134C56.1005 1.79667 56.017 1.92691 55.9402 2.08056L56.1191 2.17ZM56.3291 1.86L56.4636 2.00799C56.4991 1.97567 56.5295 1.96697 56.5648 1.96949L56.5791 1.77L56.5933 1.57051C56.4419 1.55969 56.3056 1.61099 56.1945 1.71201L56.3291 1.86ZM56.5791 1.77V1.97C56.6356 1.97 56.7164 1.98933 56.8259 2.04698L56.9191 1.87L57.0122 1.69302C56.8684 1.61733 56.7225 1.57 56.5791 1.57V1.77ZM56.9191 1.87L56.8331 2.05057C56.9616 2.11179 57.0229 2.16411 57.0473 2.19763L57.2091 2.08L57.3708 1.96237C57.2885 1.84922 57.1565 1.76155 57.005 1.68943L56.9191 1.87ZM57.2091 2.08L57.0529 2.20494C57.066 2.22129 57.0784 2.24701 57.0708 2.30357L57.2691 2.33L57.4673 2.35643C57.4864 2.21299 57.4588 2.07205 57.3652 1.95506L57.2091 2.08ZM57.2691 2.33L57.0711 2.30171C57.0622 2.36365 57.0299 2.46112 56.9602 2.60056L57.1391 2.69L57.3179 2.77944C57.3949 2.62555 57.4492 2.48302 57.4671 2.35828L57.2691 2.33ZM57.1391 2.69L56.9607 2.59946L53.6707 9.07946L53.8491 9.17L54.0274 9.26054L57.3174 2.78054L57.1391 2.69ZM53.8491 9.17L53.667 9.08724C53.6214 9.18751 53.5786 9.25659 53.5411 9.30117C53.5033 9.34608 53.4793 9.35616 53.4726 9.35813L53.5291 9.55L53.5855 9.74187C53.6922 9.7105 53.7782 9.64059 53.847 9.55883C53.9162 9.47675 53.9767 9.37249 54.0311 9.25276L53.8491 9.17ZM53.5291 9.55L53.4588 9.36273C53.4292 9.37384 53.3394 9.37916 53.1486 9.29649L53.0691 9.48L52.9895 9.66351C53.1988 9.75417 53.4156 9.80616 53.5993 9.73727L53.5291 9.55ZM58.8372 9.05L58.8961 8.85857L58.8857 8.85597L58.8372 9.05ZM58.6372 8.89L58.4608 8.98498L58.4669 8.99482L58.6372 8.89ZM58.6472 8.08L58.4827 7.96614L58.4808 7.96906L58.6472 8.08ZM58.8772 7.92L58.9192 8.116L58.9321 8.1123L58.8772 7.92ZM60.0672 7.76L60.126 7.95118L60.129 7.95021L60.0672 7.76ZM60.7572 7.41L60.8781 7.56934L60.8789 7.56872L60.7572 7.41ZM61.2572 6.9L61.42 7.01626L61.4218 7.01355L61.2572 6.9ZM61.5572 6.3L61.7475 6.3614L61.7481 6.35965L61.5572 6.3ZM61.6672 5.67L61.6039 5.48026L61.4718 5.52432L61.4673 5.66355L61.6672 5.67ZM61.8172 5.62L62.0045 5.69022L62.1517 5.29769L61.7539 5.43026L61.8172 5.62ZM61.5672 5.93L61.4432 5.77297L61.4392 5.77636L61.5672 5.93ZM61.1172 6.18L61.1805 6.36984L61.1867 6.36755L61.1172 6.18ZM59.4072 6L59.5037 5.82483V5.82483L59.4072 6ZM58.6372 5.27L58.4637 5.36966L58.4663 5.37399L58.6372 5.27ZM58.6472 3.09L58.4727 2.99228V2.99228L58.6472 3.09ZM59.4272 2.31L59.5249 2.4845L59.526 2.48386L59.4272 2.31ZM61.8772 2.35L61.7715 2.51982L61.7752 2.52206L61.8772 2.35ZM62.6972 3.3L62.5144 3.38124L62.516 3.38474L62.6972 3.3ZM62.8072 6.25L63.0001 6.30262V6.30262L62.8072 6.25ZM62.2872 7.44L62.1188 7.33201L62.1183 7.33284L62.2872 7.44ZM61.4772 8.33L61.3551 8.17159L61.3535 8.17285L61.4772 8.33ZM60.4072 8.9L60.4685 9.09038L60.4704 9.08974L60.4072 8.9ZM61.1872 5.06L61.2737 5.24033L61.2766 5.23889L61.1872 5.06ZM61.5772 4.71L61.4063 4.606L61.405 4.60825L61.5772 4.71ZM61.5872 3.64L61.4081 3.72956L61.4131 3.73841L61.5872 3.64ZM61.2272 3.27L61.1288 3.44414L61.1319 3.44586L61.2272 3.27ZM60.0372 3.27L60.1266 3.44891L60.1295 3.44744L60.0372 3.27ZM59.6672 3.62L59.493 3.52153L59.4899 3.52749L59.6672 3.62ZM59.6672 4.69L59.4898 4.78257L59.4931 4.78841L59.6672 4.69ZM60.0272 5.05L59.9288 5.22411V5.22411L60.0272 5.05ZM59.1172 9.09V8.89C59.0351 8.89 58.9618 8.87908 58.896 8.85884L58.8372 9.05L58.7784 9.24116C58.8859 9.27425 58.9993 9.29 59.1172 9.29V9.09ZM58.8372 9.05L58.8857 8.85597C58.8677 8.85147 58.8402 8.83835 58.8075 8.78518L58.6372 8.89L58.4669 8.99482C58.5408 9.11499 58.6467 9.20853 58.7887 9.24403L58.8372 9.05ZM58.6372 8.89L58.8133 8.79518C58.7909 8.75358 58.7672 8.65827 58.7672 8.48H58.5672H58.3672C58.3672 8.67507 58.3902 8.85309 58.4611 8.98482L58.6372 8.89ZM58.5672 8.48H58.7672C58.7672 8.30165 58.7947 8.2193 58.8136 8.19094L58.6472 8.08L58.4808 7.96906C58.393 8.1007 58.3672 8.28501 58.3672 8.48H58.5672ZM58.6472 8.08L58.8116 8.19384C58.8459 8.14427 58.8809 8.12375 58.9191 8.11556L58.8772 7.92L58.8353 7.72444C58.6868 7.75625 58.5684 7.8424 58.4827 7.96616L58.6472 8.08ZM58.8772 7.92L58.9321 8.1123C59.0049 8.09151 59.0894 8.08 59.1872 8.08V7.88V7.68C59.0583 7.68 58.9361 7.69515 58.8222 7.7277L58.8772 7.92ZM59.1872 7.88V8.08C59.5299 8.08 59.8436 8.03806 60.126 7.95116L60.0672 7.76L60.0084 7.56884C59.7708 7.64194 59.4978 7.68 59.1872 7.68V7.88ZM60.0672 7.76L60.129 7.95021C60.4137 7.85768 60.6644 7.73144 60.8781 7.56934L60.7572 7.41L60.6363 7.25066C60.4633 7.38189 60.254 7.48899 60.0054 7.56979L60.0672 7.76ZM60.7572 7.41L60.8789 7.56872C61.0931 7.40452 61.274 7.22053 61.4199 7.01625L61.2572 6.9L61.0944 6.78375C60.9737 6.9528 60.8213 7.10881 60.6355 7.25128L60.7572 7.41ZM61.2572 6.9L61.4218 7.01355C61.5653 6.80548 61.6744 6.58805 61.7475 6.3614L61.5572 6.3L61.3668 6.2386C61.3066 6.42528 61.2157 6.60786 61.0925 6.78645L61.2572 6.9ZM61.5572 6.3L61.7481 6.35965C61.8197 6.13046 61.8598 5.90257 61.8671 5.67645L61.6672 5.67L61.4673 5.66355C61.4613 5.85076 61.428 6.04287 61.3663 6.24035L61.5572 6.3ZM61.6672 5.67L61.7304 5.85974L61.8804 5.80974L61.8172 5.62L61.7539 5.43026L61.6039 5.48026L61.6672 5.67ZM61.8172 5.62L61.6299 5.54978C61.607 5.61092 61.5526 5.68668 61.4433 5.77302L61.5672 5.93L61.6911 6.08698C61.8351 5.97332 61.9474 5.84241 62.0045 5.69022L61.8172 5.62ZM61.5672 5.93L61.4392 5.77636C61.3401 5.85891 61.2111 5.93193 61.0477 5.99245L61.1172 6.18L61.1867 6.36755C61.3833 6.29473 61.5543 6.20109 61.6952 6.08364L61.5672 5.93ZM61.1172 6.18L61.0539 5.99026C60.8973 6.04248 60.719 6.07 60.5172 6.07V6.27V6.47C60.7553 6.47 60.9771 6.43752 61.1804 6.36974L61.1172 6.18ZM60.5172 6.27V6.07C60.1339 6.07 59.7977 5.98683 59.5037 5.82483L59.4072 6L59.3107 6.17517C59.67 6.37317 60.0738 6.47 60.5172 6.47V6.27ZM59.4072 6L59.5037 5.82483C59.2064 5.66099 58.9758 5.44169 58.808 5.16601L58.6372 5.27L58.4663 5.37399C58.6719 5.71164 58.9547 5.97901 59.3107 6.17517L59.4072 6ZM58.6372 5.27L58.8106 5.17037C58.6489 4.88894 58.5672 4.57691 58.5672 4.23H58.3672H58.1672C58.1672 4.64309 58.2654 5.02439 58.4638 5.36962L58.6372 5.27ZM58.3672 4.23H58.5672C58.5672 3.83347 58.6536 3.48783 58.8217 3.18772L58.6472 3.09L58.4727 2.99228C58.2674 3.35883 58.1672 3.77319 58.1672 4.23H58.3672ZM58.6472 3.09L58.8217 3.18772C58.9903 2.88657 59.2238 2.65314 59.5249 2.4845L59.4272 2.31L59.3295 2.1355C58.964 2.34019 58.6774 2.62676 58.4727 2.99228L58.6472 3.09ZM59.4272 2.31L59.526 2.48386C59.8323 2.30972 60.1874 2.22 60.5972 2.22V2.02V1.82C60.1269 1.82 59.7021 1.92362 59.3283 2.13614L59.4272 2.31ZM60.5972 2.02V2.22C61.0674 2.22 61.4557 2.32319 61.7715 2.51978L61.8772 2.35L61.9829 2.18022C61.592 1.93681 61.127 1.82 60.5972 1.82V2.02ZM61.8772 2.35L61.7752 2.52206C62.096 2.71215 62.3429 2.99524 62.5144 3.38123L62.6972 3.3L62.88 3.21877C62.6782 2.76476 62.3784 2.41452 61.9791 2.17794L61.8772 2.35ZM62.6972 3.3L62.516 3.38474C62.6937 3.76457 62.7872 4.24047 62.7872 4.82H62.9872H63.1872C63.1872 4.19953 63.0874 3.66209 62.8784 3.21526L62.6972 3.3ZM62.9872 4.82H62.7872C62.7872 5.31775 62.729 5.77652 62.6142 6.19738L62.8072 6.25L63.0001 6.30262C63.1254 5.84348 63.1872 5.34892 63.1872 4.82H62.9872ZM62.8072 6.25L62.6142 6.19738C62.4991 6.61946 62.3336 6.99719 62.1189 7.33201L62.2872 7.44L62.4555 7.54799C62.6941 7.17615 62.8753 6.76054 63.0001 6.30262L62.8072 6.25ZM62.2872 7.44L62.1183 7.33284C61.9106 7.66015 61.6563 7.93939 61.3551 8.1716L61.4772 8.33L61.5993 8.4884C61.938 8.22728 62.2238 7.91318 62.4561 7.54716L62.2872 7.44ZM61.4772 8.33L61.3535 8.17285C61.0593 8.40445 60.7233 8.5838 60.3439 8.71026L60.4072 8.9L60.4704 9.08974C60.8911 8.94953 61.2684 8.74889 61.6009 8.48715L61.4772 8.33ZM60.4072 8.9L60.3459 8.70963C59.9747 8.82915 59.5657 8.89 59.1172 8.89V9.09V9.29C59.602 9.29 60.053 9.22418 60.4685 9.09037L60.4072 8.9ZM60.5772 5.18V5.38C60.8386 5.38 61.0733 5.33654 61.2737 5.2403L61.1872 5.06L61.1006 4.87969C60.9678 4.94346 60.7958 4.98 60.5772 4.98V5.18ZM61.1872 5.06L61.2766 5.23889C61.4795 5.13744 61.6405 4.99595 61.7494 4.81175L61.5772 4.71L61.405 4.60825C61.3405 4.71739 61.2415 4.80923 61.0977 4.88111L61.1872 5.06ZM61.5772 4.71L61.748 4.81399C61.8612 4.62804 61.9172 4.42181 61.9172 4.2H61.7172H61.5172C61.5172 4.35152 61.4798 4.48529 61.4063 4.60601L61.5772 4.71ZM61.7172 4.2H61.9172C61.9172 3.95399 61.8687 3.73155 61.7613 3.54159L61.5872 3.64L61.4131 3.73841C61.479 3.85512 61.5172 4.00601 61.5172 4.2H61.7172ZM61.5872 3.64L61.7661 3.55056C61.6674 3.35319 61.5179 3.19999 61.3224 3.09414L61.2272 3.27L61.1319 3.44586C61.2565 3.51334 61.347 3.60681 61.4083 3.72944L61.5872 3.64ZM61.2272 3.27L61.3256 3.09589C61.1333 2.9872 60.8997 2.94 60.6372 2.94V3.14V3.34C60.8547 3.34 61.0144 3.37947 61.1288 3.44411L61.2272 3.27ZM60.6372 3.14V2.94C60.3794 2.94 60.1462 2.98791 59.9449 3.09256L60.0372 3.27L60.1295 3.44744C60.2615 3.37876 60.4283 3.34 60.6372 3.34V3.14ZM60.0372 3.27L59.9477 3.09111C59.7527 3.18862 59.5997 3.33303 59.4931 3.52159L59.6672 3.62L59.8413 3.71841C59.9081 3.6003 60.0016 3.51138 60.1266 3.44889L60.0372 3.27ZM59.6672 3.62L59.4899 3.52749C59.3919 3.71529 59.3472 3.93186 59.3472 4.17H59.5472H59.7472C59.7472 3.98148 59.7825 3.83137 59.8445 3.71251L59.6672 3.62ZM59.5472 4.17H59.3472C59.3472 4.3917 59.3933 4.59739 59.4899 4.78251L59.6672 4.69L59.8445 4.59749C59.7811 4.47594 59.7472 4.33497 59.7472 4.17H59.5472ZM59.6672 4.69L59.4931 4.78841C59.5976 4.97339 59.7438 5.11956 59.9288 5.22411L60.0272 5.05L60.1256 4.87589C60.0039 4.80711 59.9101 4.71328 59.8413 4.59159L59.6672 4.69ZM60.0272 5.05L59.9288 5.22411C60.1179 5.33099 60.3366 5.38 60.5772 5.38V5.18V4.98C60.3911 4.98 60.2432 4.94234 60.1256 4.87589L60.0272 5.05Z" fill="black" mask="url(#path-3-outside-1_83_349)"/>
</g>
<defs>
<filter id="filter0_d_83_349" x="0" y="0" width="111" height="19" filterUnits="userSpaceOnUse" color-interpolation-filters="sRGB">
<feFlood flood-opacity="0" result="BackgroundImageFix"/>
<feColorMatrix in="SourceAlpha" type="matrix" values="0 0 0 0 0 0 0 0 0 0 0 0 0 0 0 0 0 0 127 0" result="hardAlpha"/>
<feOffset dy="4"/>
<feGaussianBlur stdDeviation="2"/>
<feComposite in2="hardAlpha" operator="out"/>
<feColorMatrix type="matrix" values="0 0 0 0 0 0 0 0 0 0 0 0 0 0 0 0 0 0 0.25 0"/>
<feBlend mode="normal" in2="BackgroundImageFix" result="effect1_dropShadow_83_349"/>
<feBlend mode="normal" in="SourceGraphic" in2="effect1_dropShadow_83_349" result="shape"/>
</filter>
<linearGradient id="paint0_linear_83_349" x1="6" y1="6.92707" x2="50.0585" y2="6.92707" gradientUnits="userSpaceOnUse">
<stop stop-color="#FDAD42"/>
<stop offset="1" stop-color="#FFDC4A"/>
</linearGradient>
</defs>
</svg>
